<svg width="34" height="22" viewBox="0 0 34 22" fill="none" xmlns="http://www.w3.org/2000/svg">
<path d="M33.333 7.16156C29.5824 5.62573 30.0219 3.29197 26.9843 1.12854C26.7734 0.978333 26.4858 1.12123 26.4636 1.38264C26.4247 1.84045 26.2897 2.29671 26.05 2.72032L21.7056 10.3941C21.6234 10.5393 21.6588 10.7228 21.7867 10.8282C23.9836 12.639 23.9721 15.0969 28.2063 16.8298C28.7057 17.0336 29.2617 16.8269 29.5225 16.3659L33.8575 8.70905C34.1799 8.13963 33.9342 7.40821 33.333 7.16156Z" fill="#1722C6"/>
<path d="M23.8208 0.156575C23.3126 -0.142628 22.6628 0.0348758 22.3694 0.553164L17.0032 10.0318L11.6307 0.54199C11.3373 0.0236341 10.6875 -0.15387 10.1793 0.145401C9.67119 0.444671 9.49707 1.10735 9.79045 1.62557L15.7764 12.199L11.148 20.3745C10.8546 20.8928 11.0287 21.5555 11.5368 21.8547C11.7042 21.9532 11.8869 22 12.0671 22C12.4343 22 12.7914 21.8056 12.9882 21.4581L17.0032 14.3661L21.0118 21.4469C21.2087 21.7945 21.5658 21.9888 21.933 21.9888C22.1133 21.9888 22.2959 21.942 22.4632 21.8435C22.9714 21.5443 23.1455 20.8815 22.8521 20.3633L18.23 12.199L24.2096 1.63674C24.5031 1.11845 24.3289 0.455778 23.8208 0.156575Z" fill="#1722C6"/>
<path d="M0.667019 7.15032C4.41757 5.61449 3.97809 3.28073 7.01569 1.1173C7.2266 0.967091 7.51414 1.10999 7.53639 1.3714C7.5753 1.82921 7.71024 2.28547 7.95004 2.70908L12.2944 10.3828C12.3766 10.528 12.3412 10.7116 12.2133 10.8169C10.0164 12.6277 10.0279 15.0856 5.79373 16.8185C5.29428 17.0223 4.73825 16.8156 4.47754 16.3546L0.142401 8.69781C-0.179807 8.12839 0.0658334 7.39704 0.667019 7.15032Z" fill="#1722C6"/>
</svg>
