<svg width="24" height="24" viewBox="0 0 24 24" fill="none" xmlns="http://www.w3.org/2000/svg">
<path d="M23.4301 8.30851C23.6814 8.34841 23.8883 8.52296 23.9671 8.76733C24.0459 9.01169 23.9818 9.281 23.7897 9.46053L18.391 14.8217L19.6865 22.3273C19.7013 22.3771 19.7062 22.427 19.7062 22.4819C19.7062 22.8509 19.4057 23.1551 19.0412 23.1551C18.9377 23.1551 18.8343 23.1302 18.7358 23.0803L12.0317 19.5345L5.34724 23.1202C5.24872 23.1751 5.14528 23.2 5.03691 23.2C4.89898 23.2 4.76106 23.1551 4.64776 23.0703C4.44088 22.9207 4.33743 22.6664 4.38177 22.412L5.63787 14.8616L0.204618 9.53035C0.0223603 9.3558 -0.046602 9.0865 0.0322121 8.84213C0.111026 8.59776 0.317913 8.42322 0.569133 8.38332L8.05647 7.25623L11.3814 0.37902C11.4947 0.144626 11.7263 0 11.9775 0C12.2287 0 12.4602 0.144626 12.5735 0.374033L15.9428 7.2313L23.4301 8.30851Z" fill="#1722C6"/>
</svg>
