<svg width="17" height="31" viewBox="0 0 17 31" fill="none" xmlns="http://www.w3.org/2000/svg">
<path d="M16.7338 12.3703C16.8515 12.1703 16.7074 11.9181 16.4753 11.9181H10.3508C10.1658 11.9181 10.0249 11.7523 10.0547 11.5698L11.7313 1.31275C11.7829 0.99711 11.3707 0.830621 11.1886 1.09356L0.326026 16.7796C0.188242 16.9786 0.330645 17.2504 0.572661 17.2504H6.76665C6.94778 17.2504 7.08761 17.4097 7.06411 17.5893L5.37009 30.5399C5.32771 30.8638 5.76035 31.0125 5.92609 30.731L16.7338 12.3703ZM2.59199 16.184C2.34997 16.184 2.20757 15.9121 2.34535 15.7132L9.40412 5.52C9.58621 5.25706 9.99843 5.42356 9.94682 5.73921L8.81906 12.6362C8.78921 12.8188 8.93012 12.9846 9.11513 12.9846H14.6276C14.8596 12.9846 15.0038 13.2368 14.8861 13.4368L7.63199 25.7604C7.46625 26.0419 7.03362 25.8932 7.07598 25.5693L8.25898 16.5229C8.28247 16.3433 8.14265 16.184 7.96151 16.184H2.59199Z" fill="#1722C6"/>
<path d="M2.59199 16.184C2.34997 16.184 2.20757 15.9121 2.34535 15.7132L9.40412 5.52C9.58621 5.25706 9.99843 5.42356 9.94682 5.73921L8.81906 12.6362C8.78921 12.8188 8.93012 12.9846 9.11513 12.9846H14.6276C14.8596 12.9846 15.0038 13.2368 14.8861 13.4368L7.63199 25.7604C7.46625 26.0419 7.03362 25.8932 7.07598 25.5693L8.25898 16.5229C8.28247 16.3433 8.14265 16.184 7.96151 16.184H2.59199Z" fill="#1722C6"/>
</svg>
