<svg width="30" height="24" viewBox="0 0 30 24" fill="none" xmlns="http://www.w3.org/2000/svg">
<path d="M25.6694 12.9571H23.3493C23.5858 13.5678 23.715 14.2267 23.715 14.9135V23.1831C23.715 23.4694 23.6621 23.7443 23.566 23.9999H27.4016C28.8344 23.9999 30 22.9006 30 21.5494V17.0413C30.0001 14.7893 28.0573 12.9571 25.6694 12.9571Z" fill="#1722C6"/>
<path d="M6.28507 14.9136C6.28507 14.2267 6.41427 13.5678 6.65075 12.9572H4.33067C1.94274 12.9572 0 14.7894 0 17.0414V21.5495C0 22.9007 1.16561 24 2.5984 24H6.43407C6.33792 23.7443 6.28507 23.4695 6.28507 23.1831V14.9136Z" fill="#1722C6"/>
<path d="M17.652 10.8294H12.348C9.96008 10.8294 8.01734 12.6616 8.01734 14.9136V23.1831C8.01734 23.6342 8.40511 23.9999 8.88347 23.9999H21.1166C21.5949 23.9999 21.9827 23.6342 21.9827 23.1831V14.9136C21.9827 12.6616 20.04 10.8294 17.652 10.8294Z" fill="#1722C6"/>
<path d="M15 0C12.1282 0 9.79185 2.2034 9.79185 4.91181C9.79185 6.7489 10.867 8.35334 12.4548 9.19571C13.2079 9.59524 14.0761 9.82357 15 9.82357C15.9239 9.82357 16.7922 9.59524 17.5453 9.19571C19.1331 8.35334 20.2082 6.74884 20.2082 4.91181C20.2082 2.20345 17.8718 0 15 0Z" fill="#1722C6"/>
<path d="M5.85458 4.57816C3.70682 4.57816 1.95955 6.22598 1.95955 8.2515C1.95955 10.277 3.70682 11.9248 5.85458 11.9248C6.39939 11.9248 6.91818 11.8184 7.38945 11.6271C8.20425 11.2963 8.87609 10.7106 9.29182 9.97708C9.58361 9.46223 9.74961 8.87488 9.74961 8.2515C9.74961 6.22604 8.00234 4.57816 5.85458 4.57816Z" fill="#1722C6"/>
<path d="M24.1455 4.57816C21.9977 4.57816 20.2505 6.22598 20.2505 8.2515C20.2505 8.87494 20.4164 9.46228 20.7082 9.97708C21.124 10.7107 21.7958 11.2963 22.6106 11.6271C23.0819 11.8184 23.6007 11.9248 24.1455 11.9248C26.2932 11.9248 28.0405 10.277 28.0405 8.2515C28.0405 6.22598 26.2932 4.57816 24.1455 4.57816Z" fill="#1722C6"/>
</svg>
