<svg xmlns="http://www.w3.org/2000/svg" viewBox="0 0 32 32" fill="#fff">
    <path
        d="M16 0c-8.821 0-16 7.179-16 16s7.179 16 16 16 16-7.179 16-16-7.179-16-16-16zM16 2.667c0.524 0 1.067 0.217 1.689 0.795 0.619 0.576 1.262 1.508 1.812 2.72 0.249 0.549 0.476 1.164 0.684 1.819h-8.37c0.208-0.654 0.434-1.269 0.684-1.82 0.551-1.211 1.191-2.142 1.813-2.72 0.62-0.574 1.163-0.793 1.687-0.793zM10.784 3.724c-0.251 0.427-0.492 0.871-0.711 1.353-0.404 0.889-0.748 1.874-1.042 2.923h-3.691c1.401-1.859 3.236-3.319 5.358-4.242l0.086-0.033zM21.216 3.724c2.208 0.957 4.043 2.417 5.419 4.242l0.024 0.034h-3.691c-0.314-1.145-0.67-2.117-1.094-3.050l0.052 0.127c-0.252-0.546-0.489-0.99-0.748-1.419l0.037 0.066zM3.778 10.667h4.663c-0.215 1.269-0.356 2.606-0.409 4h-5.3c0.139-1.412 0.503-2.756 1.045-4zM11.15 10.667h9.7c0.233 1.246 0.391 2.59 0.452 4h-10.603c0.060-1.41 0.219-2.754 0.452-4zM23.559 10.667h4.663c0.542 1.244 0.907 2.588 1.045 4h-5.298c-0.055-1.394-0.196-2.731-0.409-4zM2.732 17.333h5.298c0.055 1.394 0.196 2.731 0.409 4h-4.66c-0.525-1.168-0.895-2.522-1.041-3.943l-0.005-0.057zM10.697 17.333h10.604c-0.062 1.461-0.224 2.836-0.48 4.178l0.028-0.178h-9.7c-0.228-1.164-0.389-2.539-0.45-3.941l-0.002-0.059zM23.968 17.333h5.3c-0.151 1.478-0.521 2.832-1.079 4.084l0.034-0.084h-4.663c0.215-1.269 0.356-2.606 0.409-4zM5.34 24h3.691c0.293 1.049 0.638 2.034 1.042 2.923 0.219 0.48 0.46 0.924 0.711 1.353-2.208-0.957-4.043-2.417-5.419-4.242l-0.024-0.034zM11.815 24h8.37c-0.229 0.736-0.461 1.339-0.727 1.924l0.042-0.104c-0.551 1.211-1.191 2.142-1.813 2.72-0.62 0.576-1.163 0.793-1.687 0.793s-1.067-0.217-1.689-0.795c-0.619-0.576-1.262-1.508-1.812-2.72-0.223-0.481-0.456-1.083-0.652-1.702l-0.032-0.117zM22.969 24h3.691c-1.401 1.859-3.236 3.319-5.358 4.242l-0.086 0.033c0.251-0.427 0.492-0.871 0.711-1.353 0.404-0.889 0.748-1.874 1.042-2.923z"
        fill="inherit"></path>
</svg>