<svg width="192" height="50" viewBox="0 0 192 50" fill="none" xmlns="http://www.w3.org/2000/svg">
<path d="M77.4193 14.5791V3.22585C77.4193 3.22585 72.9855 1.02761 64 0.129522C53.6774 -0.902098 45.4194 4.25748 45.4194 14.5806C45.4194 30.0618 70.7116 29.0286 67.0968 36.2549C64 42.4455 48.6682 34.763 44.3871 33.1571V45.5424C44.3871 45.5424 56.7742 49.6713 64 49.6713C67.0968 49.6713 77.4193 47.6061 79.4839 36.2549C82.3209 20.6562 54.7097 17.6754 57.8064 12.5163C60.9032 7.35728 73.3295 12.2324 77.4193 14.5791Z" fill="#262A4B"/>
<path d="M88.7742 48.6402V0.129522H120.774V10.4521H100.129V19.7411H116.645V30.0622H100.129V48.6402H88.7742Z" fill="#262A4B"/>
<path d="M145.548 33.1567L135.226 48.6402H121.806L138.323 23.8677L121.806 0.129122H135.226L145.548 14.5787L155.871 0.129122L169.29 0.129522L152.774 23.8677L169.29 48.6402H155.871L145.548 33.1567Z" fill="#262A4B"/>
<path fill-rule="evenodd" clip-rule="evenodd" d="M0 48.6402V0.129522H23.7419C23.7419 0.129522 37.1613 1.16163 37.1613 12.5148C37.1613 21.8038 30.9677 22.836 30.9677 22.836C30.9677 22.836 38.1935 22.8359 38.1935 35.2213C38.1935 46.5745 23.7419 48.6402 23.7419 48.6402H0ZM12.3871 10.4506V17.6754H20.6452C20.6452 17.6754 23.7419 17.6754 23.7419 14.063C23.7419 10.4506 20.6452 10.4506 20.6452 10.4506H12.3871ZM12.3871 37.2855V29.0286H20.6452C20.6452 29.0286 24.7742 29.0286 24.7742 33.1571C24.7742 37.2855 20.6452 37.2855 20.6452 37.2855H12.3871Z" fill="#262A4B"/>
<path d="M173.42 32.125H192.001V48.6388H173.42V32.125Z" fill="#1722C6"/>
</svg>
