<svg viewBox="0 0 195 156" fill="none"
  xmlns="http://www.w3.org/2000/svg">
  <g class="label">
    <path d="M79.4838 93.9228V82.5696C79.4838 82.5696 75.0499 80.3714 66.0645 79.4733C55.7419 78.4417 47.4838 83.6012 47.4838 93.9244C47.4838 109.406 72.776 108.372 69.1612 115.599C66.0645 121.789 50.7327 114.107 46.4515 112.501V124.886C46.4515 124.886 58.8386 129.015 66.0645 129.015C69.1612 129.015 79.4838 126.95 81.5483 115.599C84.3854 100 56.7741 97.0192 59.8709 91.8601C62.9677 86.701 75.3939 91.5761 79.4838 93.9228Z" fill="inherit"/>
    <path d="M90.8386 127.984V79.4733H122.839V89.7959H102.193V99.0849H118.71V109.406H102.193V127.984H90.8386Z" fill="inherit"/>
    <path d="M147.613 112.5L137.29 127.984H123.871L140.387 103.211L123.871 79.4729H137.29L147.613 93.9224L157.935 79.4729L171.355 79.4733L154.839 103.211L171.355 127.984H157.935L147.613 112.5Z" fill="inherit"/>
    <path fill-rule="evenodd" clip-rule="evenodd" d="M2.06445 127.984V79.4733H25.8064C25.8064 79.4733 39.2257 80.5054 39.2257 91.8586C39.2257 101.148 33.0322 102.18 33.0322 102.18C33.0322 102.18 40.258 102.18 40.258 114.565C40.258 125.918 25.8064 127.984 25.8064 127.984H2.06445ZM14.4515 89.7944V97.0192H22.7096C22.7096 97.0192 25.8064 97.0191 25.8064 93.4068C25.8064 89.7944 22.7096 89.7944 22.7096 89.7944H14.4515ZM14.4515 116.629V108.372H22.7096C22.7096 108.372 26.8386 108.372 26.8386 112.501C26.8386 116.629 22.7096 116.629 22.7096 116.629H14.4515Z" fill="inherit"/>
  </g>
  <path d="M75.3555 26.834C77.42 26.834 81.549 28.8982 85.678 30.9625C88.1602 32.2033 89.8071 30.9625 89.8071 30.9625C89.8071 30.9625 85.4659 27.6686 85.678 24.7698C85.8096 22.972 86.7103 21.6735 87.7426 20.6414C88.7748 19.6092 89.8071 19.6092 91.8716 15.4808C91.8716 17.545 90.8751 18.8535 89.8071 21.6735C88.579 24.916 97.0329 28.8982 97.0329 28.8982H102.194C102.194 28.8982 104.033 27.1882 103.226 24.7698L101.162 18.5771C101.162 18.5771 102 20 103.226 21.6735C103.591 22.2179 104.981 23.5 105.291 24.7698C105.769 26.7277 105.291 29.9304 105.291 29.9304C105.291 29.9304 107 31 110 31C108.5 32 107.355 31.9946 107.355 31.9946C107.355 31.9946 109.761 32.7806 110.452 34.0588C108.388 33.0267 105.291 33.0267 105.291 33.0267C105.291 33.0267 109.5 34.9358 109.5 37C109.5 38.3449 107.355 38.1872 106.323 38.1872C106.323 38.1872 107.197 41.0509 107.355 42.3157C107.61 44.355 106.323 47.4762 106.323 47.4762C106.323 47.4762 107.355 55.7331 107.355 56.7652C107.355 57.7973 103.226 59.8616 101.162 59.8616C100.13 59.8616 98 56 97.0329 54.701C92.5 53 90.8393 49.5405 90.8393 49.5405C90.8393 49.5405 88.7192 55.5057 86.7103 60.8937C84.8793 65.8047 82.8324 70.4625 81.5 70C80.3411 69.5977 79.4845 68.1185 79.4845 68.1185L73.291 74.3111L108.388 59.8616L113.549 74.3111L144.517 7.22392L76.3877 1.03125L85.678 11.3524C85.678 11.3524 67.9337 30.3128 54.7103 40.2515C39.1227 51.967 11.3555 65.0221 11.3555 65.0221C11.3555 65.0221 36.7454 57.7973 52.6458 49.5405C60.9039 45.412 65.0329 43.1414 68.1297 41.2836C75.3555 36.9487 74.3232 51.6047 74.3232 51.6047L73.291 74.3111C75.0428 68.0403 79.4845 41.2836 73.291 38.1872C70.1942 36.123 66.0651 40.7675 52.6458 47.9923C44.3877 52.6368 27.5206 59.8616 27.5206 59.8616C27.5206 59.8616 43.2857 50.9026 52.6458 44.3799C68.1297 34.0588 73.291 26.834 75.3555 26.834Z" fill="inherit"/>
  <path d="M99.0974 41.2836L101.162 45.412C101.162 45.412 99.6382 45.1009 99.0974 44.3799C98.3718 43.4126 99.0974 41.2836 99.0974 41.2836Z" fill="inherit"/>
  <path d="M175.484 111.469H194.065V127.983H175.484V111.469Z" fill="inherit"/>
  <path d="M2 150.775H8.22768C12.3009 150.775 13.9841 148.754 13.9841 146.117C13.9841 143.343 12.0989 141.836 10.5168 141.733V141.562C11.9979 141.151 13.3108 140.158 13.3108 137.897C13.3108 135.329 11.6277 133.24 8.0257 133.24H2V150.775ZM4.08711 148.891V142.795H8.32867C10.5841 142.795 11.9979 144.336 11.9979 146.117C11.9979 147.658 10.9544 148.891 8.22768 148.891H4.08711ZM4.08711 140.946V135.123H8.0257C10.3148 135.123 11.3247 136.356 11.3247 137.897C11.3247 139.747 9.84351 140.946 7.95837 140.946H4.08711Z" fill="inherit"/>
  <path d="M19.1303 133.24H17.1442V150.775H19.1303V133.24Z" fill="inherit"/>
  <path d="M30.9145 145.398C30.9145 147.864 29.063 148.994 27.5819 148.994C25.9324 148.994 24.7542 147.761 24.7542 145.843V137.623H22.768V145.98C22.768 149.336 24.5185 150.946 26.9423 150.946C28.8947 150.946 30.1739 149.884 30.7799 148.549H30.9145V150.775H32.9006V137.623H30.9145V145.398Z" fill="inherit"/>
  <path d="M41.9581 151.049C44.5839 151.049 46.5027 149.713 47.1086 147.727L45.1898 147.179C44.6848 148.549 43.515 149.234 41.9581 149.234C39.627 149.234 38.0195 147.701 37.927 144.884H47.3106V144.028C47.3106 139.13 44.4492 137.452 41.7561 137.452C38.2552 137.452 35.9324 140.261 35.9324 144.302C35.9324 148.343 38.2215 151.049 41.9581 151.049ZM37.927 143.137C38.0616 141.091 39.4839 139.267 41.7561 139.267C43.9106 139.267 45.2908 140.911 45.2908 143.137H37.927Z" fill="inherit"/>
  <path d="M66.6921 137.623H68.7119C68.6193 134.978 66.2208 133 62.8882 133C59.5892 133 56.9971 134.952 56.9971 137.897C56.9971 140.261 58.6803 141.665 61.3733 142.452L63.4941 143.069C65.3119 143.583 66.9278 144.233 66.9278 145.98C66.9278 147.898 65.1099 149.165 62.7199 149.165C60.6664 149.165 58.8486 148.24 58.6803 146.254H56.5258C56.7278 149.131 59.0169 151.083 62.7199 151.083C66.6921 151.083 68.9475 148.857 68.9475 146.014C68.9475 142.726 65.8842 141.665 64.1001 141.185L62.3496 140.706C61.0704 140.363 59.0169 139.678 59.0169 137.795C59.0169 136.117 60.5318 134.884 62.8209 134.884C64.908 134.884 66.4901 135.894 66.6921 137.623Z" fill="inherit"/>
  <path d="M82.9156 155.706V137.623H80.9968V139.713H80.7612C80.3236 139.028 79.5493 137.452 77.0246 137.452C73.7593 137.452 71.5038 140.089 71.5038 144.233C71.5038 148.412 73.7593 151.049 76.9909 151.049C79.482 151.049 80.3236 149.473 80.7612 148.754H80.9295V155.706H82.9156ZM80.9632 144.199C80.9632 147.179 79.6503 149.234 77.2602 149.234C74.7692 149.234 73.49 147.007 73.49 144.199C73.49 141.425 74.7355 139.267 77.2602 139.267C79.684 139.267 80.9632 141.254 80.9632 144.199Z" fill="inherit"/>
  <path d="M94.6977 145.398C94.6977 147.864 92.8463 148.994 91.3651 148.994C89.7156 148.994 88.5374 147.761 88.5374 145.843V137.623H86.5513V145.98C86.5513 149.336 88.3017 150.946 90.7255 150.946C92.6779 150.946 93.9571 149.884 94.5631 148.549H94.6977V150.775H96.6839V137.623H94.6977V145.398Z" fill="inherit"/>
  <path d="M104.126 151.083C106.381 151.083 107.559 149.85 107.963 148.994H108.064V150.775H110.05V142.11C110.05 137.932 106.92 137.452 105.27 137.452C103.318 137.452 101.096 138.137 100.086 140.535L101.971 141.22C102.409 140.261 103.444 139.233 105.337 139.233C107.164 139.233 108.064 140.218 108.064 141.904V141.973C108.064 142.949 107.088 142.863 104.731 143.172C102.333 143.488 99.7156 144.028 99.7156 147.042C99.7156 149.61 101.668 151.083 104.126 151.083ZM104.428 149.268C102.846 149.268 101.702 148.549 101.702 147.144C101.702 145.603 103.082 145.124 104.63 144.918C105.472 144.816 107.727 144.576 108.064 144.165V146.014C108.064 147.658 106.785 149.268 104.428 149.268Z" fill="inherit"/>
  <path d="M113.675 150.775H115.661V142.452C115.661 140.672 117.042 139.37 118.927 139.37C119.457 139.37 120.004 139.473 120.139 139.507V137.452C119.911 137.435 119.39 137.418 119.095 137.418C117.547 137.418 116.2 138.308 115.729 139.61H115.594V137.623H113.675V150.775Z" fill="inherit"/>
  <path d="M127.519 151.049C130.145 151.049 132.064 149.713 132.67 147.727L130.751 147.179C130.246 148.549 129.076 149.234 127.519 149.234C125.188 149.234 123.581 147.701 123.488 144.884H132.872V144.028C132.872 139.13 130.01 137.452 127.317 137.452C123.816 137.452 121.494 140.261 121.494 144.302C121.494 148.343 123.783 151.049 127.519 151.049ZM123.488 143.137C123.623 141.091 125.045 139.267 127.317 139.267C129.472 139.267 130.852 140.911 130.852 143.137H123.488Z" fill="inherit"/>
  <path d="M142.828 150.775H144.915V142.932H152.388V141.048H144.915V135.123H153.162V133.24H142.828V150.775Z" fill="inherit"/>
  <path d="M157.747 133.24H155.289L160.844 142.007L155.289 150.775H157.747L162.19 143.617H162.325L166.768 150.775H169.226L163.806 142.007L169.226 133.24H166.768L162.325 140.535H162.19L157.747 133.24Z" fill="inherit"/>
</svg>
