    <svg version="1.1" xmlns="http://www.w3.org/2000/svg" xmlns:xlink="http://www.w3.org/1999/xlink" id="withdrawal-pending-spinner" viewBox="0 0 32 32">
      <path fill="#fff6ef" style="fill: var(--color3, #fff6ef)" d="M32 16c0 8.837-7.163 16-16 16s-16-7.163-16-16c0-8.837 7.163-16 16-16s16 7.163 16 16z"></path>
      <path fill="#fe9948" style="fill: var(--color4, #fe9948)" d="M21.52 8h-11.373c-0.449 0-0.813 0.364-0.813 0.813v0 0.541c0 0.448 0.364 0.812 0.813 0.812 0 3.080 1.727 5.679 4.091 6.5-2.364 0.821-4.092 3.42-4.092 6.5-0.449 0.001-0.812 0.365-0.812 0.813v0 0.541c0 0.448 0.364 0.812 0.813 0.812h11.373c0.449 0 0.813-0.364 0.813-0.813v0-0.541c-0.001-0.449-0.365-0.812-0.813-0.812v0c0-3.080-1.727-5.679-4.091-6.5 2.364-0.821 4.092-3.42 4.092-6.5 0.449-0.001 0.812-0.365 0.812-0.813v0-0.54c0-0.449-0.364-0.813-0.813-0.813v0zM19.355 23.167h-7.043c0-2.623 1.565-4.875 3.521-4.875s3.52 2.252 3.52 4.875z"></path>
    </svg>