<svg width="89" height="52" viewBox="0 0 89 52" fill="none" xmlns="http://www.w3.org/2000/svg">
<path d="M55.2004 41.4319H32.9751V52.0001L55.2004 47.9823V41.4319Z" fill="#1144FA"/>
<path d="M6.91602 34.1099H13.931C19.1086 31.9888 24.0031 29.1728 28.4311 25.7575C29.5122 24.9238 30.5647 24.0557 31.589 23.1561V20.0361C25.33 25.9388 17.813 30.4687 9.6616 33.2487C8.75358 33.5582 7.83799 33.8453 6.91602 34.1099Z" fill="#1144FA"/>
<path d="M87.1902 34.1908C86.9165 34.0354 79.1994 29.5565 76.9455 28.0368C73.3613 25.6202 69.956 22.9669 66.8565 19.9491C66.1033 19.2157 65.3672 18.4622 64.652 17.6839C60.9738 13.681 57.7783 9.25288 55.2007 4.46448V9.30731e-05H52.4472V3.83584H50.3808V3.1427V2.9416C50.3808 2.73162 50.3094 2.56749 50.1979 2.44956C49.912 2.14717 49.3631 2.14717 49.0774 2.44956C48.9658 2.56749 48.8944 2.73162 48.8944 2.9416V3.1427V3.83584H44.633V3.1427V2.9416C44.633 2.73162 44.5618 2.56749 44.4501 2.44956C44.1644 2.14717 43.6152 2.14717 43.3296 2.44956C43.218 2.56749 43.1466 2.73162 43.1466 2.9416V3.1427V3.83584H38.8854V3.1427V2.9416C38.8854 2.73162 38.814 2.56749 38.7024 2.44956C38.4167 2.14717 37.8676 2.14717 37.5819 2.44956C37.4703 2.56749 37.399 2.73162 37.399 2.9416V3.1427V3.83584H35.8052C35.7815 3.81237 35.7557 3.79056 35.7289 3.76995V0H32.9756V6.07672C32.9075 6.1794 32.8398 6.28254 32.7711 6.38475C29.4091 10.8331 25.6863 15.0096 21.6551 18.8635C17.8891 22.2128 13.8226 25.2451 9.67903 28.0763C6.77948 30.0576 3.82392 31.955 0.858941 33.8364C0.324205 34.1756 0 34.7644 0 35.3975V38.1972C0 39.2179 0.827518 40.0455 1.84838 40.0455H32.9754H55.2008H86.3259C87.3468 40.0455 88.1742 39.2179 88.1742 38.1972V35.8248C88.1742 35.1399 87.7858 34.5289 87.1902 34.1908ZM32.9754 18.6862V21.9001V35.4962H10.2173H2.55196C2.58551 35.475 2.81785 35.3271 3.02487 35.1951C3.12459 35.1315 3.21849 35.0718 3.28142 35.0317C9.22922 31.2378 15.1393 27.3128 20.5764 22.8226C23.1994 20.6566 25.713 18.3599 28.0664 15.8816C29.5487 14.3207 30.9598 12.6877 32.2824 10.9869C32.5165 10.6859 32.7471 10.3823 32.9755 10.077L32.9754 18.6862ZM49.4038 35.4962H38.7724V16.9942C38.7724 15.9137 39.0957 14.9092 39.6497 14.0704C42.7084 17.1113 45.9704 19.9408 49.4037 22.5496V35.4961H49.4038V35.4962ZM49.4038 19.6498C46.5697 17.414 43.8688 15.0083 41.3093 12.4632C42.1179 11.9659 43.0692 11.6785 44.0881 11.6785C47.0238 11.6785 49.4038 14.0584 49.4038 16.9942V19.6498ZM55.2008 35.4962V26.6337C58.8829 29.0184 62.7506 31.0969 66.8831 32.6171C70.2154 33.8428 73.6544 34.7257 77.1211 35.4849L55.2008 35.4962ZM67.0143 30.2098C64.7661 29.3661 62.5986 28.3264 60.4988 27.1571C58.9273 26.282 57.3941 25.3339 55.8939 24.3401C55.6619 24.1865 55.4311 24.0317 55.2008 23.876V9.07211C59.06 15.268 63.9594 20.7845 69.4712 25.5727C70.8186 26.797 72.2112 27.972 73.6468 29.093C75.8039 30.7775 78.0786 32.4176 80.4981 33.7645C80.5539 33.7999 80.6089 33.8361 80.6647 33.8715C76.0427 32.9285 71.4379 31.8697 67.0143 30.2098Z" fill="#1144FA"/>
</svg>
