<svg width="16" height="20" viewBox="0 0 16 20" fill="none" xmlns="http://www.w3.org/2000/svg">
    <path d="M15.2943 4.15109L11.3385 0.587734C10.9177 0.208711 10.367 0 9.78777 0H2.25641C1.01223 0 0 0.963789 0 2.14844V17.8516C0 19.0362 1.01223 20 2.25641 20H13.7436C14.9878 20 16 19.0362 16 17.8516V5.7118C16 5.12395 15.7428 4.55508 15.2943 4.15109ZM14.0989 4.6875H11.0359C10.9228 4.6875 10.8308 4.59988 10.8308 4.49219V1.74359L14.0989 4.6875ZM13.7436 18.8281H2.25641C1.69087 18.8281 1.23077 18.39 1.23077 17.8516V2.14844C1.23077 1.60996 1.69087 1.17188 2.25641 1.17188H9.6V4.49219C9.6 5.24605 10.2441 5.85938 11.0359 5.85938H14.7692V17.8516C14.7692 18.39 14.3091 18.8281 13.7436 18.8281Z" fill="#1144FA"/>
    <path d="M12.3891 7.8125H3.36343C3.02358 7.8125 2.74805 8.07484 2.74805 8.39844C2.74805 8.72203 3.02358 8.98438 3.36343 8.98438H12.3891C12.7289 8.98438 13.0045 8.72203 13.0045 8.39844C13.0045 8.07484 12.7289 7.8125 12.3891 7.8125Z" fill="#1144FA"/>
    <path d="M12.3891 10.9375H3.36343C3.02358 10.9375 2.74805 11.1998 2.74805 11.5234C2.74805 11.847 3.02358 12.1094 3.36343 12.1094H12.3891C12.7289 12.1094 13.0045 11.847 13.0045 11.5234C13.0045 11.1998 12.7289 10.9375 12.3891 10.9375Z" fill="#1144FA"/>
    <path d="M6.34682 14.0625H3.36343C3.02358 14.0625 2.74805 14.3248 2.74805 14.6484C2.74805 14.972 3.02358 15.2344 3.36343 15.2344H6.34682C6.68667 15.2344 6.9622 14.972 6.9622 14.6484C6.9622 14.3248 6.68667 14.0625 6.34682 14.0625Z" fill="#1144FA"/>
</svg>
