<svg width="16" height="16" viewBox="0 0 16 16" fill="none" xmlns="http://www.w3.org/2000/svg">
<mask id="mask0" mask-type="alpha" maskUnits="userSpaceOnUse" x="0" y="0" width="16" height="16">
<rect width="16" height="16" fill="#C4C4C4"/>
</mask>
<g >
<path d="M9.33716 9.8053C8.93909 10.071 8.47672 10.2115 8 10.2115C7.52331 10.2115 7.06094 10.071 6.66287 9.8053L0.106531 5.42821C0.0701562 5.40392 0.0347187 5.37861 0 5.35257V12.5249C0 13.3472 0.666406 13.9999 1.47291 13.9999H14.5271C15.3482 13.9999 16 13.3325 16 12.5249V5.35254C15.9652 5.37864 15.9297 5.40402 15.8932 5.42833L9.33716 9.8053Z" fill="#1144FA"/>
<path d="M0.626562 4.64717L7.18291 9.02429C7.43109 9.18999 7.71553 9.27282 7.99997 9.27282C8.28444 9.27282 8.56891 9.18996 8.81709 9.02429L15.3734 4.64717C15.7658 4.3854 16 3.94729 16 3.47445C16 2.66142 15.3395 2 14.5276 2H1.47241C0.660531 2.00003 0 2.66145 0 3.47523C0 3.94729 0.23425 4.3854 0.626562 4.64717Z" fill="#1144FA"/>
</g>
</svg>
