<svg width="16" height="16" viewBox="0 0 16 16" fill="none" xmlns="http://www.w3.org/2000/svg">
<path d="M16 5.04612C16 4.36489 15.8631 3.7047 15.5951 3.08087C15.335 2.48001 14.9633 1.94037 14.49 1.47729C14.0166 1.0142 13.465 0.650619 12.8509 0.396112C12.2152 0.132037 11.5384 0 10.8421 0C10.1457 0 9.47093 0.133951 8.83328 0.396112C8.21912 0.650619 7.66752 1.0142 7.19417 1.47729C6.72082 1.94037 6.34918 2.48001 6.08904 3.08087C5.81911 3.70279 5.68415 4.36489 5.68415 5.04612C5.68415 5.89767 5.90322 6.73199 6.31984 7.47446L0.144809 13.5099C0.0020218 13.6496 -0.0429658 13.862 0.0450534 14.0629C0.0626572 14.105 0.091997 14.1433 0.125249 14.1758L1.50813 15.5287C1.54138 15.5613 1.5805 15.5881 1.62353 15.6072C1.82891 15.6933 2.04602 15.6512 2.18881 15.5096L3.04357 14.6733L4.27389 15.877C4.30714 15.9095 4.34626 15.9363 4.38927 15.9555C4.59465 16.0416 4.81178 15.9995 4.95455 15.8579L6.31787 14.5241C6.35112 14.4916 6.3785 14.4533 6.39806 14.4112C6.48608 14.2103 6.44305 13.9979 6.29831 13.8582L5.08756 12.6737L8.35796 9.47224C9.11492 9.87984 9.96969 10.0942 10.8401 10.0942C11.5364 10.0942 12.2112 9.96021 12.8489 9.69805C13.4631 9.44354 14.0147 9.07996 14.488 8.61687C14.9613 8.1538 15.333 7.61417 15.5931 7.01329C15.8631 6.38755 16 5.72736 16 5.04612ZM12.6494 6.81619C12.1663 7.28884 11.5228 7.54909 10.8401 7.54909C10.1575 7.54909 9.51396 7.28884 9.03085 6.81619C8.54773 6.34353 8.27976 5.71396 8.27976 5.04612C8.27976 4.37637 8.54577 3.74871 9.0289 3.27606C9.51203 2.8034 10.1556 2.54315 10.8382 2.54315C11.5208 2.54315 12.1643 2.8034 12.6475 3.27606C13.1306 3.74871 13.3966 4.37828 13.3966 5.04612C13.4005 5.71396 13.1345 6.34353 12.6494 6.81619Z" fill="#1144FA"/>
</svg>
