<svg width="115" height="32" viewBox="0 0 115 32" fill="none" xmlns="http://www.w3.org/2000/svg">
<path d="M2.19232 23.1804C0.730068 21.7444 0 19.7073 0 17.0712V7.23682H5.018V16.92C5.018 19.7598 6.14343 21.1777 8.39025 21.1777C10.6209 21.1777 11.7363 19.7598 11.7363 16.92V7.23682H16.6797V17.0712C16.6797 19.7093 15.9476 21.7444 14.4853 23.1804C13.0231 24.6185 10.9759 25.3345 8.33781 25.3345C5.70576 25.3345 3.65457 24.6185 2.19232 23.1804Z" fill="#1144FA"/>
<path d="M20.585 7.23438H25.603V24.979H20.585V7.23438Z" fill="#262A4B"/>
<path d="M46.5671 7.23438V24.979H42.4344L34.6008 15.5238V24.979H29.6836V7.23438H33.8162L41.6498 16.6896V7.23438H46.5671Z" fill="#262A4B"/>
<path d="M68.575 7.23438L60.9692 24.979H56.0258L48.4463 7.23438H53.8697L58.6881 18.7932L63.6053 7.23438H68.575Z" fill="#262A4B"/>
<path d="M84.0377 21.1006V24.979H70.1211V7.23438H84.0377V11.1128H75.0887V14.1019H82.9707V17.8533H75.0887V21.0985H84.0377V21.1006Z" fill="#262A4B"/>
<path d="M101.999 10.4595V21.5403L108.876 15.9999L101.999 10.4595Z" fill="url(#paint0_linear)"/>
<path d="M89.0165 0L89 11.0667L95.1233 16L101.998 21.5405V10.4597L89.0165 0Z" fill="#1144FA"/>
<path d="M114.981 0L101.999 10.4597V21.5405L108.876 16L114.999 11.0667L114.981 0Z" fill="#1111A3"/>
<path d="M95.1233 15.9999L89 20.9332L89.0165 32L101.998 21.5403V10.4595L95.1233 15.9999Z" fill="#1111A3"/>
<path d="M108.876 15.9999L101.999 10.4595V21.5403L114.981 32L114.999 20.9332L108.876 15.9999Z" fill="#1144FA"/>
<defs>
<linearGradient id="paint0_linear" x1="102" y1="15.9995" x2="108.876" y2="15.9995" gradientUnits="userSpaceOnUse">
<stop stop-color="#F47C20"/>
<stop offset="1" stop-color="#FCB017"/>
</linearGradient>
</defs>
</svg>
