<svg viewBox="0 0 115 32" fill="#1144FA" xmlns="http://www.w3.org/2000/svg">
    <path
        d="M2.19232 23.1805C0.730068 21.7445 0 19.7074 0 17.0713V7.23691H5.018V16.9201C5.018 19.7599 6.14343 21.1778 8.39025 21.1778C10.6209 21.1778 11.7363 19.7599 11.7363 16.9201V7.23691H16.6797V17.0713C16.6797 19.7094 15.9476 21.7445 14.4853 23.1805C13.0231 24.6186 10.9759 25.3346 8.33781 25.3346C5.70576 25.3346 3.65457 24.6186 2.19232 23.1805Z"
        fill="inherit" />
    <g class="label" fill="#000">
        <path d="M20.5847 7.23441H25.6028V24.979H20.5847V7.23441Z" fill="inherit" />
        <path
            d="M46.567 7.23441V24.979H42.4344L34.6007 15.5238V24.979H29.6835V7.23441H33.8162L41.6498 16.6896V7.23441H46.567Z"
            fill="inherit" />
        <path
            d="M68.5754 7.23441L60.9696 24.979H56.0262L48.4467 7.23441H53.8701L58.6885 18.7932L63.6057 7.23441H68.5754Z"
            fill="inherit" />
        <path
            d="M84.3665 21.1006V24.979H70.1211V7.23441H84.0378V11.1129H75.0887V14.102H82.9708V17.8534H75.0887V21.0986H84.3665V21.1006Z"
            fill="inherit" />
    </g>
    <path d="M101.439 10.4594V21.5403L108.155 15.9998L101.439 10.4594Z" fill="url(#paint0_linear)" />
    <path d="M88.7595 0L88.7434 11.0667L94.7235 16L101.438 21.5405V10.4597L88.7595 0Z" fill="inherit" />
    <g class="label-icon" fill="#1111A3">

        <path d="M114.117 0L101.439 10.4597V21.5405L108.155 16L114.135 11.0667L114.117 0Z" fill="inherit" />
        <path d="M94.7233 15.9998L88.7432 20.9332L88.7593 31.9999L101.438 21.5403V10.4594L94.7233 15.9998Z"
            fill="inherit" />
    </g>

    <path d="M108.155 15.9998L101.439 10.4594V21.5403L114.117 31.9999L114.135 20.9332L108.155 15.9998Z"
        fill="inherit" />
    <defs>
        <linearGradient id="paint0_linear" x1="101.439" y1="15.9995" x2="108.155" y2="15.9995"
            gradientUnits="userSpaceOnUse">
            <stop stop-color="#F47C20" />
            <stop offset="1" stop-color="#FCB017" />
        </linearGradient>
    </defs>
</svg>
