<svg width="61" height="52" viewBox="0 0 61 52" fill="none" xmlns="http://www.w3.org/2000/svg">
<path d="M30.4562 14.6704C27.0691 14.6704 24.3135 17.4261 24.3135 20.8131C24.3135 24.2002 27.0691 26.9559 30.4562 26.9559C33.8433 26.9559 36.599 24.2002 36.599 20.8131C36.599 17.4261 33.8433 14.6704 30.4562 14.6704Z" fill="#1144FA"/>
<path d="M22.8795 48.4305H16.1274V52H22.8795H38.0331H44.7851V48.4305H38.0331V45.196H22.8795V48.4305Z" fill="#1144FA"/>
<path d="M56.9123 41.6263C59.1214 41.6263 60.9123 39.8355 60.9123 37.6263V4C60.9123 1.79086 59.1214 0 56.9123 0H4C1.79086 0 0 1.79086 0 4V37.6263C0 39.8355 1.79086 41.6263 4 41.6263H22.8793C22.8793 41.6263 22.8794 41.6264 22.8794 41.6265C22.8794 41.6265 22.8794 41.6266 22.8795 41.6266H38.0328C38.0329 41.6266 38.0329 41.6265 38.0329 41.6265C38.0329 41.6264 38.033 41.6263 38.0331 41.6263H56.9123ZM33.8151 29.9241C32.9261 30.2524 32.241 31.0453 32.241 31.993V32.1763C32.241 33.162 31.4419 33.9611 30.4562 33.9611C29.4705 33.9611 28.6715 33.162 28.6715 32.1763V31.993C28.6715 31.0453 27.9864 30.2524 27.0973 29.9241C26.8576 29.8356 26.6223 29.7379 26.3919 29.6314C25.5306 29.2334 24.4841 29.3092 23.8132 29.9801L23.6832 30.1101C22.9862 30.8071 21.8562 30.8071 21.1592 30.1101C20.4622 29.4132 20.4622 28.2831 21.1592 27.5862L21.2893 27.4561C21.9602 26.7852 22.036 25.7387 21.6379 24.8775C21.5314 24.647 21.4337 24.4117 21.3452 24.172C21.0169 23.2829 20.2241 22.5979 19.2764 22.5979H19.093C18.1073 22.5979 17.3082 21.7988 17.3082 20.8131C17.3082 19.8274 18.1073 19.0284 19.093 19.0284H19.2764C20.2241 19.0284 21.0169 18.3433 21.3452 17.4542C21.4337 17.2145 21.5314 16.9792 21.6379 16.7488C22.036 15.8875 21.9602 14.8411 21.2893 14.1702L21.1592 14.0401C20.4622 13.3431 20.4622 12.2131 21.1592 11.5161C21.8562 10.8191 22.9862 10.8191 23.6832 11.5161L23.8133 11.6462C24.4842 12.3171 25.5306 12.3929 26.3919 11.9948C26.6223 11.8883 26.8576 11.7906 27.0973 11.7021C27.9864 11.3738 28.6715 10.581 28.6715 9.63325V9.44987C28.6715 8.46418 29.4705 7.66513 30.4562 7.66513C31.4419 7.66513 32.241 8.46418 32.241 9.44987V9.63325C32.241 10.581 32.9261 11.3738 33.8151 11.7021C34.0548 11.7906 34.2901 11.8883 34.5205 11.9948C35.3818 12.3928 36.4283 12.3171 37.0992 11.6461L37.2293 11.5161C37.9262 10.8191 39.0563 10.8191 39.7533 11.5161C40.4502 12.2131 40.4502 13.3431 39.7533 14.0401L39.6231 14.1702C38.9522 14.8411 38.8764 15.8875 39.2745 16.7488C39.381 16.9792 39.4787 17.2145 39.5672 17.4542C39.8955 18.3433 40.6884 19.0284 41.6361 19.0284H41.8195C42.8051 19.0284 43.6042 19.8274 43.6042 20.8131C43.6042 21.7988 42.8051 22.5979 41.8195 22.5979H41.6361C40.6884 22.5979 39.8955 23.2829 39.5672 24.172C39.4787 24.4117 39.381 24.647 39.2745 24.8775C38.8764 25.7387 38.9522 26.7852 39.6231 27.4561L39.7533 27.5862C40.4502 28.2831 40.4502 29.4132 39.7533 30.1101C39.0563 30.8071 37.9262 30.8071 37.2293 30.1101L37.0992 29.9801C36.4283 29.3091 35.3818 29.2334 34.5205 29.6314C34.2901 29.7379 34.0548 29.8356 33.8151 29.9241Z" fill="#1144FA"/>
</svg>
