<svg width="50" height="50" viewBox="0 0 50 50" fill="none" xmlns="http://www.w3.org/2000/svg">
<rect x="0.5" y="0.5" width="49" height="49" rx="24.5" fill="white" stroke="#E1E4EB"/>
<path d="M36.4797 31.3086C35.7306 30.6803 31.3369 27.898 30.6066 28.0257C30.2637 28.0866 30.0014 28.3789 29.2994 29.2163C28.9748 29.6285 28.6183 30.0145 28.2331 30.3709C27.5275 30.2004 26.8445 29.9472 26.1983 29.6166C23.664 28.3827 21.6165 26.3347 20.3834 23.8C20.0528 23.1538 19.7996 22.4708 19.6291 21.7651C19.9855 21.38 20.3715 21.0235 20.7837 20.6989C21.6203 19.9969 21.9134 19.7363 21.9743 19.3917C22.102 18.6597 19.3171 14.2677 18.6914 13.5186C18.4291 13.2083 18.1909 13 17.8857 13C17.0011 13 13 17.9474 13 18.5886C13 18.6409 13.0857 23.7914 19.5906 30.4094C26.2086 36.9143 31.3591 37 31.4114 37C32.0526 37 37 32.9989 37 32.1143C37 31.8091 36.7917 31.5709 36.4797 31.3086Z" fill="#1144FA"/>
<path d="M31.0003 24.1433H32.7146C32.7125 22.3253 31.9894 20.5823 30.7039 19.2968C29.4184 18.0113 27.6754 17.2882 25.8574 17.2861V19.0004C27.221 19.0018 28.5283 19.5441 29.4925 20.5082C30.4566 21.4724 30.9989 22.7797 31.0003 24.1433Z" fill="#1144FA"/>
<path d="M35.286 24.1429H37.0003C36.9969 21.1886 35.8218 18.3564 33.7329 16.2674C31.6439 14.1785 28.8116 13.0034 25.8574 13V14.7143C28.3571 14.7172 30.7536 15.7115 32.5212 17.4791C34.2887 19.2467 35.283 21.6431 35.286 24.1429Z" fill="#1144FA"/>
</svg>
