<svg width="28" height="26" viewBox="0 0 28 26" fill="none" xmlns="http://www.w3.org/2000/svg">
<path fill-rule="evenodd" clip-rule="evenodd" d="M2.93253 0C1.32053 0 0 1.352 0 2.99958C0 4.64853 1.32053 6.00053 2.93253 6.00053C3.3841 6.00053 3.80284 5.88284 4.18463 5.69537L8.63611 10.2495C8.10333 11.0679 7.81954 12.0234 7.81916 13C7.81916 13.7964 8.01758 14.5463 8.35284 15.2182L4.45284 18.4449C3.99735 18.1581 3.47082 18.004 2.93253 18.0002C1.32053 18.0002 0 19.3522 0 20.9998C0 22.6487 1.32053 23.9994 2.93253 23.9994C4.54316 23.9994 5.86505 22.6487 5.86505 20.9998C5.86505 20.6481 5.79663 20.3197 5.68168 20.0077L9.56116 16.7892C10.4164 17.5308 11.5084 18.0002 12.7072 18.0002C13.234 18.0002 13.7294 17.8907 14.2028 17.7347L16.2883 21.1489C15.8915 21.6635 15.6397 22.2971 15.6397 23.0004C15.6397 24.648 16.9602 26 18.5708 26C20.1828 26 21.5034 24.648 21.5034 23.0004C21.5034 21.3515 20.1828 19.9995 18.5708 19.9995C18.3574 19.9995 18.1439 20.0309 17.9373 20.0706L15.9134 16.7426C16.5749 16.1448 17.0652 15.3815 17.3338 14.5313L21.5417 15.4139C21.7469 16.8672 22.9703 18.0002 24.4359 18.0002C26.0479 18.0002 27.3684 16.6482 27.3684 15.0006C27.3684 13.3517 26.0479 11.9997 24.4359 11.9997C23.3822 11.9997 22.4585 12.5936 21.9385 13.4529L17.5486 12.5306C17.4356 11.2672 16.8455 10.0943 15.8983 9.25053L17.9304 5.92253C18.1357 5.96905 18.3505 6.00053 18.5708 6.00053C20.1828 6.00053 21.5034 4.64853 21.5034 2.99958C21.5034 1.352 20.1828 0 18.5708 0C16.9602 0 15.6397 1.352 15.6397 2.99958C15.6397 3.69474 15.8833 4.33653 16.2801 4.84421L14.196 8.26526C13.7171 8.09769 13.2144 8.00806 12.7072 7.99979C11.7137 7.99979 10.79 8.31316 10.0182 8.8359L5.56674 4.28179C5.75011 3.89042 5.86505 3.46074 5.86505 2.99958C5.86505 1.352 4.54316 0 2.93253 0ZM1.95547 20.9998C1.94943 20.4541 2.38683 20.0008 2.93253 20.0008C3.47822 20.0008 3.91563 20.4541 3.90958 20.9998C3.9036 21.5394 3.47214 21.9768 2.93253 21.9768C2.39291 21.9768 1.96145 21.5394 1.95547 20.9998ZM25.4129 14.9993C25.4129 14.4382 24.986 14.0003 24.4359 14.0003C23.8858 14.0003 23.4588 14.4382 23.4588 14.9993C23.4588 15.5603 23.8963 15.9763 24.4359 15.9763C24.9755 15.9763 25.4129 15.5603 25.4129 14.9993ZM18.5708 22.0001C19.1169 21.9997 19.5551 22.453 19.5493 22.9991C19.5435 23.539 19.1115 23.9768 18.5715 23.9768C18.0315 23.9768 17.5938 23.5601 17.5938 22.9991C17.5938 22.438 18.0252 22.0005 18.5708 22.0001ZM19.5493 2.99958C19.5493 2.43853 19.1209 2.00063 18.5708 2.00063C18.0221 2.00063 17.5938 2.43853 17.5938 2.99958C17.5938 3.56063 18.0315 3.97732 18.5715 3.97732C19.1115 3.97732 19.5493 3.56063 19.5493 2.99958ZM2.93253 2.00063C3.48263 2.00063 3.90958 2.43853 3.90958 2.99958C3.90958 3.56063 3.47214 3.97663 2.93253 3.97663C2.39291 3.97663 1.95547 3.56063 1.95547 2.99958C1.95547 2.43853 2.38242 2.00063 2.93253 2.00063ZM15.6397 13C15.6397 11.3278 14.3411 10.0004 12.7072 10.0004C11.0733 10.0004 9.77463 11.3278 9.77463 13C9.77463 14.6722 11.0733 15.9996 12.7072 15.9996C14.3411 15.9996 15.6397 14.6722 15.6397 13Z" fill="#1144FA"/>
</svg>
