<svg width="24" height="24" viewBox="0 0 24 24" fill="none" xmlns="http://www.w3.org/2000/svg">
<path d="M23.3801 9.02217L23.3734 9.02838L23.367 9.03479L17.9682 14.3959L17.7466 14.616L17.7997 14.9237L19.0952 22.4293L19.1012 22.464L19.1062 22.4808C19.1062 22.4811 19.1062 22.4815 19.1062 22.4819C19.1062 22.5009 19.0988 22.5198 19.0835 22.5352C19.0683 22.5506 19.053 22.5551 19.0412 22.5551C19.0362 22.5551 19.0262 22.5543 19.0097 22.5464L12.3122 19.0041L12.0297 18.8547L11.748 19.0058L5.06361 22.5915L5.06358 22.5914L5.05534 22.596C5.05104 22.5984 5.0491 22.5989 5.04858 22.599L5.04854 22.599C5.04792 22.5992 5.04461 22.6 5.03691 22.6C5.03282 22.6 5.0275 22.5993 5.02173 22.5974C5.01602 22.5955 5.01111 22.5928 5.00725 22.59L5.0073 22.5899L4.99936 22.5841C4.97948 22.5698 4.96769 22.5447 4.97287 22.5151L4.97363 22.5105L6.22973 14.96L6.28098 14.652L6.05809 14.4333L0.624842 9.10209L0.624872 9.10205L0.619618 9.09702C0.61267 9.09037 0.60587 9.07988 0.602313 9.06577C0.598797 9.05182 0.599427 9.03815 0.603247 9.0263C0.608057 9.01139 0.615846 9.00068 0.625011 8.99287C0.634105 8.98513 0.646289 8.97882 0.661988 8.9761L8.14579 7.84955L8.45885 7.80242L8.59665 7.5174L11.9216 0.640184L11.9216 0.640131C11.9364 0.609645 11.9601 0.6 11.9775 0.6C11.9967 0.6 12.0216 0.611712 12.0354 0.639408C12.0354 0.639511 12.0355 0.639613 12.0355 0.639717L15.4043 7.49589L15.5439 7.78009L15.8574 7.82518L23.3384 8.90148C23.3535 8.90429 23.3654 8.91049 23.3743 8.91806C23.3834 8.92587 23.3912 8.93658 23.396 8.9515C23.401 8.96694 23.4009 8.98099 23.398 8.9923C23.3953 9.00298 23.3899 9.01293 23.3801 9.02217Z" fill="#1144FA" stroke="#1144FA" stroke-width="1.2"/>
</svg>
