<svg viewBox="0 0 52 52" fill="#1144FA" xmlns="http://www.w3.org/2000/svg">
    <g clip-path="url(#clip0)">
        <path
            d="M19.5132 0V4.33779H23.851V6.50663C25.3692 6.28978 26.6705 6.28978 28.1888 6.50663V4.33779H32.5266V0H19.5132Z"
            fill="inherit" />
        <path
            d="M40.7684 14.3145L42.2866 12.7964L44.0217 14.5315L47.0582 11.495L40.5516 4.9884L37.5151 8.02487L39.2502 9.7599L37.2983 11.7119C26.8876 5.42211 13.4406 8.67543 7.36774 19.086C1.29491 29.4967 4.54813 42.5099 14.7419 48.7997C24.9356 55.0895 38.3826 51.8362 44.4556 41.4256C49.8777 32.5331 48.3595 21.255 40.7684 14.3145ZM26.02 45.3295C17.5614 45.3295 10.8379 38.606 10.8379 30.1474C10.8379 21.6888 17.5614 14.9652 26.02 14.9652V30.1473H41.2021C41.2022 38.6059 34.4786 45.3295 26.02 45.3295Z"
            fill="inherit" />
    </g>
    <defs>
        <clipPath id="clip0">
            <rect width="52" height="52" fill="white" />
        </clipPath>
    </defs>
</svg>