<svg width="64" height="52" viewBox="0 0 64 52" fill="none" xmlns="http://www.w3.org/2000/svg">
<path d="M28.7969 34.0486L28.8103 28.6299L25.6982 34.0486H28.7969Z" fill="#1144FA"/>
<path d="M55.7376 9.07014V14.1298H63.0897V52H0V14.1298H7.3523V9.07014C5.66366 8.34941 4.47703 6.6726 4.47703 4.7236C4.47703 2.11893 6.59596 0 9.20063 0C11.8053 0 13.9242 2.11905 13.9242 4.7236C13.9242 6.67248 12.7376 8.34941 11.049 9.07014V14.1298H52.0409V9.07014C50.3523 8.34941 49.1656 6.6726 49.1656 4.7236C49.1656 2.11893 51.2846 0 53.8892 0C56.4939 0 58.6128 2.11905 58.6128 4.7236C58.6128 6.67248 57.4262 8.34941 55.7376 9.07014Z" fill="#1144FA"/>
<rect x="37.5" y="31" width="4" height="4" fill="white"/>
<path d="M18.8963 37.9458V40.9121H7.00865V38.5526L13.0761 32.8222C13.7203 32.208 14.1547 31.6836 14.3794 31.2492C14.6042 30.7998 14.7165 30.3578 14.7165 29.9233C14.7165 29.2941 14.4993 28.8147 14.0648 28.4851C13.6454 28.1406 13.0236 27.9683 12.1997 27.9683C11.5105 27.9683 10.8888 28.1031 10.3345 28.3728C9.78019 28.6275 9.31577 29.017 8.94124 29.5413L6.28955 27.8335C6.90378 26.9196 7.75022 26.208 8.82888 25.6986C9.90753 25.1743 11.1435 24.9121 12.5367 24.9121C13.7053 24.9121 14.724 25.1069 15.5929 25.4964C16.4768 25.8709 17.1585 26.4102 17.6379 27.1144C18.1322 27.8035 18.3794 28.62 18.3794 29.5638C18.3794 30.4177 18.1997 31.2192 17.8401 31.9683C17.4806 32.7174 16.7839 33.5713 15.7502 34.5301L12.1322 37.9458H18.8963Z" fill="white"/>
<path d="M34.5834 37.6087H32.0216V40.9121H28.4711V37.6087H19.9992V35.1593L27.4149 25.1818H31.2351L24.3587 34.6424H28.5834V31.6986H32.0216V34.6424H34.5834V37.6087Z" fill="white"/>
<path d="M49.6485 31.1101C51.8657 31.1101 53.4986 31.552 54.5473 32.4359C55.611 33.3198 56.1428 34.5033 56.1428 35.9865C56.1428 36.9453 55.9031 37.8217 55.4237 38.6157C54.9443 39.3947 54.2103 40.0239 53.2215 40.5033C52.2477 40.9677 51.0417 41.2 49.6035 41.2C48.4949 41.2 47.4013 41.0576 46.3226 40.773C45.2589 40.4734 44.3526 40.0539 43.6035 39.5146L45.0417 36.728C45.641 37.1775 46.3301 37.5295 47.1091 37.7842C47.8882 38.0239 48.6897 38.1438 49.5136 38.1438C50.4275 38.1438 51.1466 37.964 51.6709 37.6044C52.1953 37.2449 52.4574 36.743 52.4574 36.0988C52.4574 35.4247 52.1803 34.9153 51.626 34.5707C51.0867 34.2262 50.1428 34.0539 48.7945 34.0539H44.7721L45.581 25.2H55.1765V28.1213H48.6148L48.3676 31.1101H49.6485Z" fill="white"/>
</svg>
