		<svg version="1.1" xmlns="http://www.w3.org/2000/svg" xmlns:xlink="http://www.w3.org/1999/xlink" id="cancel-withdrawal-request-icon" viewBox="0 0 32 32">
			<path fill="#5090fc" style="fill: var(--color1, #5090fc)" opacity="0.1" d="M30.439 16.78c0 8.405-6.814 15.22-15.22 15.22s-15.22-6.814-15.22-15.22c0-8.405 6.814-15.22 15.22-15.22s15.22 6.814 15.22 15.22z"></path>
			<path fill="#5090fc" style="fill: var(--color1, #5090fc)" d="M17.171 12.098c0 0.002 0 0.004 0 0.006 0 0.595 0.149 1.156 0.411 1.646l-0.009-0.019-0.226 0.24-0.443-0.468-0.443 0.468-0.444-0.468-0.443 0.468-0.443-0.468-0.443 0.468-0.443-0.468-0.443 0.468-0.443-0.468-0.443 0.468-0.443-0.468-0.443 0.468-0.444-0.468-0.443 0.468-0.443-0.468-0.443 0.468v6.556h9.754v-4.982c0.203 0.041 0.437 0.065 0.676 0.065 0.074 0 0.148-0.002 0.221-0.007l-0.010 0.001v5.86h-11.527v-8.429c0-0.517 0.397-0.937 0.887-0.937h6.918zM17.387 14.907v0.476c-0.558 0.131-0.909 0.53-0.909 1.089 0 0.556 0.308 0.901 0.937 1.040l0.45 0.101c0.423 0.096 0.596 0.23 0.596 0.462 0 0.275-0.265 0.467-0.641 0.467-0.406 0-0.688-0.189-0.722-0.485h-0.699c0.021 0.562 0.394 0.947 0.988 1.065v0.468h0.805v-0.469c0.617-0.124 0.987-0.532 0.987-1.141 0-0.566-0.299-0.881-0.993-1.035l-0.416-0.094c-0.404-0.091-0.569-0.22-0.569-0.445 0-0.277 0.239-0.454 0.6-0.454 0.349 0 0.603 0.192 0.637 0.48h0.679c-0.018-0.529-0.382-0.92-0.926-1.049v-0.476h-0.805zM11.582 15.844c-0.16-0.002-0.308 0.086-0.389 0.232-0.038 0.068-0.060 0.149-0.060 0.236s0.022 0.168 0.062 0.239l-0.001-0.003c0.081 0.146 0.229 0.235 0.389 0.232h3.104c0.16 0.002 0.309-0.086 0.389-0.232 0.038-0.068 0.060-0.149 0.060-0.236s-0.022-0.168-0.062-0.239l0.001 0.003c-0.075-0.139-0.22-0.232-0.387-0.232-0.001 0-0.001 0-0.002 0h-3.104zM11.582 17.717c-0.16-0.002-0.308 0.086-0.389 0.232-0.038 0.068-0.060 0.149-0.060 0.236s0.022 0.168 0.062 0.239l-0.001-0.003c0.081 0.146 0.229 0.235 0.389 0.232h1.33c0.16 0.002 0.308-0.086 0.389-0.232 0.038-0.068 0.060-0.149 0.060-0.236s-0.022-0.168-0.062-0.239l0.001 0.003c-0.075-0.139-0.22-0.232-0.387-0.232-0.001 0-0.001 0-0.002 0h-1.33z"></path>
			<path fill="#fff" style="fill: var(--color2, #fff); stroke: var(--color1, #5090fc)" stroke="#5090fc" stroke-linejoin="miter" stroke-linecap="butt" stroke-miterlimit="4" stroke-width="0.3902" d="M23.415 12.098c0 1.509-1.223 2.732-2.732 2.732s-2.732-1.223-2.732-2.732c0-1.509 1.223-2.732 2.732-2.732s2.732 1.223 2.732 2.732z"></path>
			<path fill="#fe9948" style="fill: var(--color3, #fe9948)" d="M31.959 5.053c0 2.79-2.262 5.053-5.052 5.053s-5.053-2.262-5.053-5.053c0-2.79 2.262-5.053 5.053-5.053s5.053 2.262 5.053 5.053z"></path>
			<path fill="#fff" style="fill: var(--color2, #fff)" d="M27.236 5.897l0.094-3.166h-0.787l0.094 3.166h0.599zM27.348 7.277v-0.787h-0.812v0.787h0.812z"></path>
		</svg>