<svg version="1.1" xmlns="http://www.w3.org/2000/svg" viewBox="0 0 32 32">
  <path fill="#5090fc" style="fill: var(--color3, #5090fc)" opacity="0.1"
    d="M30.439 16.78c0 8.405-6.814 15.22-15.22 15.22s-15.22-6.814-15.22-15.22c0-8.405 6.814-15.22 15.22-15.22s15.22 6.814 15.22 15.22z">
  </path>
  <path fill="#5090fc" style="fill: var(--color3, #5090fc)"
    d="M9.561 11.317c-0.539 0-0.976 0.445-0.976 0.993v0.497h11.22v-0.497c0-0.549-0.437-0.993-0.976-0.993h-9.268zM20.78 13.303v1.491h1.463v-0.497c0-0.549-0.437-0.993-0.976-0.993h-0.488zM8.585 14.297v4.47c0 0.549 0.437 0.993 0.976 0.993h9.268c0.539 0 0.976-0.445 0.976-0.993v-4.471h-11.22zM20.78 16.284v3.477c0 0.549-0.437 0.993-0.976 0.993h-8.78v0.497c0 0.549 0.437 0.993 0.976 0.993h9.268c0.539 0 0.976-0.445 0.976-0.993v-4.967h-1.463z">
  </path>
  <path fill="#6bb817" style="fill: var(--color4, #6bb817)"
    d="M32 5.053c0 2.79-2.262 5.053-5.053 5.053s-5.053-2.262-5.053-5.053c0-2.79 2.262-5.053 5.053-5.053s5.053 2.262 5.053 5.053z">
  </path>
  <path fill="#fff" style="fill: var(--color5, #fff)"
    d="M29.36 3.97l-2.935 2.664c-0.073 0.066-0.172 0.103-0.274 0.103s-0.202-0.037-0.275-0.103l-1.34-1.217c-0.070-0.061-0.114-0.15-0.114-0.249s0.044-0.188 0.114-0.249l0-0c0.073-0.064 0.169-0.103 0.275-0.103s0.202 0.039 0.275 0.104l-0-0 1.066 0.968 2.661-2.415c0.073-0.064 0.169-0.103 0.275-0.103s0.202 0.039 0.275 0.104l-0-0c0.070 0.061 0.114 0.15 0.114 0.249s-0.044 0.188-0.114 0.249l-0 0z">
  </path>
</svg>