<svg width="24" height="24" viewBox="0 0 24 24" fill="none" xmlns="http://www.w3.org/2000/svg">
<path d="M23.9671 8.76733C23.8883 8.52296 23.6814 8.34841 23.4301 8.30851L15.9428 7.2313L12.5735 0.374033C12.4602 0.144626 12.2287 0 11.9775 0C11.7263 0 11.4947 0.144626 11.3814 0.37902L8.05647 7.25623L0.569133 8.38332C0.317913 8.42322 0.111026 8.59776 0.0322121 8.84213C-0.046602 9.0865 0.0223603 9.3558 0.204618 9.53035L5.63787 14.8616L4.38177 22.412C4.33743 22.6664 4.44088 22.9207 4.64776 23.0703C4.76106 23.1551 4.89898 23.2 5.03691 23.2C5.14528 23.2 5.24872 23.1751 5.34724 23.1202L12.0317 19.5345L18.7358 23.0803C18.8343 23.1302 18.9377 23.1551 19.0412 23.1551C19.4057 23.1551 19.7062 22.8509 19.7062 22.4819C19.7062 22.427 19.7013 22.3771 19.6865 22.3273L18.391 14.8217L23.7897 9.46053C23.9818 9.281 24.0459 9.01169 23.9671 8.76733ZM17.2186 14.1085C17.061 14.2631 16.992 14.4875 17.0314 14.707L18.1595 21.255L12.3371 18.178C12.145 18.0733 11.9134 18.0782 11.7164 18.178L5.91371 21.2899L7.00233 14.7319C7.03682 14.5125 6.96785 14.293 6.81023 14.1384L2.10108 9.5104L8.59832 8.53293C8.81506 8.49802 9.00224 8.36337 9.09583 8.16389L11.9824 2.19432L14.9084 8.14892C15.0069 8.34841 15.1941 8.48306 15.4108 8.51797L21.913 9.45555L17.2186 14.1085Z" fill="#629DFF"/>
</svg>
