<svg height="37" viewBox="0 0 117 37" fill="none" xmlns="http://www.w3.org/2000/svg">
<path d="M0.54 22.98C0.54 20.3667 1.05333 18.0489 2.08 16.0267C3.13778 14.0044 4.55333 12.4489 6.32667 11.36C8.13111 10.2711 10.1378 9.72666 12.3467 9.72666C14.2756 9.72666 15.9556 10.1156 17.3867 10.8933C18.8489 11.6711 20.0156 12.6511 20.8867 13.8333V10.1467H27.4667V36H20.8867V32.22C20.0467 33.4333 18.88 34.4444 17.3867 35.2533C15.9244 36.0311 14.2289 36.42 12.3 36.42C10.1222 36.42 8.13111 35.86 6.32667 34.74C4.55333 33.62 3.13778 32.0489 2.08 30.0267C1.05333 27.9733 0.54 25.6244 0.54 22.98ZM20.8867 23.0733C20.8867 21.4867 20.5756 20.1333 19.9533 19.0133C19.3311 17.8622 18.4911 16.9911 17.4333 16.4C16.3756 15.7778 15.24 15.4667 14.0267 15.4667C12.8133 15.4667 11.6933 15.7622 10.6667 16.3533C9.64 16.9444 8.8 17.8156 8.14667 18.9667C7.52445 20.0867 7.21333 21.4244 7.21333 22.98C7.21333 24.5356 7.52445 25.9044 8.14667 27.0867C8.8 28.2378 9.64 29.1244 10.6667 29.7467C11.7244 30.3689 12.8444 30.68 14.0267 30.68C15.24 30.68 16.3756 30.3844 17.4333 29.7933C18.4911 29.1711 19.3311 28.3 19.9533 27.18C20.5756 26.0289 20.8867 24.66 20.8867 23.0733ZM40.3809 14.16C41.2209 12.7911 42.3098 11.7178 43.6476 10.94C45.0165 10.1622 46.5721 9.77333 48.3143 9.77333V16.6333H46.5876C44.5343 16.6333 42.9787 17.1156 41.9209 18.08C40.8943 19.0444 40.3809 20.7244 40.3809 23.12V36H33.8476V10.1467H40.3809V14.16ZM64.1948 36.42C61.7059 36.42 59.4659 35.8756 57.4748 34.7867C55.4837 33.6667 53.9126 32.0956 52.7615 30.0733C51.6415 28.0511 51.0815 25.7178 51.0815 23.0733C51.0815 20.4289 51.657 18.0956 52.8081 16.0733C53.9904 14.0511 55.5926 12.4956 57.6148 11.4067C59.637 10.2867 61.8926 9.72666 64.3815 9.72666C66.8704 9.72666 69.1259 10.2867 71.1481 11.4067C73.1704 12.4956 74.757 14.0511 75.9081 16.0733C77.0904 18.0956 77.6815 20.4289 77.6815 23.0733C77.6815 25.7178 77.0748 28.0511 75.8615 30.0733C74.6792 32.0956 73.0615 33.6667 71.0081 34.7867C68.9859 35.8756 66.7148 36.42 64.1948 36.42ZM64.1948 30.7267C65.377 30.7267 66.4815 30.4467 67.5081 29.8867C68.5659 29.2956 69.4059 28.4244 70.0281 27.2733C70.6504 26.1222 70.9615 24.7222 70.9615 23.0733C70.9615 20.6156 70.3081 18.7333 69.0015 17.4267C67.7259 16.0889 66.1548 15.42 64.2881 15.42C62.4215 15.42 60.8504 16.0889 59.5748 17.4267C58.3304 18.7333 57.7081 20.6156 57.7081 23.0733C57.7081 25.5311 58.3148 27.4289 59.5281 28.7667C60.7726 30.0733 62.3281 30.7267 64.1948 30.7267Z" fill="#337FFF"/>
<path d="M93.2539 13.9267H87.8872V36H83.6406V13.9267H80.3272V10.4267H83.6406V8.60666C83.6406 5.74444 84.3717 3.66 85.8339 2.35333C87.3272 1.01555 89.7072 0.34666 92.9739 0.34666V3.89333C91.1072 3.89333 89.785 4.26666 89.0072 5.01333C88.2606 5.72888 87.8872 6.92666 87.8872 8.60666V10.4267H93.2539V13.9267ZM111.552 36L105.485 26.48L99.652 36H95.2187L103.479 23.3067L95.2187 10.4267H100.025L106.092 19.9L111.879 10.4267H116.312L108.099 23.0733L116.359 36H111.552Z" fill="#26334B"/>
</svg>
