    <svg version="1.1" xmlns="http://www.w3.org/2000/svg" xmlns:xlink="http://www.w3.org/1999/xlink" id="openAccount_alert_error" viewBox="0 0 82 82">
      <g fill="none" fill-rule="evenodd">
        <g fill="#5090FC" transform="translate(0 4)">
          <circle cx="39" cy="39" r="39" opacity=".1"/>
          <path fill-rule="nonzero" d="M53.5 22h-28a3.51 3.51 0 0 0-3.5 3.5V57l7-7h24.5a3.51 3.51 0 0 0 3.5-3.5v-21a3.51 3.51 0 0 0-3.5-3.5zM41.25 43h-3.5v-3.5h3.5V43zm0-7h-3.5v-7h3.5v7z"/>
        </g>
        <g transform="translate(56)">
          <circle cx="13.053" cy="12.947" r="12.947" fill="#D33F45"/>
          <path fill="#FFF" d="M13.157 11.849l3.622-3.622a.925.925 0 0 1 1.308 1.308l-3.622 3.622 3.622 3.622a.925.925 0 1 1-1.308 1.308l-3.622-3.622-3.622 3.622a.925.925 0 1 1-1.308-1.308l3.622-3.622-3.622-3.622a.925.925 0 0 1 1.308-1.308l3.622 3.622z"/>
        </g>
      </g>
    </svg>