<svg viewBox="0 0 119 37" fill="#629DFF" xmlns="http://www.w3.org/2000/svg">
<path class="label" d="M12.1133 9.81999C14.2911 9.81999 16.1578 10.3333 17.7133 11.36C19.2689 12.3867 20.3733 13.7711 21.0267 15.5133V10.1467H27.56V36H21.0267V30.5867C20.3733 32.3289 19.2689 33.7289 17.7133 34.7867C16.1578 35.8133 14.2911 36.3267 12.1133 36.3267C9.93556 36.3267 7.97556 35.7978 6.23333 34.74C4.49111 33.6822 3.12222 32.1578 2.12667 30.1667C1.16222 28.1444 0.68 25.78 0.68 23.0733C0.68 20.3667 1.16222 18.0178 2.12667 16.0267C3.12222 14.0044 4.49111 12.4644 6.23333 11.4067C7.97556 10.3489 9.93556 9.81999 12.1133 9.81999ZM14.1667 15.56C12.1133 15.56 10.4644 16.2289 9.22 17.5667C7.97556 18.9044 7.35333 20.74 7.35333 23.0733C7.35333 25.4067 7.97556 27.2422 9.22 28.58C10.4644 29.8867 12.1133 30.54 14.1667 30.54C16.1578 30.54 17.7911 29.8711 19.0667 28.5333C20.3733 27.1644 21.0267 25.3444 21.0267 23.0733C21.0267 20.7711 20.3733 18.9511 19.0667 17.6133C17.7911 16.2444 16.1578 15.56 14.1667 15.56ZM40.1031 15.0933C41.0676 13.4444 42.3431 12.1533 43.9298 11.22C45.5165 10.2556 47.2898 9.77333 49.2498 9.77333V16.82H47.3365C42.5142 16.82 40.1031 19.06 40.1031 23.54V36H33.5231V10.1467H40.1031V15.0933ZM64.8383 9.81999C67.3583 9.81999 69.6138 10.3489 71.605 11.4067C73.6272 12.4644 75.2138 14.0044 76.365 16.0267C77.5161 18.0178 78.0916 20.3667 78.0916 23.0733C78.0916 25.78 77.5161 28.1289 76.365 30.12C75.2138 32.1111 73.6272 33.6511 71.605 34.74C69.6138 35.7978 67.3583 36.3267 64.8383 36.3267C62.3183 36.3267 60.0472 35.7978 58.025 34.74C56.0338 33.6511 54.4627 32.1111 53.3116 30.12C52.1605 28.1289 51.585 25.78 51.585 23.0733C51.585 20.3667 52.1605 18.0178 53.3116 16.0267C54.4627 14.0044 56.0338 12.4644 58.025 11.4067C60.0472 10.3489 62.3183 9.81999 64.8383 9.81999ZM64.8383 15.5133C63.0027 15.5133 61.4472 16.1667 60.1716 17.4733C58.8961 18.7489 58.2583 20.6156 58.2583 23.0733C58.2583 25.5311 58.8961 27.4133 60.1716 28.72C61.4472 29.9956 63.0027 30.6333 64.8383 30.6333C66.6738 30.6333 68.2294 29.9956 69.505 28.72C70.7805 27.4133 71.4183 25.5311 71.4183 23.0733C71.4183 20.6156 70.7805 18.7489 69.505 17.4733C68.2294 16.1667 66.6738 15.5133 64.8383 15.5133Z" fill="inherit"/>
<path d="M94.5019 4.31333C92.2308 4.28222 90.6441 4.67111 89.7419 5.47999C88.8708 6.28888 88.4352 7.68888 88.4352 9.68V10.38H94.5019V14.1133H88.4352V36H84.1886V14.1133H80.5019V10.38H84.1886V9.35333C84.1886 3.22444 87.6263 0.299995 94.5019 0.579993V4.31333ZM113.859 36L107.186 26.2L101.166 36H96.4524L104.852 22.7933L96.4057 10.38H101.259L107.746 19.9L113.672 10.38H118.386L110.032 23.26L118.712 36H113.859Z" fill="inherit"/>
</svg>
