<svg id="aed" fill="#2b4059" viewBox="0 0 32 32"  xmlns="http://www.w3.org/2000/svg">
  <path fill="inherit" style="fill: var(--color1, #2b4059)" d="M30.4 21.167c0 0.458-0.033 0.83-0.099 1.116s-0.221 0.528-0.465 0.726c-0.244 0.198-0.61 0.361-1.097 0.491s-1.163 0.263-2.027 0.399c-1.443 0.218-2.744 0.327-3.901 0.327-1.21 0-2.022-0.13-2.438-0.39-0.559-0.343-0.838-1.103-0.838-2.279 0-0.177 0.031-0.46 0.091-0.85s0.137-0.776 0.229-1.156c0.092-0.38 0.196-0.713 0.313-0.999s0.23-0.43 0.343-0.43c0.020 0 0.040 0.006 0.060 0.017v1.155c0 0.79 0.077 1.238 0.229 1.342 0.487 0.281 1.331 0.422 2.53 0.422 0.416 0 0.868-0.019 1.356-0.055 0.535-0.042 1.069-0.102 1.6-0.18 1.555-0.218 2.332-0.52 2.332-0.905 0-0.52-0.346-1.774-1.037-3.762-0.71-2.070-1.209-3.148-1.493-3.231l1.707-3.622c0.182 0.052 0.655 1.577 1.417 4.574 0.792 3.216 1.188 5.646 1.188 7.29v0zM14.426 24.077c-0.365 0.384-0.864 0.595-1.382 0.586-0.518 0.009-1.018-0.203-1.382-0.587-0.375-0.373-0.582-0.893-0.572-1.433 0-0.563 0.191-1.041 0.573-1.432 0.365-0.384 0.864-0.596 1.382-0.587 0.539 0 0.999 0.195 1.382 0.587 0.381 0.39 0.572 0.869 0.572 1.432 0 0.564-0.191 1.042-0.573 1.433v0.001zM7.223 19.762l-2.301 3.34v-20.245l2.301-2.857v19.762zM7.635 27.411l-0.442 1.498c-1.229 0.406-2.123 0.812-2.682 1.218l-2.21 1.873c-0.052-0.053-0.080-0.127-0.077-0.203 0-0.656 0.229-1.228 0.686-1.717-0.874-0.593-1.31-1.16-1.31-1.701 0-0.5 0.115-0.976 0.343-1.429 0.228-0.452 0.531-0.85 0.907-1.194 0.386-0.35 0.826-0.627 1.303-0.82 0.487-0.202 1.007-0.305 1.531-0.304 0.315 0 0.595 0.037 0.838 0.11l-0.518 1.514c-0.030-0.177-0.386-0.266-1.066-0.266-0.285 0-0.572 0.050-0.862 0.149-0.277 0.092-0.539 0.226-0.778 0.398-0.216 0.154-0.402 0.35-0.547 0.577-0.134 0.208-0.206 0.453-0.206 0.703 0 0.156 0.125 0.301 0.374 0.437 0.248 0.135 0.576 0.203 0.982 0.203 0.153 0 0.279-0.016 0.381-0.047l3.352-0.999z"></path>
</svg>
