    <svg version="1.1" xmlns="http://www.w3.org/2000/svg" xmlns:xlink="http://www.w3.org/1999/xlink" id="android" viewBox="0 0 27 32">
      <title>android</title>
      <path d="M6.882 0c-0.327 0.010-0.589 0.277-0.589 0.606 0 0.13 0.041 0.25 0.11 0.349l-0.001-0.002 1.792 2.585c-1.719 1.316-2.91 3.248-3.242 5.461l-0.006 0.046h16.775c-0.338-2.259-1.529-4.191-3.228-5.493l-0.020-0.015 1.794-2.585c0.070-0.097 0.112-0.219 0.112-0.35 0-0.333-0.27-0.603-0.603-0.603-0.003 0-0.005 0-0.008 0h0c-0.206 0.002-0.388 0.106-0.496 0.265l-0.001 0.002-1.81 2.606c-1.188-0.679-2.611-1.079-4.128-1.079s-2.94 0.4-4.17 1.101l0.042-0.022-1.81-2.606c-0.111-0.162-0.294-0.267-0.502-0.267-0.005 0-0.009 0-0.014 0h0.001zM9.698 4.21c0.668 0.001 1.209 0.543 1.209 1.211s-0.542 1.211-1.211 1.211-1.211-0.542-1.211-1.211c0-0.001 0-0.001 0-0.002v0c0-0.667 0.542-1.209 1.212-1.209zM16.969 4.21c0.668 0.001 1.209 0.543 1.209 1.211s-0.542 1.211-1.211 1.211-1.211-0.542-1.211-1.211c0-0.001 0-0.001 0-0.002v0c0-0.667 0.544-1.209 1.212-1.209zM1.212 11.46c-0.001 0-0.001 0-0.002 0-0.668 0-1.21 0.541-1.211 1.209v9.666c0 0.67 0.543 1.212 1.212 1.212s1.212-0.543 1.212-1.212v0-9.666c-0.001-0.668-0.543-1.209-1.211-1.209-0.001 0-0.001 0-0.002 0h0zM4.848 11.46v12.082c0 1.337 1.084 2.418 2.425 2.418v4.229c0 0.999 0.814 1.812 1.819 1.812 1.003 0 1.817-0.812 1.817-1.813v-4.228h4.85v4.229c0 1.004 0.814 1.818 1.818 1.818s1.818-0.814 1.818-1.818v0-4.233c1.339 0 2.425-1.079 2.425-2.416v-12.080h-16.971zM25.454 11.46c-0.001 0-0.001 0-0.002 0-0.668 0-1.21 0.541-1.211 1.209v9.666c0 0.67 0.543 1.212 1.212 1.212s1.212-0.543 1.212-1.212v0-9.666c-0.001-0.668-0.543-1.209-1.211-1.209-0.001 0-0.001 0-0.002 0h0z"></path>
    </svg>