<svg width="134" height="36" viewBox="0 0 134 36" fill="#fff" xmlns="http://www.w3.org/2000/svg">
<path d="M21.9442 16.6238C21.9089 12.7084 25.1501 10.8036 25.2983 10.7149C23.4627 8.03862 20.6176 7.67296 19.6178 7.6438C17.2282 7.39233 14.9103 9.07365 13.6931 9.07365C12.4515 9.07365 10.577 7.6681 8.55676 7.7094C5.95703 7.74949 3.52494 9.25466 2.19106 11.592C-0.56174 16.3578 1.49132 23.3612 4.12871 27.2135C5.44801 29.1001 6.98963 31.2066 9.00746 31.1325C10.9816 31.0511 11.719 29.8739 14.1012 29.8739C16.4616 29.8739 17.1541 31.1325 19.212 31.0851C21.3307 31.0511 22.6646 29.19 23.9377 27.2864C25.4623 25.124 26.0746 22.9944 26.0989 22.885C26.0491 22.868 21.9843 21.3167 21.9442 16.6238Z" fill="inherit"/>
<path d="M18.0566 5.11001C19.1184 3.7822 19.8449 1.97575 19.6432 0.142578C18.1065 0.210608 16.1846 1.20555 15.0779 2.5042C14.0987 3.64857 13.2241 5.52427 13.45 7.2882C15.1763 7.41697 16.9487 6.41716 18.0566 5.11001Z" fill="inherit"/>
<path d="M50.5128 30.8613H47.754L46.2427 26.1125H40.9898L39.5502 30.8613H36.8643L42.0686 14.6943H45.283L50.5128 30.8613ZM45.7872 24.1202L44.4205 19.8987C44.2759 19.4674 44.005 18.4518 43.6053 16.8531H43.5567C43.3976 17.5407 43.1413 18.5563 42.789 19.8987L41.4466 24.1202H45.7872Z" fill="inherit"/>
<path d="M63.8961 24.8896C63.8961 26.8722 63.3604 28.4393 62.2889 29.5897C61.3292 30.6138 60.1375 31.1253 58.7149 31.1253C57.1794 31.1253 56.0763 30.5737 55.4045 29.4707H55.3559V35.6116H52.7659V23.0418C52.7659 21.7954 52.7331 20.5162 52.6699 19.2042H54.9477L55.0923 21.0519H55.1409C56.0046 19.6597 57.3154 18.9648 59.0745 18.9648C60.4497 18.9648 61.5977 19.5079 62.5161 20.5951C63.4369 21.6836 63.8961 23.1147 63.8961 24.8896ZM61.2575 24.9843C61.2575 23.8497 61.0024 22.9143 60.4898 22.1781C59.9297 21.4103 59.1778 21.0264 58.235 21.0264C57.596 21.0264 57.0154 21.2402 56.4966 21.6618C55.9767 22.087 55.6365 22.6421 55.4774 23.3297C55.3972 23.6504 55.3571 23.9128 55.3571 24.1194V26.0631C55.3571 26.911 55.6171 27.6266 56.137 28.2109C56.657 28.7952 57.3324 29.0868 58.1634 29.0868C59.1389 29.0868 59.8981 28.7102 60.4412 27.9594C60.9854 27.2075 61.2575 26.2162 61.2575 24.9843Z" fill="inherit"/>
<path d="M77.3051 24.8896C77.3051 26.8722 76.7693 28.4393 75.6967 29.5897C74.7382 30.6138 73.5464 31.1253 72.1238 31.1253C70.5883 31.1253 69.4852 30.5737 68.8147 29.4707H68.7661V35.6116H66.1761V23.0418C66.1761 21.7954 66.1432 20.5162 66.0801 19.2042H68.3579L68.5024 21.0519H68.551C69.4136 19.6597 70.7244 18.9648 72.4847 18.9648C73.8586 18.9648 75.0066 19.5079 75.9275 20.5951C76.8447 21.6836 77.3051 23.1147 77.3051 24.8896ZM74.6665 24.9843C74.6665 23.8497 74.4101 22.9143 73.8975 22.1781C73.3375 21.4103 72.5879 21.0264 71.644 21.0264C71.0038 21.0264 70.4243 21.2402 69.9044 21.6618C69.3844 22.087 69.0455 22.6421 68.8863 23.3297C68.8074 23.6504 68.7661 23.9128 68.7661 24.1194V26.0631C68.7661 26.911 69.026 27.6266 69.5435 28.2109C70.0635 28.794 70.7389 29.0868 71.5723 29.0868C72.5478 29.0868 73.3071 28.7102 73.8501 27.9594C74.3944 27.2075 74.6665 26.2162 74.6665 24.9843Z" fill="inherit"/>
<path d="M92.2962 26.3281C92.2962 27.7033 91.8188 28.8221 90.8603 29.6859C89.8071 30.6298 88.3408 31.1012 86.4566 31.1012C84.7169 31.1012 83.3223 30.7659 82.2666 30.0941L82.8667 27.9353C84.0038 28.6229 85.2514 28.9679 86.6108 28.9679C87.5863 28.9679 88.3456 28.7468 88.8911 28.307C89.4341 27.8673 89.705 27.2769 89.705 26.5407C89.705 25.8847 89.4815 25.3319 89.0332 24.8837C88.5874 24.4354 87.8427 24.0187 86.8028 23.6336C83.9722 22.5779 82.5582 21.0314 82.5582 18.9978C82.5582 17.6688 83.0538 16.5791 84.0463 15.7311C85.0352 14.882 86.3545 14.458 88.0042 14.458C89.4754 14.458 90.6975 14.7143 91.673 15.2258L91.0255 17.3372C90.1144 16.8415 89.0842 16.5937 87.9314 16.5937C87.0202 16.5937 86.3083 16.8184 85.7981 17.2655C85.3669 17.6652 85.1506 18.1523 85.1506 18.7293C85.1506 19.3683 85.3972 19.8968 85.8929 20.3123C86.3241 20.6961 87.1077 21.1116 88.2448 21.5599C89.6358 22.1199 90.6574 22.7747 91.3147 23.5255C91.9694 24.2738 92.2962 25.2104 92.2962 26.3281Z" fill="inherit"/>
<path d="M100.859 21.1482H98.0044V26.8081C98.0044 28.2476 98.5073 28.9668 99.5156 28.9668C99.9785 28.9668 100.362 28.9267 100.666 28.8465L100.738 30.8134C100.227 31.0041 99.5557 31.1001 98.7235 31.1001C97.7007 31.1001 96.9013 30.7878 96.3243 30.1646C95.7497 29.5402 95.4605 28.493 95.4605 27.0219V21.1458H93.7598V19.202H95.4605V17.0676L98.0044 16.2998V19.202H100.859V21.1482Z" fill="inherit"/>
<path d="M113.739 24.9367C113.739 26.7286 113.227 28.1997 112.204 29.3502C111.131 30.5346 109.707 31.125 107.933 31.125C106.222 31.125 104.86 30.5577 103.845 29.4231C102.829 28.2884 102.321 26.8561 102.321 25.1299C102.321 23.3234 102.844 21.8437 103.892 20.6933C104.938 19.5416 106.35 18.9658 108.125 18.9658C109.835 18.9658 111.211 19.5331 112.25 20.669C113.244 21.7709 113.739 23.1934 113.739 24.9367ZM111.052 25.0205C111.052 23.9454 110.823 23.0233 110.357 22.2544C109.814 21.3238 109.038 20.8597 108.032 20.8597C106.991 20.8597 106.2 21.325 105.657 22.2544C105.192 23.0246 104.962 23.9612 104.962 25.0691C104.962 26.1442 105.192 27.0663 105.657 27.8341C106.217 28.7646 107 29.2287 108.009 29.2287C108.998 29.2287 109.774 28.7549 110.334 27.8098C110.812 27.0262 111.052 26.0944 111.052 25.0205Z" fill="inherit"/>
<path d="M122.158 21.482C121.901 21.4346 121.628 21.4103 121.341 21.4103C120.43 21.4103 119.726 21.7541 119.23 22.4429C118.799 23.0503 118.583 23.8181 118.583 24.745V30.8617H115.994L116.018 22.8754C116.018 21.5318 115.985 20.3084 115.921 19.2054H118.177L118.272 21.4358H118.343C118.617 20.6692 119.048 20.0521 119.638 19.5893C120.215 19.1726 120.839 18.9648 121.51 18.9648C121.75 18.9648 121.966 18.9819 122.158 19.0122V21.482Z" fill="inherit"/>
<path d="M133.742 24.4818C133.742 24.9458 133.712 25.337 133.647 25.6565H125.877C125.907 26.8082 126.283 27.6889 127.004 28.2963C127.659 28.8394 128.506 29.1115 129.546 29.1115C130.696 29.1115 131.746 28.928 132.69 28.5599L133.096 30.3579C131.993 30.839 130.69 31.0783 129.187 31.0783C127.38 31.0783 125.961 30.5462 124.928 29.4832C123.898 28.4202 123.382 26.9928 123.382 25.2022C123.382 23.4443 123.862 21.9804 124.823 20.813C125.829 19.5666 127.188 18.9434 128.898 18.9434C130.578 18.9434 131.85 19.5666 132.714 20.813C133.398 21.8031 133.742 23.0276 133.742 24.4818ZM131.272 23.81C131.289 23.0422 131.12 22.3789 130.769 21.8189C130.321 21.0985 129.632 20.7389 128.705 20.7389C127.858 20.7389 127.17 21.09 126.644 21.7946C126.212 22.3546 125.956 23.0264 125.877 23.8087H131.272V23.81Z" fill="inherit"/>
<path d="M44.9308 4.74973C44.9308 6.17958 44.502 7.25592 43.6455 7.97874C42.8523 8.64568 41.7249 8.97976 40.2647 8.97976C39.5406 8.97976 38.9211 8.94817 38.4023 8.885V1.07244C39.079 0.963108 39.8079 0.907227 40.5951 0.907227C41.9861 0.907227 43.0345 1.20972 43.7415 1.8147C44.5336 2.49865 44.9308 3.47659 44.9308 4.74973ZM43.5884 4.78496C43.5884 3.85804 43.3431 3.14737 42.8523 2.65172C42.3615 2.15728 41.6447 1.90946 40.7008 1.90946C40.2999 1.90946 39.9585 1.93619 39.6755 1.99207V7.93136C39.8322 7.95566 40.1189 7.96659 40.5356 7.96659C41.5099 7.96659 42.2619 7.69568 42.7915 7.15387C43.3212 6.61206 43.5884 5.82242 43.5884 4.78496Z" fill="inherit"/>
<path d="M52.0483 5.99802C52.0483 6.87878 51.7968 7.60038 51.2939 8.16649C50.7667 8.7484 50.0681 9.03874 49.1959 9.03874C48.3552 9.03874 47.6859 8.76054 47.1866 8.20172C46.6885 7.64412 46.4395 6.94073 46.4395 6.09278C46.4395 5.20596 46.6958 4.47827 47.2109 3.91338C47.726 3.34848 48.4184 3.06543 49.2907 3.06543C50.1313 3.06543 50.8068 3.34363 51.3182 3.90123C51.8041 4.44304 52.0483 5.14279 52.0483 5.99802ZM50.7278 6.03933C50.7278 5.51088 50.6136 5.05775 50.3864 4.67994C50.1192 4.22316 49.7389 3.99477 49.2445 3.99477C48.733 3.99477 48.3443 4.22316 48.077 4.67994C47.8487 5.05775 47.7357 5.51817 47.7357 6.06241C47.7357 6.59086 47.8499 7.04399 48.077 7.4218C48.3528 7.87858 48.7367 8.10697 49.2323 8.10697C49.7183 8.10697 50.0997 7.87494 50.3743 7.40966C50.61 7.02456 50.7278 6.56778 50.7278 6.03933Z" fill="inherit"/>
<path d="M61.5922 3.18262L59.8003 8.90932H58.6341L57.8918 6.42256C57.7035 5.80179 57.5505 5.18465 57.4314 4.57238H57.4083C57.2978 5.20166 57.1447 5.81758 56.9479 6.42256L56.1595 8.90932H54.9799L53.2949 3.18262H54.6033L55.2508 5.90505C55.4075 6.54891 55.5363 7.16239 55.6395 7.74308H55.6626C55.7574 7.26444 55.9141 6.6546 56.1352 5.9172L56.9479 3.18383H57.9854L58.7641 5.85888C58.9524 6.51125 59.1054 7.13931 59.2233 7.7443H59.2585C59.3448 7.15511 59.4748 6.52704 59.6473 5.85888L60.3421 3.18383H61.5922V3.18262Z" fill="inherit"/>
<path d="M68.1925 8.90947H66.9194V5.62943C66.9194 4.61869 66.5355 4.11333 65.7653 4.11333C65.3875 4.11333 65.0826 4.25182 64.8457 4.53001C64.6112 4.80821 64.4922 5.13621 64.4922 5.51159V8.90825H63.219V4.81914C63.219 4.3162 63.2032 3.77074 63.1729 3.18034H64.2917L64.3512 4.07567H64.3865C64.5347 3.79747 64.7558 3.56787 65.0461 3.38443C65.3911 3.17062 65.7774 3.0625 66.2002 3.0625C66.7347 3.0625 67.1794 3.23501 67.5329 3.58123C67.9726 4.00521 68.1925 4.63813 68.1925 5.47879V8.90947Z" fill="inherit"/>
<path d="M71.7036 8.90906H70.4316V0.554688H71.7036V8.90906Z" fill="inherit"/>
<path d="M79.1987 5.99802C79.1987 6.87878 78.9472 7.60038 78.4443 8.16649C77.9171 8.7484 77.2173 9.03874 76.3463 9.03874C75.5044 9.03874 74.835 8.76054 74.337 8.20172C73.8389 7.64412 73.5898 6.94073 73.5898 6.09278C73.5898 5.20596 73.8462 4.47827 74.3613 3.91338C74.8763 3.34848 75.5688 3.06543 76.4398 3.06543C77.2817 3.06543 77.9559 3.34363 78.4686 3.90123C78.9545 4.44304 79.1987 5.14279 79.1987 5.99802ZM77.877 6.03933C77.877 5.51088 77.7628 5.05775 77.5356 4.67994C77.2696 4.22316 76.8881 3.99477 76.3949 3.99477C75.8822 3.99477 75.4935 4.22316 75.2274 4.67994C74.999 5.05775 74.8861 5.51817 74.8861 6.06241C74.8861 6.59086 75.0003 7.04399 75.2274 7.4218C75.5032 7.87858 75.8871 8.10697 76.3827 8.10697C76.8687 8.10697 77.2489 7.87494 77.5235 7.40966C77.7603 7.02456 77.877 6.56778 77.877 6.03933Z" fill="inherit"/>
<path d="M85.3606 8.90875H84.2174L84.1227 8.2491H84.0874C83.6962 8.77512 83.1386 9.03874 82.4146 9.03874C81.874 9.03874 81.4367 8.86502 81.1075 8.52001C80.8086 8.20658 80.6592 7.81662 80.6592 7.35377C80.6592 6.65403 80.9507 6.12072 81.5375 5.75141C82.123 5.38211 82.9467 5.2011 84.0072 5.2096V5.1027C84.0072 4.34829 83.6112 3.97169 82.8179 3.97169C82.253 3.97169 81.755 4.11383 81.3249 4.39567L81.0661 3.55986C81.5982 3.23065 82.2555 3.06543 83.0305 3.06543C84.5272 3.06543 85.278 3.85507 85.278 5.43434V7.54329C85.278 8.11547 85.3059 8.57103 85.3606 8.90875ZM84.0388 6.94073V6.05755C82.6345 6.03326 81.9323 6.41836 81.9323 7.21164C81.9323 7.51049 82.0125 7.73401 82.1765 7.88344C82.3405 8.03286 82.5495 8.10697 82.7985 8.10697C83.0779 8.10697 83.3391 8.01828 83.5772 7.84213C83.8165 7.66477 83.9635 7.44003 84.0182 7.16426C84.0315 7.1023 84.0388 7.02698 84.0388 6.94073Z" fill="inherit"/>
<path d="M92.5947 8.90906H91.4649L91.4053 7.98943H91.3701C91.0093 8.68917 90.3946 9.03905 89.5309 9.03905C88.8408 9.03905 88.2662 8.76814 87.8107 8.22633C87.3551 7.68451 87.1279 6.98113 87.1279 6.11738C87.1279 5.19047 87.3745 4.43971 87.8702 3.86631C88.35 3.33178 88.938 3.06452 89.6378 3.06452C90.4067 3.06452 90.9449 3.32328 91.2511 3.84201H91.2754V0.554688H92.5497V7.36623C92.5497 7.92383 92.5643 8.43771 92.5947 8.90906ZM91.2754 6.49398V5.53913C91.2754 5.37391 91.2632 5.24028 91.2401 5.13823C91.1684 4.8321 91.0142 4.57455 90.7797 4.36682C90.5428 4.15908 90.2573 4.05461 89.9281 4.05461C89.4531 4.05461 89.0814 4.2429 88.808 4.62072C88.5371 4.99853 88.3999 5.48081 88.3999 6.07001C88.3999 6.63612 88.5298 7.09532 88.791 7.44884C89.0668 7.82543 89.4385 8.01373 89.9038 8.01373C90.3217 8.01373 90.6558 7.85702 90.9097 7.54238C91.1551 7.25203 91.2754 6.90216 91.2754 6.49398Z" fill="inherit"/>
<path d="M103.483 5.99802C103.483 6.87878 103.231 7.60038 102.728 8.16649C102.201 8.7484 101.504 9.03874 100.63 9.03874C99.791 9.03874 99.1217 8.76054 98.6211 8.20172C98.1231 7.64412 97.874 6.94073 97.874 6.09278C97.874 5.20596 98.1304 4.47827 98.6454 3.91338C99.1605 3.34848 99.853 3.06543 100.726 3.06543C101.566 3.06543 102.243 3.34363 102.753 3.90123C103.239 4.44304 103.483 5.14279 103.483 5.99802ZM102.164 6.03933C102.164 5.51088 102.049 5.05775 101.822 4.67994C101.554 4.22316 101.175 3.99477 100.679 3.99477C100.169 3.99477 99.7801 4.22316 99.5116 4.67994C99.2832 5.05775 99.1702 5.51817 99.1702 6.06241C99.1702 6.59086 99.2844 7.04399 99.5116 7.4218C99.7874 7.87858 100.171 8.10697 100.667 8.10697C101.153 8.10697 101.536 7.87494 101.81 7.40966C102.045 7.02456 102.164 6.56778 102.164 6.03933Z" fill="inherit"/>
<path d="M110.328 8.90947H109.056V5.62943C109.056 4.61869 108.672 4.11333 107.901 4.11333C107.523 4.11333 107.218 4.25182 106.982 4.53001C106.747 4.80821 106.629 5.13621 106.629 5.51159V8.90825H105.355V4.81914C105.355 4.3162 105.34 3.77074 105.31 3.18034H106.427L106.487 4.07567H106.522C106.671 3.79747 106.892 3.56787 107.182 3.38443C107.528 3.17062 107.913 3.0625 108.337 3.0625C108.87 3.0625 109.315 3.23501 109.668 3.58123C110.109 4.00521 110.328 4.63813 110.328 5.47879V8.90947Z" fill="inherit"/>
<path d="M118.897 4.13571H117.495V6.91767C117.495 7.6247 117.744 7.97821 118.237 7.97821C118.466 7.97821 118.655 7.95877 118.805 7.91868L118.837 8.88447C118.586 8.97923 118.256 9.02661 117.849 9.02661C117.346 9.02661 116.954 8.87354 116.671 8.5674C116.387 8.26127 116.246 7.74618 116.246 7.02336V4.13571H115.409V3.18207H116.246V2.13246L117.494 1.75586V3.18085H118.896V4.13571H118.897Z" fill="inherit"/>
<path d="M125.637 8.90906H124.362V5.65332C124.362 4.62679 123.978 4.11292 123.209 4.11292C122.619 4.11292 122.216 4.41055 121.995 5.00582C121.957 5.13095 121.935 5.28401 121.935 5.46381V8.90785H120.663V0.554688H121.935V4.00601H121.959C122.36 3.37795 122.935 3.06452 123.68 3.06452C124.207 3.06452 124.643 3.23703 124.989 3.58325C125.42 4.01452 125.637 4.65595 125.637 5.5039V8.90906Z" fill="inherit"/>
<path d="M132.589 5.77469C132.589 6.00307 132.572 6.19502 132.542 6.35173H128.724C128.741 6.91784 128.923 7.3491 129.277 7.64795C129.6 7.91521 130.016 8.04885 130.527 8.04885C131.092 8.04885 131.607 7.95895 132.071 7.77794L132.27 8.66233C131.727 8.89801 131.088 9.01585 130.348 9.01585C129.461 9.01585 128.763 8.75466 128.257 8.23228C127.75 7.70991 127.498 7.00895 127.498 6.12942C127.498 5.26567 127.733 4.5465 128.205 3.9731C128.698 3.36082 129.365 3.05469 130.207 3.05469C131.031 3.05469 131.656 3.36082 132.079 3.9731C132.421 4.45903 132.589 5.06037 132.589 5.77469ZM131.375 5.44547C131.384 5.06766 131.3 4.74208 131.128 4.46753C130.907 4.11402 130.57 3.93665 130.115 3.93665C129.699 3.93665 129.36 4.10916 129.102 4.45538C128.89 4.73115 128.765 5.06037 128.724 5.44547H131.375Z" fill="inherit"/>
</svg>
