    <svg version="1.1" xmlns="http://www.w3.org/2000/svg" xmlns:xlink="http://www.w3.org/1999/xlink" id="apple" viewBox="0 0 27 32">
      <title>apple</title>
      <path d="M25.831 10.916c-0.144 0.089-3.609 1.97-3.609 6.14 0.164 4.756 4.373 6.425 4.444 6.425-0.071 0.089-0.635 2.272-2.304 4.56-1.323 1.972-2.791 3.959-5.024 3.959-2.123 0-2.884-1.314-5.333-1.314-2.631 0-3.374 1.314-5.387 1.314-2.233 0-3.812-2.094-5.207-4.046-1.812-2.556-3.355-6.567-3.41-10.418-0.036-2.043 0.364-4.048 1.38-5.751 1.431-2.38 3.989-3.995 6.782-4.048 2.14-0.071 4.046 1.438 5.351 1.438 1.253 0 3.591-1.438 6.24-1.438 1.143 0 4.19 0.338 6.078 3.179zM13.333 7.33c-0.38-1.863 0.672-3.728 1.652-4.916 1.252-1.44 3.228-2.414 4.933-2.414 0.006 0.109 0.010 0.237 0.010 0.366 0 1.8-0.693 3.438-1.827 4.661l0.004-0.004c-1.106 1.438-3.012 2.521-4.772 2.308z"></path>
    </svg>