    <svg version="1.1" xmlns="http://www.w3.org/2000/svg" xmlns:xlink="http://www.w3.org/1999/xlink" id="approved" viewBox="0 0 32 32">
      <title>approved</title>
      <path fill="#6bb817" style="fill: var(--color1, #6bb817)" d="M13.728 19.15c-0.065-0.085-0.094-0.134-0.133-0.172-1.203-1.205-2.407-2.409-3.611-3.612-0.107-0.107-0.213-0.216-0.326-0.318-0.657-0.589-1.721-0.434-2.184 0.316-0.365 0.592-0.288 1.309 0.21 1.809 1.667 1.672 3.337 3.339 5.007 5.008 0.039 0.039 0.080 0.077 0.123 0.11 0.606 0.472 1.411 0.417 1.966-0.138 3.638-3.637 7.276-7.275 10.913-10.913 0.026-0.026 0.053-0.051 0.077-0.079 0.382-0.439 0.498-0.941 0.296-1.487-0.201-0.545-0.608-0.864-1.188-0.939-0.502-0.065-0.912 0.12-1.266 0.474-3.255 3.259-6.513 6.515-9.769 9.773-0.038 0.038-0.062 0.090-0.114 0.168zM0.001 15.985c0-4.33 0.001-8.66-0.001-12.99-0-1.028 0.399-1.855 1.232-2.46 0.498-0.362 1.064-0.53 1.68-0.532 0.074-0 0.147-0 0.221-0 8.61 0 17.219 0.001 25.829-0.002 0.757-0 1.432 0.214 2.004 0.713 0.602 0.526 0.936 1.193 0.992 1.993 0.006 0.092 0.009 0.184 0.009 0.276 0 8.665 0 17.329 0.001 25.994 0 1.103-0.454 1.962-1.38 2.559-0.479 0.309-1.014 0.435-1.585 0.434-2.338-0.004-4.675-0.001-7.013-0.001-6.336 0-12.673-0-19.009 0-1.024 0-1.844-0.404-2.447-1.231-0.381-0.523-0.534-1.118-0.534-1.763 0.003-4.33 0.001-8.66 0.001-12.99z"></path>
    </svg>