<svg width="12" height="12" viewBox="0 0 12 12" fill="#40D9A2" stroke="#40D9A2" xmlns="http://www.w3.org/2000/svg">
<path d="M10.0618 6.46817L10.0631 6.46944C10.3017 6.70177 10.6875 6.70362 10.9207 6.46815C11.1598 6.2271 11.1598 5.84614 10.9206 5.60511L6.42575 1.07599C6.19295 0.841412 5.80674 0.841265 5.57425 1.07599L10.0618 6.46817ZM10.0618 6.46817L6.60517 2.97867L6.60517 10.4871C6.60517 10.8233 6.33168 11.1 5.99616 11.1C5.6588 11.1 5.39438 10.8214 5.39438 10.4871L5.39438 2.97835L1.931 6.46815C1.69852 6.70296 1.31225 6.70284 1.07942 6.46823C0.840193 6.22718 0.840193 5.84617 1.07942 5.60511L5.57417 1.07607L10.0618 6.46817Z" fill="inherit" stroke="inherit" stroke-width="0.2"/>
</svg>
