<svg width="10" height="10" viewBox="0 0 10 10" fill="#26334B" xmlns="http://www.w3.org/2000/svg">
<path d="M5.32445 0.1504C5.12238 -0.0501332 4.80427 -0.0501332 4.60221 0.1504C4.40697 0.344158 4.40697 0.666637 4.60221 0.859943L8.26437 4.49438L0.512894 4.49438C0.231189 4.49438 6.54436e-08 4.71659 6.54436e-08 4.99616C6.54436e-08 5.27573 0.231189 5.50517 0.512894 5.50517L8.26437 5.50517L4.60221 9.13283C4.40697 9.33336 4.40697 9.65629 4.60221 9.8496C4.80427 10.0501 5.12238 10.0501 5.32445 9.8496L9.85357 5.35477C10.0488 5.16101 10.0488 4.83854 9.85357 4.64523L5.32445 0.1504Z" fill="inherit"/>
</svg>
