<svg width="12" height="12" viewBox="0 0 12 12" fill="#EA3131" stroke="#EA3131" xmlns="http://www.w3.org/2000/svg">
<path d="M10.0618 5.53183L10.0631 5.53056C10.3017 5.29823 10.6875 5.29638 10.9207 5.53185C11.1598 5.7729 11.1598 6.15386 10.9206 6.39489L6.42575 10.924C6.19295 11.1586 5.80674 11.1587 5.57425 10.924L10.0618 5.53183ZM10.0618 5.53183L6.60517 9.02133L6.60517 1.51289C6.60517 1.17668 6.33168 0.899999 5.99616 0.899999C5.6588 0.899999 5.39438 1.17856 5.39438 1.51289L5.39438 9.02165L1.931 5.53185C1.69852 5.29704 1.31225 5.29716 1.07942 5.53177C0.840193 5.77282 0.840193 6.15383 1.07942 6.39489L5.57417 10.9239L10.0618 5.53183Z" fill="inherit" stroke="inherit" stroke-width="0.2"/>
</svg>
