    <svg version="1.1" xmlns="http://www.w3.org/2000/svg" xmlns:xlink="http://www.w3.org/1999/xlink" viewBox="0 0 88 21" id="bank-level_secure">
    <title>Bank Level</title>
    <g fill="#DDD" fill-rule="evenodd">
      <text font-family="Poppins-Medium, Poppins Medium" font-size="7.014">
        <tspan x="20.459" y="7.585">Bank-Level</tspan>
      </text>
      <path d="M8.768 0C5.1 0 1.284.884 1.284.884l-.003.003c-.744.16-1.28.858-1.281 1.67v5.115c0 8.864 7.988 12.569 7.988 12.569.238.143.507.218.78.218.272 0 .54-.076.777-.218h.003s7.988-3.705 7.988-12.569V2.557c0-.814-.537-1.515-1.284-1.673 0 0-3.816-.884-7.484-.884zm0 5.967c1.32 0 2.391 1.145 2.391 2.558 0 1.111-.667 2.048-1.594 2.4v2.714c0 .47-.357.853-.797.853-.44 0-.797-.382-.797-.853v-2.714c-.927-.352-1.594-1.289-1.594-2.4 0-1.413 1.07-2.558 2.391-2.558z"
        fill-rule="nonzero"></path>
      <text font-family="Poppins-Medium, Poppins Medium" font-size="7.014">
        <tspan x="20.459" y="17.592">Security Encryption</tspan>
      </text>
    </g>
    </svg>