    <svg version="1.1" xmlns="http://www.w3.org/2000/svg" xmlns:xlink="http://www.w3.org/1999/xlink" id="bank-wire-payment" viewBox="0 0 35 32">
      <title>bank-wire-payment</title>
      <path fill="#5090fc" style="fill: var(--color1, #5090fc)" d="M17.165 0c-0.157 0.001-0.308 0.031-0.446 0.084l0.009-0.003v-0.001l-0.032 0.013c-0.035 0.013-0.060 0.025-0.085 0.037l0.008-0.003-12.715 5.589c-0.753 0.316-1.247 1.084-1.247 1.937 0 0.553 0.208 1.084 0.579 1.476 0.371 0.391 0.875 0.611 1.4 0.611h25.060c1.093 0 1.979-0.933 1.979-2.087 0-0.853-0.495-1.621-1.248-1.937v-0.003l-0.015-0.005-12.768-5.615c0.003 0.001-0.003-0.001-0.008-0.003l-0.009-0.002-0.023-0.008v0.003c-0.13-0.051-0.281-0.081-0.438-0.083h-0.001zM17.165 4.173c0.728 0 1.32 0.624 1.32 1.392s-0.592 1.391-1.32 1.391-1.32-0.623-1.32-1.391c0-0.768 0.592-1.392 1.32-1.392zM5.295 12.521v11.131h-1.32c-0.002 0-0.004 0-0.006 0-0.496 0-0.927 0.276-1.148 0.683l-0.003 0.007c-0.24 0.435-0.24 0.971 0 1.404 0.225 0.413 0.656 0.689 1.152 0.689 0.002 0 0.005 0 0.007-0h26.378c0.002 0 0.005 0 0.007 0 0.496 0 0.927-0.276 1.148-0.683l0.003-0.007c0.24-0.433 0.24-0.969 0-1.404-0.225-0.413-0.656-0.689-1.152-0.689-0.002 0-0.005 0-0.007 0h-1.318v-11.131h-2.636v11.131h-2.64v-11.131h-2.637v11.131h-2.639v-11.131h-2.637v11.131h-2.639v-11.131h-2.637v11.131h-2.639v-11.131h-2.637zM1.337 29.217c-0.002 0-0.004 0-0.006 0-0.496 0-0.927 0.276-1.148 0.683l-0.003 0.007c-0.24 0.433-0.24 0.969 0 1.403 0.225 0.414 0.656 0.691 1.152 0.691 0.002 0 0.004 0 0.005 0h31.656c0.001 0 0.003 0 0.005 0 0.496 0 0.928-0.276 1.149-0.684l0.003-0.007c0.24-0.433 0.24-0.969 0-1.403-0.225-0.413-0.656-0.689-1.152-0.689-0.002 0-0.004 0-0.006 0h-31.656z"></path>
    </svg>