    <svg version="1.1" xmlns="http://www.w3.org/2000/svg" xmlns:xlink="http://www.w3.org/1999/xlink" id="billing-popup" viewBox="0 0 32 32">
      <title>billing</title>
      <path fill="#507bfc" style="fill: var(--color3, #507bfc)" d="M9.22 0c-0.201 0.011-0.388 0.064-0.553 0.151l0.007-0.004-2.614 1.332c-0.434 0.226-0.726 0.673-0.726 1.187 0 0 0 0 0 0.001v-0 16h-0.668c-2.576 0-4.666 2.984-4.666 6.666 0 3.68 2.090 6.666 4.666 6.666h22.668c1.496 0 2.72-0.964 3.486-2.188 0.738-1.18 1.14-2.674 1.17-4.3 0.006-0.049 0.010-0.106 0.010-0.164 0-0.006-0-0.011-0-0.017v0.001-23.996c-0.001-0.736-0.598-1.333-1.334-1.333-0.217 0-0.422 0.052-0.604 0.144l0.008-0.004-2.080 1.040-2.186-1.048c-0.168-0.083-0.367-0.131-0.576-0.131-0.225 0-0.437 0.056-0.623 0.154l0.007-0.004-1.96 1.020-2.092-1.036c-0.173-0.087-0.376-0.139-0.592-0.139-0.219 0-0.425 0.053-0.608 0.146l0.008-0.004-2.040 1.032-2.078-1.036c-0.174-0.089-0.379-0.141-0.596-0.141s-0.422 0.052-0.604 0.144l0.008-0.004-2.066 1.038-2.124-1.038c-0.174-0.089-0.379-0.141-0.597-0.141-0.018 0-0.036 0-0.054 0.001l0.003-0zM9.292 2.824l2.122 1.040c0.374 0.186 0.812 0.184 1.184-0.004l2.060-1.036 2.080 1.036c0.378 0.188 0.82 0.188 1.196-0.002l2.042-1.034 2.1 1.040c0.38 0.188 0.83 0.184 1.208-0.014l1.966-1.024 2.172 1.042c0.372 0.18 0.806 0.176 1.174-0.008l0.738-0.37v15.802c-0.56-0.386-1.252-0.619-1.999-0.624h-19.335v-15.182l1.292-0.662zM12 8c-0.737 0-1.334 0.597-1.334 1.334s0.597 1.334 1.334 1.334h5.334c0.737 0 1.334-0.597 1.334-1.334s-0.597-1.334-1.334-1.334v0h-5.334zM22.666 8c-0.737 0-1.334 0.597-1.334 1.334s0.597 1.334 1.334 1.334h2.668c0.737 0 1.334-0.597 1.334-1.334s-0.597-1.334-1.334-1.334v0h-2.668zM12 13.334c-0.015-0.001-0.033-0.001-0.052-0.001-0.737 0-1.334 0.597-1.334 1.334s0.597 1.334 1.334 1.334c0.018 0 0.036-0 0.054-0.001l-0.003 0h2.666c0.015 0.001 0.033 0.001 0.052 0.001 0.737 0 1.334-0.597 1.334-1.334s-0.597-1.334-1.334-1.334c-0.018 0-0.036 0-0.054 0.001l0.003-0h-2.666zM20 13.334c-0.015-0.001-0.033-0.001-0.052-0.001-0.737 0-1.334 0.597-1.334 1.334s0.597 1.334 1.334 1.334c0.018 0 0.036-0 0.054-0.001l-0.003 0h5.334c0.015 0.001 0.033 0.001 0.052 0.001 0.737 0 1.334-0.597 1.334-1.334s-0.597-1.334-1.334-1.334c-0.018 0-0.036 0-0.054 0.001l0.003-0h-5.334zM27.334 21.334c0.344 0 0.784 0.228 1.226 0.934 0.44 0.708 0.774 1.818 0.774 3.066s-0.332 2.358-0.774 3.064c-0.44 0.708-0.882 0.936-1.226 0.936s-0.786-0.228-1.228-0.936c-0.44-0.706-0.772-1.816-0.772-3.064s0.332-2.36 0.772-3.066c0.442-0.706 0.884-0.934 1.228-0.934z"></path>
    </svg>
