		<svg version="1.1" xmlns="http://www.w3.org/2000/svg" xmlns:xlink="http://www.w3.org/1999/xlink" id="blockchain" viewBox="0 0 32 32">
			<path fill="#5090fc" style="fill: var(--color1, #5090fc)" d="M31.479 17.035l-7.042-3.492v-8.856c0-0.006-0-0.011-0-0.017-0.007-0.346-0.201-0.66-0.511-0.818-0.002-0.001-0.004-0.003-0.007-0.004l-7.5-3.75c-0.264-0.132-0.574-0.132-0.838 0-1.627 0.814-7.451 3.725-7.507 3.754-0.32 0.164-0.511 0.491-0.511 0.835v8.856l-7.042 3.492c-0.31 0.153-0.521 0.478-0.521 0.84v9.438c0 0.356 0.202 0.682 0.521 0.84l7.563 3.75c0.005 0.002 0.010 0.004 0.015 0.007 0.267 0.126 0.571 0.117 0.821-0.008l7.081-3.541 7.081 3.541c0.25 0.125 0.555 0.134 0.821 0.008 0.005-0.002 0.010-0.004 0.015-0.007l7.563-3.75c0.319-0.158 0.521-0.484 0.521-0.84v-9.438c0-0.348-0.196-0.677-0.521-0.84zM8.498 20.578l-5.451-2.703 5.451-2.703 5.406 2.703-5.406 2.703zM16.938 9.017l5.625-2.813v7.341l-5.625 2.813v-7.341zM15.063 16.358l-5.625-2.813v-7.341l5.625 2.813v7.341zM16.938 19.392l5.625 2.813v7.341l-5.625-2.813v-7.341zM23.502 20.578l-5.406-2.703 5.406-2.703 5.451 2.703-5.451 2.703zM16 1.986l5.404 2.702-5.404 2.702-5.404-2.702 5.404-2.702zM1.875 19.387l5.688 2.82v7.345l-5.688-2.82v-7.345zM15.063 26.734l-5.625 2.813v-7.341l5.625-2.813v7.341zM30.125 26.731l-5.688 2.82v-7.345l5.688-2.82v7.345z"></path>
		</svg>