<svg width="53" height="26" viewBox="0 0 53 26"  fill="white" stroke="white" xmlns="http://www.w3.org/2000/svg">
<path d="M52 14.83V13.8232H47.5678C46.3963 11.5901 44.8667 9.53872 43.0237 7.74468C38.5542 3.39205 32.6894 1 26.4963 1C17.408 1 9.45399 6.16259 5.43219 13.8156H1V14.8224H4.93226C4.76064 15.1858 4.60395 15.5567 4.44726 15.9276H1V16.9344H4.05925C3.31309 19.0237 2.84301 21.2416 2.69378 23.558C2.35055 23.3914 2.02224 23.187 1.72377 22.9297L1.07462 23.7094C2.97732 25.3369 5.68588 25.4201 7.67067 23.9667C9.54353 25.3444 12.073 25.3444 13.9459 23.9667C15.8187 25.3444 18.3482 25.3444 20.2211 23.9667C22.0939 25.3444 24.6234 25.3444 26.4963 23.9667C28.3691 25.3444 30.8986 25.3444 32.7715 23.9667C34.6443 25.3444 37.1738 25.3444 39.0467 23.9667C39.9868 24.6556 41.0837 24.9962 42.1805 24.9962C43.2774 24.9962 44.3817 24.6556 45.3144 23.9667C47.2992 25.4201 50.0078 25.3369 51.9105 23.7094L51.2688 22.9372C50.9703 23.1946 50.642 23.4066 50.3062 23.5655C50.157 21.2795 49.6869 19.0539 48.9333 16.942H51.9925V15.9352H48.5453C48.396 15.5643 48.2319 15.1933 48.0603 14.83H52ZM45.3219 22.6647L45.001 22.9372C43.3669 24.3301 41.0016 24.3301 39.3675 22.9372L39.0467 22.6647L38.7258 22.9372C37.0917 24.3301 34.7264 24.3301 33.0923 22.9372L32.7715 22.6647L32.4506 22.9372C30.8165 24.3301 28.4512 24.3301 26.8171 22.9372L26.4963 22.6647L26.1754 22.9372C24.5413 24.3301 22.176 24.3301 20.5419 22.9372L20.2211 22.6647L19.9002 22.9372C18.2661 24.3301 15.9008 24.3301 14.2667 22.9372L13.9459 22.6647L13.625 22.9372C11.9909 24.3301 9.6256 24.3301 7.99151 22.9372L7.67067 22.6647L7.34982 22.9372C7.14089 23.1189 6.91704 23.2703 6.68574 23.4066C6.87974 21.1508 7.44682 18.9707 8.34221 16.942H44.6503C45.5457 18.9707 46.1128 21.1508 46.3068 23.4066C46.0755 23.2703 45.8516 23.1189 45.6353 22.9372L45.3219 22.6647ZM40.3301 10.7045C41.3075 11.6583 42.1731 12.7029 42.9267 13.8156H40.3301V10.7045ZM39.3302 13.8156H36.9947V8.06261C37.808 8.57735 38.5915 9.15266 39.3302 9.78852V13.8156ZM36.0023 13.8156H33.6669V6.37455C34.4653 6.68491 35.2487 7.05583 36.0023 7.47217V13.8156ZM32.667 13.8156H30.3315V5.40561C31.1225 5.56458 31.9059 5.76896 32.667 6.01877V13.8156ZM29.3317 13.8156H26.9962V5.03469C27.7871 5.0574 28.5631 5.11796 29.3317 5.23151V13.8156ZM26.0038 13.8156H23.6683V5.23151C24.4369 5.11796 25.2203 5.0574 26.0038 5.03469V13.8156ZM22.6685 13.8156H20.333V6.01877C21.0941 5.76896 21.8775 5.56458 22.6685 5.40561V13.8156ZM19.3406 13.8156H17.0051V7.47217C17.7587 7.05583 18.5347 6.69248 19.3406 6.37455V13.8156ZM16.0053 13.8156H13.6698V9.78852C14.4085 9.15266 15.192 8.57735 16.0053 8.06261V13.8156ZM12.6699 13.8156H10.0733C10.8269 12.7029 11.6925 11.6583 12.6699 10.7045V13.8156ZM9.4316 14.83H43.5609C43.7773 15.1933 43.9788 15.5643 44.1728 15.9352H8.82721C9.02121 15.5567 9.22268 15.1933 9.4316 14.83ZM47.344 23.838C47.0082 18.5392 44.7548 13.6188 40.9643 9.92478C37.0544 6.11717 31.9208 4.02791 26.5037 4.02791C21.0642 4.02791 15.9157 6.13231 12.0059 9.96262C8.23775 13.6567 5.99181 18.5619 5.6635 23.838C5.01434 24.0121 4.32787 24.0349 3.67125 23.8986C4.34279 11.6128 14.3563 2.00678 26.4963 2.00678C32.4282 2.00678 38.0468 4.30043 42.3298 8.46381C46.5307 12.5515 49.0079 18.0169 49.3288 23.891C48.6721 24.0273 47.9931 24.0121 47.344 23.838Z" fill="inherit" stroke="inherit" stroke-width="0.2"/>
</svg>
