<svg version="1.1" xmlns="http://www.w3.org/2000/svg" viewBox="0 0 32 32" fill="#fff">
  <path fill="inherit"
    d="M2.461 0c-1.36 0-2.461 1.101-2.461 2.461v24.615h12.308v-2.461h-9.847v-14.769h27.078v14.769h-9.847v2.461h12.308v-24.614c0-1.363-1.101-2.463-2.461-2.463h-27.078zM3.692 3.692c0.68 0 1.231 0.551 1.231 1.231s-0.551 1.231-1.231 1.231v0c-0.68 0-1.231-0.551-1.231-1.231s0.551-1.231 1.231-1.231v0zM8.615 3.692c0.68 0 1.231 0.551 1.231 1.231s-0.551 1.231-1.231 1.231v0c-0.68 0-1.231-0.551-1.231-1.231s0.551-1.231 1.231-1.231v0zM12.308 3.692h17.231v2.463h-17.231v-2.463zM16 14.769l-4.924 4.922h3.693v8.615c0 0.006 0 0.013 0 0.020 0 0.669-0.542 1.212-1.212 1.212-0.007 0-0.013-0-0.020-0h0.001c-0.68 0-1.231 0.551-1.231 1.231s0.551 1.231 1.231 1.231v0c2.035-0.011 3.682-1.658 3.692-3.692v-8.616h3.693l-4.924-4.922z">
  </path>
</svg>