<svg id="cad" fill="#2B4059" viewBox="0 0 18 14"   xmlns="http://www.w3.org/2000/svg">
  <path fill="inherit" d="M4.87 2.018c1.213 0 2.221.308 3.024.924.803.616 1.344 1.451 1.624 2.506H7.824a3.01 3.01 0 0 0-1.113-1.421c-.509-.35-1.132-.525-1.869-.525-.588 0-1.113.145-1.575.434-.462.29-.826.702-1.092 1.239-.266.537-.399 1.164-.399 1.883 0 .71.133 1.332.399 1.869.266.537.63.95 1.092 1.239a2.9 2.9 0 0 0 1.575.434c.737 0 1.36-.175 1.869-.525.509-.35.88-.819 1.113-1.407h1.694c-.28 1.055-.821 1.888-1.624 2.499-.803.611-1.81.917-3.024.917-.933 0-1.76-.212-2.478-.637A4.315 4.315 0 0 1 .726 9.669C.334 8.909.138 8.038.138 7.058c0-.98.196-1.85.588-2.611a4.362 4.362 0 0 1 1.666-1.785c.719-.43 1.545-.644 2.478-.644zm9.94 4.41c.663.205 1.197.401 1.603.588a2.7 2.7 0 0 1 1.036.847c.285.378.427.88.427 1.505 0 .485-.124.936-.371 1.351-.247.415-.618.749-1.113 1.001-.495.252-1.101.378-1.82.378h-.028v1.12h-.476V12.07c-.924-.075-1.68-.366-2.268-.875a2.774 2.774 0 0 1-.98-1.939h1.708c.037.364.189.695.455.994.266.299.628.485 1.085.56V7.632c-.765-.233-1.349-.436-1.75-.609a2.77 2.77 0 0 1-1.064-.833c-.308-.383-.462-.896-.462-1.54 0-.523.138-.985.413-1.386.275-.401.66-.714 1.155-.938.495-.224 1.064-.336 1.708-.336V.8h.476v1.204c.915.065 1.643.336 2.184.812.541.476.854 1.078.938 1.806h-1.722a1.619 1.619 0 0 0-.441-.875c-.238-.247-.558-.408-.959-.483v3.08l.266.084zM12.5 4.594c0 .41.135.735.406.973.27.238.658.446 1.162.623V3.222c-.485.01-.868.133-1.148.371-.28.238-.42.572-.42 1.001zm2.044 6.258c.513 0 .912-.135 1.197-.406.285-.27.427-.616.427-1.036 0-.43-.14-.763-.42-1.001-.28-.238-.681-.446-1.204-.623v3.066z"></path>
</svg>
