<svg width="19" height="17" viewBox="0 0 19 17" fill="#6F6F6F" xmlns="http://www.w3.org/2000/svg">

<path d="M5.78125 8.27273H4.71875C4.4437 8.27273 4.2207 8.49078 4.2207 8.75974C4.2207 9.0287 4.4437 9.24675 4.71875 9.24675H5.78125C6.0563 9.24675 6.2793 9.0287 6.2793 8.75974C6.2793 8.49078 6.0563 8.27273 5.78125 8.27273Z" fill="inherit"/>
<path d="M5.78125 10.3506H4.71875C4.4437 10.3506 4.2207 10.5687 4.2207 10.8377C4.2207 11.1066 4.4437 11.3247 4.71875 11.3247H5.78125C6.0563 11.3247 6.2793 11.1066 6.2793 10.8377C6.2793 10.5687 6.0563 10.3506 5.78125 10.3506Z" fill="inherit"/>
<path d="M5.78125 12.4286H4.71875C4.4437 12.4286 4.2207 12.6466 4.2207 12.9156C4.2207 13.1845 4.4437 13.4026 4.71875 13.4026H5.78125C6.0563 13.4026 6.2793 13.1845 6.2793 12.9156C6.2793 12.6466 6.0563 12.4286 5.78125 12.4286Z" fill="inherit"/>
<path d="M10.0312 8.27273H8.96875C8.6937 8.27273 8.4707 8.49078 8.4707 8.75974C8.4707 9.0287 8.6937 9.24675 8.96875 9.24675H10.0312C10.3063 9.24675 10.5293 9.0287 10.5293 8.75974C10.5293 8.49078 10.3063 8.27273 10.0312 8.27273Z" fill="inherit"/>
<path d="M10.0312 10.3506H8.96875C8.6937 10.3506 8.4707 10.5687 8.4707 10.8377C8.4707 11.1066 8.6937 11.3247 8.96875 11.3247H10.0312C10.3063 11.3247 10.5293 11.1066 10.5293 10.8377C10.5293 10.5687 10.3063 10.3506 10.0312 10.3506Z" fill="inherit"/>
<path d="M10.0312 12.4286H8.96875C8.6937 12.4286 8.4707 12.6466 8.4707 12.9156C8.4707 13.1845 8.6937 13.4026 8.96875 13.4026H10.0312C10.3063 13.4026 10.5293 13.1845 10.5293 12.9156C10.5293 12.6466 10.3063 12.4286 10.0312 12.4286Z" fill="inherit"/>
<path d="M14.2812 8.27273H13.2188C12.9437 8.27273 12.7207 8.49078 12.7207 8.75974C12.7207 9.0287 12.9437 9.24675 13.2188 9.24675H14.2812C14.5563 9.24675 14.7793 9.0287 14.7793 8.75974C14.7793 8.49078 14.5563 8.27273 14.2812 8.27273Z" fill="inherit"/>
<path d="M14.2812 10.3506H13.2188C12.9437 10.3506 12.7207 10.5687 12.7207 10.8377C12.7207 11.1066 12.9437 11.3247 13.2188 11.3247H14.2812C14.5563 11.3247 14.7793 11.1066 14.7793 10.8377C14.7793 10.5687 14.5563 10.3506 14.2812 10.3506Z" fill="inherit"/>
<path d="M14.2812 12.4286H13.2188C12.9437 12.4286 12.7207 12.6466 12.7207 12.9156C12.7207 13.1845 12.9437 13.4026 13.2188 13.4026H14.2812C14.5563 13.4026 14.7793 13.1845 14.7793 12.9156C14.7793 12.6466 14.5563 12.4286 14.2812 12.4286Z" fill="inherit"/>
<path d="M16.5059 2.2987H15.3105V1.48701C15.3105 1.21805 15.0876 1 14.8125 1C14.5374 1 14.3145 1.21805 14.3145 1.48701V2.2987H9.99805V1.48701C9.99805 1.21805 9.77505 1 9.5 1C9.22495 1 9.00195 1.21805 9.00195 1.48701V2.2987H4.68555V1.48701C4.68555 1.21805 4.46255 1 4.1875 1C3.91245 1 3.68945 1.21805 3.68945 1.48701V2.2987H2.49414C1.67027 2.2987 1 2.95412 1 3.75974V14.539C1 15.3446 1.67027 16 2.49414 16H16.5059C17.3297 16 18 15.3446 18 14.539C18 14.2246 18 4.03328 18 3.75974C18 2.95412 17.3297 2.2987 16.5059 2.2987ZM1.99609 3.75974C1.99609 3.4912 2.21952 3.27273 2.49414 3.27273H3.68945V4.08442C3.68945 4.35338 3.91245 4.57143 4.1875 4.57143C4.46255 4.57143 4.68555 4.35338 4.68555 4.08442V3.27273H9.00195V4.08442C9.00195 4.35338 9.22495 4.57143 9.5 4.57143C9.77505 4.57143 9.99805 4.35338 9.99805 4.08442V3.27273H14.3145V4.08442C14.3145 4.35338 14.5374 4.57143 14.8125 4.57143C15.0876 4.57143 15.3105 4.35338 15.3105 4.08442V3.27273H16.5059C16.7805 3.27273 17.0039 3.4912 17.0039 3.75974V5.67532H1.99609V3.75974ZM16.5059 15.026H2.49414C2.21952 15.026 1.99609 14.8075 1.99609 14.539V6.64935H17.0039V14.539C17.0039 14.8075 16.7805 15.026 16.5059 15.026Z" fill="inherit"/>
<path d="M5.78125 8.27273H4.71875C4.4437 8.27273 4.2207 8.49078 4.2207 8.75974C4.2207 9.0287 4.4437 9.24675 4.71875 9.24675H5.78125C6.0563 9.24675 6.2793 9.0287 6.2793 8.75974C6.2793 8.49078 6.0563 8.27273 5.78125 8.27273Z" stroke="inherit" stroke-width="0.2" />
<path d="M5.78125 10.3506H4.71875C4.4437 10.3506 4.2207 10.5687 4.2207 10.8377C4.2207 11.1066 4.4437 11.3247 4.71875 11.3247H5.78125C6.0563 11.3247 6.2793 11.1066 6.2793 10.8377C6.2793 10.5687 6.0563 10.3506 5.78125 10.3506Z" stroke="inherit" stroke-width="0.2" />
<path d="M5.78125 12.4286H4.71875C4.4437 12.4286 4.2207 12.6466 4.2207 12.9156C4.2207 13.1845 4.4437 13.4026 4.71875 13.4026H5.78125C6.0563 13.4026 6.2793 13.1845 6.2793 12.9156C6.2793 12.6466 6.0563 12.4286 5.78125 12.4286Z" stroke="inherit" stroke-width="0.2" />
<path d="M10.0312 8.27273H8.96875C8.6937 8.27273 8.4707 8.49078 8.4707 8.75974C8.4707 9.0287 8.6937 9.24675 8.96875 9.24675H10.0312C10.3063 9.24675 10.5293 9.0287 10.5293 8.75974C10.5293 8.49078 10.3063 8.27273 10.0312 8.27273Z" stroke="inherit" stroke-width="0.2" />
<path d="M10.0312 10.3506H8.96875C8.6937 10.3506 8.4707 10.5687 8.4707 10.8377C8.4707 11.1066 8.6937 11.3247 8.96875 11.3247H10.0312C10.3063 11.3247 10.5293 11.1066 10.5293 10.8377C10.5293 10.5687 10.3063 10.3506 10.0312 10.3506Z" stroke="inherit" stroke-width="0.2" />
<path d="M10.0312 12.4286H8.96875C8.6937 12.4286 8.4707 12.6466 8.4707 12.9156C8.4707 13.1845 8.6937 13.4026 8.96875 13.4026H10.0312C10.3063 13.4026 10.5293 13.1845 10.5293 12.9156C10.5293 12.6466 10.3063 12.4286 10.0312 12.4286Z" stroke="inherit" stroke-width="0.2" />
<path d="M14.2812 8.27273H13.2188C12.9437 8.27273 12.7207 8.49078 12.7207 8.75974C12.7207 9.0287 12.9437 9.24675 13.2188 9.24675H14.2812C14.5563 9.24675 14.7793 9.0287 14.7793 8.75974C14.7793 8.49078 14.5563 8.27273 14.2812 8.27273Z" stroke="inherit" stroke-width="0.2" />
<path d="M14.2812 10.3506H13.2188C12.9437 10.3506 12.7207 10.5687 12.7207 10.8377C12.7207 11.1066 12.9437 11.3247 13.2188 11.3247H14.2812C14.5563 11.3247 14.7793 11.1066 14.7793 10.8377C14.7793 10.5687 14.5563 10.3506 14.2812 10.3506Z" stroke="inherit" stroke-width="0.2" />
<path d="M14.2812 12.4286H13.2188C12.9437 12.4286 12.7207 12.6466 12.7207 12.9156C12.7207 13.1845 12.9437 13.4026 13.2188 13.4026H14.2812C14.5563 13.4026 14.7793 13.1845 14.7793 12.9156C14.7793 12.6466 14.5563 12.4286 14.2812 12.4286Z" stroke="inherit" stroke-width="0.2" />
<path d="M16.5059 2.2987H15.3105V1.48701C15.3105 1.21805 15.0876 1 14.8125 1C14.5374 1 14.3145 1.21805 14.3145 1.48701V2.2987H9.99805V1.48701C9.99805 1.21805 9.77505 1 9.5 1C9.22495 1 9.00195 1.21805 9.00195 1.48701V2.2987H4.68555V1.48701C4.68555 1.21805 4.46255 1 4.1875 1C3.91245 1 3.68945 1.21805 3.68945 1.48701V2.2987H2.49414C1.67027 2.2987 1 2.95412 1 3.75974V14.539C1 15.3446 1.67027 16 2.49414 16H16.5059C17.3297 16 18 15.3446 18 14.539C18 14.2246 18 4.03328 18 3.75974C18 2.95412 17.3297 2.2987 16.5059 2.2987ZM1.99609 3.75974C1.99609 3.4912 2.21952 3.27273 2.49414 3.27273H3.68945V4.08442C3.68945 4.35338 3.91245 4.57143 4.1875 4.57143C4.46255 4.57143 4.68555 4.35338 4.68555 4.08442V3.27273H9.00195V4.08442C9.00195 4.35338 9.22495 4.57143 9.5 4.57143C9.77505 4.57143 9.99805 4.35338 9.99805 4.08442V3.27273H14.3145V4.08442C14.3145 4.35338 14.5374 4.57143 14.8125 4.57143C15.0876 4.57143 15.3105 4.35338 15.3105 4.08442V3.27273H16.5059C16.7805 3.27273 17.0039 3.4912 17.0039 3.75974V5.67532H1.99609V3.75974ZM16.5059 15.026H2.49414C2.21952 15.026 1.99609 14.8075 1.99609 14.539V6.64935H17.0039V14.539C17.0039 14.8075 16.7805 15.026 16.5059 15.026Z" stroke="inherit" stroke-width="0.2" />
</svg>
