<svg width="27" height="26" viewBox="0 0 27 26" fill="white" xmlns="http://www.w3.org/2000/svg">
<path d="M23.625 0C24.5201 0 25.3785 0.355579 26.0115 0.988515C26.6444 1.62145 27 2.47989 27 3.375V24.9632C27 25.1301 26.9504 25.2933 26.8576 25.4321C26.7648 25.5709 26.6329 25.679 26.4786 25.7428C26.3243 25.8065 26.1545 25.8231 25.9908 25.7904C25.8271 25.7576 25.6768 25.6771 25.5589 25.5589L20.7444 20.7444C20.428 20.4279 19.9989 20.2501 19.5514 20.25H3.375C2.47989 20.25 1.62145 19.8944 0.988515 19.2615C0.355579 18.6285 0 17.7701 0 16.875V3.375C0 2.47989 0.355579 1.62145 0.988515 0.988515C1.62145 0.355579 2.47989 0 3.375 0L23.625 0Z" fill="inherit"/>
</svg>
