<svg width="13" height="8" viewBox="0 0 13 8" fill="inherit" stroke="inherit" xmlns="http://www.w3.org/2000/svg">
<path d="M6.90859 6.9788L6.90853 6.97886C6.80058 7.08806 6.65369 7.15 6.49998 7.15C6.3465 7.15 6.19938 7.08836 6.09139 6.9788L6.90859 6.9788ZM6.90859 6.9788L11.9823 1.84025L11.9824 1.84022C12.2063 1.61334 12.2059 1.24666 11.9812 1.02021L11.9812 1.02018C11.7557 0.792975 11.3899 0.793614 11.165 1.02132L11.165 1.02132L6.49998 5.74591L1.83497 1.02115L1.83495 1.02113C1.61009 0.793466 1.24444 0.792827 1.01891 1.01999L1.01887 1.02004C0.906202 1.13362 0.85 1.28251 0.85 1.43069C0.85 1.57846 0.905823 1.72679 1.01773 1.8402L1.01776 1.84023L6.09127 6.97868L6.90859 6.9788Z" fill="inherit" stroke="inherit" stroke-width="0.3"/>
</svg>
