<svg width="10" height="16" viewBox="0 0 10 16" fill="#6F6F6F" stroke="#6F6F6F" xmlns="http://www.w3.org/2000/svg">
<path d="M8.9366 8.17588L8.93667 8.17582C9.07285 8.04119 9.15 7.85811 9.15 7.66664C9.15 7.4754 9.07319 7.29205 8.9366 7.15743L8.9366 8.17588ZM8.9366 8.17588L2.0852 14.9409L2.08517 14.9409C1.80217 15.2202 1.34463 15.2197 1.06216 14.9395L1.06213 14.9395C0.778942 14.6584 0.779725 14.2025 1.06356 13.9223L1.06356 13.9223L7.39905 7.66664L1.06333 1.41105L1.06331 1.41103C0.779526 1.13074 0.778742 0.675138 1.06188 0.394035L1.06193 0.393988C1.2036 0.253466 1.38928 0.183335 1.57425 0.183335C1.75872 0.183335 1.9437 0.252993 2.08514 0.392569L2.08517 0.392599L8.93648 7.15731L8.9366 8.17588Z" fill="inherit" stroke="inherit" stroke-width="0.3"/>
</svg>
