<svg width="10" height="16" viewBox="0 0 10 16" fill="#6F6F6F" stroke="#6F6F6F"  xmlns="http://www.w3.org/2000/svg">
<path d="M1.0634 8.17588L1.06333 8.17582C0.927147 8.04119 0.85 7.85811 0.85 7.66664C0.85 7.4754 0.926809 7.29205 1.0634 7.15743L1.0634 8.17588ZM1.0634 8.17588L7.9148 14.9409L7.91483 14.9409C8.19783 15.2202 8.65537 15.2197 8.93784 14.9395L8.93787 14.9395C9.22106 14.6584 9.22027 14.2025 8.93644 13.9223L8.93644 13.9223L2.60095 7.66664L8.93667 1.41105L8.93669 1.41103C9.22047 1.13074 9.22126 0.675138 8.93812 0.394035L8.93807 0.393988C8.7964 0.253466 8.61072 0.183335 8.42575 0.183335C8.24128 0.183335 8.0563 0.252993 7.91486 0.392569L7.91483 0.392599L1.06352 7.15731L1.0634 8.17588Z" fill="inherit" stroke="inherit" stroke-width="0.3"/>
</svg>
