    <svg version="1.1" xmlns="http://www.w3.org/2000/svg" xmlns:xlink="http://www.w3.org/1999/xlink" id="circle_success" viewBox="0 0 32 32">
      <title>circle_success</title>
      <path fill="#5090fc" style="fill: var(--color1, #5090fc)" opacity="0.1" d="M30.439 16.78c0 8.405-6.814 15.22-15.22 15.22s-15.22-6.814-15.22-15.22c0-8.405 6.814-15.22 15.22-15.22s15.22 6.814 15.22 15.22z"></path>
      <path fill="#6bb817" style="fill: var(--color2, #6bb817)" d="M32 5.053c0 2.791-2.262 5.053-5.053 5.053s-5.053-2.262-5.053-5.053c0-2.791 2.262-5.053 5.053-5.053s5.053 2.262 5.053 5.053z"></path>
      <path fill="#fff" style="fill: var(--color3, #fff)" d="M29.36 3.97l-2.935 2.664c-0.073 0.066-0.172 0.103-0.274 0.103s-0.202-0.037-0.274-0.103l-1.341-1.217c-0.152-0.138-0.152-0.36 0-0.498s0.397-0.138 0.549 0l1.066 0.968 2.661-2.415c0.152-0.138 0.397-0.138 0.549 0s0.152 0.36 0 0.498z"></path>
      <path fill="#5090fc" style="fill: var(--color1, #5090fc)" d="M15.415 16.101c-1.413 0-2.559-1.158-2.559-2.587s1.146-2.587 2.559-2.587c1.413 0 2.559 1.158 2.559 2.587s-1.146 2.587-2.559 2.587zM20.683 21.175c0 2.466-10.537 2.466-10.537 0s2.359-4.465 5.268-4.465c2.91 0 5.268 1.999 5.268 4.465z"></path>
      <path fill="#5090fc" style="fill: var(--color1, #5090fc)" d="M8.66 16.705h1.216c0.149 0 0.27 0.121 0.27 0.27s-0.121 0.27-0.27 0.27h-1.216v1.216c0 0.149-0.121 0.27-0.27 0.27s-0.27-0.121-0.27-0.27v-1.216h-1.216c-0.149 0-0.27-0.121-0.27-0.27s0.121-0.27 0.27-0.27h1.216v-1.216c0-0.149 0.121-0.27 0.27-0.27s0.27 0.121 0.27 0.27v1.216z"></path>
    </svg>