    <svg version="1.1" xmlns="http://www.w3.org/2000/svg" xmlns:xlink="http://www.w3.org/1999/xlink" id="circle_error" viewBox="0 0 32 32">
      <title>circle_error</title>
      <path fill="#5090fc" style="fill: var(--color1, #5090fc)" opacity="0.1" d="M30.439 16.78c0 8.405-6.814 15.22-15.22 15.22s-15.22-6.814-15.22-15.22c0-8.405 6.814-15.22 15.22-15.22s15.22 6.814 15.22 15.22z"></path>
      <path fill="#5090fc" style="fill: var(--color1, #5090fc)" d="M20.878 10.146h-10.927c-0.751 0-1.366 0.615-1.366 1.366v12.293l2.732-2.732h9.561c0.751 0 1.366-0.615 1.366-1.366v-8.195c0-0.751-0.615-1.366-1.366-1.366zM16.098 18.341h-1.366v-1.366h1.366v1.366zM16.098 15.61h-1.366v-2.732h1.366v2.732z"></path>
      <path fill="#d33f45" style="fill: var(--color4, #d33f45)" d="M32 5.053c0 2.791-2.262 5.053-5.053 5.053s-5.053-2.262-5.053-5.053c0-2.791 2.262-5.053 5.053-5.053s5.053 2.262 5.053 5.053z"></path>
      <path fill="#fff" style="fill: var(--color3, #fff)" d="M26.988 4.624l1.413-1.413c0.141-0.141 0.369-0.141 0.51 0s0.141 0.369 0 0.51l-1.413 1.413 1.413 1.413c0.141 0.141 0.141 0.369 0 0.51s-0.369 0.141-0.51 0l-1.413-1.413-1.413 1.413c-0.141 0.141-0.369 0.141-0.51 0s-0.141-0.369 0-0.51l1.413-1.413-1.413-1.413c-0.141-0.141-0.141-0.369 0-0.51s0.369-0.141 0.51 0l1.413 1.413z"></path>
    </svg>