    <svg version="1.1" xmlns="http://www.w3.org/2000/svg" xmlns:xlink="http://www.w3.org/1999/xlink" id="circle-video-play" viewBox="0 0 31 32">
      <title>play-btn</title>
      <path fill="#000" style="fill: var(--color1, #000)" d="M25.412 12.863c0 5.371-4.354 9.726-9.726 9.726s-9.726-4.354-9.726-9.726c0-5.371 4.354-9.726 9.726-9.726s9.726 4.354 9.726 9.726z"></path>
      <path fill="#d33f45" style="fill: var(--color2, #d33f45)" d="M25.412 12.863c0 5.371-4.354 9.726-9.726 9.726s-9.726-4.354-9.726-9.726c0-5.371 4.354-9.726 9.726-9.726s9.726 4.354 9.726 9.726z"></path>
      <path fill="#000" style="fill: var(--color1, #000)" d="M13.49 10.714v4.297c0 0.23 0.187 0.417 0.417 0.417 0.065 0 0.129-0.015 0.187-0.044l4.297-2.149c0.206-0.103 0.29-0.354 0.187-0.56-0.040-0.081-0.106-0.146-0.187-0.187l-4.297-2.149c-0.206-0.103-0.457-0.020-0.56 0.187-0.029 0.058-0.044 0.122-0.044 0.187z"></path>
      <path fill="#fff" style="fill: var(--color3, #fff)" d="M13.49 10.714v4.297c0 0.23 0.187 0.417 0.417 0.417 0.065 0 0.129-0.015 0.187-0.044l4.297-2.149c0.206-0.103 0.29-0.354 0.187-0.56-0.040-0.081-0.106-0.146-0.187-0.187l-4.297-2.149c-0.206-0.103-0.457-0.020-0.56 0.187-0.029 0.058-0.044 0.122-0.044 0.187z"></path>
    </svg>