<svg width="18" height="18" viewBox="0 0 18 18" fill="#fff" stroke="#fff"
  xmlns="http://www.w3.org/2000/svg">
  <path d="M9.51894 4.74799L9.51894 4.69799H9.46894H8.53106H8.48106L8.48106 4.74799L8.48104 8.48104L4.76366 8.48103H4.71366V8.53103V9.46897V9.51897H4.76366H8.48104V10.4069V10.4569H8.53104L9.46897 10.4569H9.51897V10.4069V9.51897L10.4069 9.51896H10.4569V9.46896V8.53104V8.48104L10.4069 8.48104L9.51897 8.48103L9.51894 4.74799ZM3.30514 3.30514C0.164953 6.44533 0.164953 11.5547 3.30514 14.6949C6.44533 17.835 11.5547 17.835 14.6949 14.6949C17.835 11.5547 17.835 6.44533 14.6949 3.30514C11.5547 0.164953 6.44533 0.164953 3.30514 3.30514ZM13.9609 13.9609C11.2255 16.6964 6.77451 16.6964 4.03908 13.9609C1.30364 11.2255 1.30364 6.77451 4.03908 4.03908C6.77451 1.30364 11.2255 1.30364 13.9609 4.03908C16.6964 6.77451 16.6964 11.2255 13.9609 13.9609Z" fill="inherit" stroke="inherit" stroke-width="0.1"/>
</svg>