<svg width="31" height="31" viewBox="0 0 31 31" fill="black" xmlns="http://www.w3.org/2000/svg">
<path d="M0.266963 0.266963C-0.0889877 0.622913 -0.0889877 1.19991 0.266963 1.55586L28.6765 29.9654C29.0325 30.3214 29.6095 30.3214 29.9654 29.9654C30.3214 29.6095 30.3214 29.0325 29.9654 28.6765L1.55586 0.266964C1.19991 -0.0889876 0.622913 -0.0889878 0.266963 0.266963Z" fill="inherit"/>
<path d="M0.392276 29.9654C0.748227 30.3214 1.32523 30.3214 1.68118 29.9654L30.0908 1.55587C30.4467 1.19991 30.4467 0.622913 30.0908 0.266963C29.7348 -0.0889878 29.1578 -0.0889878 28.8019 0.26697L0.392277 28.6765C0.0363258 29.0325 0.0363257 29.6095 0.392276 29.9654Z" fill="inherit"/>
</svg>
