<svg width="16" height="17" viewBox="0 0 16 17" fill="inherit" xmlns="http://www.w3.org/2000/svg">
<path d="M8.43906 8.81012L15.8191 1.10229C16.0607 0.84975 16.0603 0.440885 15.8178 0.18877C15.5753 -0.0631493 15.1826 -0.0624984 14.9407 0.190072L7.99997 7.43911L1.05925 0.189811C0.817373 -0.0627269 0.424843 -0.0633779 0.182344 0.188509C0.0607817 0.314892 7.23731e-09 0.480463 0 0.646033C-7.21882e-09 0.81118 0.0603752 0.9761 0.181093 1.10225L7.56091 8.81012C7.6771 8.93175 7.83522 9 7.99997 9C8.16472 9 8.32266 8.93155 8.43906 8.81012Z" fill="inherit"/>
<path d="M8.43906 8.18988L15.8191 15.8977C16.0607 16.1503 16.0603 16.5591 15.8178 16.8112C15.5753 17.0632 15.1826 17.0625 14.9407 16.8099L7.99997 9.56089L1.05925 16.8102C0.817373 17.0627 0.424843 17.0634 0.182344 16.8115C0.0607817 16.6851 7.23731e-09 16.5195 0 16.354C-7.21882e-09 16.1888 0.0603752 16.0239 0.181093 15.8977L7.56091 8.18988C7.6771 8.06825 7.83522 8 7.99997 8C8.16472 8 8.32266 8.06845 8.43906 8.18988Z" fill="inherit"/>
</svg>
