<svg width="23" height="16" viewBox="0 0 23 16" fill="#fff" xmlns="http://www.w3.org/2000/svg">
<path d="M11.8396 12.1787V12.0861C11.3817 12.081 10.9436 12.0553 10.5205 12.0193C10.2915 12.6313 9.96797 13.2022 9.56477 13.7113C10.3264 13.8399 11.0979 13.9119 11.8695 13.9222L11.8396 12.1787Z" fill="inherit"/>
<path d="M9.82362 8.77403C9.45525 6.95339 8.15603 5.4722 6.42872 4.9116C5.95084 4.76246 5.45804 4.68531 4.96025 4.68531C3.72574 4.69045 2.53106 5.16361 1.62011 6.01736C-0.405878 7.92028 -0.550236 11.1655 1.29157 13.2588C3.13338 15.352 6.27441 15.5011 8.30039 13.5982C9.33579 12.6262 9.92815 11.253 9.92317 9.80778C9.92317 9.4632 9.88833 9.11347 9.82362 8.77403ZM4.96025 9.11861C5.80151 9.11861 6.54321 9.69463 6.77219 10.5329C7.05095 11.5667 6.47352 12.6365 5.46799 12.9296V13.3822C5.46799 13.6651 5.24399 13.8965 4.97021 13.8965C4.69642 13.8965 4.47242 13.6651 4.47242 13.3822V12.9347C3.65107 12.7033 3.0836 11.937 3.07862 11.0575C3.07862 10.7747 3.30262 10.5432 3.57641 10.5432C3.85019 10.5432 4.07419 10.7747 4.07419 11.0575C4.07419 11.5616 4.47242 11.9679 4.96025 11.9679C5.44808 11.9679 5.84133 11.5564 5.84133 11.0524C5.84133 10.5484 5.4431 10.1421 4.95527 10.1421C4.10406 10.1421 3.36236 9.55063 3.14333 8.70203C2.87951 7.67342 3.47685 6.60366 4.4774 6.32594V6.10479C4.4774 5.82192 4.7014 5.59049 4.97518 5.59049C5.24897 5.59049 5.47297 5.82192 5.47297 6.10479V6.33623C6.28436 6.57281 6.84188 7.33912 6.84188 8.20829C6.84188 8.49116 6.61788 8.7226 6.34409 8.7226C6.07031 8.7226 5.84631 8.49116 5.84631 8.20829C5.84631 7.70428 5.44808 7.29283 4.96025 7.29283C4.47242 7.29283 4.07917 7.69913 4.07419 8.20829C4.07419 8.71231 4.47242 9.11861 4.96025 9.11861Z" fill="inherit"/>
<path d="M11.8247 11.0524L11.7948 9.23176C11.4862 9.22661 11.1826 9.21633 10.8939 9.19576C10.9088 9.40148 10.9187 9.60206 10.9187 9.80264C10.9187 10.2038 10.8789 10.6101 10.8043 11.0061C11.1328 11.037 11.4763 11.0524 11.8247 11.0524Z" fill="inherit"/>
<path d="M17.2755 2.54066C16.932 2.72581 16.5686 2.87496 16.1953 2.98811C15.0753 3.33783 13.6068 3.52813 12.0736 3.52813C10.6051 3.52813 9.20636 3.35326 8.12617 3.02925C7.75283 2.92639 7.39442 2.78238 7.05095 2.60238L7.08579 4.05272C7.64829 4.26872 8.17097 4.57731 8.64386 4.96303C8.6588 4.96818 8.66875 4.96818 8.68369 4.97332C9.63944 5.22533 10.8441 5.35905 12.0736 5.35905C13.4973 5.35905 14.8961 5.1739 15.9066 4.86017C16.9867 4.52073 17.2257 4.16586 17.2257 4.099C17.2257 4.027 17.2207 3.96014 17.2755 3.88814V2.54066Z" fill="inherit"/>
<path d="M15.9016 0.498875C14.8911 0.180006 13.4923 0 12.0686 0C10.635 0 9.29099 0.180006 8.28546 0.498875C7.23513 0.828029 7.00615 1.15204 7.00117 1.2549C7.00117 1.2549 7.00615 1.2549 7.00615 1.26519C7.03104 1.37833 7.32971 1.72806 8.39995 2.04693C9.39054 2.34523 10.6947 2.5098 12.0686 2.5098C13.4923 2.5098 14.8861 2.3298 15.8966 2.01607C16.9768 1.68177 17.2207 1.3269 17.2207 1.2549C17.2207 1.18804 16.9818 0.838315 15.9016 0.498875Z" fill="inherit"/>
<path d="M22.99 14.7297V13.1868C22.6565 13.3616 22.3081 13.5108 21.9447 13.6239C20.8297 13.9736 19.3711 14.1639 17.833 14.1639C16.4691 14.1639 15.14 14.0045 14.0946 13.7216C13.6665 13.6085 13.2534 13.4542 12.8551 13.2536L12.88 14.7451C12.88 14.7502 12.88 14.7502 12.88 14.7554C12.88 14.8325 13.099 15.1771 14.1494 15.5114C15.1449 15.8251 16.489 16 17.9276 16C19.3612 16 20.7102 15.82 21.7157 15.496C22.766 15.1565 22.995 14.8017 22.995 14.7297H22.99Z" fill="inherit"/>
<path d="M17.2655 5.41048C16.922 5.59049 16.5636 5.73963 16.1903 5.85278C15.0703 6.20251 13.6018 6.3928 12.0637 6.3928C11.307 6.3928 10.5554 6.34137 9.80868 6.24365C10.2119 6.81967 10.5106 7.4677 10.6997 8.15686C11.1278 8.18772 11.5908 8.20829 12.0686 8.20829C12.0836 8.20829 12.1035 8.20829 12.1184 8.20829C12.9348 7.28255 15.13 6.81967 17.2655 6.75796V5.41048Z" fill="inherit"/>
<path d="M21.9098 10.7798C20.7998 11.1193 19.3562 11.3044 17.8429 11.3044C16.3745 11.3044 14.9757 11.1295 13.8955 10.8055C13.5222 10.6975 13.1588 10.5535 12.8103 10.3735L12.8302 11.5564L12.8352 11.9884C13.2235 12.4873 15.0802 13.1302 17.838 13.1302C19.2766 13.1302 20.6355 12.9553 21.656 12.6365C22.7312 12.297 22.9652 11.9473 22.9652 11.8753C22.9652 11.8187 22.995 11.757 22.995 11.7056H23V10.3427C22.6516 10.5227 22.2882 10.677 21.9098 10.7798Z" fill="inherit"/>
<path d="M21.6759 8.28544C20.6604 7.96657 19.2666 7.79685 17.8429 7.79685H17.7583C16.4342 7.79685 15.1748 7.95114 14.2091 8.23401C13.1787 8.5323 12.8253 8.87175 12.7805 9.01061C12.7755 9.02089 12.7755 9.02604 12.7755 9.03118C12.7755 9.03118 12.7755 9.03118 12.7854 9.05175C12.8153 9.15976 13.109 9.50948 14.1792 9.83349C15.1698 10.1266 16.474 10.2912 17.8479 10.2912C19.2666 10.2912 20.6106 10.1215 21.6311 9.80778C22.7362 9.46834 22.9851 9.11347 22.99 9.03632V9.03118C22.9851 8.95403 22.7362 8.61459 21.6759 8.28544Z" fill="inherit"/>
</svg>
