<svg width="27" height="16" viewBox="0 0 27 16" fill="#CACFD5" stroke="#CACFD5" xmlns="http://www.w3.org/2000/svg">
<path d="M1.48828 15.1499H13.4922C13.4949 15.15 13.4976 15.15 13.5003 15.15C13.5031 15.15 13.5058 15.15 13.5085 15.1499H15.6975H21.7196H25.5118C25.7166 15.1499 25.9079 15.05 26.0275 14.8829L26.0276 14.8829C26.1469 14.7161 26.1812 14.5018 26.1207 14.3055L24.7861 9.97209L24.6427 10.0162L24.7861 9.97208C24.7032 9.70298 24.4579 9.51665 24.1771 9.51665H21.9766L20.7822 5.63875L20.6388 5.6829L20.7822 5.63874C20.6993 5.36964 20.454 5.1833 20.1731 5.1833H17.9727L16.7783 1.30545L16.7783 1.30544C16.6954 1.03634 16.4501 0.85 16.1692 0.85H10.8308C10.5499 0.85 10.3046 1.03634 10.2217 1.30544L10.2217 1.30545L9.02733 5.1833H6.82685C6.54596 5.1833 6.30073 5.36964 6.21783 5.63874L6.21782 5.63875L5.02347 9.51665H2.82295C2.54205 9.51665 2.29683 9.70298 2.21392 9.97208L2.21392 9.97209L0.879251 14.3054L0.879249 14.3055C0.818785 14.5018 0.853119 14.7161 0.972507 14.8829L0.972529 14.8829C1.09216 15.05 1.28343 15.1499 1.48828 15.1499ZM15.7005 10.8166L16.6348 13.85H15.6975H10.3653L11.2995 10.8166H15.7005ZM23.7083 10.8166L24.6426 13.85H21.7275C21.7249 13.85 21.7222 13.85 21.7196 13.85H18.3731L19.3073 10.8166H23.7083ZM20.6387 9.5167H16.1698H14.3692L15.3034 6.48335H19.7044L20.6387 9.5167ZM13.9655 6.4833L13.5 7.99472L13.0345 6.4833H13.9655ZM10.3653 5.18335L11.2995 2.15H15.7005L16.6348 5.18335H10.3653ZM6.36135 9.51665L7.29562 6.4833H11.6966L12.6309 9.51665H10.8308H6.36135ZM7.69271 10.8166L8.62697 13.85H2.35745L3.29171 10.8166H7.69271ZM9.96159 10.8166L9.49609 12.328L9.03059 10.8166H9.96159ZM17.5039 12.3281L17.0384 10.8167H17.9694L17.5039 12.3281Z" fill="inherit" stroke="inherit" stroke-width="0.3"/>
</svg>
