<svg width="26" height="16" viewBox="0 0 26 16" fill="#ddd" xmlns="http://www.w3.org/2000/svg">
<path d="M12.9927 15.0999C12.9953 15.1 12.9978 15.1 13.0003 15.1C13.0029 15.1 13.0054 15.1 13.0079 15.0999H15.1096H20.8908H24.5313C24.7153 15.0999 24.8858 15.0064 24.9917 14.8523L24.9918 14.8522C25.0974 14.6985 25.1275 14.5015 25.0742 14.3212L24.9783 14.3496L25.0742 14.3212L23.7929 9.98789C23.7199 9.74087 23.5025 9.56665 23.25 9.56665H21.1059L19.9492 5.65455L19.8533 5.6829L19.9492 5.65454C19.8761 5.40753 19.6587 5.2333 19.4062 5.2333H17.2621L16.1054 1.32125L16.0095 1.3496L16.1054 1.32124C16.0324 1.07423 15.815 0.9 15.5625 0.9H10.4375C10.185 0.9 9.96764 1.07423 9.89459 1.32124L9.99048 1.3496L9.89459 1.32125L8.73785 5.2333H6.59378C6.34129 5.2333 6.12389 5.40753 6.05084 5.65454L6.05084 5.65455L4.89415 9.56665H2.75003C2.49754 9.56665 2.28014 9.74088 2.20709 9.98789L2.30298 10.0162L2.20709 9.98789L0.925805 14.3212L1.0217 14.3496L0.925804 14.3212C0.87251 14.5015 0.902628 14.6985 1.00828 14.8522L1.0083 14.8523C1.11429 15.0064 1.28479 15.0999 1.46875 15.0999H12.9927ZM22.8316 10.7666L23.7581 13.9H20.8982C20.8957 13.9 20.8933 13.9 20.8908 13.9H17.617L18.5434 10.7666H22.8316ZM15.1096 13.9H9.92947L10.8559 10.7666H15.1441L16.0706 13.9H15.1096ZM19.9143 9.5667H15.563H13.7732L14.6997 6.43335H18.9879L19.9143 9.5667ZM13.5081 6.4333L13 8.15163L12.4919 6.4333H13.5081ZM9.92947 5.23335L10.8559 2.1H15.1441L16.0706 5.23335H9.92947ZM7.01218 6.4333H11.3004L12.2268 9.56665H10.4376H6.08572L7.01218 6.4333ZM7.45661 10.7666L8.38307 13.9H2.24197L3.16843 10.7666H7.45661ZM9.66431 10.7666L9.15625 12.485L8.64819 10.7666H9.66431ZM16.8438 12.485L16.3357 10.7667H17.3518L16.8438 12.485Z" fill="inherit" stroke="inherit" stroke-width="0.2"/>
</svg>
