<svg id="copyIcon" width="15" height="15" viewBox="0 0 32 32" fill="#000" xmlns="http://www.w3.org/2000/svg">
  <path d="M8.423 0c-0.83 0-1.497 0.668-1.497 1.497v23.959c0 0.83 0.668 1.497 1.497 1.497h20.465c0.83 0 1.497-0.668 1.497-1.497v-15.474h-9.983c-0.83 0-1.497-0.668-1.497-1.497v-8.486h-10.482z" fill="inherit"></path>
  <path d="M3.112 5.046c-0.83 0-1.497 0.668-1.497 1.497v23.959c0 0.83 0.668 1.497 1.497 1.497h20.465c0.83 0 1.497-0.668 1.497-1.497v-1.747h-18.219c-0.83 0-1.497-0.668-1.497-1.497v-22.212h-2.246z" fill="inherit"></path>
  <path d="M19.904 0v7.487c0 0.83 0.668 1.497 1.497 1.497h8.985z" fill="inherit"></path>
</svg>