<svg width="15" height="22" viewBox="0 0 15 22" fill="#CACFD5" stroke="#CACFD5" xmlns="http://www.w3.org/2000/svg">
<path d="M11.0002 3.35H11H10.65V1V0.85H10.5H9.5H9.35V1V3.35H6.15V1V0.85H6H5H4.85V1V3.35H1H0.85V3.5V4.5V4.65H1H2.85V17.35H1H0.85V17.5V18.5V18.65H1H4.85V21V21.15H5H6H6.15V21V18.65H9.35V21V21.15H9.5H10.5H10.65V21V18.65H11H11.0002C13.015 18.6477 14.6477 17.015 14.65 15.0002V15L14.65 14L14.65 13.9998C14.6481 12.7964 14.0537 11.677 13.071 11C14.0537 10.323 14.6481 9.20361 14.65 8.00024V8L14.65 7L14.65 6.99983C14.6477 4.98499 13.015 3.35229 11.0002 3.35ZM13.35 14.0002V14.9998C13.3484 16.2972 12.2972 17.3484 10.9998 17.35H4.15V11.65H10.9998C12.2972 11.6516 13.3484 12.7028 13.35 14.0002ZM13.35 7.99981C13.3484 9.29724 12.2972 10.3484 10.9998 10.35H4.15V4.65L10.9998 4.65C10.9999 4.65 10.9999 4.65 11 4.65C12.2973 4.65171 13.3484 5.70282 13.35 7.00019V7.99981Z" fill="inherit" stroke="inherit" stroke-width="0.3"/>
</svg>
