<svg width="14" height="20" viewBox="0 0 14 20" fill="#ddd" xmlns="http://www.w3.org/2000/svg">
<path d="M10.0911 3.05H10.0909H9.83636V1V0.8H9.63636H8.72727H8.52727V1V3.05H5.74545V1V0.8H5.54545H4.63636H4.43636V1V3.05H1H0.8V3.25V4.15V4.35H1H2.61818V15.65H1H0.8V15.85V16.75V16.95H1H4.43636V19V19.2H4.63636H5.54545H5.74545V19V16.95H8.52727V19V19.2H8.72727H9.63636H9.83636V19V16.95H10.0909H10.0911C11.956 16.9479 13.4706 15.4513 13.4727 13.6002V13.6V12.7V12.6997C13.471 11.6258 12.9504 10.6255 12.0859 10C12.9504 9.37447 13.471 8.3742 13.4727 7.30032V7.3V6.4V6.39977C13.4706 4.54869 11.956 3.0521 10.0911 3.05ZM12.1636 12.7002V13.5998C12.1622 14.7297 11.237 15.6486 10.0907 15.65H3.92727V10.65H10.0907C11.237 10.6514 12.1622 11.5703 12.1636 12.7002ZM12.1636 7.29975C12.1622 8.42972 11.237 9.34859 10.0907 9.35H3.92727V4.35L10.0907 4.35C10.0907 4.35 10.0908 4.35 10.0909 4.35C11.2371 4.35151 12.1622 5.27034 12.1636 6.40025V7.29975Z" fill="inherit" stroke="inherit" stroke-width="0.4"/>
</svg>
