<svg version="1.1" xmlns="http://www.w3.org/2000/svg" viewBox="0 0 35 32" fill="#fff">
    <path fill="inherit"
        d="M2.909 0c-1.607 0-2.909 1.302-2.909 2.909v0 20.364c0 1.607 1.302 2.909 2.909 2.909v0h29.091c1.607 0 2.909-1.302 2.909-2.909v0-20.364c0-1.607-1.302-2.909-2.909-2.909v0h-29.091zM2.909 2.909h29.091v17.455h-29.091v-17.455zM17.455 21.818c0.803 0 1.455 0.651 1.455 1.455s-0.651 1.455-1.455 1.455v0c-0.803 0-1.455-0.651-1.455-1.455s0.651-1.455 1.455-1.455v0zM10.182 29.091c-0.803 0-1.455 0.651-1.455 1.455s0.651 1.455 1.455 1.455v0h14.545c0.803 0 1.455-0.651 1.455-1.455s-0.651-1.455-1.455-1.455v0h-14.545z">
    </path>
</svg>