<svg width="15" height="18" viewBox="0 0 15 18"  fill="#337FFF" stroke="#337FFF" xmlns="http://www.w3.org/2000/svg">
<path d="M3.15078 3.10178H3.10078V3.15178V4.08928V4.13928H3.15078H6.24203H6.29203V4.08928V3.15178V3.10178H6.24203H3.15078ZM3.15078 11.7089H3.10078V11.7589V12.6964V12.7464H3.15078H10.5456H10.5956V12.6964V11.7589V11.7089H10.5456H3.15078ZM3.15078 9.55716H3.10078V9.60716V10.5447V10.5947H3.15078H10.5456H10.5956V10.5447V9.60716V9.55716H10.5456H3.15078ZM3.15078 7.40534H3.10078V7.45534V8.39284V8.44284H3.15078H10.5456H10.5956V8.39284V7.45534V7.40534H10.5456H3.15078ZM3.15078 5.25356H3.10078V5.30356V6.24106V6.29106H3.15078H6.24203H6.29203V6.24106V5.30356V5.25356H6.24203H3.15078ZM1 14.8953H3.10178V17V17.05H3.15178H14.8482H14.8982V17V3.15475V3.10475H14.8482H10.2937L8.15361 0.964645L8.13896 0.95H8.11825H1H0.95V1V14.8453V14.8953H1ZM7.45534 6.29106H11.7089V13.8577H1.9875V1.9875H7.40534V6.24106V6.29106H7.45534ZM12.7318 5.5428L11.3312 4.14225H13.8607V16.0125H4.13928V14.8953H12.6964H12.7464V14.8453V5.57816V5.55745L12.7318 5.5428ZM8.44284 5.25356V2.72112L10.9753 5.25356H8.44284Z" fill="inherit" stroke="inherit" stroke-width="0.1"/>
</svg>
