    <svg version="1.1" xmlns="http://www.w3.org/2000/svg" xmlns:xlink="http://www.w3.org/1999/xlink" id="downloadPlatform" width="27" height="20" viewBox="0 0 42 32" fill="#fff">
      <title>downloadPlatform</title>
      <path fill="inherit" style="fill: var(--color3, inherit)" d="M7.018 0c-2.309 0-4.211 1.886-4.211 4.173v18.088c0 1.068 0.426 2.040 1.105 2.782h-3.912c0.011 2.307 1.883 4.174 4.192 4.174 0.007 0 0.013 0 0.020-0h5.612v-5.566h-2.806c-0.009 0-0.019 0-0.029 0-0.76 0-1.376-0.616-1.376-1.376 0-0.005 0-0.011 0-0.016v0.001-18.087c0-0.787 0.611-1.391 1.405-1.391h28.069v-2.782h-28.069zM25.263 5.565c-1.549 0-2.808 1.248-2.808 2.784v1.391h2.808v-1.391h14.035v18.087h-5.613c-0.004 0.769-0.628 1.391-1.398 1.391-0.002 0-0.004 0-0.005 0h0c-0.002 0-0.004 0-0.007 0-0.77 0-1.394-0.622-1.398-1.391v-0h-1.403v4.173h9.824c1.549 0 2.808-1.248 2.808-2.782v-19.478c0-1.536-1.258-2.784-2.808-2.784h-14.035zM15.439 12.52c-1.551 0-2.808 1.246-2.808 2.784v13.912c0 1.539 1.256 2.784 2.808 2.784h8.421c1.549 0 2.806-1.246 2.806-2.782v-13.913c0-1.538-1.256-2.782-2.806-2.782h-8.421zM15.439 15.304h8.421v13.912h-2.808c-0.010 0.769-0.634 1.388-1.402 1.393h-0c-0.77-0.004-1.393-0.623-1.405-1.39v-0.001h-2.806v-13.913z"></path>
    </svg>
