<svg width="31" height="31" viewBox="0 0 31 31" fill="none" xmlns="http://www.w3.org/2000/svg">
<path d="M15.6001 0C24.0001 0 30.8001 6.8 30.8001 15.2C30.8001 23.6 24.0001 30.4 15.6001 30.4C7.20015 30.4 0.400146 23.5 0.400146 15.2C0.400146 6.9 7.20015 0 15.6001 0ZM15.6001 2.8C8.70015 2.8 3.20015 8.3 3.20015 15.2C3.20015 22.1 8.80015 27.6 15.6001 27.6C22.4001 27.6 28.0001 22 28.0001 15.2C28.0001 8.4 22.4001 2.8 15.6001 2.8ZM20.7001 10C21.2001 10.5 21.2001 11.3 20.8001 11.8L20.7001 12L17.5001 15.2L20.7001 18.4C21.2001 18.9 21.2001 19.8 20.7001 20.3C20.2001 20.8 19.4001 20.8 18.9001 20.4L18.8001 20.3L15.6001 17.1L12.4001 20.3C11.9001 20.8 11.0001 20.8 10.5001 20.3C10.0001 19.8 10.0001 19 10.4001 18.5L10.5001 18.4L13.7001 15.2L10.4001 12C9.90015 11.5 9.90015 10.6 10.4001 10.1C10.9001 9.6 11.7001 9.6 12.2001 10H12.4001L15.6001 13.2L18.8001 10C19.3001 9.5 20.1001 9.5 20.7001 10Z" fill="#EC3838"/>
</svg>
