<svg width="26" height="26" viewBox="0 0 26 26" fill="white" stroke="white" xmlns="http://www.w3.org/2000/svg">
<path d="M4.67051 16.5147L4.6315 16.4226L4.53943 16.4616L3.2446 17.0102L3.15252 17.0492L3.19153 17.1413C4.27012 19.6871 6.30719 21.7274 8.85868 22.8084L8.95075 22.8474L8.98976 22.7554L9.53834 21.4605L9.57735 21.3685L9.48528 21.3294C7.32333 20.4135 5.5885 18.6814 4.67051 16.5147ZM16.5147 21.3295L16.4226 21.3685L16.4617 21.4606L17.0102 22.7554L17.0492 22.8475L17.1413 22.8085C19.6871 21.7299 21.7275 19.6928 22.8085 17.1413L22.8475 17.0492L22.7554 17.0102L21.4606 16.4617L21.3685 16.4226L21.3295 16.5147C20.4135 18.6767 18.6814 20.4115 16.5147 21.3295ZM21.3295 9.48532L21.3685 9.5774L21.4606 9.53839L22.7554 8.98981L22.8475 8.9508L22.8085 8.85873C21.7593 6.38223 19.7595 4.30085 17.1413 3.19158L17.0492 3.15257L17.0102 3.24464L16.4617 4.53943L16.4226 4.6315L16.5147 4.67051C18.6767 5.58651 20.4115 7.3186 21.3295 9.48532ZM9.48528 4.67051L9.57735 4.6315L9.53834 4.53943L8.98976 3.2446L8.95075 3.15252L8.85868 3.19153C6.38208 4.24082 4.3008 6.24048 3.19153 8.85868L3.15252 8.95075L3.2446 8.98976L4.53943 9.53834L4.6315 9.57735L4.67051 9.48528C5.58651 7.32324 7.3186 5.5885 9.48528 4.67051ZM13.8031 1V0.9H13.7031H12.2969H12.1969V1V5.2071C8.51692 5.58364 5.58364 8.51692 5.2071 12.1969H1H0.9V12.2969V13.7031V13.8031H1H5.2071C5.58364 17.4831 8.51692 20.4164 12.1969 20.7929V25V25.1H12.2969H13.7031H13.8031V25V20.7929C17.4831 20.4164 20.4164 17.4831 20.7929 13.8031H25H25.1V13.7031V12.2969V12.1969H25H20.7929C20.4164 8.51692 17.4831 5.58364 13.8031 5.2071V1ZM13.5561 11.3592L13.5951 11.4513L13.6871 11.4124L14.9823 10.8646L15.0744 10.8256L15.0354 10.7335C14.7981 10.1724 14.3486 9.74735 13.8031 9.535V8.07812V7.97813H13.7031H12.2969H12.1969V8.07812V9.5359C11.3748 9.85777 10.7906 10.6584 10.7906 11.5938C10.7906 12.8121 11.7817 13.8031 13 13.8031C13.3325 13.8031 13.6031 14.0738 13.6031 14.4062C13.6031 14.7387 13.3325 15.0094 13 15.0094C12.7568 15.0094 12.5387 14.8648 12.4439 14.6408L12.4049 14.5487L12.3129 14.5876L11.0177 15.1354L10.9256 15.1744L10.9646 15.2665C11.2019 15.8276 11.6514 16.2526 12.1969 16.465V17.9219V18.0219H12.2969H13.7031H13.8031V17.9219V16.4641C14.6252 16.1422 15.2094 15.3416 15.2094 14.4062C15.2094 13.1879 14.2183 12.1969 13 12.1969C12.6675 12.1969 12.3969 11.9262 12.3969 11.5938C12.3969 11.2613 12.6675 10.9906 13 10.9906C13.2432 10.9906 13.4613 11.1352 13.5561 11.3592ZM13 19.2281C9.5659 19.2281 6.77187 16.4341 6.77187 13C6.77187 9.5659 9.5659 6.77187 13 6.77187C16.4341 6.77187 19.2281 9.5659 19.2281 13C19.2281 16.4341 16.4341 19.2281 13 19.2281Z" fill="inherit" stroke="inherit" stroke-width="0.2"/>
</svg>
