<svg width="24" height="24" viewBox="0 0 24 24" fill="#ddd" xmlns="http://www.w3.org/2000/svg">
<path d="M4.37231 15.2185L4.3333 15.1265L4.24122 15.1655L3.0543 15.6683L2.96222 15.7073L3.00123 15.7994C3.99078 18.1351 5.85968 20.007 8.20054 20.9987L8.29261 21.0377L8.33162 20.9457L8.83449 19.7587L8.8735 19.6667L8.78142 19.6276C6.80162 18.7889 5.21295 17.2027 4.37231 15.2185ZM15.2186 19.6277L15.1265 19.6667L15.1655 19.7588L15.6684 20.9457L15.7074 21.0378L15.7995 20.9988C18.1351 20.0092 20.007 18.1403 20.9988 15.7995L21.0378 15.7074L20.9457 15.6684L19.7588 15.1655L19.6667 15.1265L19.6277 15.2186C18.7889 17.1984 17.2027 18.787 15.2186 19.6277ZM19.6277 8.78146L19.6667 8.87354L19.7588 8.83453L20.9457 8.33167L21.0378 8.29266L20.9988 8.20058C20.0362 5.92852 18.2015 4.01897 15.7995 3.00127L15.7074 2.96226L15.6684 3.05434L15.1655 4.24122L15.1265 4.3333L15.2186 4.37231C17.1984 5.21113 18.787 6.7973 19.6277 8.78146ZM8.78142 4.37231L8.8735 4.3333L8.83449 4.24122L8.33162 3.0543L8.29261 2.96222L8.20054 3.00123C5.92839 3.96389 4.01893 5.79847 3.00123 8.20054L2.96222 8.29261L3.0543 8.33162L4.24122 8.83449L4.3333 8.8735L4.37231 8.78142C5.21113 6.80154 6.7973 5.21295 8.78142 4.37231ZM12.7445 1V0.9H12.6445H11.3555H11.2555V1V4.84899C7.88425 5.1975 5.1975 7.88425 4.84899 11.2555H1H0.9V11.3555V12.6445V12.7445H1H4.84899C5.1975 16.1157 7.88425 18.8025 11.2555 19.151V23V23.1H11.3555H12.6445H12.7445V23V19.151C16.1157 18.8025 18.8025 16.1157 19.151 12.7445H23H23.1V12.6445V11.3555V11.2555H23H19.151C18.8025 7.88425 16.1157 5.1975 12.7445 4.84899V1ZM12.5021 10.4992L12.541 10.5913L12.6331 10.5524L13.8204 10.0502L13.9125 10.0112L13.8735 9.91913C13.6558 9.40451 13.2442 9.0142 12.7445 8.81806V7.48828V7.38828H12.6445H11.3555H11.2555V7.48828V8.81889C10.5016 9.11651 9.96641 9.85196 9.96641 10.7109C9.96641 11.8323 10.8786 12.7445 12 12.7445C12.3002 12.7445 12.5445 12.9889 12.5445 13.2891C12.5445 13.5892 12.3002 13.8336 12 13.8336C11.7804 13.8336 11.5835 13.703 11.4979 13.5008L11.459 13.4087L11.3669 13.4476L10.1796 13.9498L10.0875 13.9888L10.1265 14.0809C10.3442 14.5955 10.7558 14.9858 11.2555 15.1819V16.5117V16.6117H11.3555H12.6445H12.7445V16.5117V15.1811C13.4984 14.8835 14.0336 14.148 14.0336 13.2891C14.0336 12.1677 13.1214 11.2555 12 11.2555C11.6998 11.2555 11.4555 11.0111 11.4555 10.7109C11.4555 10.4108 11.6998 10.1664 12 10.1664C12.2196 10.1664 12.4165 10.297 12.5021 10.4992ZM12 17.7008C8.85668 17.7008 6.29922 15.1433 6.29922 12C6.29922 8.85668 8.85668 6.29922 12 6.29922C15.1433 6.29922 17.7008 8.85668 17.7008 12C17.7008 15.1433 15.1433 17.7008 12 17.7008Z" fill="inherit" stroke="inherit" stroke-width="0.2"/>
</svg>
