<svg id="eur" fill="#2b4059" viewBox="0 0 32 32"  xmlns="http://www.w3.org/2000/svg">
  <path fill="inherit" style="fill: var(--color1, #2b4059)" d="M28.715 26.389v4.454c-1.904 0.771-4.082 1.157-6.532 1.157-3.655 0-6.774-1.032-9.359-3.098s-4.279-4.836-5.081-8.312h-4.457v-2.095h4.056c-0.089-0.802-0.134-1.619-0.134-2.451 0-0.475 0.030-1.159 0.089-2.050h-4.011v-2.095h4.323c0.505-2.377 1.426-4.464 2.763-6.262s3.023-3.187 5.058-4.167c2.035-0.981 4.286-1.471 6.752-1.471 2.451 0 4.628 0.386 6.532 1.157v4.454c-0.008-0.006-0.017-0.012-0.025-0.018-1.783-1.233-3.967-1.85-6.552-1.85-2.466 0-4.62 0.72-6.462 2.162s-3.090 3.439-3.744 5.994h10.875v2.095h-11.276c-0.089 0.654-0.134 1.337-0.134 2.050 0 0.951 0.059 1.768 0.178 2.451h11.231v2.095h-10.786c0.743 2.407 2.013 4.286 3.811 5.638s3.9 2.028 6.306 2.028c2.585 0 4.769-0.616 6.552-1.85 0.009-0.006 0.017-0.012 0.025-0.018z"></path>
</svg>
