<svg height="18" viewBox="0 0 20 18" fill="#ddd" xmlns="http://www.w3.org/2000/svg">
<path d="M9.81818 3.75327C8.15979 3.75327 6.8106 5.10246 6.8106 6.76085C6.8106 8.41924 8.15979 9.76844 9.81818 9.76844C11.4766 9.76844 12.8258 8.41924 12.8258 6.76085C12.8258 5.10246 11.4766 3.75327 9.81818 3.75327ZM9.81818 8.27711C8.98203 8.27711 8.30196 7.59678 8.30196 6.76089C8.30196 5.92474 8.98203 5.24467 9.81818 5.24467C10.6541 5.24467 11.3344 5.92474 11.3344 6.76089C11.3344 7.59705 10.6541 8.27711 9.81818 8.27711Z" fill="inherit"/>
<path d="M9.81818 8.30196C9.40632 8.30196 9.0725 8.63578 9.0725 9.04765V17.2543C9.0725 17.6662 9.40632 18 9.81818 18C10.23 18 10.5639 17.6662 10.5639 17.2543V9.04765C10.5639 8.63578 10.23 8.30196 9.81818 8.30196Z" fill="inherit"/>
<path d="M9.81818 0C9.40632 0 9.0725 0.333818 9.0725 0.745683V4.49895C9.0725 4.91082 9.40632 5.24467 9.81818 5.24467C10.23 5.24467 10.5639 4.91082 10.5639 4.49895V0.745683C10.5639 0.333818 10.23 0 9.81818 0Z" fill="inherit"/>
<path d="M16.6288 8.87364C14.9706 8.87364 13.6212 10.2228 13.6212 11.8812C13.6212 13.5396 14.9706 14.8888 16.6288 14.8888C18.2872 14.8888 19.6364 13.5396 19.6364 11.8812C19.6364 10.2228 18.2869 8.87364 16.6288 8.87364ZM16.6288 13.3977C15.7924 13.3977 15.1123 12.7174 15.1123 11.8812C15.1123 11.0451 15.7926 10.365 16.6288 10.365C17.4649 10.365 18.145 11.0453 18.145 11.8812C18.145 12.7177 17.4647 13.3977 16.6288 13.3977Z" fill="inherit"/>
<path d="M16.6288 13.3977C16.2169 13.3977 15.8831 13.7313 15.8831 14.1432V17.2543C15.8831 17.6662 16.2169 18 16.6288 18C17.0409 18 17.3745 17.6662 17.3745 17.2543V14.1432C17.3745 13.7313 17.0406 13.3977 16.6288 13.3977Z" fill="inherit"/>
<path d="M16.6288 0C16.2169 0 15.8831 0.333818 15.8831 0.745683V9.59447C15.8831 10.0063 16.2169 10.3402 16.6288 10.3402C17.0409 10.3402 17.3745 10.0063 17.3745 9.59447V0.745683C17.3745 0.333818 17.0406 0 16.6288 0Z" fill="inherit"/>
<path d="M3.00759 8.87364C1.34919 8.87364 0 10.2228 0 11.8812C0 13.5396 1.34919 14.8888 3.00759 14.8888C4.66598 14.8888 6.01517 13.5396 6.01517 11.8812C6.01521 10.2228 4.66601 8.87364 3.00759 8.87364ZM3.00759 13.3977C2.17143 13.3977 1.49137 12.7174 1.49137 11.8812C1.49137 11.0451 2.17143 10.365 3.00759 10.365C3.84374 10.365 4.5238 11.0453 4.5238 11.8812C4.5238 12.7177 3.84374 13.3977 3.00759 13.3977Z" fill="inherit"/>
<path d="M3.00759 13.3977C2.59572 13.3977 2.2619 13.7313 2.2619 14.1432V17.2543C2.2619 17.6662 2.59572 18 3.00759 18C3.41945 18 3.75327 17.6662 3.75327 17.2543V14.1432C3.75327 13.7313 3.41945 13.3977 3.00759 13.3977Z" fill="inherit"/>
<path d="M3.00759 0C2.59572 0 2.2619 0.333818 2.2619 0.745683V9.59447C2.2619 10.0063 2.59572 10.3402 3.00759 10.3402C3.41945 10.3402 3.75327 10.0063 3.75327 9.59447V0.745683C3.75327 0.333818 3.41945 0 3.00759 0Z" fill="inherit"/>
</svg>
