<svg width="24" height="23" viewBox="0 0 24 23" fill="#fff" xmlns="http://www.w3.org/2000/svg">
<path d="M12 4.58733C9.97308 4.58733 8.32406 6.23634 8.32406 8.26327C8.32406 10.2902 9.97308 11.9392 12 11.9392C14.0269 11.9392 15.6759 10.2902 15.6759 8.26327C15.6759 6.23634 14.0269 4.58733 12 4.58733ZM12 10.1165C10.978 10.1165 10.1468 9.28495 10.1468 8.26331C10.1468 7.24134 10.978 6.41016 12 6.41016C13.0217 6.41016 13.8532 7.24134 13.8532 8.26331C13.8532 9.28528 13.0217 10.1165 12 10.1165Z" fill="inherit"/>
<path d="M12 10.1468C11.4966 10.1468 11.0886 10.5548 11.0886 11.0582V21.8734C11.0886 22.3768 11.4966 22.7848 12 22.7848C12.5034 22.7848 12.9114 22.3768 12.9114 21.8734V11.0582C12.9114 10.5548 12.5034 10.1468 12 10.1468Z" fill="inherit"/>
<path d="M12 0C11.4966 0 11.0886 0.408 11.0886 0.911391V5.49872C11.0886 6.00211 11.4966 6.41011 12 6.41011C12.5034 6.41011 12.9114 6.00211 12.9114 5.49872V0.911391C12.9114 0.408 12.5034 0 12 0Z" fill="inherit"/>
<path d="M20.3241 10.8456C18.2974 10.8456 16.6481 12.4946 16.6481 14.5215C16.6481 16.5484 18.2974 18.1974 20.3241 18.1974C22.351 18.1974 24 16.5484 24 14.5215C24 12.4946 22.3507 10.8456 20.3241 10.8456ZM20.3241 16.375C19.3018 16.375 18.4706 15.5435 18.4706 14.5215C18.4706 13.4995 19.3021 12.6683 20.3241 12.6683C21.346 12.6683 22.1772 13.4999 22.1772 14.5215C22.1772 15.5438 21.3457 16.375 20.3241 16.375Z" fill="inherit"/>
<path d="M20.3241 16.3747C19.8207 16.3747 19.4127 16.7827 19.4127 17.2861V21.8734C19.4127 22.3768 19.8207 22.7848 20.3241 22.7848C20.8277 22.7848 21.2355 22.3768 21.2355 21.8734V17.2861C21.2355 16.7827 20.8275 16.3747 20.3241 16.3747Z" fill="inherit"/>
<path d="M20.3241 0C19.8207 0 19.4127 0.408 19.4127 0.911391V11.7266C19.4127 12.23 19.8207 12.638 20.3241 12.638C20.8277 12.638 21.2355 12.23 21.2355 11.7266V0.911391C21.2355 0.408 20.8275 0 20.3241 0Z" fill="inherit"/>
<path d="M3.67594 10.8456C1.64902 10.8456 0 12.4946 0 14.5215C0 16.5484 1.64902 18.1974 3.67594 18.1974C5.70286 18.1974 7.35187 16.5484 7.35187 14.5215C7.35192 12.4946 5.70291 10.8456 3.67594 10.8456ZM3.67594 16.375C2.65397 16.375 1.82278 15.5435 1.82278 14.5215C1.82278 13.4995 2.65397 12.6683 3.67594 12.6683C4.69791 12.6683 5.52909 13.4999 5.52909 14.5215C5.52909 15.5438 4.69791 16.375 3.67594 16.375Z" fill="inherit"/>
<path d="M3.67594 16.3747C3.17255 16.3747 2.76455 16.7827 2.76455 17.2861V21.8734C2.76455 22.3768 3.17255 22.7848 3.67594 22.7848C4.17933 22.7848 4.58733 22.3768 4.58733 21.8734V17.2861C4.58733 16.7827 4.17933 16.3747 3.67594 16.3747Z" fill="inherit"/>
<path d="M3.67594 0C3.17255 0 2.76455 0.408 2.76455 0.911391V11.7266C2.76455 12.23 3.17255 12.638 3.67594 12.638C4.17933 12.638 4.58733 12.23 4.58733 11.7266V0.911391C4.58733 0.408 4.17933 0 3.67594 0Z" fill="inherit"/>
</svg>
