<svg width="46" height="50" viewBox="0 0 46 50" fill="#fff" xmlns="http://www.w3.org/2000/svg">
<path d="M33.9085 17.9146C33.6457 17.9146 33.5143 17.9146 33.2514 17.7809C33.12 17.6473 32.8571 17.5136 32.8571 17.2462C31.5428 11.0965 26.0228 6.68469 19.8457 6.68469C12.4857 6.68469 6.43996 12.8344 6.43996 20.3211C6.43996 28.3424 13.2742 34.7596 21.2914 33.8237C21.8171 33.69 22.2114 34.0911 22.2114 34.6259C22.2114 34.8932 22.2114 35.1606 22.08 35.2943C21.9485 35.428 21.6857 35.5617 21.5542 35.5617C21.0285 35.5617 20.3714 35.6954 19.8457 35.6954C11.5657 35.6954 4.73138 28.7435 4.73138 20.3211C4.73138 11.8986 11.5657 4.94672 19.8457 4.94672C26.9428 4.94672 32.9885 9.89325 34.5657 16.8451C34.6971 17.3799 34.4343 17.7809 33.9085 17.9146Z" fill="inherit"/>
<path d="M25.4972 23.5292C25.4972 25.8019 23.6572 27.6736 21.4229 27.6736H20.7658V30.08C20.7658 30.6148 20.3715 31.0158 19.8458 31.0158C19.32 31.0158 18.9257 30.6148 18.9257 30.08V27.6736H17.48C15.64 27.6736 14.1943 26.203 14.1943 24.3314C14.1943 23.7966 14.5886 23.3955 15.1143 23.3955C15.64 23.3955 15.9029 23.7966 15.9029 24.3314C15.9029 25.1335 16.56 25.9356 17.48 25.9356H21.4229C22.7372 25.9356 23.7886 24.8661 23.7886 23.5292C23.7886 22.1923 22.7372 21.1228 21.4229 21.1228H18.2686C16.0343 21.1228 14.1943 19.2511 14.1943 16.9784C14.1943 14.7057 16.0343 12.834 18.2686 12.834H18.9257V10.5613C18.9257 10.0265 19.32 9.75916 19.8458 9.75916C20.3715 9.75916 20.7658 10.1602 20.7658 10.5613V12.9677H22.2115C24.0515 12.9677 25.4972 14.4383 25.4972 16.31C25.4972 16.8447 25.1029 17.1121 24.5772 17.1121C24.0515 17.1121 23.7886 16.711 23.7886 16.31C23.7886 15.5078 23.1315 14.7057 22.2115 14.7057H18.2686C16.9543 14.7057 15.9029 15.7752 15.9029 17.1121C15.9029 18.449 16.9543 19.5185 18.2686 19.5185H21.4229C23.6572 19.3848 25.4972 21.2565 25.4972 23.5292Z" fill="inherit"/>
<path d="M43.1086 32.3529H42.8457V26.738C42.8457 24.5989 41.6629 22.7273 39.8229 21.6578L39.6914 21.5241V21.2567C39.6914 20.8556 39.6914 20.5882 39.6914 20.1872C39.6914 9.09091 30.7543 0 19.8457 0C8.93715 0 0 9.09091 0 20.3209C0 31.4171 8.93715 40.508 19.8457 40.508C21.5543 40.508 23.2628 40.2406 24.84 39.8396L25.2343 39.7059V49.1979C25.2343 49.7326 25.6286 50 26.1543 50H45.2114C45.7371 50 46 49.5989 46 49.1979V35.5615C46 33.9572 44.8171 32.4866 43.1086 32.3529ZM39.4286 23.3957L39.8229 23.7968C40.6114 24.5989 41.0057 25.6684 41.0057 26.738V32.3529H35.7486L36.1429 31.8182C37.72 29.4118 38.7714 26.8717 39.2971 24.0642L39.4286 23.3957ZM33.7771 32.2192L30.2286 32.3529V26.738C30.2286 24.5989 31.9371 22.7273 34.1714 22.7273H37.3257C37.3257 22.7273 37.4571 22.7273 37.5886 22.7273H37.9828V23.1283C37.1943 26.4706 35.88 29.5455 33.7771 32.2192ZM25.3657 35.5615V37.8342H25.1029C23.3943 38.369 21.6857 38.6364 19.8457 38.6364C9.85715 38.6364 1.70858 30.3476 1.70858 20.1872C1.70858 10.0267 9.85715 1.73797 19.8457 1.73797C29.8343 1.73797 37.9828 10.0267 37.9828 20.1872C37.9828 20.3209 37.9828 20.4545 37.9828 20.5882V20.9893H37.5886C37.4571 20.9893 37.3257 20.9893 37.1943 20.9893H34.04C31.0171 20.9893 28.3886 23.5294 28.3886 26.738V32.3529H28.1257C26.5486 32.4866 25.3657 33.9572 25.3657 35.5615ZM44.2914 48.3957H27.0743V35.5615C27.0743 34.7594 27.7314 33.9572 28.6514 33.9572H42.8457C43.6343 33.9572 44.2914 34.6257 44.2914 35.5615V48.3957Z" fill="inherit"/>
<path d="M39.6914 39.5722C39.6914 40.1069 39.2972 40.508 38.9029 40.508H36.5371V44.5187C36.5371 45.0535 36.1429 45.4545 35.6171 45.4545C35.0914 45.4545 34.8286 45.0535 34.8286 44.5187V40.508H32.4628C31.9371 40.508 31.5429 40.1069 31.5429 39.5722C31.5429 39.0374 31.9371 38.7701 32.4628 38.7701H38.7714C39.2971 38.7701 39.6914 39.1711 39.6914 39.5722Z" fill="inherit"/>
</svg>
