<svg id="gbp" fill="#2b4059" viewBox="0 0 32 32"  xmlns="http://www.w3.org/2000/svg">
  <path fill="inherit" style="fill: var(--color1, #2b4059)" d="M14.431 21.319c0 2.79-1.119 5.29-3.357 7.499h15.738v3.183h-19.575l-0.523-2.136c1.337-1.395 2.332-2.71 2.986-3.945s0.981-2.725 0.981-4.469c0-0.814-0.174-1.817-0.523-3.008h-5.144v-2.747h4.229c-0.465-1.395-0.821-2.616-1.068-3.662s-0.371-2.165-0.371-3.357c0-1.686 0.385-3.19 1.155-4.512s1.853-2.347 3.248-3.074c1.395-0.727 3.008-1.090 4.839-1.090 2.906 0 5.224 0.843 6.954 2.529s2.725 3.851 2.986 6.496h-3.749c-0.174-1.686-0.807-3.066-1.896-4.142s-2.478-1.613-4.164-1.613c-1.599 0-2.921 0.501-3.967 1.504s-1.569 2.449-1.569 4.338c0 0.901 0.109 1.787 0.327 2.659s0.458 1.686 0.719 2.441c0.262 0.756 0.436 1.25 0.523 1.482h8.022v2.747h-7.194c0.262 0.959 0.392 1.918 0.392 2.877z"></path>
</svg>
