<svg width="38" height="40" viewBox="0 0 38 40" fill="#fff" xmlns="http://www.w3.org/2000/svg">
<path d="M19 5.93749C16.9831 5.93749 15.0445 6.39898 13.2383 7.30929C12.8686 7.49562 12.7124 7.9621 12.8893 8.35132C13.0663 8.74038 13.5095 8.90491 13.8792 8.71859C15.4838 7.90999 17.2067 7.49999 19 7.49999C25.5479 7.49999 30.875 13.1074 30.875 20C30.875 21.4761 30.6332 22.9205 30.1563 24.2933C30.0155 24.6985 30.2134 25.1472 30.5984 25.2953C30.6825 25.3277 30.7686 25.343 30.8533 25.343C31.156 25.343 31.4403 25.1466 31.5504 24.8299C32.0872 23.2847 32.3594 21.6598 32.3594 20C32.3594 12.2459 26.3664 5.93749 19 5.93749Z" fill="inherit"/>
<path d="M37.7551 24.431L36.8986 23.617C35.928 22.6947 35.3715 21.3763 35.3715 20C35.3715 18.6237 35.9281 17.3053 36.8986 16.383L37.7551 15.569C37.9883 15.3473 38.0637 14.9952 37.9434 14.6898L35.9592 9.65437C35.8389 9.34913 35.5499 9.15609 35.2358 9.17343L34.0822 9.23546C32.7777 9.30648 31.499 8.78804 30.5752 7.81554C29.6514 6.84312 29.1597 5.49757 29.2264 4.12398L29.2852 2.90968C29.3013 2.57968 29.1183 2.27484 28.8284 2.14819L24.0447 0.0596001C23.7545 -0.0668062 23.42 0.0122563 23.2095 0.257725L22.4362 1.15937C21.56 2.18093 20.3076 2.76687 19 2.76687C17.6924 2.76687 16.4401 2.18093 15.5638 1.15937L14.7906 0.257725C14.58 0.0121782 14.2454 -0.0669625 13.9553 0.0596001L9.17169 2.14819C8.88179 2.27484 8.69884 2.57968 8.71487 2.90968L8.77373 4.12398C8.84037 5.49757 8.34868 6.84312 7.42488 7.81554C6.501 8.78804 5.22244 9.3064 3.9179 9.23546L2.76432 9.17343C2.45 9.15718 2.16114 9.34913 2.04091 9.65437L0.0566706 14.6898C-0.0637121 14.9952 0.011694 15.3474 0.244889 15.5691L1.10145 16.3831C2.072 17.3054 2.62857 18.6237 2.62857 20.0001C2.62857 21.3764 2.07193 22.6948 1.10145 23.6171L0.244889 24.431C0.011694 24.6527 -0.0636379 25.0048 0.0566706 25.3102L2.04083 30.3456C2.16107 30.6508 2.45037 30.8434 2.76424 30.8266L3.91782 30.7645C5.22251 30.6936 6.501 31.2119 7.4248 32.1845C8.34868 33.1569 8.8403 34.5024 8.77365 35.876L8.7148 37.0903C8.69876 37.4203 8.88171 37.7252 9.17161 37.8518L13.9552 39.9404C14.2455 40.0669 14.5799 39.9877 14.7905 39.7423L15.5638 38.8406C16.44 37.8191 17.6924 37.2331 18.9999 37.2331C20.3075 37.2331 21.5599 37.8191 22.4361 38.8406L23.2094 39.7423C23.3532 39.9099 23.5547 40 23.7605 40C23.8561 40 23.9526 39.9805 24.0447 39.9404L28.8283 37.8518C29.1182 37.7252 29.3011 37.4203 29.2851 37.0903L29.2262 35.876C29.1596 34.5024 29.6513 33.1569 30.5752 32.1845C31.499 31.212 32.7771 30.6937 34.0821 30.7645L35.2356 30.8266C35.55 30.8444 35.8388 30.6509 35.9591 30.3456L37.9432 25.3102C38.0637 25.0048 37.9884 24.6527 37.7551 24.431ZM34.7887 29.238L34.1579 29.204C32.4344 29.112 30.7459 29.7948 29.5256 31.0795C28.3053 32.3641 27.6558 34.1413 27.7439 35.9556L27.7761 36.6196L23.9601 38.2857L23.538 37.7935C22.3809 36.4443 20.7269 35.6705 19 35.6705C17.2732 35.6705 15.6192 36.4443 14.4621 37.7935L14.0399 38.2857L10.2239 36.6196L10.2561 35.9556C10.3442 34.1413 9.69478 32.3641 8.4744 31.0795C7.25402 29.795 5.56562 29.1105 3.84204 29.204L3.21126 29.238L1.62855 25.2211L2.09612 24.7767C3.37788 23.5587 4.11294 21.8176 4.11294 19.9999C4.11294 18.1823 3.37788 16.4412 2.09612 15.2231L1.62855 14.7787L3.21141 10.7619L3.84219 10.7959C5.56637 10.8884 7.25417 10.205 8.47455 8.92031C9.69485 7.63577 10.3443 5.85851 10.2562 4.04421L10.224 3.38023L14.04 1.71413L14.4621 2.20632C15.6192 3.55554 17.2732 4.32929 19.0001 4.32929C20.7269 4.32929 22.3809 3.55554 23.538 2.20632L23.9602 1.71413L27.7762 3.38023L27.744 4.04421C27.6559 5.85851 28.3053 7.63577 29.5256 8.92031C30.746 10.2048 32.4344 10.8887 34.158 10.7959L34.7888 10.7619L36.3716 14.7787L35.9041 15.2231C34.6223 16.4412 33.8872 18.1823 33.8872 19.9999C33.8872 21.8176 34.6223 23.5587 35.9041 24.7767L36.3716 25.2211L34.7887 29.238Z" fill="inherit"/>
<path d="M26.0914 27.5057L23.3697 24.6407C22.4531 23.6758 21.0419 23.5016 19.9381 24.2171L18.5596 25.1105L14.1451 20.4637L14.9939 19.0127C15.6737 17.8508 15.5082 16.3653 14.5915 15.4005L11.8698 12.5355C10.7833 11.3919 9.01531 11.3916 7.92867 12.5355C5.2853 15.318 5.2853 19.8455 7.92867 22.628L16.5035 31.6542C17.784 33.0021 19.4866 33.7445 21.2975 33.7445C23.1083 33.7445 24.8109 33.0021 26.0914 31.6542C27.1779 30.5105 27.1779 28.6495 26.0914 27.5057ZM25.0418 30.5492C24.8188 30.7839 24.5787 30.9937 24.3257 31.1802L21.6961 28.4121C21.4063 28.1072 20.9363 28.1071 20.6465 28.4121C20.3567 28.7172 20.3566 29.2119 20.6465 29.517L22.9235 31.914C22.4048 32.0895 21.858 32.182 21.2975 32.182C19.883 32.182 18.5533 31.6022 17.5531 30.5494L8.97827 21.523C7.52856 19.997 7.09831 17.7993 7.68457 15.8729L10.2188 18.5405C10.3638 18.693 10.5537 18.7694 10.7436 18.7694C10.9336 18.7694 11.1236 18.693 11.2684 18.5405C11.5583 18.2355 11.5583 17.7408 11.2684 17.4356L8.37955 14.3947C8.55523 14.1297 8.75376 13.8765 8.9782 13.6402C9.2321 13.373 9.56564 13.2393 9.89918 13.2393C10.2326 13.2393 10.5662 13.373 10.8201 13.6402L13.5418 16.5052C13.9702 16.9561 14.0476 17.6503 13.7299 18.1934L12.5736 20.1699C12.3934 20.478 12.4378 20.8761 12.6808 21.132L17.9247 26.6518C18.1677 26.9075 18.5459 26.9542 18.8386 26.7645L20.7163 25.5475C21.2323 25.2131 21.8917 25.2946 22.3201 25.7455L25.0418 28.6104C25.5496 29.145 25.5496 30.0147 25.0418 30.5492Z" fill="inherit"/>
<path d="M21.9839 19.2187H19.7527C19.7767 18.6702 20.2082 18.2316 20.7352 18.2316C21.8329 18.2316 22.7261 17.2916 22.7261 16.136C22.7261 14.9805 21.8329 14.0403 20.7352 14.0403H19.0094C18.5995 14.0403 18.2673 14.3902 18.2673 14.8216C18.2673 15.253 18.5995 15.6028 19.0094 15.6028H20.7352C21.0145 15.6028 21.2417 15.842 21.2417 16.136C21.2417 16.43 21.0145 16.6692 20.7352 16.6692C19.3744 16.6692 18.2673 17.8346 18.2673 19.267V20C18.2673 20.4314 18.5995 20.7812 19.0094 20.7812H21.9839C22.3938 20.7812 22.7261 20.4314 22.7261 20C22.7261 19.5686 22.3938 19.2187 21.9839 19.2187Z" fill="inherit"/>
<path d="M27.479 14.0596C27.0691 14.0596 26.7368 14.4094 26.7368 14.8409V16.665H25.2467V14.8616C25.2467 14.4302 24.9144 14.0804 24.5045 14.0804C24.0946 14.0804 23.7623 14.4302 23.7623 14.8616V17.4462C23.7623 17.8777 24.0946 18.2275 24.5045 18.2275H26.7368V20.0099C26.7368 20.4413 27.0691 20.7912 27.479 20.7912C27.8889 20.7912 28.2212 20.4413 28.2212 20.0099V14.8409C28.2212 14.4094 27.8889 14.0596 27.479 14.0596Z" fill="inherit"/>
</svg>
