    <svg version="1.1" xmlns="http://www.w3.org/2000/svg" xmlns:xlink="http://www.w3.org/1999/xlink" id="getStatement" viewBox="0 0 32 32">
      <title>getStatement</title>
      <path fill="#d33f45" style="fill: var(--color3, #d33f45)" d="M2.667 0v26.88h26.666v-26.88l-2.666 1.28-2.667-1.28-2.667 1.28-2.666-1.28-2.667 1.28-2.667-1.28-2.666 1.28-2.667-1.28-2.667 1.28-2.666-1.28zM29.333 26.88v2.56h-26.666v-2.56c-1.475 0-2.667 1.145-2.667 2.56s1.194 2.56 2.667 2.56h26.666c1.475 0 2.667-1.145 2.667-2.56s-1.194-2.56-2.667-2.56zM9.333 6.4h13.334c0.736 0 1.333 0.573 1.333 1.28s-0.598 1.28-1.333 1.28h-13.334c-0.736 0-1.333-0.573-1.333-1.28s0.598-1.28 1.333-1.28zM9.333 14.080h8c0.737 0 1.334 0.573 1.334 1.28s-0.598 1.28-1.334 1.28h-8c-0.736 0-1.333-0.573-1.333-1.28s0.598-1.28 1.333-1.28zM22.667 14.080c0.736 0 1.333 0.573 1.333 1.28s-0.598 1.28-1.333 1.28c-0.737 0-1.334-0.573-1.334-1.28s0.598-1.28 1.334-1.28zM9.333 19.2h5.334c0.736 0 1.333 0.573 1.333 1.28s-0.598 1.28-1.333 1.28h-5.334c-0.736 0-1.333-0.573-1.333-1.28s0.598-1.28 1.333-1.28zM22.667 19.2c0.736 0 1.333 0.573 1.333 1.28s-0.598 1.28-1.333 1.28c-0.737 0-1.334-0.573-1.334-1.28s0.598-1.28 1.334-1.28z"></path>
    </svg>