    <svg version="1.1" xmlns="http://www.w3.org/2000/svg" xmlns:xlink="http://www.w3.org/1999/xlink" id="gift" viewBox="0 0 32 32">
      <title>gift</title>
      <path fill="#d33f45" style="fill: var(--color2, #d33f45)" d="M13.333 0c-2.193 0-4 1.734-4 3.84 0 0.45 0.099 0.877 0.25 1.28h-6.917c-1.473 0-2.667 1.146-2.667 2.56v2.56h32v-2.56c0-1.414-1.193-2.56-2.667-2.56h-6.917c0.151-0.403 0.25-0.83 0.25-1.28 0-2.106-1.807-3.84-4-3.84-1.025 0-1.956 0.389-2.667 1.008-0.711-0.618-1.642-1.008-2.667-1.008zM13.333 2.56c0.753 0 1.333 0.557 1.333 1.28v1.28h-1.333c-0.753 0-1.333-0.557-1.333-1.28s0.58-1.28 1.333-1.28zM18.667 2.56c0.753 0 1.333 0.557 1.333 1.28s-0.58 1.28-1.333 1.28h-1.333v-1.28c0-0.723 0.58-1.28 1.333-1.28zM1.333 12.8v16.64c0 1.414 1.193 2.56 2.667 2.56h10.667v-19.2h-13.333zM17.333 12.8v19.2h10.667c1.473 0 2.667-1.146 2.667-2.56v-16.64h-13.333z"></path>
    </svg>