    <svg version="1.1" xmlns="http://www.w3.org/2000/svg" xmlns:xlink="http://www.w3.org/1999/xlink" id="gift-successfull" viewBox="0 0 32 32">
      <title>gift-successfull</title>
      <path fill="#5090fc" style="fill: var(--color3, #5090fc)" opacity="0.1" d="M32 16c0 8.837-7.163 16-16 16s-16-7.163-16-16c0-8.837 7.163-16 16-16s16 7.163 16 16z"></path>
      <path fill="#5090fc" style="fill: var(--color3, #5090fc)" d="M9.776 16.365v5.313c0 0.489 0.421 0.886 0.937 0.886h4.689v-6.199h-5.626zM22.74 12.971h-2.893c0.208-0.137 0.386-0.274 0.51-0.397 0.341-0.331 0.553-0.794 0.553-1.306s-0.212-0.975-0.553-1.306l-0-0c-0.717-0.702-1.966-0.7-2.681 0-0.397 0.386-1.448 1.959-1.303 3.010h-0.066c0.144-1.050-0.907-2.623-1.303-3.010-0.717-0.7-1.966-0.7-2.682 0-0.341 0.331-0.553 0.794-0.553 1.307s0.211 0.975 0.551 1.305l0 0c0.125 0.123 0.304 0.26 0.511 0.397h-2.893c-0.504 0-0.914 0.399-0.914 0.888v1.332c0 0.245 0.205 0.444 0.457 0.444h5.943v-1.776h1.829v1.776h5.943c0.252 0 0.457-0.199 0.457-0.444v-1.332c0-0.489-0.409-0.888-0.914-0.888zM15.372 12.942s-0.039 0.029-0.169 0.029c-0.632 0-1.838-0.638-2.232-1.023-0.177-0.173-0.287-0.414-0.287-0.68s0.11-0.508 0.287-0.68l0-0c0.178-0.174 0.421-0.281 0.689-0.281 0.002 0 0.003 0 0.005 0h-0c0.261 0 0.506 0.099 0.692 0.281 0.616 0.602 1.229 2.14 1.016 2.354zM17.477 12.971c-0.13 0-0.168-0.029-0.168-0.029-0.213-0.214 0.4-1.752 1.016-2.354 0.368-0.361 1.013-0.363 1.385 0 0.178 0.172 0.288 0.413 0.288 0.68s-0.11 0.508-0.288 0.68l-0 0c-0.394 0.386-1.6 1.023-2.233 1.023zM17.278 16.365v6.199h4.689c0.518 0 0.938-0.397 0.938-0.886v-5.313h-5.627z"></path>
    </svg>