<svg width="18" height="18" viewBox="0 0 18 18" fill="white" xmlns="http://www.w3.org/2000/svg">
<path d="M8.99074 1C8.70395 1 8.41735 1.01542 8.13219 1.04616C7.87082 1.07286 7.61266 1.11664 7.35796 1.16978C7.30867 1.18009 7.25935 1.19097 7.21006 1.20235C5.70943 1.54404 4.33919 2.31136 3.26365 3.4123C3.16364 3.51482 3.06572 3.62039 2.96998 3.72896C0.0646349 7.0647 0.413303 12.1243 3.74878 15.0299C6.94205 17.8117 11.7488 17.6266 14.7187 14.6075C14.8189 14.505 14.9168 14.3994 15.0124 14.2909C16.2946 12.8306 17.0011 10.9533 17 9.00992C17 4.58612 13.4141 0.999967 8.99074 1ZM3.61953 3.81279C3.66171 3.76901 3.70549 3.72709 3.74848 3.68464C3.79813 3.63577 3.84752 3.58665 3.89825 3.53939C3.94283 3.49774 3.98875 3.45769 4.03441 3.4171C4.08593 3.37145 4.13719 3.32579 4.19005 3.28173C4.2365 3.24249 4.28429 3.20484 4.33181 3.16693C4.38521 3.12421 4.4386 3.08149 4.4936 3.04037C4.54219 3.00379 4.59158 2.96828 4.64124 2.93357C4.6965 2.89405 4.75203 2.85347 4.80836 2.81662C4.85882 2.78245 4.90981 2.74934 4.96107 2.7165C5.0182 2.67992 5.0756 2.64388 5.13354 2.6097C5.1857 2.57856 5.23819 2.54792 5.29105 2.51785C5.35015 2.48421 5.40949 2.45137 5.46912 2.41933C5.52252 2.39086 5.57591 2.36299 5.62931 2.33576C5.69018 2.30505 5.75158 2.27542 5.81325 2.24632C5.86665 2.22095 5.92218 2.19559 5.97718 2.17156C6.03991 2.14486 6.10345 2.11816 6.16699 2.09146C6.22226 2.06876 6.27725 2.0466 6.33305 2.02524C6.39766 2.00068 6.46307 1.97771 6.52848 1.95475C6.58427 1.93526 6.64007 1.91577 6.69667 1.89735C6.76315 1.87599 6.83016 1.85623 6.89743 1.83674C6.95377 1.82045 7.00956 1.80363 7.06616 1.78841C7.08779 1.78281 7.10941 1.77827 7.13104 1.77266C6.34079 2.54005 5.75435 3.49243 5.42481 4.54357C4.79114 4.37643 4.1777 4.14034 3.5955 3.83949C3.60431 3.83015 3.61179 3.8208 3.61953 3.81279ZM3.23562 4.24266C3.87692 4.59016 4.55697 4.86083 5.26168 5.049C4.91622 6.25036 4.73488 7.49293 4.72266 8.74292H1.52165C1.57981 7.09457 2.18254 5.51201 3.23562 4.24266ZM3.23562 13.7772C2.18261 12.5078 1.57988 10.9252 1.52165 9.27692H4.72266C4.73488 10.5269 4.91619 11.7695 5.26168 12.9708C4.55701 13.1591 3.87696 13.4297 3.23562 13.7772ZM7.06456 16.2325C7.01063 16.2189 6.95483 16.2013 6.8993 16.185C6.83176 16.1652 6.76395 16.1455 6.6972 16.1238C6.64087 16.1057 6.58534 16.0862 6.52981 16.0667C6.46414 16.044 6.39846 16.0208 6.33359 15.9959C6.27805 15.9748 6.22333 15.9527 6.16833 15.9303C6.10452 15.9036 6.04072 15.8769 5.97744 15.8502C5.92298 15.8261 5.86878 15.8014 5.81486 15.7759C5.75265 15.7466 5.69071 15.7167 5.62797 15.6857C5.57458 15.659 5.52118 15.6323 5.46779 15.6032C5.40745 15.5709 5.34765 15.5378 5.28785 15.5036C5.23445 15.474 5.18373 15.4435 5.1322 15.4125C5.07347 15.3773 5.0158 15.341 4.95814 15.3039C4.90741 15.2716 4.85669 15.2387 4.80676 15.2051C4.7499 15.1666 4.69356 15.1266 4.63777 15.0865C4.58891 15.0516 4.54005 15.0166 4.492 14.9797C4.43674 14.9381 4.38254 14.8951 4.32861 14.8518C4.28136 14.8142 4.23437 14.7768 4.18818 14.7381C4.13479 14.6938 4.08326 14.6476 4.03147 14.6017C3.98608 14.5613 3.94043 14.5216 3.89611 14.4804C3.84512 14.4329 3.79573 14.3835 3.74607 14.3347C3.70309 14.2922 3.65931 14.2503 3.61712 14.2068C3.60938 14.1985 3.60191 14.19 3.59417 14.1819C4.17634 13.881 4.78977 13.6448 5.42347 13.4776C5.75308 14.5287 6.33949 15.4811 7.1297 16.2485C7.10808 16.2429 7.08619 16.2384 7.06456 16.2325ZM8.7238 16.4648C7.58142 16.3024 6.58 15.11 5.94994 13.3492C6.86086 13.1452 7.79043 13.0358 8.7238 13.0226V16.4648ZM8.7238 12.4886C7.73366 12.5017 6.7477 12.6193 5.78228 12.8395C5.44706 11.6811 5.27023 10.4827 5.25661 9.27692H8.7238V12.4886ZM8.7238 8.74292H5.25661C5.27019 7.53712 5.44703 6.3387 5.78228 5.18036C6.7477 5.40053 7.7337 5.51815 8.7238 5.5312V8.74292ZM8.7238 4.9972C7.7904 4.98418 6.86086 4.87475 5.94994 4.67066C6.58 2.90981 7.58142 1.71739 8.7238 1.55506V4.9972ZM14.7459 4.24266C15.799 5.51204 16.4017 7.09461 16.4599 8.74292H13.2589C13.2467 7.49293 13.0654 6.25036 12.7199 5.049C13.4246 4.86073 14.1046 4.59009 14.7459 4.24266ZM10.9149 1.78708C10.9709 1.80096 11.0267 1.81858 11.0823 1.83487C11.1498 1.85463 11.2176 1.87439 11.2844 1.89601C11.3407 1.91417 11.3962 1.93366 11.4517 1.95315C11.5174 1.97585 11.5831 1.99907 11.648 2.02391C11.7035 2.045 11.7582 2.06716 11.8132 2.08959C11.877 2.11629 11.9408 2.14299 12.0041 2.16969C12.0586 2.19372 12.1128 2.21845 12.1667 2.24391C12.2289 2.27328 12.2908 2.30319 12.3536 2.33416C12.407 2.36086 12.4604 2.38756 12.5138 2.41666C12.5741 2.44897 12.6339 2.48207 12.6937 2.51625C12.7471 2.54589 12.7978 2.57633 12.8494 2.6073C12.9081 2.64254 12.9658 2.67885 13.0234 2.71597C13.0741 2.74827 13.1249 2.78111 13.1748 2.81475C13.2317 2.8532 13.2877 2.89299 13.3435 2.93304C13.3926 2.96801 13.4415 3.00326 13.4898 3.03983C13.5448 3.08122 13.5988 3.12421 13.6529 3.16746C13.6999 3.20484 13.7472 3.24222 13.7934 3.2812C13.8468 3.32552 13.8983 3.37171 13.9501 3.41764C13.9955 3.45795 14.0411 3.49774 14.0854 3.53885C14.1364 3.58638 14.1858 3.63577 14.2355 3.68464C14.2785 3.72709 14.3223 3.76901 14.3644 3.81253C14.3722 3.8208 14.3796 3.82935 14.3874 3.83736C13.8052 4.13833 13.1918 4.37453 12.5581 4.5417C12.2278 3.49046 11.6407 2.53818 10.8497 1.77106C10.8713 1.77667 10.8932 1.7812 10.9149 1.78708ZM9.25775 1.55506C10.4001 1.71739 11.4016 2.90981 12.0316 4.67066C11.1207 4.87465 10.1911 4.98408 9.25775 4.9972V1.55506ZM9.25775 5.5312C10.2479 5.51818 11.2339 5.40057 12.1993 5.18036C12.5345 6.3387 12.7113 7.53712 12.7249 8.74292H9.25775V5.5312ZM9.25775 9.27692H12.7249C12.7114 10.4827 12.5345 11.6811 12.1993 12.8395C11.2339 12.6193 10.2479 12.5017 9.25775 12.4886V9.27692ZM9.25775 16.4648V13.0226C10.1912 13.0357 11.1207 13.1451 12.0316 13.3492C11.4016 15.11 10.4001 16.3024 9.25775 16.4648ZM14.362 14.207C14.3198 14.2506 14.2763 14.2925 14.2333 14.3349C14.1837 14.3838 14.134 14.4332 14.083 14.4807C14.0387 14.5221 13.9931 14.5608 13.9477 14.6022C13.8959 14.6481 13.8444 14.694 13.7915 14.7384C13.7448 14.7774 13.6973 14.815 13.6497 14.8529C13.5963 14.8956 13.543 14.9384 13.488 14.9795C13.4394 15.016 13.39 15.0516 13.3403 15.0863C13.2851 15.1258 13.2295 15.1664 13.1732 15.2032C13.1227 15.2374 13.0717 15.2705 13.0205 15.3031C12.9634 15.3399 12.9058 15.3755 12.8478 15.4099C12.7944 15.4411 12.7434 15.4715 12.6908 15.5017C12.6317 15.5354 12.5722 15.5682 12.5124 15.6002C12.459 15.6287 12.4056 15.6566 12.3522 15.6838C12.2914 15.7145 12.23 15.7442 12.1683 15.7733C12.1149 15.7986 12.0594 15.824 12.0044 15.848C11.9416 15.8747 11.8781 15.9014 11.8146 15.9281C11.7593 15.9505 11.7043 15.973 11.6488 15.9941C11.5836 16.0189 11.5182 16.0421 11.4525 16.0648C11.397 16.0843 11.3415 16.1038 11.2852 16.122C11.2184 16.1436 11.1517 16.1633 11.0836 16.1828C11.0278 16.1994 10.9717 16.2159 10.9154 16.2312C10.8938 16.2368 10.8721 16.2413 10.8505 16.2469C11.6408 15.4795 12.2272 14.5271 12.5568 13.476C13.1904 13.6431 13.8039 13.8792 14.3861 14.1801C14.3772 14.1897 14.3698 14.199 14.362 14.207ZM14.7459 13.7772C14.1046 13.4297 13.4246 13.159 12.7199 12.9708C13.0653 11.7695 13.2467 10.5269 13.2589 9.27692H16.4599C16.4018 10.9252 15.799 12.5078 14.7459 13.7772Z" fill="inherit"/>
<path d="M8.99074 1C8.70395 1 8.41735 1.01542 8.13219 1.04616C7.87082 1.07286 7.61266 1.11664 7.35796 1.16978C7.30867 1.18009 7.25935 1.19097 7.21006 1.20235C5.70943 1.54404 4.33919 2.31136 3.26365 3.4123C3.16364 3.51482 3.06572 3.62039 2.96998 3.72896C0.0646349 7.0647 0.413303 12.1243 3.74878 15.0299C6.94205 17.8117 11.7488 17.6266 14.7187 14.6075C14.8189 14.505 14.9168 14.3994 15.0124 14.2909C16.2946 12.8306 17.0011 10.9533 17 9.00992C17 4.58612 13.4141 0.999967 8.99074 1ZM3.61953 3.81279C3.66171 3.76901 3.70549 3.72709 3.74848 3.68464C3.79813 3.63577 3.84752 3.58665 3.89825 3.53939C3.94283 3.49774 3.98875 3.45769 4.03441 3.4171C4.08593 3.37145 4.13719 3.32579 4.19005 3.28173C4.2365 3.24249 4.28429 3.20484 4.33181 3.16693C4.38521 3.12421 4.4386 3.08149 4.4936 3.04037C4.54219 3.00379 4.59158 2.96828 4.64124 2.93357C4.6965 2.89405 4.75203 2.85347 4.80836 2.81662C4.85882 2.78245 4.90981 2.74934 4.96107 2.7165C5.0182 2.67992 5.0756 2.64388 5.13354 2.6097C5.1857 2.57856 5.23819 2.54792 5.29105 2.51785C5.35015 2.48421 5.40949 2.45137 5.46912 2.41933C5.52252 2.39086 5.57591 2.36299 5.62931 2.33576C5.69018 2.30505 5.75158 2.27542 5.81325 2.24632C5.86665 2.22095 5.92218 2.19559 5.97718 2.17156C6.03991 2.14486 6.10345 2.11816 6.16699 2.09146C6.22226 2.06876 6.27725 2.0466 6.33305 2.02524C6.39766 2.00068 6.46307 1.97771 6.52848 1.95475C6.58427 1.93526 6.64007 1.91577 6.69667 1.89735C6.76315 1.87599 6.83016 1.85623 6.89743 1.83674C6.95377 1.82045 7.00956 1.80363 7.06616 1.78841C7.08779 1.78281 7.10941 1.77827 7.13104 1.77266C6.34079 2.54005 5.75435 3.49243 5.42481 4.54357C4.79114 4.37643 4.1777 4.14034 3.5955 3.83949C3.60431 3.83015 3.61179 3.8208 3.61953 3.81279ZM3.23562 4.24266C3.87692 4.59016 4.55697 4.86083 5.26168 5.049C4.91622 6.25036 4.73488 7.49293 4.72266 8.74292H1.52165C1.57981 7.09457 2.18254 5.51201 3.23562 4.24266ZM3.23562 13.7772C2.18261 12.5078 1.57988 10.9252 1.52165 9.27692H4.72266C4.73488 10.5269 4.91619 11.7695 5.26168 12.9708C4.55701 13.1591 3.87696 13.4297 3.23562 13.7772ZM7.06456 16.2325C7.01063 16.2189 6.95483 16.2013 6.8993 16.185C6.83176 16.1652 6.76395 16.1455 6.6972 16.1238C6.64087 16.1057 6.58534 16.0862 6.52981 16.0667C6.46414 16.044 6.39846 16.0208 6.33359 15.9959C6.27805 15.9748 6.22333 15.9527 6.16833 15.9303C6.10452 15.9036 6.04072 15.8769 5.97744 15.8502C5.92298 15.8261 5.86878 15.8014 5.81486 15.7759C5.75265 15.7466 5.69071 15.7167 5.62797 15.6857C5.57458 15.659 5.52118 15.6323 5.46779 15.6032C5.40745 15.5709 5.34765 15.5378 5.28785 15.5036C5.23445 15.474 5.18373 15.4435 5.1322 15.4125C5.07347 15.3773 5.0158 15.341 4.95814 15.3039C4.90741 15.2716 4.85669 15.2387 4.80676 15.2051C4.7499 15.1666 4.69356 15.1266 4.63777 15.0865C4.58891 15.0516 4.54005 15.0166 4.492 14.9797C4.43674 14.9381 4.38254 14.8951 4.32861 14.8518C4.28136 14.8142 4.23437 14.7768 4.18818 14.7381C4.13479 14.6938 4.08326 14.6476 4.03147 14.6017C3.98608 14.5613 3.94043 14.5216 3.89611 14.4804C3.84512 14.4329 3.79573 14.3835 3.74607 14.3347C3.70309 14.2922 3.65931 14.2503 3.61712 14.2068C3.60938 14.1985 3.60191 14.19 3.59417 14.1819C4.17634 13.881 4.78977 13.6448 5.42347 13.4776C5.75308 14.5287 6.33949 15.4811 7.1297 16.2485C7.10808 16.2429 7.08619 16.2384 7.06456 16.2325ZM8.7238 16.4648C7.58142 16.3024 6.58 15.11 5.94994 13.3492C6.86086 13.1452 7.79043 13.0358 8.7238 13.0226V16.4648ZM8.7238 12.4886C7.73366 12.5017 6.7477 12.6193 5.78228 12.8395C5.44706 11.6811 5.27023 10.4827 5.25661 9.27692H8.7238V12.4886ZM8.7238 8.74292H5.25661C5.27019 7.53712 5.44703 6.3387 5.78228 5.18036C6.7477 5.40053 7.7337 5.51815 8.7238 5.5312V8.74292ZM8.7238 4.9972C7.7904 4.98418 6.86086 4.87475 5.94994 4.67066C6.58 2.90981 7.58142 1.71739 8.7238 1.55506V4.9972ZM14.7459 4.24266C15.799 5.51204 16.4017 7.09461 16.4599 8.74292H13.2589C13.2467 7.49293 13.0654 6.25036 12.7199 5.049C13.4246 4.86073 14.1046 4.59009 14.7459 4.24266ZM10.9149 1.78708C10.9709 1.80096 11.0267 1.81858 11.0823 1.83487C11.1498 1.85463 11.2176 1.87439 11.2844 1.89601C11.3407 1.91417 11.3962 1.93366 11.4517 1.95315C11.5174 1.97585 11.5831 1.99907 11.648 2.02391C11.7035 2.045 11.7582 2.06716 11.8132 2.08959C11.877 2.11629 11.9408 2.14299 12.0041 2.16969C12.0586 2.19372 12.1128 2.21845 12.1667 2.24391C12.2289 2.27328 12.2908 2.30319 12.3536 2.33416C12.407 2.36086 12.4604 2.38756 12.5138 2.41666C12.5741 2.44897 12.6339 2.48207 12.6937 2.51625C12.7471 2.54589 12.7978 2.57633 12.8494 2.6073C12.9081 2.64254 12.9658 2.67885 13.0234 2.71597C13.0741 2.74827 13.1249 2.78111 13.1748 2.81475C13.2317 2.8532 13.2877 2.89299 13.3435 2.93304C13.3926 2.96801 13.4415 3.00326 13.4898 3.03983C13.5448 3.08122 13.5988 3.12421 13.6529 3.16746C13.6999 3.20484 13.7472 3.24222 13.7934 3.2812C13.8468 3.32552 13.8983 3.37171 13.9501 3.41764C13.9955 3.45795 14.0411 3.49774 14.0854 3.53885C14.1364 3.58638 14.1858 3.63577 14.2355 3.68464C14.2785 3.72709 14.3223 3.76901 14.3644 3.81253C14.3722 3.8208 14.3796 3.82935 14.3874 3.83736C13.8052 4.13833 13.1918 4.37453 12.5581 4.5417C12.2278 3.49046 11.6407 2.53818 10.8497 1.77106C10.8713 1.77667 10.8932 1.7812 10.9149 1.78708ZM9.25775 1.55506C10.4001 1.71739 11.4016 2.90981 12.0316 4.67066C11.1207 4.87465 10.1911 4.98408 9.25775 4.9972V1.55506ZM9.25775 5.5312C10.2479 5.51818 11.2339 5.40057 12.1993 5.18036C12.5345 6.3387 12.7113 7.53712 12.7249 8.74292H9.25775V5.5312ZM9.25775 9.27692H12.7249C12.7114 10.4827 12.5345 11.6811 12.1993 12.8395C11.2339 12.6193 10.2479 12.5017 9.25775 12.4886V9.27692ZM9.25775 16.4648V13.0226C10.1912 13.0357 11.1207 13.1451 12.0316 13.3492C11.4016 15.11 10.4001 16.3024 9.25775 16.4648ZM14.362 14.207C14.3198 14.2506 14.2763 14.2925 14.2333 14.3349C14.1837 14.3838 14.134 14.4332 14.083 14.4807C14.0387 14.5221 13.9931 14.5608 13.9477 14.6022C13.8959 14.6481 13.8444 14.694 13.7915 14.7384C13.7448 14.7774 13.6973 14.815 13.6497 14.8529C13.5963 14.8956 13.543 14.9384 13.488 14.9795C13.4394 15.016 13.39 15.0516 13.3403 15.0863C13.2851 15.1258 13.2295 15.1664 13.1732 15.2032C13.1227 15.2374 13.0717 15.2705 13.0205 15.3031C12.9634 15.3399 12.9058 15.3755 12.8478 15.4099C12.7944 15.4411 12.7434 15.4715 12.6908 15.5017C12.6317 15.5354 12.5722 15.5682 12.5124 15.6002C12.459 15.6287 12.4056 15.6566 12.3522 15.6838C12.2914 15.7145 12.23 15.7442 12.1683 15.7733C12.1149 15.7986 12.0594 15.824 12.0044 15.848C11.9416 15.8747 11.8781 15.9014 11.8146 15.9281C11.7593 15.9505 11.7043 15.973 11.6488 15.9941C11.5836 16.0189 11.5182 16.0421 11.4525 16.0648C11.397 16.0843 11.3415 16.1038 11.2852 16.122C11.2184 16.1436 11.1517 16.1633 11.0836 16.1828C11.0278 16.1994 10.9717 16.2159 10.9154 16.2312C10.8938 16.2368 10.8721 16.2413 10.8505 16.2469C11.6408 15.4795 12.2272 14.5271 12.5568 13.476C13.1904 13.6431 13.8039 13.8792 14.3861 14.1801C14.3772 14.1897 14.3698 14.199 14.362 14.207ZM14.7459 13.7772C14.1046 13.4297 13.4246 13.159 12.7199 12.9708C13.0653 11.7695 13.2467 10.5269 13.2589 9.27692H16.4599C16.4018 10.9252 15.799 12.5078 14.7459 13.7772Z" stroke="inherit" stroke-width="0.6" />
</svg>
