<svg width="149" height="36" viewBox="0 0 149 36" fill="#fff" xmlns="http://www.w3.org/2000/svg">
<path d="M74.8788 19.7316C73.8081 19.7366 72.763 20.0587 71.8753 20.6572C70.9875 21.2556 70.2969 22.1037 69.8907 23.0943C69.4845 24.0848 69.3808 25.1736 69.5928 26.223C69.8047 27.2725 70.3228 28.2356 71.0816 28.9909C71.8405 29.7462 72.806 30.2597 73.8565 30.4667C74.9069 30.6738 75.9951 30.565 76.9838 30.1541C77.9725 29.7432 78.8172 29.0487 79.4115 28.1581C80.0058 27.2676 80.323 26.221 80.323 25.1503C80.3334 24.4337 80.1995 23.7223 79.9293 23.0585C79.659 22.3947 79.258 21.792 78.75 21.2864C78.242 20.7808 77.6375 20.3826 76.9724 20.1155C76.3074 19.8484 75.5954 19.7178 74.8788 19.7316ZM74.8788 28.4398C74.2203 28.4859 73.5633 28.3328 72.993 28.0004C72.4227 27.6681 71.9656 27.1719 71.6811 26.5763C71.3966 25.9808 71.2978 25.3134 71.3976 24.6609C71.4974 24.0085 71.7912 23.4011 72.2408 22.9178C72.6903 22.4346 73.2749 22.0977 73.9184 21.9511C74.562 21.8044 75.2347 21.8547 75.8493 22.0955C76.4638 22.3363 76.9918 22.7564 77.3644 23.3012C77.737 23.846 77.9372 24.4903 77.9388 25.1503C77.9593 25.5685 77.8959 25.9866 77.7523 26.38C77.6087 26.7733 77.3877 27.1339 77.1026 27.4404C76.8174 27.747 76.4737 27.9934 76.0917 28.165C75.7098 28.3367 75.2974 28.4301 74.8788 28.4398ZM63.0085 19.7316C61.9373 19.7341 60.8909 20.054 60.0015 20.651C59.1121 21.2479 58.4195 22.0951 58.0114 23.0855C57.6032 24.0758 57.4977 25.165 57.7082 26.2153C57.9187 27.2656 58.4358 28.2299 59.1941 28.9864C59.9525 29.743 60.918 30.2578 61.9688 30.4659C63.0196 30.6739 64.1085 30.5659 65.0979 30.1554C66.0873 29.7449 66.9328 29.0503 67.5277 28.1595C68.1225 27.2687 68.44 26.2215 68.44 25.1503C68.4504 24.4337 68.3165 23.7223 68.0463 23.0585C67.776 22.3947 67.375 21.792 66.867 21.2864C66.359 20.7808 65.7545 20.3826 65.0894 20.1155C64.4244 19.8484 63.7123 19.7178 62.9958 19.7316H63.0085ZM63.0085 28.4398C62.3498 28.4885 61.6916 28.3377 61.1198 28.007C60.5479 27.6764 60.0889 27.1813 59.8023 26.5861C59.5158 25.9909 59.4151 25.3233 59.5134 24.6701C59.6116 24.0169 59.9042 23.4084 60.3531 22.9238C60.802 22.4392 61.3864 22.101 62.0302 21.9532C62.674 21.8054 63.3474 21.8548 63.9627 22.095C64.578 22.3353 65.1067 22.7552 65.48 23.3001C65.8534 23.8451 66.054 24.4898 66.0558 25.1503C66.0763 25.5685 66.0129 25.9866 65.8693 26.38C65.7257 26.7733 65.5047 27.1339 65.2196 27.4404C64.9344 27.747 64.5907 27.9934 64.2087 28.165C63.8268 28.3367 63.4144 28.4301 62.9958 28.4398H63.0085ZM48.8688 21.4018V23.6968H54.3768C54.2904 24.7778 53.8411 25.7978 53.1018 26.5911C52.5507 27.1524 51.8883 27.5921 51.157 27.882C50.4258 28.1718 49.642 28.3054 48.856 28.2741C47.2329 28.2741 45.6763 27.6293 44.5285 26.4816C43.3808 25.3338 42.736 23.7772 42.736 22.1541C42.736 20.5309 43.3808 18.9743 44.5285 17.8266C45.6763 16.6789 47.2329 16.0341 48.856 16.0341C50.4087 16.0087 51.9081 16.6002 53.0253 17.6788L54.6445 16.0596C53.8903 15.2959 52.9905 14.6913 51.9984 14.2818C51.0063 13.8722 49.9421 13.666 48.8688 13.6753C47.7353 13.6312 46.6046 13.8164 45.5444 14.2197C44.4842 14.623 43.5163 15.2363 42.6987 16.0226C41.8812 16.809 41.2308 17.7523 40.7865 18.796C40.3423 19.8397 40.1133 20.9624 40.1133 22.0967C40.1133 23.231 40.3423 24.3537 40.7865 25.3974C41.2308 26.4411 41.8812 27.3844 42.6987 28.1708C43.5163 28.9571 44.4842 29.5703 45.5444 29.9737C46.6046 30.377 47.7353 30.5622 48.8688 30.5181C49.9601 30.5674 51.0494 30.3824 52.0632 29.9755C53.0771 29.5687 53.992 28.9494 54.7465 28.1593C56.0823 26.6917 56.7955 24.7624 56.7355 22.7788C56.7396 22.2956 56.6969 21.8131 56.608 21.3381L48.8688 21.4018ZM106.639 23.1868C106.307 22.2086 105.685 21.3544 104.856 20.7374C104.027 20.1203 103.031 19.7696 101.998 19.7316C101.301 19.7302 100.61 19.8719 99.9698 20.1479C99.3293 20.4239 98.7522 20.8283 98.2742 21.3362C97.7962 21.8441 97.4275 22.4446 97.1908 23.1006C96.9541 23.7566 96.8544 24.4543 96.898 25.1503C96.8825 25.8629 97.0108 26.5714 97.2752 27.2333C97.5397 27.8952 97.9348 28.497 98.437 29.0028C98.9392 29.5086 99.5383 29.908 100.198 30.1771C100.858 30.4462 101.566 30.5795 102.279 30.5691C103.17 30.5739 104.05 30.3574 104.837 29.9391C105.625 29.5208 106.297 28.9137 106.792 28.1721L104.943 26.8971C104.667 27.3571 104.277 27.7376 103.81 28.0013C103.343 28.265 102.815 28.4029 102.279 28.4016C101.726 28.4226 101.18 28.277 100.712 27.9837C100.244 27.6904 99.8742 27.2629 99.652 26.7568L106.907 23.7606L106.639 23.1868ZM99.244 24.9973C99.2182 24.603 99.2713 24.2074 99.4002 23.8338C99.5292 23.4602 99.7314 23.1161 99.995 22.8217C100.259 22.5272 100.578 22.2883 100.935 22.1189C101.292 21.9495 101.68 21.8531 102.075 21.8353C102.486 21.8082 102.896 21.9025 103.254 22.1065C103.612 22.3105 103.903 22.6152 104.089 22.9828L99.244 24.9973ZM93.3535 30.2503H95.7378V14.3128H93.3535V30.2503ZM89.452 20.9428H89.3628C89.0034 20.5411 88.5632 20.2198 88.0711 20.0001C87.5789 19.7803 87.0458 19.6671 86.5068 19.6678C85.1134 19.7354 83.7995 20.3365 82.8373 21.3465C81.8751 22.3565 81.3384 23.698 81.3384 25.0929C81.3384 26.4879 81.8751 27.8294 82.8373 28.8394C83.7995 29.8494 85.1134 30.4505 86.5068 30.5181C87.0471 30.5272 87.5828 30.4177 88.0762 30.1974C88.5697 29.9771 89.0088 29.6514 89.3628 29.2431H89.4393V30.0208C89.4393 32.0991 88.33 33.2083 86.545 33.2083C85.9505 33.1944 85.3736 33.0039 84.8877 32.661C84.4018 32.3182 84.0289 31.8385 83.8165 31.2831L81.7383 32.1501C82.1295 33.1017 82.7961 33.9147 83.6525 34.4849C84.5089 35.0551 85.5162 35.3565 86.545 35.3503C89.3373 35.3503 91.645 33.7056 91.645 29.7021V20.0503H89.452V20.9428ZM86.7235 28.4398C85.9011 28.3673 85.1356 27.9894 84.578 27.3805C84.0205 26.7716 83.7112 25.9759 83.7112 25.1503C83.7112 24.3247 84.0205 23.529 84.578 22.9201C85.1356 22.3112 85.9011 21.9333 86.7235 21.8608C87.1313 21.8817 87.5308 21.9841 87.8984 22.1618C88.266 22.3395 88.5943 22.5889 88.8641 22.8955C89.1338 23.202 89.3394 23.5595 89.4689 23.9467C89.5983 24.334 89.6489 24.7432 89.6178 25.1503C89.6526 25.5592 89.6041 25.9709 89.4752 26.3605C89.3463 26.7501 89.1398 27.1095 88.868 27.417C88.5963 27.7245 88.265 27.9737 87.8942 28.1495C87.5234 28.3253 87.1208 28.4241 86.7108 28.4398H86.7235ZM117.808 14.3128H112.109V30.2503H114.493V24.2068H117.821C118.5 24.2556 119.183 24.1639 119.825 23.9375C120.468 23.711 121.057 23.3545 121.555 22.8904C122.054 22.4262 122.452 21.8643 122.724 21.2397C122.996 20.6151 123.136 19.9411 123.136 19.2598C123.136 18.5786 122.996 17.9046 122.724 17.28C122.452 16.6553 122.054 16.0934 121.555 15.6293C121.057 15.1651 120.468 14.8087 119.825 14.5822C119.183 14.3557 118.5 14.264 117.821 14.3128H117.808ZM117.808 21.9628H114.48V16.5313H117.859C118.584 16.5313 119.28 16.8195 119.793 17.3323C120.306 17.8452 120.594 18.5409 120.594 19.2662C120.594 19.9915 120.306 20.6872 119.793 21.2C119.28 21.7129 118.584 22.0011 117.859 22.0011L117.808 21.9628ZM132.509 19.6678C131.641 19.6159 130.777 19.8188 130.022 20.2514C129.268 20.6841 128.657 21.3276 128.263 22.1031L130.38 22.9828C130.588 22.5982 130.904 22.2826 131.289 22.0743C131.674 21.8661 132.111 21.7742 132.547 21.8098C132.85 21.7745 133.156 21.7997 133.449 21.8842C133.742 21.9686 134.015 22.1105 134.252 22.3016C134.49 22.4927 134.687 22.7291 134.832 22.9971C134.977 23.2651 135.067 23.5593 135.097 23.8626V24.0283C134.331 23.6229 133.477 23.4127 132.611 23.4163C130.329 23.4163 128.021 24.6913 128.021 26.9991C128.043 27.4911 128.164 27.9737 128.376 28.4182C128.589 28.8627 128.888 29.2602 129.256 29.5871C129.625 29.9139 130.055 30.1636 130.522 30.3214C130.989 30.4791 131.482 30.5416 131.973 30.5053C132.574 30.5484 133.175 30.4291 133.713 30.1599C134.251 29.8907 134.708 29.4815 135.033 28.9753H135.11V30.2503H137.405V24.1176C137.405 21.3253 135.288 19.7061 132.573 19.7061L132.509 19.6678ZM132.216 28.4016C131.438 28.4016 130.354 28.0063 130.354 27.0501C130.354 25.7751 131.706 25.3543 132.904 25.3543C133.661 25.3356 134.41 25.5206 135.072 25.8898C134.992 26.5801 134.665 27.2183 134.152 27.6869C133.639 28.1555 132.974 28.4229 132.279 28.4398L132.216 28.4016ZM145.769 20.0503L143.04 26.9608H142.964L140.133 20.0503H137.583L141.829 29.7148L139.407 35.0826H141.893L148.421 20.0503H145.769ZM124.336 30.2503H126.72V14.3128H124.336V30.2503Z" fill="inherit"/>
<path d="M48.3804 5.13601C48.4021 5.60367 48.3285 6.07085 48.1641 6.5092C47.9997 6.94755 47.748 7.34792 47.4242 7.68602C47.0626 8.06162 46.6259 8.35681 46.1426 8.55233C45.6593 8.74785 45.1402 8.83932 44.6192 8.82076C43.8286 8.81458 43.0575 8.57523 42.4024 8.13271C41.7473 7.69019 41.2374 7.06419 40.9366 6.33313C40.6357 5.60207 40.5573 4.79848 40.7111 4.02305C40.865 3.24762 41.2442 2.53484 41.8014 1.97402C42.1676 1.60016 42.6066 1.30543 43.0913 1.10806C43.576 0.910679 44.096 0.814856 44.6192 0.826516C45.1582 0.82472 45.6919 0.933193 46.1874 1.14527C46.6488 1.33136 47.0595 1.6241 47.3859 1.99952L46.7102 2.67526C46.4557 2.37257 46.1343 2.13321 45.7714 1.9761C45.4085 1.81899 45.014 1.74844 44.6192 1.77002C44.2209 1.76806 43.8264 1.84655 43.4592 2.00078C43.092 2.155 42.7597 2.38179 42.4823 2.66754C42.2049 2.95329 41.988 3.29211 41.8447 3.6637C41.7014 4.03529 41.6347 4.43199 41.6484 4.83002C41.6401 5.42434 41.8079 6.00782 42.1308 6.50686C42.4537 7.00589 42.9171 7.39812 43.4626 7.63407C44.0082 7.87002 44.6114 7.93911 45.1962 7.83263C45.7809 7.72615 46.321 7.44887 46.7484 7.03577C47.1407 6.6106 47.367 6.05848 47.3859 5.48027H44.6192V4.56227H48.3294C48.3634 4.75162 48.3805 4.94363 48.3804 5.13601ZM54.2199 1.94851H50.7774V4.37101H53.9139V5.28902H50.7774V7.71152H54.2199V8.65502H49.7574V1.00501H54.2199V1.94851ZM58.4019 8.65502H57.4202V1.94851H55.2782V1.00501H60.5949V1.94851H58.4019V8.65502ZM64.3434 8.65502V1.00501H65.3252V8.65502H64.3434ZM69.6857 8.65502H68.7039V1.94851H66.5619V1.00501H71.8149V1.94851H69.6857V8.65502ZM81.7727 7.66052C81.0273 8.40173 80.0188 8.8178 78.9677 8.8178C77.9165 8.8178 76.908 8.40173 76.1627 7.66052C75.4382 6.89363 75.0345 5.87863 75.0345 4.82364C75.0345 3.76866 75.4382 2.75365 76.1627 1.98677C76.53 1.61669 76.967 1.32297 77.4485 1.12253C77.9299 0.922097 78.4462 0.818906 78.9677 0.818906C79.4891 0.818906 80.0054 0.922097 80.4869 1.12253C80.9683 1.32297 81.4053 1.61669 81.7727 1.98677C82.5 2.75218 82.9056 3.76774 82.9056 4.82364C82.9056 5.87954 82.5 6.8951 81.7727 7.66052ZM76.8894 7.02301C77.4414 7.5727 78.1887 7.88131 78.9677 7.88131C79.7467 7.88131 80.4939 7.5727 81.0459 7.02301C81.5906 6.42251 81.8924 5.64077 81.8924 4.83002C81.8924 4.01926 81.5906 3.23752 81.0459 2.63702C80.4939 2.08733 79.7467 1.77872 78.9677 1.77872C78.1887 1.77872 77.4414 2.08733 76.8894 2.63702C76.3447 3.23752 76.0429 4.01926 76.0429 4.83002C76.0429 5.64077 76.3447 6.42251 76.8894 7.02301ZM84.2844 8.65502V1.00501H85.4829L89.2059 6.95927V1.00501H90.1877V8.65502H89.1677L85.2789 2.42027V8.65502H84.2844Z" fill="inherit"/>
<path fill-rule="evenodd" clip-rule="evenodd" d="M78.9677 0.946406C78.463 0.946406 77.9633 1.04627 77.4975 1.24024C77.0321 1.43401 76.6096 1.71786 76.2543 2.07547C75.5528 2.81855 75.162 3.80174 75.162 4.82364C75.162 5.84541 75.5527 6.82848 76.254 7.57152C76.9753 8.2881 77.9508 8.6903 78.9677 8.6903C79.9846 8.6903 80.9601 8.28804 81.6815 7.57137C82.3855 6.8298 82.7781 5.84624 82.7781 4.82364C82.7781 3.80091 82.3854 2.81724 81.6812 2.07564C81.3259 1.71795 80.9033 1.43404 80.4379 1.24024C79.972 1.04627 79.4723 0.946406 78.9677 0.946406ZM77.3994 1.00483C77.8964 0.797925 78.4294 0.691406 78.9677 0.691406C79.506 0.691406 80.0389 0.797925 80.5359 1.00483C81.0328 1.21173 81.4839 1.51492 81.8631 1.89694L81.8651 1.89892C82.615 2.68803 83.0331 3.73505 83.0331 4.82364C83.0331 5.91223 82.615 6.95923 81.8651 7.74834L81.8626 7.75096C81.0933 8.51593 80.0525 8.9453 78.9677 8.9453C77.8828 8.9453 76.842 8.5159 76.0728 7.75092L76.0699 7.74812C75.3231 6.95756 74.907 5.91119 74.907 4.82364C74.907 3.7361 75.3231 2.68976 76.07 1.89921L76.0721 1.89691C76.4514 1.5149 76.9025 1.21173 77.3994 1.00483ZM44.6163 0.953984C44.1106 0.942713 43.6079 1.03534 43.1394 1.22614C42.6709 1.41694 42.2465 1.70184 41.8925 2.06323L41.8919 2.06388C41.3524 2.6069 40.9851 3.29705 40.8362 4.04787C40.6872 4.79868 40.7632 5.57676 41.0545 6.28461C41.3458 6.99245 41.8395 7.59859 42.4738 8.02706C43.1081 8.45553 43.8547 8.68728 44.6202 8.69327L44.6237 8.6933C45.1268 8.71121 45.6281 8.62294 46.0948 8.43413C46.5614 8.24535 46.983 7.96036 47.3322 7.59772C47.644 7.27213 47.8864 6.88656 48.0447 6.46443C48.203 6.04226 48.2739 5.59232 48.253 5.14192L48.3804 5.13601L48.2529 5.13596C48.253 4.98661 48.2423 4.83749 48.2209 4.68977H44.7467V5.35277H47.5176L47.5133 5.48443C47.4934 6.09324 47.2552 6.67457 46.8421 7.12223L46.8372 7.12759C46.3917 7.55819 45.8285 7.84707 45.219 7.95807C44.6094 8.06906 43.9807 7.99704 43.412 7.75109C42.8434 7.50515 42.3603 7.0963 42.0237 6.57612C41.6877 6.0568 41.5128 5.44975 41.5209 4.83132C41.507 4.41718 41.5767 4.00447 41.7258 3.61783C41.8752 3.23022 42.1014 2.87679 42.3908 2.57873C42.6802 2.28066 43.0268 2.0441 43.4098 1.88322C43.7916 1.72284 44.2019 1.64098 44.616 1.6425C45.0293 1.6205 45.4422 1.69463 45.822 1.8591C46.1606 2.00566 46.4647 2.22039 46.7157 2.48936L47.21 1.9951C46.9107 1.67702 46.5456 1.42724 46.1397 1.26351L46.1372 1.26251C45.6577 1.05728 45.1412 0.952277 44.6196 0.954015L44.6163 0.953984ZM48.5079 5.13309C48.5299 5.617 48.4536 6.10037 48.2835 6.55397C48.113 7.0085 47.852 7.42364 47.5162 7.77421C47.1422 8.16272 46.6903 8.46828 46.1904 8.67052C45.691 8.87254 45.1547 8.96716 44.6164 8.94825C43.8014 8.94152 43.0065 8.6946 42.3311 8.23836C41.6552 7.7818 41.1291 7.13592 40.8187 6.38165C40.5082 5.62739 40.4273 4.79829 40.5861 3.99824C40.7448 3.19834 41.136 2.46305 41.7106 1.88447C42.089 1.49831 42.5425 1.19387 43.0432 0.989972C43.5435 0.786221 44.0803 0.687198 44.6204 0.699011C45.1758 0.697383 45.7257 0.80917 46.2363 1.02753C46.7159 1.22117 47.1428 1.52558 47.4821 1.91586L47.5601 2.00559L46.702 2.86372L46.6126 2.75731C46.3708 2.46975 46.0655 2.24236 45.7207 2.09311C45.376 1.94385 45.0012 1.87683 44.6261 1.89733L44.6185 1.89774C44.2374 1.89587 43.8599 1.97075 43.5085 2.11833C43.1572 2.26591 42.8392 2.48292 42.5738 2.75635C42.3083 3.02978 42.1008 3.354 41.9637 3.70958C41.8266 4.06515 41.7627 4.44475 41.7758 4.82562L41.776 4.83181C41.768 5.40095 41.9286 5.9597 42.2378 6.43759C42.547 6.91548 42.9908 7.2911 43.5133 7.51705C44.0357 7.743 44.6133 7.80916 45.1733 7.70719C45.7321 7.60544 46.2483 7.34083 46.6572 6.94663C46.9974 6.57676 47.2052 6.1059 47.2504 5.60777H44.4917V4.43477H48.436L48.4549 4.53973C48.4901 4.73556 48.5078 4.93413 48.5079 5.13309ZM49.6299 0.877515H54.3474V2.07601H50.9049V4.24351H54.0414V5.41652H50.9049V7.58402H54.3474V8.78252H49.6299V0.877515ZM49.8849 1.13251V8.52752H54.0924V7.83902H50.6499V5.16152H53.7864V4.49851H50.6499V1.82101H54.0924V1.13251H49.8849ZM55.1507 0.877515H60.7224V2.07601H58.5294V8.78252H57.2927V2.07601H55.1507V0.877515ZM55.4057 1.13251V1.82101H57.5477V8.52752H58.2744V1.82101H60.4674V1.13251H55.4057ZM64.2159 0.877515H65.4527V8.78252H64.2159V0.877515ZM64.4709 1.13251V8.52752H65.1977V1.13251H64.4709ZM66.4344 0.877515H71.9424V2.07601H69.8132V8.78252H68.5764V2.07601H66.4344V0.877515ZM66.6894 1.13251V1.82101H68.8314V8.52752H69.5581V1.82101H71.6874V1.13251H66.6894ZM84.1569 0.877515H85.5536L89.0784 6.51486V0.877515H90.3152V8.78252H89.0969L85.4064 2.8656V8.78252H84.1569V0.877515ZM84.4119 1.13251V8.52752H85.1514V1.97493L89.2384 8.52752H90.0602V1.13251H89.3334V7.40367L85.4123 1.13251H84.4119ZM76.7994 2.54667C77.3753 1.97319 78.1549 1.65122 78.9677 1.65122C79.7804 1.65122 80.56 1.97319 81.1359 2.54667L81.1405 2.55124C81.7065 3.1752 82.0199 3.98759 82.0199 4.83002C82.0199 5.67244 81.7063 6.48472 81.1403 7.10868L81.136 7.11348C80.5601 7.68695 79.7804 8.00881 78.9677 8.00881C78.1549 8.00881 77.3753 7.68684 76.7994 7.11336L76.8894 7.02301L76.795 7.10868C76.229 6.48472 75.9154 5.67244 75.9154 4.83002C75.9154 3.98759 76.229 3.17531 76.795 2.55135L76.7994 2.54667ZM76.9817 6.93496C77.5095 7.45941 78.2235 7.75381 78.9677 7.75381C79.7118 7.75381 80.4258 7.45941 80.9536 6.93496C81.4757 6.35824 81.7649 5.60803 81.7649 4.83002C81.7649 4.052 81.4757 3.30179 80.9536 2.72507C80.4258 2.20062 79.7118 1.90622 78.9677 1.90622C78.2235 1.90622 77.5095 2.20062 76.9817 2.72507C76.4596 3.30179 76.1704 4.052 76.1704 4.83002C76.1704 5.60803 76.4596 6.35824 76.9817 6.93496Z" fill="inherit"/>
<path d="M1.38144 33.6903L17.0009 17.4898L1.39453 1.31836C0.977683 1.57013 0.719727 2.15308 0.719727 2.91615V32.108C0.725317 32.871 0.973945 33.4114 1.38144 33.6903Z" fill="inherit"/>
<path d="M17.5605 17.0429L22.2131 12.2166L3.26634 1.44087C2.9473 1.2486 2.58491 1.14704 2.21582 1.14648L17.5587 17.041L17.5605 17.0429Z" fill="inherit"/>
<path d="M17.5604 17.9395L2.16895 33.9037C2.55525 33.9104 2.93577 33.8058 3.26807 33.6015L22.2522 22.7967L17.5604 17.9395Z" fill="inherit"/>
<path d="M29.0769 16.1268L22.7719 12.5342L17.9922 17.4921L22.8074 22.4811L29.075 18.8982C30.4078 18.1371 30.4077 16.884 29.0769 16.1268Z" fill="inherit"/>
</svg>
