<svg width="21" height="21" viewBox="0 0 21 21" fill="#CACFD5" stroke="#CACFD5" xmlns="http://www.w3.org/2000/svg">
<path d="M18.7279 3.22386L18.4786 6.28547L18.4783 6.28545L18.4783 6.29312C18.4767 6.63314 18.7373 6.91665 19.077 6.94879L19.077 6.94923H19.0865H19.1129H19.1132V6.84923L18.7279 3.22386ZM18.7279 3.22386L12.0609 8.35641C12.0607 8.35656 12.0605 8.35671 12.0603 8.35686C11.8287 8.53991 11.5 8.53985 11.2685 8.3567C11.2683 8.35661 11.2682 8.35651 11.2681 8.35641L6.54912 4.67892L1.98558 9.01107C1.8687 9.1285 1.71008 9.19565 1.54397 9.19832C1.35766 9.2055 1.17896 9.12364 1.06374 8.9779C0.832791 8.72456 0.847846 8.33453 1.09816 8.09945C1.09821 8.0994 1.09826 8.09935 1.09831 8.09931L6.07269 3.38972L6.07392 3.38856L6.07393 3.38857C6.30353 3.17842 6.65317 3.1651 6.89833 3.35702C6.8984 3.35708 6.89846 3.35713 6.89853 3.35718L11.6779 7.06675L17.742 2.3735L18.7279 3.22386ZM19.5202 1.24567L14.654 0.901786C14.654 0.901782 14.6539 0.901777 14.6538 0.901772L14.6537 0.901761L14.6466 1.00151L19.5202 1.24567ZM12.2663 11.9884H8.73581C8.38616 11.9884 8.1009 12.2691 8.1009 12.6176V19.4708C8.1009 19.8193 8.38616 20.1 8.73581 20.1H12.2663C12.6159 20.1 12.9012 19.8193 12.9012 19.4708V12.6176C12.9012 12.2691 12.6159 11.9884 12.2663 11.9884ZM11.6313 18.8416H9.37073V13.2468H11.6313V18.8416ZM19.2737 7.83408H15.7165C15.3668 7.83408 15.0816 8.11477 15.0816 8.46329V19.4708C15.0816 19.8193 15.3668 20.1 15.7165 20.1H19.2737C19.6233 20.1 19.9086 19.8193 19.9086 19.4708V8.46329C19.9086 8.11483 19.6233 7.83408 19.2737 7.83408ZM18.6388 18.8416H16.3514V9.0925H18.6388V18.8416ZM5.2856 14.555H1.72839C1.37874 14.555 1.09347 14.8357 1.09347 15.1842V19.4708C1.09347 19.8193 1.37874 20.1 1.72839 20.1H5.2856C5.63525 20.1 5.92051 19.8193 5.92051 19.4708V15.1842C5.92051 14.8357 5.63525 14.555 5.2856 14.555ZM4.65068 18.8416H2.3633V15.8134H4.65068V18.8416Z" fill="inherit" stroke="inherit" stroke-width="0.2"/>
</svg>
