<svg width="34" height="34" viewBox="0 0 34 34"  fill="#fff" stroke="#fff" xmlns="http://www.w3.org/2000/svg">
<path d="M29.5983 16.2852H26.2812V14.1289H33.75V21.5312H31.5938V18.5462V17.9426L31.167 18.3694L24.3711 25.1653L17.6084 18.4026L17.4316 18.2259L17.2549 18.4026L13.1069 22.5506L7.96191 17.4055L7.78063 17.2243L7.60397 17.41L2.47508 22.8037L2.40625 22.8761V22.976V31.3438V31.5938H2.65625H33.75V33.75H0.25V0.25H2.40625V11.3077V11.9313L2.83703 11.4803L8.16125 5.9061L17.2549 14.9997L17.4316 15.1765L17.6084 14.9997L29.7751 2.83303L30.2019 2.40625H29.5983H26.2812V0.25H33.75V7.65234H31.5938V4.6673V4.06374L31.167 4.49052L19.1331 16.5244L18.9563 16.7012L19.1331 16.8779L24.1943 21.9392L24.3711 22.1159L24.5479 21.9392L29.7751 16.7119L30.2019 16.2852H29.5983ZM12.9302 19.3244L13.1069 19.5012L13.2837 19.3244L15.7302 16.8779L15.907 16.7012L15.7302 16.5244L8.37755 9.1717L8.19667 8.99082L8.01999 9.1758L2.47547 14.9806L2.40625 15.0531V15.1533V19.1213V19.747L2.83742 19.2936L7.74183 14.1361L12.9302 19.3244Z" fill="inherit" stroke="inherit" stroke-width="0.5"/>
</svg>
