<svg width="20" height="20" viewBox="0 0 20 20" fill="#ddd" xmlns="http://www.w3.org/2000/svg">
<path d="M17.7886 3.11824L17.5534 6.00686L17.5531 6.00684L17.5531 6.01451C17.5516 6.3394 17.8006 6.61023 18.1251 6.64093L18.1251 6.64138H18.1345H18.1596H18.1599V6.54138L17.7886 3.11824ZM17.7886 3.11824L11.482 7.97336C11.4818 7.97351 11.4816 7.97366 11.4815 7.97381C11.2601 8.14872 10.946 8.14866 10.7247 7.9736C10.7246 7.97352 10.7245 7.97344 10.7244 7.97336L6.2574 4.49223L1.93737 8.59321C1.82569 8.70539 1.67415 8.76953 1.51546 8.77209C1.33738 8.77893 1.16656 8.7007 1.05637 8.56142C0.835771 8.31928 0.8502 7.9466 1.08938 7.72196C1.08943 7.72192 1.08948 7.72187 1.08953 7.72182L5.80209 3.26012L5.80332 3.25896L5.80333 3.25897C6.02274 3.05815 6.35685 3.04541 6.59113 3.22882C6.59119 3.22887 6.59126 3.22892 6.59133 3.22898L11.1159 6.74079L16.8467 2.30553L17.7886 3.11824ZM18.5458 1.22748L13.9358 0.901707C13.9357 0.901702 13.9357 0.901697 13.9356 0.901692L13.9354 0.901681L13.9284 1.00143L18.5458 1.22748ZM11.6733 11.4048H8.32867C7.99457 11.4048 7.7219 11.673 7.7219 12.0061V18.4986C7.7219 18.8318 7.99457 19.1 8.32867 19.1H11.6733C12.0074 19.1 12.2801 18.8318 12.2801 18.4986V12.0061C12.2801 11.673 12.0074 11.4048 11.6733 11.4048ZM11.0665 17.8973H8.93543V12.6075H11.0665V17.8973ZM18.3119 7.46913H14.9419C14.6078 7.46913 14.3352 7.73735 14.3352 8.07049V18.4986C14.3352 18.8318 14.6078 19.1 14.9419 19.1H18.3119C18.646 19.1 18.9187 18.8318 18.9187 18.4986V8.07049C18.9187 7.7374 18.646 7.46913 18.3119 7.46913ZM17.7051 17.8973H15.5487V8.67184H17.7051V17.8973ZM5.06004 13.8363H1.69005C1.35595 13.8363 1.08329 14.1045 1.08329 14.4377V18.4986C1.08329 18.8318 1.35595 19.1 1.69005 19.1H5.06004C5.39414 19.1 5.6668 18.8318 5.6668 18.4986V14.4377C5.6668 14.1046 5.39415 13.8363 5.06004 13.8363ZM4.45327 17.8973H2.29681V15.039H4.45327V17.8973Z" fill="inherit" stroke="inherit" stroke-width="0.2"/>
</svg>
