		<svg version="1.1" xmlns="http://www.w3.org/2000/svg" xmlns:xlink="http://www.w3.org/1999/xlink" id="icon-positive" viewBox="0 0 32 32">
			<path fill="#06b369" style="fill: var(--color1, #06b369)" d="M22.512 1.387c0.734 0.325 1.063 1.186 0.736 1.92s-1.186 1.063-1.92 0.736c-5.296-2.359-11.513-0.955-15.28 3.452-3.765 4.407-4.185 10.766-1.031 15.628 3.157 4.864 9.136 7.072 14.695 5.429 5.433-1.607 9.202-6.519 9.372-12.151l0.007-0.393v-1.339c0-0.804 0.651-1.454 1.454-1.454 0.747 0 1.36 0.562 1.444 1.284l0.011 0.171v1.339c-0.004 7.086-4.668 13.324-11.463 15.333s-14.103-0.69-17.959-6.635c-3.858-5.943-3.344-13.717 1.259-19.102 4.604-5.387 12.203-7.104 18.676-4.219zM31.573 3.342c0.524 0.526 0.565 1.351 0.123 1.92l-0.121 0.139-14.546 14.56c-0.524 0.523-1.351 0.564-1.92 0.121l-0.139-0.123-4.363-4.363c-0.569-0.569-0.569-1.488 0-2.057 0.524-0.524 1.349-0.565 1.92-0.121l0.137 0.121 3.335 3.333 13.516-13.529c0.569-0.569 1.488-0.569 2.057 0z"></path>
		</svg>