		<svg version="1.1" xmlns="http://www.w3.org/2000/svg" xmlns:xlink="http://www.w3.org/1999/xlink" id="icon-negative" viewBox="0 0 30 32">
			<path fill="#d33f45" style="fill: var(--color2, #d33f45)" d="M15.158 0.842c8.371 0 15.158 6.787 15.158 15.158s-6.787 15.158-15.158 15.158-15.158-6.787-15.158-15.158 6.787-15.158 15.158-15.158zM15.158 3.597c-6.85 0-12.403 5.553-12.403 12.403s5.553 12.403 12.403 12.403 12.403-5.553 12.403-12.403-5.553-12.403-12.403-12.403zM20.266 10.89c0.497 0.499 0.536 1.28 0.115 1.819l-0.115 0.131-3.16 3.16 3.16 3.16c0.539 0.539 0.539 1.411 0 1.949-0.497 0.497-1.278 0.536-1.819 0.115l-0.13-0.115-3.16-3.16-3.16 3.16c-0.539 0.539-1.411 0.539-1.949 0-0.497-0.497-0.536-1.278-0.115-1.819l0.115-0.13 3.16-3.16-3.16-3.16c-0.539-0.539-0.539-1.411 0-1.949 0.497-0.497 1.278-0.536 1.819-0.115l0.13 0.115 3.16 3.16 3.16-3.16c0.539-0.539 1.411-0.539 1.949 0z"></path>
		</svg>