    <svg version="1.1" xmlns="http://www.w3.org/2000/svg" xmlns:xlink="http://www.w3.org/1999/xlink" id="icon-status_error" viewBox="0 0 28 32">
      <path fill="#d33f45" style="fill: var(--color2, #d33f45)" d="M27.754 25.573l-12.284-20.968c-0.31-0.53-0.868-0.854-1.469-0.854s-1.159 0.324-1.469 0.854l-12.284 20.968c-0.319 0.545-0.329 1.226-0.025 1.78s0.875 0.897 1.494 0.897h24.569c0.619 0 1.19-0.343 1.494-0.897s0.295-1.235-0.025-1.78zM14.009 11.003c0.706 0 1.303 0.41 1.303 1.136 0 2.216-0.253 5.399-0.253 7.615 0 0.577-0.615 0.819-1.049 0.819-0.579 0-1.067-0.242-1.067-0.819 0-2.216-0.253-5.399-0.253-7.615 0-0.726 0.579-1.136 1.32-1.136zM14.027 24.726c-0.796 0-1.393-0.67-1.393-1.434 0-0.782 0.597-1.434 1.393-1.434 0.742 0 1.375 0.652 1.375 1.434 0 0.763-0.633 1.434-1.375 1.434z"></path>
    </svg>