    <svg version="1.1" xmlns="http://www.w3.org/2000/svg" xmlns:xlink="http://www.w3.org/1999/xlink" id="notificationTriangle" viewBox="0 0 35 28">
      <g fill="#FE9948">
        <path d="M22.0153308,3.86973977 L35.9872727,25.3650349 C36.890239,26.7542138 36.4960858,28.6123646 35.1069069,29.5153308 C34.6202761,29.8316409 34.0523396,30 33.4719419,30 L5.52805813,30 C3.87120388,30 2.52805813,28.6568542 2.52805813,27 C2.52805813,26.4196023 2.69641728,25.8516657 3.01272728,25.3650349 L16.9846692,3.86973977 C17.8876354,2.4805609 19.7457862,2.08640771 21.1349651,2.98937397 C21.4867547,3.21803725 21.7866676,3.5179501 22.0153308,3.86973977 Z" id="Triangle" fill-opacity="0.15"></path>
        <path d="M21.336,10.644 L20.958,19.446 L18.348,19.446 L17.97,10.644 L21.336,10.644 Z M21.264,20.922 L21.264,24 L18.06,24 L18.06,20.922 L21.264,20.922 Z" id="!" fill-rule="nonzero"></path>
      </g>
    </svg>