    <svg version="1.1" xmlns="http://www.w3.org/2000/svg" xmlns:xlink="http://www.w3.org/1999/xlink" id="icon-status_pending" viewBox="0 0 32 32">
      <path fill="#fe9948" style="fill: var(--color1, #fe9948)" d="M6.678 15.997c0.016 2.033 0.591 3.867 1.777 5.495s2.739 2.778 4.659 3.381c2.89 0.907 5.608 0.488 8.157-1.154-0.514-0.75-1.011-1.476-1.509-2.202-2.666 1.792-5.837 1.33-7.816-0.224-1.708-1.341-2.552-3.115-2.612-5.299h2.624c-1.33-1.329-2.651-2.651-3.956-3.956-1.313 1.313-2.634 2.633-3.959 3.959h2.635zM25.317 16c-0.006-1.38-0.286-2.688-0.859-3.93-0.577-1.249-1.394-2.315-2.444-3.202-1.046-0.884-2.228-1.518-3.552-1.865-2.764-0.725-5.337-0.274-7.735 1.283 0.513 0.749 1.010 1.475 1.496 2.184 2.55-1.513 5.094-1.598 7.567 0.067 1.904 1.282 2.8 3.162 2.874 5.47h-2.631c1.332 1.332 2.654 2.654 3.951 3.951 1.315-1.315 2.637-2.637 3.958-3.957h-2.625zM16.645 32h-1.292c-0.050-0.007-0.099-0.015-0.149-0.021-0.653-0.071-1.312-0.112-1.959-0.219-1.632-0.271-3.18-0.802-4.646-1.571-2.27-1.191-4.155-2.828-5.639-4.916-1.709-2.404-2.678-5.081-2.911-8.023-0.015-0.184-0.032-0.368-0.048-0.552v-1.393c0.008-0.057 0.022-0.115 0.024-0.172 0.041-0.908 0.171-1.804 0.372-2.69 0.338-1.488 0.879-2.898 1.623-4.23 0.916-1.641 2.086-3.076 3.504-4.307 1.118-0.97 2.348-1.769 3.689-2.398 1.719-0.805 3.526-1.287 5.416-1.448 1.523-0.13 3.037-0.049 4.535 0.255 2.619 0.532 4.963 1.649 7.024 3.351 1.836 1.516 3.264 3.355 4.284 5.508 0.821 1.731 1.307 3.554 1.469 5.462 0.135 1.587 0.039 3.16-0.297 4.718-0.638 2.957-2.008 5.528-4.094 7.716-1.54 1.615-3.347 2.849-5.406 3.707-1.572 0.656-3.208 1.048-4.908 1.173-0.197 0.015-0.394 0.033-0.591 0.049v0z"></path>
    </svg>