    <svg version="1.1" xmlns="http://www.w3.org/2000/svg" xmlns:xlink="http://www.w3.org/1999/xlink" id="icon-change-account-settings" viewBox="0 0 32 32">
      <title>change-account-settings</title>
      <path fill="#d33f45" style="fill: var(--color1, #d33f45)" d="M16 18.813c-2.438 0-4.593 1.293-5.738 3.356 1.487 1.405 3.499 2.269 5.712 2.269 0.009 0 0.018 0 0.027-0h-0.001c2.212 0 4.218-0.844 5.738-2.269-1.132-2.016-3.256-3.356-5.693-3.356-0.016 0-0.031 0-0.047 0h0.002z"></path>
      <path fill="#d33f45" style="fill: var(--color1, #d33f45)" d="M29.693 12.832c-0.378-1.619-0.988-3.047-1.804-4.332l0.034 0.057 1.19-1.984-3.686-3.686-1.984 1.19c-1.228-0.782-2.656-1.392-4.181-1.751l-0.094-0.019-0.56-2.307h-5.216l-0.56 2.307c-1.619 0.378-3.047 0.989-4.332 1.804l0.057-0.034-1.983-1.19-3.687 3.687 1.19 1.984c-0.782 1.228-1.392 2.656-1.751 4.181l-0.019 0.094-2.307 0.559v5.216l2.307 0.56c0.378 1.619 0.989 3.047 1.804 4.332l-0.034-0.057-1.19 1.984 3.686 3.686 1.984-1.19c1.228 0.782 2.656 1.392 4.181 1.751l0.094 0.019 0.56 2.307h5.216l0.56-2.307c1.619-0.378 3.047-0.988 4.332-1.804l-0.057 0.034 1.984 1.19 3.686-3.686-1.19-1.984c0.782-1.228 1.392-2.656 1.751-4.181l0.019-0.094 2.307-0.56v-5.216l-2.307-0.56zM16 26.313c-5.687 0-10.313-4.625-10.313-10.313s4.625-10.313 10.313-10.313c5.687 0 10.313 4.625 10.313 10.313s-4.625 10.313-10.313 10.313z"></path>
      <path fill="#d33f45" style="fill: var(--color1, #d33f45)" d="M20.688 14.124c-0.005-2.587-2.101-4.682-4.688-4.685h-0c-2.588 0.003-4.685 2.1-4.688 4.688v0c0.004 2.587 2.101 4.683 4.688 4.687h0c2.588-0.003 4.685-2.1 4.688-4.688v-0z"></path>
    </svg>