    <svg version="1.1" xmlns="http://www.w3.org/2000/svg" xmlns:xlink="http://www.w3.org/1999/xlink" id="withdrawal-in-progress-spinner" viewBox="0 0 32 32">
      <path fill="#5090fc" style="fill: var(--color1, #5090fc)" opacity="0.2" d="M28.949 23.4l-1.796-1.027c-0.307-0.181-0.51-0.511-0.51-0.887 0-0.126 0.023-0.247 0.064-0.359l-0.002 0.007c-1.96 4.017-6.014 6.736-10.703 6.736-6.556 0-11.871-5.315-11.871-11.871s5.315-11.871 11.871-11.871c0.396 0 0.787 0.019 1.173 0.057l-0.049-0.004-0.144-0.013c-0.547-0.045-0.983-0.472-0.983-1.021v-2.065c0-0.553 0.436-1.009 0.989-1.032-0.329-0.021-0.655-0.051-0.989-0.051-8.839 0-16 7.161-16 16s7.161 16 16 16c6.323 0 11.769-3.675 14.368-8.995-0.267 0.507-0.917 0.68-1.419 0.395z"></path>
      <path fill="#5090fc" style="fill: var(--color1, #5090fc)" d="M16.983 4.169c-0.547-0.045-0.983-0.472-0.983-1.021v-2.068c0-0.588 0.495-1.083 1.081-1.044 8.333 0.556 14.919 7.491 14.919 15.964 0 0.003 0 0.007 0 0.011 0 2.538-0.596 4.937-1.655 7.064l0.042-0.092c-0.257 0.528-0.927 0.711-1.436 0.417l-1.796-1.027c-0.477-0.273-0.635-0.861-0.4-1.36 0.704-1.466 1.116-3.187 1.116-5.004 0-0.003 0-0.007 0-0.010v0.001c-0-6.21-4.769-11.306-10.844-11.828l-0.044-0.003z"></path>
    </svg>
