<svg width="21" height="22" viewBox="0 0 21 22" fill="#CACFD5" stroke="#CACFD5" xmlns="http://www.w3.org/2000/svg">
<path d="M3.77083 13.7H6.14583H6.87599C7.21449 13.7 7.47182 13.414 7.47182 13.0833C7.47182 12.7527 7.21449 12.4667 6.87599 12.4667H6.74167V8.91667C6.74167 8.586 6.48433 8.3 6.14583 8.3H3.77083C3.43233 8.3 3.175 8.586 3.175 8.91667V12.4667H2.97917C2.64067 12.4667 2.38333 12.7527 2.38333 13.0833C2.38333 13.414 2.64067 13.7 2.97917 13.7H3.77083ZM4.36667 9.53333H5.55V12.4667H4.36667V9.53333ZM15.45 18.5V18.2307C16.1376 18.0449 16.6375 17.3889 16.6375 16.625C16.6375 15.7202 15.936 14.9667 15.0521 14.9667H14.6562C14.4487 14.9667 14.2625 14.7853 14.2625 14.5417C14.2625 14.298 14.4487 14.1167 14.6562 14.1167L14.8542 14.1167L16.0417 14.1167C16.3802 14.1167 16.6375 13.8307 16.6375 13.5C16.6375 13.1693 16.3802 12.8833 16.0417 12.8833H15.45V12.6667C15.45 12.336 15.1927 12.05 14.8542 12.05C14.5157 12.05 14.2583 12.336 14.2583 12.6667V12.9359C13.5707 13.1218 13.0708 13.7778 13.0708 14.5417C13.0708 15.4465 13.7723 16.2 14.6562 16.2H15.0521C15.2597 16.2 15.4458 16.3813 15.4458 16.625C15.4458 16.8687 15.2597 17.05 15.0521 17.05H14.8542H13.6667C13.3282 17.05 13.0708 17.336 13.0708 17.6667C13.0708 17.9973 13.3282 18.2833 13.6667 18.2833H14.2583V18.5C14.2583 18.8307 14.5157 19.1167 14.8542 19.1167C15.1927 19.1167 15.45 18.8307 15.45 18.5ZM9.50833 15.5833C9.50833 18.6707 11.8968 21.2 14.8542 21.2C17.8115 21.2 20.2 18.6707 20.2 15.5833C20.2 12.496 17.8115 9.96667 14.8542 9.96667C11.8968 9.96667 9.50833 12.496 9.50833 15.5833ZM10.7 15.5833C10.7 13.1573 12.5731 11.2 14.8542 11.2C17.1353 11.2 19.0083 13.1573 19.0083 15.5833C19.0083 18.0094 17.1353 19.9667 14.8542 19.9667C12.5731 19.9667 10.7 18.0094 10.7 15.5833ZM2.97917 18.7H7.72917C8.06767 18.7 8.325 18.414 8.325 18.0833C8.325 17.7527 8.06767 17.4667 7.72917 17.4667H2.97917C2.44446 17.4667 1.99167 17.0052 1.99167 16.4167V3.08333C1.99167 2.49483 2.44446 2.03333 2.97917 2.03333H11.6875C12.2222 2.03333 12.675 2.49483 12.675 3.08333V8.08333C12.675 8.414 12.9323 8.7 13.2708 8.7C13.6093 8.7 13.8667 8.414 13.8667 8.08333V3.08333C13.8667 1.83433 12.8984 0.8 11.6875 0.8H2.97917C1.76825 0.8 0.8 1.83433 0.8 3.08333V16.4167C0.8 17.6666 1.7683 18.7 2.97917 18.7ZM7.925 12.1583C7.925 12.489 8.18233 12.775 8.52083 12.775C8.85933 12.775 9.11667 12.489 9.11667 12.1583V6.2H10.3V9.35C10.3 9.68067 10.5573 9.96667 10.8958 9.96667C11.2343 9.96667 11.4917 9.68067 11.4917 9.35V5.58333C11.4917 5.25267 11.2343 4.96667 10.8958 4.96667H8.52083C8.18233 4.96667 7.925 5.25267 7.925 5.58333V12.1583Z" fill="inherit" stroke="inherit" stroke-width="0.4"/>
</svg>
