<svg width="22" height="22" viewBox="0 0 22 22" fill="#ddd" xmlns="http://www.w3.org/2000/svg">
<path d="M3.91667 13.65H6.41667H7.18525C7.4981 13.65 7.75192 13.3962 7.75192 13.0833C7.75192 12.7705 7.4981 12.5167 7.18525 12.5167H6.98333V8.91667C6.98333 8.60382 6.72951 8.35 6.41667 8.35H3.91667C3.60382 8.35 3.35 8.60382 3.35 8.91667V12.5167H3.08333C2.77049 12.5167 2.51667 12.7705 2.51667 13.0833C2.51667 13.3962 2.77049 13.65 3.08333 13.65H3.91667ZM4.48333 9.48333H5.85V12.5167H4.48333V9.48333ZM16.15 12.9333V12.6667C16.15 12.3538 15.8962 12.1 15.5833 12.1C15.2705 12.1 15.0167 12.3538 15.0167 12.6667V12.9735C14.3016 13.1368 13.7667 13.7778 13.7667 14.5417C13.7667 15.4287 14.488 16.15 15.375 16.15H15.7917C16.0537 16.15 16.2667 16.3635 16.2667 16.625C16.2667 16.8865 16.0537 17.1 15.7917 17.1H15.5833H14.3333C14.0205 17.1 13.7667 17.3538 13.7667 17.6667C13.7667 17.9795 14.0205 18.2333 14.3333 18.2333H15.0167V18.5C15.0167 18.8128 15.2705 19.0667 15.5833 19.0667C15.8962 19.0667 16.15 18.8128 16.15 18.5V18.1931C16.865 18.0299 17.4 17.3889 17.4 16.625C17.4 15.738 16.6787 15.0167 15.7917 15.0167H15.375C15.113 15.0167 14.9 14.8031 14.9 14.5417C14.9 14.2802 15.113 14.0667 15.375 14.0667L15.5833 14.0667L16.8333 14.0667C17.1462 14.0667 17.4 13.8128 17.4 13.5C17.4 13.1872 17.1462 12.9333 16.8333 12.9333H16.15ZM10.0167 15.5833C10.0167 18.6528 12.5138 21.15 15.5833 21.15C18.6528 21.15 21.15 18.6528 21.15 15.5833C21.15 12.5138 18.6528 10.0167 15.5833 10.0167C12.5138 10.0167 10.0167 12.5138 10.0167 15.5833ZM11.15 15.5833C11.15 13.1395 13.1387 11.15 15.5833 11.15C18.028 11.15 20.0167 13.1395 20.0167 15.5833C20.0167 18.0272 18.028 20.0167 15.5833 20.0167C13.1387 20.0167 11.15 18.0272 11.15 15.5833ZM3.08333 18.65H8.08333C8.39618 18.65 8.65 18.3962 8.65 18.0833C8.65 17.7705 8.39618 17.5167 8.08333 17.5167H3.08333C2.47701 17.5167 1.98333 17.023 1.98333 16.4167V3.08333C1.98333 2.47701 2.47701 1.98333 3.08333 1.98333H12.25C12.8563 1.98333 13.35 2.47701 13.35 3.08333V8.08333C13.35 8.39618 13.6038 8.65 13.9167 8.65C14.2295 8.65 14.4833 8.39618 14.4833 8.08333V3.08333C14.4833 1.85216 13.4812 0.85 12.25 0.85H3.08333C1.85216 0.85 0.85 1.85216 0.85 3.08333V16.4167C0.85 17.6487 1.8522 18.65 3.08333 18.65ZM8.35 12.1583C8.35 12.4712 8.60382 12.725 8.91667 12.725C9.22951 12.725 9.48333 12.4712 9.48333 12.1583V6.15H10.85V9.35C10.85 9.66284 11.1038 9.91667 11.4167 9.91667C11.7295 9.91667 11.9833 9.66284 11.9833 9.35V5.58333C11.9833 5.27049 11.7295 5.01667 11.4167 5.01667H8.91667C8.60382 5.01667 8.35 5.27049 8.35 5.58333V12.1583Z" fill="inherit" stroke="inherit" stroke-width="0.3"/>
</svg>
