<svg width="19" height="19" viewBox="0 0 19 19" fill="#fff" stroke="#fff" xmlns="http://www.w3.org/2000/svg">
<path d="M0.1 9.50006C0.1 4.31699 4.31693 0.1 9.5 0.1C14.6831 0.1 18.9 4.31699 18.9 9.50006C18.9 14.6831 14.6831 18.9 9.5 18.9C4.31693 18.9 0.1 14.6831 0.1 9.50006ZM1.62727 9.50006C1.62727 13.8412 5.15883 17.3727 9.5 17.3727C13.8411 17.3727 17.3727 13.8412 17.3727 9.50006C17.3727 5.15895 13.8412 1.62727 9.5 1.62727C5.15883 1.62727 1.62727 5.15895 1.62727 9.50006ZM8.4486 5.18234C8.4486 4.60227 8.92035 4.1303 9.49988 4.1303C10.0794 4.1303 10.5512 4.60227 10.5512 5.18234C10.5512 5.76174 10.0795 6.23333 9.49988 6.23333C8.92026 6.23333 8.4486 5.76174 8.4486 5.18234ZM8.73636 8.92424C8.73636 8.50251 9.07827 8.16061 9.5 8.16061C9.92173 8.16061 10.2636 8.50251 10.2636 8.92424V14.1061C10.2636 14.5278 9.92173 14.8697 9.5 14.8697C9.07827 14.8697 8.73636 14.5278 8.73636 14.1061V8.92424Z" fill="inherit" stroke="inherit" stroke-width="0.2"/>
</svg>
