<svg width="30" height="30" viewBox="0 0 30 30" fill="white" xmlns="http://www.w3.org/2000/svg">
<path d="M14.8833 0C6.63869 0 0.0429688 6.66667 0.0429688 15C0.0429688 23.3333 6.63869 30 14.8833 30C23.128 30 29.7237 23.3333 29.7237 15C29.7237 6.66667 23.128 0 14.8833 0ZM14.8833 11.6667C16.6972 11.6667 18.1812 13.1667 18.1812 15C18.1812 16.8333 16.6972 18.3333 14.8833 18.3333C13.0695 18.3333 11.5855 16.8333 11.5855 15C11.5855 13.1667 13.0695 11.6667 14.8833 11.6667ZM19.5003 8.33333C19.5003 7.16667 20.4897 6.33333 21.4791 6.33333C22.4684 6.33333 23.4578 7.33333 23.4578 8.33333C23.4578 9.33333 22.6333 10.3333 21.4791 10.3333C20.3248 10.3333 19.5003 9.5 19.5003 8.33333ZM14.8833 26.6667C8.45251 26.6667 3.34083 21.5 3.34083 15H8.28762C8.28762 18.6667 11.2557 21.6667 14.8833 21.6667C18.511 21.6667 21.4791 18.6667 21.4791 15H26.4258C26.4258 21.5 21.3142 26.6667 14.8833 26.6667Z" fill="inherit"/>
</svg>
