    <svg version="1.1" xmlns="http://www.w3.org/2000/svg" xmlns:xlink="http://www.w3.org/1999/xlink" id="instant-payment" viewBox="0 0 43 32">
      <title>instant-payment</title>
      <path fill="#5090fc" style="fill: var(--color1, #5090fc)" d="M2.237 9.94h4.752v2.424h-4.752zM2.237 19.636h4.752v2.424h-4.752zM0 14.788h6.989v2.424h-6.989zM25.393 0.020c-8.812 0-15.98 7.167-15.98 15.98 0 8.812 7.168 15.98 15.98 15.98s15.98-7.168 15.98-15.98c0-8.812-7.168-15.98-15.98-15.98zM25.393 29.556c-7.475 0-13.556-6.080-13.556-13.556 0-7.475 6.081-13.556 13.556-13.556s13.556 6.080 13.556 13.556c0 7.475-6.080 13.556-13.556 13.556z"></path>
      <path fill="#5090fc" style="fill: var(--color1, #5090fc)" d="M26.176 16.603v-7.831h-2.424v9.112l6.247 4.257 1.365-2.004z"></path>
    </svg>