<svg width="42" height="36" viewBox="0 0 42 36" fill="black" xmlns="http://www.w3.org/2000/svg">
<path fill-rule="evenodd" clip-rule="evenodd" d="M20.9999 4.00002C28.7319 4.00002 34.9999 10.268 34.9999 18C34.9999 23.7244 31.5643 28.6464 26.6425 30.8164H40.0298L37.3426 28.0823C37.1173 27.853 37.1173 27.4813 37.3426 27.252C37.568 27.0227 37.9333 27.0227 38.1587 27.252L41.8309 30.9884C42.0562 31.2177 42.0562 31.5894 41.8309 31.8187L38.1587 35.5551C37.9333 35.7844 37.568 35.7844 37.3426 35.5551C37.1173 35.3258 37.1173 34.9541 37.3426 34.7248L40.0298 31.9907L20.9999 32C13.268 32 6.99994 25.732 6.99994 18C6.99994 12.273 10.4387 7.34915 15.3641 5.18066H1.97011L4.65727 7.91478C4.88262 8.14406 4.88262 8.51581 4.65727 8.74509C4.43193 8.97437 4.06657 8.97437 3.84122 8.74509L0.169009 5.00869C-0.0563363 4.77941 -0.0563363 4.40766 0.169009 4.17838L3.84122 0.441983C4.06657 0.212699 4.43193 0.212699 4.65727 0.441983C4.88262 0.671267 4.88262 1.04301 4.65727 1.27229L1.97011 4.00642L20.9999 4.00002ZM20.9999 30.7867C28.0618 30.7867 33.7866 25.0619 33.7866 18C33.7866 10.9381 28.0618 5.21335 20.9999 5.21335C13.9381 5.21335 8.21328 10.9381 8.21328 18C8.21328 25.0619 13.9381 30.7867 20.9999 30.7867Z" fill="inherit"/>
<path fill-rule="evenodd" clip-rule="evenodd" d="M32 18C32 24.0751 27.0751 29 21 29C14.9249 29 10 24.0751 10 18C10 11.9249 14.9249 7 21 7C27.0751 7 32 11.9249 32 18ZM25.0141 19.5542C24.5065 17.7545 22.8621 16.5179 20.997 16.5179C19.9155 16.5179 19.0326 15.6456 19.0326 14.5635C19.0436 13.4704 19.9155 12.5981 20.997 12.5981C22.0785 12.5981 22.9614 13.4814 22.9614 14.5635C22.9614 15.1708 23.458 15.6677 24.065 15.6677C24.672 15.6677 25.1686 15.1708 25.1686 14.5635C25.1686 12.6975 23.9326 11.0523 22.1337 10.5444V10.0475C22.1337 9.44019 21.6371 8.94333 21.0301 8.94333C20.4231 8.94333 19.9265 9.44019 19.9265 10.0475V10.5223C17.7083 11.1185 16.384 13.4152 16.9688 15.6235C17.4544 17.4454 19.0988 18.7152 20.986 18.7152C22.0675 18.7152 22.9504 19.5875 22.9504 20.6695C22.9504 21.7516 22.0785 22.635 20.997 22.635C19.9155 22.635 19.0326 21.7627 19.0326 20.6805C19.0326 20.0733 18.536 19.5763 17.929 19.5763C17.322 19.5763 16.8254 20.0733 16.8254 20.6805C16.8364 22.5687 18.0945 24.2138 19.9155 24.7106V25.6714C19.9155 26.2787 20.4121 26.7755 21.0191 26.7755C21.6261 26.7755 22.1227 26.2787 22.1227 25.6714V24.6997C24.352 24.0704 25.6321 21.7737 25.0141 19.5542Z" fill="inherit"/>
</svg>
