      <svg version="1.1" xmlns="http://www.w3.org/2000/svg" xmlns:xlink="http://www.w3.org/1999/xlink" id="InteracETI" viewBox="0 0 78 32">
          <title>InteracETI</title>
          <path fill="#555" style="fill: var(--color1, #555)" d="M75 0c1.657 0 3 1.343 3 3v26c0 1.657-1.343 3-3 3l-44.851-0.006c0.983-0.073 1.769-0.856 1.845-1.838l0.006-0.157v-28c0-1.054-0.816-1.918-1.851-1.994l-0.149-0.005h45zM62.576 13.74c-1.386 0-1.932 0.708-1.932 1.578 0 0.737 0.383 1.194 1.121 1.46v0l0.944 0.339c0.265 0.088 0.487 0.251 0.487 0.59 0 0.413-0.265 0.619-0.678 0.619-0.457 0-0.708-0.31-0.708-0.767v0-0.177h-1.18v0.221c0 1.003 0.413 1.666 1.932 1.666 1.121 0 1.947-0.546 1.947-1.652 0-0.796-0.31-1.224-1.165-1.504v0l-0.811-0.28c-0.457-0.147-0.59-0.369-0.59-0.619 0-0.369 0.295-0.56 0.634-0.56 0.428 0 0.59 0.265 0.59 0.796v0h1.209v-0.221c0-0.944-0.575-1.489-1.799-1.489zM37.094 13.696c-1.814 0-2.094 1.312-2.094 2.713 0 1.312 0.088 2.817 2.035 2.817 1.268 0 1.858-0.678 1.902-1.902v0h-1.209c-0.074 0.649-0.265 0.988-0.708 0.988-0.501 0-0.664-0.605-0.664-1.224v0-0.413h2.669v-0.31c0-1.607-0.354-2.669-1.932-2.669zM52.888 13.711c-1.017 0-1.843 0.413-1.843 1.622v0 0.133l1.224-0.030v-0.147c0-0.398 0.206-0.678 0.619-0.678 0.442 0 0.619 0.251 0.619 0.649 0 0.354-0.133 0.516-0.531 0.619v0l-0.767 0.206c-0.929 0.251-1.327 0.649-1.327 1.637 0 0.708 0.324 1.504 1.268 1.504 0.649 0 1.032-0.133 1.342-0.678v0h0.015c0.029 0.177 0.074 0.383 0.162 0.546v0h1.283c-0.133-0.31-0.162-0.531-0.162-1.017v0-2.758c0-0.944-0.295-1.607-1.902-1.607zM70.244 13.696c-1.814 0-2.094 1.312-2.094 2.713 0 1.312 0.074 2.817 2.035 2.817 1.268 0 1.858-0.678 1.902-1.902v0h-1.209c-0.074 0.649-0.265 0.988-0.708 0.988-0.501 0-0.664-0.605-0.664-1.224v0-0.413h2.669v-0.31c0-1.607-0.354-2.669-1.932-2.669zM47.712 12.133h-4.439v1.15h1.519v5.825h1.401v-5.825h1.519v-1.15zM50.204 13.711c-0.56 0-0.929 0.339-1.209 0.841v0h-0.015v-0.708h-1.283v5.25h1.342v-3.156c0-0.693 0.531-0.944 1.003-0.944v0l0.413 0.015v-1.283zM58.432 13.711c-0.555-0.028-1.076 0.264-1.342 0.752v0h-0.015v-0.619h-1.283l0.015 5.25h1.342v-3.495c0-0.59 0.251-0.87 0.708-0.87 0.398 0 0.575 0.206 0.575 0.737v0 3.628h1.342v-3.893c0-1.032-0.501-1.489-1.342-1.489zM67 12c-0.87 0-1.401 0.31-1.401 1.253v0 0.59h-0.678v0.914h0.678v4.335h1.342v-4.335h0.782v-0.914h-0.782v-0.457c0-0.295 0.133-0.413 0.516-0.413v0l0.265 0.015v-0.959zM75.523 13.711c-0.56 0-0.929 0.339-1.209 0.841v0h-0.015v-0.708h-1.283l-0.015 5.25h1.342v-3.156c0-0.693 0.531-0.944 1.003-0.944v0l0.428 0.015v-1.283zM53.492 16.477l0 1.038c0 0.575-0.457 0.811-0.826 0.811-0.354 0-0.501-0.339-0.501-0.737 0-0.472 0.221-0.737 0.767-0.855 0.162-0.044 0.383-0.133 0.575-0.265l-0.015 0.009zM42.86 15.701h-2.758v1.15h2.758v-1.15zM53.507 16.468l-0.015 0.009 0-0.009h0.015zM37.065 14.625c0.546 0 0.649 0.457 0.678 1.253v0h-1.371v-0.206c0-0.487 0.162-1.047 0.693-1.047zM70.2 14.625c0.546 0 0.649 0.457 0.678 1.253v0h-1.371v-0.206c0-0.487 0.162-1.047 0.693-1.047z"></path>
          <path fill="#f0b51c" style="fill: var(--color2, #f0b51c)" d="M3 0h25c1.657 0 3 1.343 3 3v26c0 1.657-1.343 3-3 3h-25c-1.657 0-3-1.343-3-3v-26c0-1.657 1.343-3 3-3z"></path>
          <path fill="#1c1601" style="fill: var(--color3, #1c1601)" d="M17.456 16.256v-5.515l1.445-0.339v0.723c0 0 0.369-0.944 1.239-1.165 0.265-0.074 0.398-0.030 0.398-0.030v1.401c0 0-0.324-0.015-0.752 0.162-0.531 0.206-0.796 0.664-0.796 1.371v3.038l-1.534 0.354zM9.876 18.040c0 0-0.236-0.354-0.236-1.593v-2.743l-0.737 0.177v-1.135l0.737-0.177v-1.224l1.534-0.369v1.239l1.076-0.251v1.135l-1.076 0.251v2.787c0 1.268 0.339 1.519 0.339 1.519l-1.637 0.383zM12.412 14.766c0-0.973 0.133-1.696 0.442-2.241 0.354-0.649 0.944-1.076 1.784-1.268 1.681-0.383 2.286 0.605 2.256 1.947v0.708l-2.949 0.693v0.044c0 0.929 0.192 1.371 0.782 1.253 0.516-0.103 0.649-0.428 0.693-0.826l0.015-0.221 1.386-0.324v0.236c-0.015 0.531-0.162 1.843-2.094 2.3-1.829 0.413-2.315-0.693-2.315-2.3v0zM14.713 12.274c-0.487 0.118-0.752 0.59-0.752 1.386l1.489-0.354v-0.236c-0.015-0.605-0.192-0.914-0.737-0.796zM25.699 11.537c-0.059-1.681 0.383-3.008 2.256-3.436 1.194-0.265 1.652 0.044 1.873 0.339 0.221 0.28 0.31 0.678 0.31 1.209v0.103l-1.46 0.354v-0.206c0-0.634-0.177-0.885-0.649-0.767-0.56 0.133-0.782 0.664-0.782 1.711v0.487c0 1.062 0.147 1.548 0.782 1.416 0.56-0.118 0.634-0.605 0.634-1.032v-0.28l1.46-0.339v0.221c0 1.386-0.737 2.271-2.109 2.595-1.873 0.442-2.256-0.649-2.315-2.374v0zM20.641 13.896c0-1.283 0.752-1.681 1.873-2.138 1.017-0.413 1.032-0.619 1.032-0.988 0-0.31-0.133-0.575-0.634-0.442-0.457 0.118-0.59 0.457-0.605 0.723l-0.015 0.28-1.416 0.339c0 0-0.015-0.442 0.103-0.841 0.221-0.767 0.9-1.283 2.065-1.548 1.504-0.354 2.006 0.31 2.020 1.342v2.433c0 1.18 0.221 1.357 0.221 1.357l-1.386 0.324c0 0-0.133-0.265-0.192-0.501 0 0-0.31 0.767-1.357 1.018-1.121 0.265-1.711-0.428-1.711-1.357v0zM23.546 12.141c0 0-0.295 0.206-0.737 0.428-0.457 0.221-0.678 0.501-0.678 0.944 0 0.369 0.236 0.619 0.649 0.516 0.457-0.118 0.767-0.531 0.767-1.121v-0.767zM1.883 21.904c-0.325-0.001-0.624-0.179-0.778-0.466s-0.138-0.634 0.040-0.906l0.015-0.015h0.015l2.079-0.487v1.578l-0.030 0.015-1.15 0.265-0.192 0.015zM1.883 23.924c-0.325-0.001-0.624-0.179-0.778-0.466s-0.138-0.634 0.040-0.906l0.015-0.015h0.015l2.079-0.487v1.578l-0.030 0.015-1.15 0.265-0.192 0.015zM1.883 25.944c-0.325-0.001-0.624-0.179-0.778-0.466s-0.138-0.634 0.040-0.906l0.015-0.015 2.094-0.487v1.578l-0.030 0.015-1.15 0.265-0.192 0.015zM1.647 19.972v-8.833l1.607-0.383v8.833l-1.607 0.383zM5.658 19.22c0-0.546-0.442-0.988-0.988-0.988s-0.988 0.442-0.988 0.988v8.258c0 1.489 1.209 2.684 2.684 2.684h2.817v-7.3c0-0.442-0.221-0.841-0.575-1.076l-2.507-1.696v3.864c0 0.118-0.103 0.221-0.221 0.221s-0.206-0.088-0.206-0.221l-0.015-4.734zM7 13.056c-1.047 0.236-1.43 1.106-1.43 1.106v-0.619l-1.445 0.339v3.967c0.175-0.066 0.359-0.1 0.546-0.103 0.369 0 0.723 0.133 0.973 0.369v-2.566c0-0.619 0.31-1.106 0.737-1.194 0.324-0.074 0.605 0.044 0.605 0.634v3.731l1.534-0.354v-3.952c0-0.959-0.383-1.622-1.519-1.357z"></path>
          <path fill="#1c1601" style="fill: var(--color3, #1c1601)" d="M29.076 6.947c-0.521 0-0.944-0.423-0.944-0.944 0-0.516 0.428-0.944 0.944-0.944s0.944 0.428 0.944 0.944c0 0.531-0.428 0.944-0.944 0.944zM29.076 5.177c-0.295 0-0.568 0.157-0.715 0.413s-0.148 0.57 0 0.826c0.148 0.255 0.42 0.413 0.715 0.413 0.456 0 0.826-0.37 0.826-0.826s-0.37-0.826-0.826-0.826z"></path>
          <path fill="#1c1601" style="fill: var(--color3, #1c1601)" d="M28.737 5.442h0.549c0.216 0 0.392 0.074 0.392 0.295 0 0.147-0.078 0.265-0.255 0.28 0.157 0.015 0.235 0.074 0.235 0.236v0.236c0 0.059 0.039 0.088 0.078 0.103h-0.274l-0.039-0.103-0.020-0.221c0-0.133-0.059-0.177-0.216-0.177h-0.196v0.501h-0.255v-1.15zM29.169 5.959c0.157 0 0.235-0.074 0.235-0.192s-0.078-0.192-0.235-0.192h-0.216v0.369h0.216v0.015z"></path>
      </svg>