    <svg version="1.1" xmlns="http://www.w3.org/2000/svg" xmlns:xlink="http://www.w3.org/1999/xlink" id="launch" width="27" height="20" viewBox="0 0 34 32" fill="#fff">
      <title>launch</title>
      <path fill="inherit" style="fill: var(--color3, inherit)" d="M2.578 0c-1.425 0-2.578 1.154-2.578 2.578v28.835h28.133v-2.578h-25.554v-18.52h28.367v18.52h-10.316v2.578h12.894v-28.834c0-1.428-1.154-2.58-2.578-2.58h-28.367zM3.867 3.867c0.712 0 1.29 0.578 1.29 1.29s-0.577 1.29-1.29 1.29v0c-0.712 0-1.29-0.577-1.29-1.29s0.578-1.29 1.29-1.29v0zM9.026 3.867c0.712 0 1.29 0.578 1.29 1.29s-0.578 1.29-1.29 1.29v0c-0.712 0-1.29-0.577-1.29-1.29s0.578-1.29 1.29-1.29v0zM12.894 3.867h18.051v2.58h-18.051v-2.58z"></path>
      <path fill="inherit" style="fill: var(--color3, inherit)" d="M22.394 11.429v1.326h-1.986c-0 0-0 0-0.001 0-0.216 0-0.408 0.103-0.528 0.263l-0.001 0.002-1.787 2.385h-1.655c-0 0-0 0-0 0-0.183 0-0.348 0.074-0.467 0.194l-1.794 1.794h-1.71c-0 0-0 0-0 0-0.137 0-0.264 0.042-0.369 0.113l0.002-0.002-1.819 1.214h-0.465c-0.366 0-0.663 0.297-0.663 0.663s0.297 0.663 0.663 0.663h0.661c0.131 0 0.259-0.040 0.367-0.113l1.819-1.213h1.786c0 0 0 0 0 0 0.183 0 0.349-0.075 0.469-0.195l1.792-1.794h1.711c0 0 0 0 0.001 0 0.216 0 0.408-0.103 0.528-0.263l0.001-0.002 1.789-2.383h1.655v1.326l1.987-1.99-1.987-1.987zM21.733 16.728c-0.366 0-0.663 0.297-0.663 0.663v0 9.275h2.648v-9.275c0 0 0 0 0 0 0-0.366-0.296-0.662-0.661-0.663h-1.326zM17.76 18.717c0 0 0 0 0 0-0.366 0-0.662 0.296-0.663 0.661v7.288h2.648v-7.288c-0.001-0.365-0.296-0.66-0.661-0.661h-1.326zM13.787 20.704c-0.366 0-0.663 0.297-0.663 0.663v0 5.3h2.648v-5.3c0 0 0 0 0 0 0-0.366-0.296-0.662-0.661-0.663h-1.326zM9.813 22.691c-0.366 0-0.663 0.297-0.663 0.663v3.313h2.648v-3.313c0 0 0 0 0 0 0-0.366-0.296-0.662-0.661-0.663h-1.326z"></path>
    </svg>
