    <svg version="1.1" xmlns="http://www.w3.org/2000/svg" xmlns:xlink="http://www.w3.org/1999/xlink" id="like" viewBox="0 0 28 32">
      <title>like</title>
      <path fill="#f5d323" style="fill: var(--color12, #f5d323)" d="M8.909 0l-0.639 4.468-3.010 5.638c-0.887 1.66-2.61 2.695-4.484 2.695h-0.776v16.64h2.545c1.63 1.64 3.84 2.56 6.145 2.56h12.946c1.406 0 2.545-1.146 2.545-2.56v-1.35c1.479-0.304 2.543-1.611 2.545-3.13-0.001-0.783-0.288-1.538-0.805-2.122 1.248-0.464 2.077-1.66 2.078-2.997-0.001-1.008-0.475-1.957-1.278-2.56 0.803-0.603 1.277-1.552 1.278-2.56 0-1.767-1.425-3.2-3.182-3.2h-12.091c0 0 1.273-4.18 1.273-5.12 0-2.881 0-6.4-3.818-6.4h-1.273z"></path>
    </svg>