<svg width="31" height="31" viewBox="0 0 31 31" fill="#006fa6" xmlns="http://www.w3.org/2000/svg">
<path d="M15.2018 0.557129C7.00554 0.557129 0.361328 7.27275 0.361328 15.5571C0.361328 23.8415 7.00554 30.5571 15.2018 30.5571C23.3981 30.5571 30.0423 23.8415 30.0423 15.5571C30.0423 7.27275 23.3981 0.557129 15.2018 0.557129ZM11.569 21.7743H8.56378V11.9993H11.569V21.7743ZM10.0478 10.7993C9.09866 10.7993 8.48495 10.1196 8.48495 9.279C8.48495 8.42119 9.11721 7.76182 10.0865 7.76182C11.0557 7.76182 11.6494 8.42119 11.6679 9.279C11.6679 10.1196 11.0557 10.7993 10.0478 10.7993ZM22.5448 21.7743H19.5396V16.3571C19.5396 15.0962 19.1036 14.2399 18.0169 14.2399C17.1867 14.2399 16.6936 14.8196 16.4756 15.3774C16.3952 15.5759 16.3751 15.8571 16.3751 16.1368V21.7728H13.3684V15.1165C13.3684 13.8962 13.3297 12.8759 13.2895 11.9978H15.9005L16.0381 13.3556H16.0984C16.4942 12.7181 17.4634 11.7774 19.0851 11.7774C21.0623 11.7774 22.5448 13.1165 22.5448 15.9946V21.7743Z" fill="inherit"/>
</svg>
