<svg id="log-out" viewBox="0 0 35 32" width="27" height="20" fill="#fff">
    <title>log-out</title>
    <path fill="inherit" d="M0 29.574v-27.11c0.008-0.024 0.019-0.046 0.024-0.070 0.155-1.014 0.704-1.72 1.627-2.115 0.211-0.091 0.448-0.125 0.672-0.186h18.752c0.027 0.008 0.054 0.019 0.082 0.024 0.682 0.102 1.238 0.426 1.672 0.971 0.413 0.522 0.576 1.122 0.576 1.789-0.006 3.886-0.003 7.771-0.003 11.656l-0.003 0.163-0.16-0.003h-5.818c-1.485 0-2.971-0.005-4.458 0.003-0.922 0.005-1.542 1.029-1.141 1.877 0.246 0.518 0.664 0.771 1.227 0.771l10.349-0.003 0.003 0.075v11.84c0 0.096 0 0.192-0.010 0.288-0.128 1.358-1.253 2.4-2.589 2.4h-18.218c-1.13-0.011-2.085-0.743-2.43-1.758l-0.005-0.018c-0.064-0.192-0.101-0.395-0.15-0.594z"></path>
    <path fill="inherit" d="M23.395 17.344c0.002-0.547 0.005-1.096 0.005-1.645 0-0.336-0.003-0.67-0.005-1.005l7.266-0.006c-0.042-0.046-0.072-0.080-0.104-0.112-0.96-0.982-1.923-1.962-2.882-2.944-0.237-0.241-0.384-0.572-0.384-0.937 0-0.288 0.091-0.554 0.246-0.773l-0.003 0.004c0.236-0.337 0.622-0.554 1.059-0.554 0.378 0 0.718 0.163 0.954 0.422l0.001 0.001 5.144 5.251c0.456 0.466 0.544 1.099 0.229 1.648-0.067 0.112-0.143 0.208-0.229 0.294v0c-2.454 2.511-4.141 4.233-5.83 5.953l0.651-0.665c-0.233 0.245-0.562 0.397-0.926 0.397-0.328 0-0.628-0.124-0.855-0.328l0.001 0.001c-0.274-0.247-0.446-0.604-0.446-1.001 0-0.295 0.095-0.569 0.257-0.791l-0.003 0.004c0.062-0.086 0.139-0.165 0.214-0.242l2.795-2.854c0.032-0.032 0.061-0.064 0.104-0.112-0.035-0.003-0.054-0.008-0.072-0.008h-7.189z"></path>
</svg>