<svg width="14" height="18" viewBox="0 0 14 18" fill="#fff" xmlns="http://www.w3.org/2000/svg">
<path d="M7 0C3.1395 0 0 3.02737 0 6.75C0 11.4289 6.31867 17.5759 6.587 17.8358C6.70133 17.9449 6.85067 18 7 18C7.14933 18 7.29867 17.9449 7.413 17.8358C7.68133 17.5759 14 11.4289 14 6.75C14 3.02737 10.8605 0 7 0ZM7 16.6241C5.607 15.1864 1.16667 10.3241 1.16667 6.75C1.16667 3.64838 3.7835 1.125 7 1.125C10.2165 1.125 12.8333 3.64838 12.8333 6.75C12.8333 10.3208 8.393 15.1864 7 16.6241Z" fill="inherit"/>
<path d="M7 3.375C5.07033 3.375 3.5 4.88925 3.5 6.75C3.5 8.61075 5.07033 10.125 7 10.125C8.92967 10.125 10.5 8.61075 10.5 6.75C10.5 4.88925 8.92967 3.375 7 3.375ZM7 9C5.71317 9 4.66667 7.99088 4.66667 6.75C4.66667 5.50912 5.71317 4.5 7 4.5C8.28683 4.5 9.33333 5.50912 9.33333 6.75C9.33333 7.99088 8.28683 9 7 9Z" fill="inherit"/>
</svg>
