    <svg version="1.1" xmlns="http://www.w3.org/2000/svg" xmlns:xlink="http://www.w3.org/1999/xlink" id="master-card" viewBox="0 0 35 35">
      <title>master-card</title>
      <g fill="none" fill-rule="evenodd">
        <path d="M-8-8h51.743v51.842H-8z"/>
        <path fill="#DDD" fill-rule="nonzero" d="M33.688 34.754h-.065v.172h-.032v-.172h-.064v-.032h.164l-.003.032zm.25.172h-.031v-.166l-.059.146h-.035l-.058-.146v.166h-.032v-.204h.05l.058.146.058-.146h.05v.204zm-30.77 0h-.447v-5.112h.447v5.112zm3.398-5.112a3.47 3.47 0 0 1 1.15.178c.326.107.624.282.877.511.241.225.43.5.552.807a3.003 3.003 0 0 1 0 2.12c-.122.307-.31.582-.552.807-.253.23-.551.404-.876.511a3.47 3.47 0 0 1-1.151.178H4.699v-5.112h1.867zm-1.42.424v4.265h1.42c.335.006.67-.046.987-.152.267-.091.512-.237.719-.43a1.79 1.79 0 0 0 .441-.672 2.661 2.661 0 0 0 0-1.752 1.808 1.808 0 0 0-.441-.675 1.969 1.969 0 0 0-.719-.43 2.983 2.983 0 0 0-.984-.149l-1.423-.005zm9.64-.482a2.746 2.746 0 0 1 1.222.283c.175.089.338.2.485.33.143.128.268.275.37.438l-.37.249a1.811 1.811 0 0 0-.313-.363 1.943 1.943 0 0 0-.865-.447 2.2 2.2 0 0 0-.517-.061c-.29-.002-.58.051-.85.158a2.022 2.022 0 0 0-1.14 1.133 2.469 2.469 0 0 0 0 1.782 2.022 2.022 0 0 0 1.14 1.133c.27.107.56.16.85.158.173.001.346-.019.514-.058.325-.071.627-.224.877-.444.12-.107.225-.23.312-.365l.366.266c-.107.159-.233.303-.377.43a2.492 2.492 0 0 1-1.049.532 2.854 2.854 0 0 1-1.668-.124 2.51 2.51 0 0 1-.83-.537 2.471 2.471 0 0 1-.55-.827 2.904 2.904 0 0 1 0-2.112c.126-.31.313-.591.55-.827a2.51 2.51 0 0 1 .83-.538 2.755 2.755 0 0 1 1.025-.19h-.011zm3.582 2.337a1.32 1.32 0 0 1 .868-.611 1.712 1.712 0 0 1 .935.058 1.204 1.204 0 0 1 .75.71c.073.186.11.385.106.585v2.106h-.418v-1.978a1.405 1.405 0 0 0-.073-.467.929.929 0 0 0-.564-.576 1.32 1.32 0 0 0-.468-.076 1.227 1.227 0 0 0-.45.082 1.08 1.08 0 0 0-.61.596 1.169 1.169 0 0 0-.09.462v1.957h-.415v-5.259h.414l.015 2.41zm5.387-.649c.219-.002.436.042.637.129.193.084.366.207.508.362.147.162.263.35.34.555.084.226.128.465.128.707v.172h-2.88c.01.184.056.365.134.532a1.233 1.233 0 0 0 .704.643c.158.056.325.085.493.084.223.004.443-.04.646-.131.191-.09.365-.21.514-.36l.222.293a1.802 1.802 0 0 1-.68.45 1.732 1.732 0 0 1-.36.09 2.69 2.69 0 0 1-.368.026 1.814 1.814 0 0 1-.692-.128 1.613 1.613 0 0 1-.547-.362 1.636 1.636 0 0 1-.356-.558 1.949 1.949 0 0 1-.129-.719 1.92 1.92 0 0 1 .129-.713c.077-.212.195-.407.348-.572a1.718 1.718 0 0 1 1.221-.508l-.012.008zm0 .368a1.207 1.207 0 0 0-.862.339 1.288 1.288 0 0 0-.269.377 1.502 1.502 0 0 0-.134.482h2.457a1.49 1.49 0 0 0-.12-.488 1.227 1.227 0 0 0-.257-.377 1.145 1.145 0 0 0-.815-.333zm4.16-.368a1.82 1.82 0 0 1 .71.137c.214.089.405.225.558.398l-.269.292a1.356 1.356 0 0 0-1.008-.424 1.288 1.288 0 0 0-.944.397 1.315 1.315 0 0 0-.291.439c-.134.357-.134.75 0 1.107.125.326.378.587.7.721.166.071.344.107.524.106.194.002.386-.038.563-.117.17-.076.324-.18.456-.31l.26.292a1.554 1.554 0 0 1-.558.398c-.224.092-.464.139-.707.137a1.826 1.826 0 0 1-.71-.135 1.66 1.66 0 0 1-.92-.931 1.978 1.978 0 0 1 0-1.409c.165-.424.498-.763.92-.934.226-.107.472-.165.722-.173l-.006.009zm2.667 1.505h.558l1.46-1.461h.527l-1.636 1.621 1.665 1.814h-.529l-1.46-1.61h-.558v1.61h-.439v-5.258h.415l-.003 3.284zM7.045 27.188v-1.753a1.04 1.04 0 0 0-1.098-1.11 1.08 1.08 0 0 0-.982.496 1.025 1.025 0 0 0-.923-.496.923.923 0 0 0-.818.415v-.345h-.608v2.793h.614v-1.549a.654.654 0 0 1 .683-.742c.403 0 .608.263.608.736v1.555h.613v-1.549a.657.657 0 0 1 .684-.742c.415 0 .613.263.613.736v1.555h.614zm9.074-2.802h-.994v-.847h-.613v.847h-.567v.546h.567v1.274c0 .649.251 1.034.97 1.034.268.001.532-.074.76-.216l-.176-.52a1.122 1.122 0 0 1-.532.181c-.292 0-.403-.187-.403-.467v-1.286h.988v-.546zm5.182-.07a.824.824 0 0 0-.736.409v-.339h-.602v2.793h.608v-1.566c0-.462.198-.719.584-.719a.99.99 0 0 1 .38.07l.187-.584a1.3 1.3 0 0 0-.433-.076l.012.012zm-7.835.292a2.089 2.089 0 0 0-1.14-.292c-.706 0-1.168.339-1.168.894 0 .456.34.736.964.824l.292.04c.333.047.491.135.491.293 0 .216-.222.339-.637.339-.333.01-.66-.094-.929-.293l-.292.474c.354.247.778.374 1.21.362.806 0 1.273-.38 1.273-.911 0-.532-.368-.748-.975-.836l-.293-.04c-.262-.036-.473-.089-.473-.275 0-.187.199-.328.532-.328a1.8 1.8 0 0 1 .876.24l.27-.49zm16.275-.292a.824.824 0 0 0-.736.409v-.339h-.602v2.793h.608v-1.566c0-.462.198-.719.584-.719a.99.99 0 0 1 .38.07l.187-.584a1.3 1.3 0 0 0-.433-.076l.012.012zm-7.83 1.46a1.411 1.411 0 0 0 1.49 1.461c.365.019.724-.1 1.006-.333l-.293-.49c-.21.16-.466.248-.73.25a.897.897 0 0 1 0-1.787c.264.003.52.09.73.251l.293-.49a1.46 1.46 0 0 0-1.005-.334 1.411 1.411 0 0 0-1.49 1.46v.013zm5.691 0V24.38h-.607v.34a1.06 1.06 0 0 0-.877-.41 1.46 1.46 0 1 0 0 2.921c.341.013.667-.14.877-.409v.34h.607v-1.385zm-2.26 0a.844.844 0 1 1 .847.895.838.838 0 0 1-.848-.894zm-7.333-1.46a1.46 1.46 0 0 0 .04 2.921c.418.015.825-.124 1.146-.391l-.292-.45a1.33 1.33 0 0 1-.812.292.774.774 0 0 1-.836-.684h2.077v-.233c0-.877-.543-1.46-1.326-1.46l.003.005zm0 .543a.692.692 0 0 1 .707.678h-1.46a.719.719 0 0 1 .741-.678h.012zm15.24.923v-2.518h-.607v1.46a1.06 1.06 0 0 0-.877-.408 1.46 1.46 0 1 0 0 2.921c.341.013.667-.14.877-.409v.34h.607v-1.386zm-2.26 0a.844.844 0 1 1 .847.894.838.838 0 0 1-.848-.894zm-20.517 0v-1.396h-.608v.339a1.06 1.06 0 0 0-.876-.409 1.46 1.46 0 0 0 0 2.921c.34.013.667-.14.876-.409v.34h.608v-1.386zm-2.261 0a.844.844 0 1 1 .847.894.838.838 0 0 1-.847-.894zm26.05.99a.292.292 0 0 1 .2.08.272.272 0 0 1-.09.45.275.275 0 0 1-.11.023.292.292 0 0 1-.264-.17.275.275 0 0 1 .062-.303.292.292 0 0 1 .201-.08zm0 .495a.207.207 0 0 0 .151-.065.216.216 0 0 0 0-.292.216.216 0 0 0-.152-.064.22.22 0 0 0-.155.064.216.216 0 0 0 0 .292c.02.02.044.036.07.047.027.012.056.02.085.02v-.002zm.017-.348a.117.117 0 0 1 .076.023.073.073 0 0 1 .026.062.07.07 0 0 1-.02.052.102.102 0 0 1-.062.026l.085.097h-.067l-.08-.097h-.025v.097h-.056v-.257l.123-.003zm-.065.05v.07h.065a.061.061 0 0 0 .035 0 .03.03 0 0 0 0-.027.03.03 0 0 0 0-.026.061.061 0 0 0-.035 0l-.065-.017z"/>
        <path fill="#CFCFCF" fill-rule="nonzero" d="M13.27 3.104h9.202v16.538H13.27z"/>
        <path fill="#BBBABA" fill-rule="nonzero" d="M13.855 11.374a10.5 10.5 0 0 1 4.016-8.27 10.517 10.517 0 1 0 0 16.538 10.5 10.5 0 0 1-4.016-8.268z"/>
        <path fill="#DDD" fill-rule="nonzero" d="M33.883 17.892v-.339h.138v-.07h-.348v.07h.137v.339h.073zm.675 0v-.41h-.105l-.123.293-.122-.292H34.1v.409h.076v-.307l.113.266h.08l.113-.266v.31l.076-.003zM34.888 11.374a10.517 10.517 0 0 1-17.017 8.268 10.517 10.517 0 0 0 0-16.538 10.517 10.517 0 0 1 17.017 8.267v.003z"/>
      </g>
    </svg>