    <svg version="1.1" xmlns="http://www.w3.org/2000/svg" xmlns:xlink="http://www.w3.org/1999/xlink" id="masterCard_logo" viewBox="0 0 51 40">
      <title>masterCard_logo</title>
      <g fill="none" fill-rule="evenodd">
        <path d="M-6-6h63.088v51.746H-6z"/>
        <path fill="#231F20" fill-rule="nonzero" d="M9.621 39.236v-2.579a1.53 1.53 0 0 0-1.615-1.633 1.59 1.59 0 0 0-1.444.73 1.508 1.508 0 0 0-1.358-.73 1.358 1.358 0 0 0-1.204.61v-.507h-.894v4.109h.903v-2.26a.963.963 0 0 1 1.006-1.092c.593 0 .893.386.893 1.083v2.286h.903v-2.278a.967.967 0 0 1 1.006-1.091c.61 0 .902.386.902 1.083v2.286l.902-.017zm13.353-4.109h-1.47v-1.246h-.902v1.246h-.817v.817h.834v1.89c0 .955.37 1.522 1.427 1.522.395.001.782-.109 1.117-.318l-.258-.765a1.65 1.65 0 0 1-.79.232c-.43 0-.594-.275-.594-.687v-1.874h1.461l-.008-.817zm7.624-.103a1.212 1.212 0 0 0-1.083.602v-.499h-.886v4.109h.894v-2.304c0-.679.293-1.057.86-1.057.191-.003.38.032.558.103l.276-.86a1.912 1.912 0 0 0-.637-.111l.018.017zm-11.526.43a3.073 3.073 0 0 0-1.676-.43c-1.04 0-1.72.499-1.72 1.315 0 .67.5 1.083 1.419 1.212l.43.06c.49.069.722.198.722.43 0 .318-.327.499-.937.499a2.187 2.187 0 0 1-1.367-.43l-.43.696c.521.364 1.145.55 1.78.533 1.186 0 1.873-.559 1.873-1.341 0-.782-.541-1.1-1.435-1.23l-.43-.06c-.387-.05-.696-.128-.696-.403s.292-.482.782-.482c.453.006.897.127 1.29.353l.395-.722zm23.941-.43a1.212 1.212 0 0 0-1.083.602v-.499h-.885v4.109h.894v-2.304c0-.679.292-1.057.86-1.057.19-.003.38.032.558.103l.275-.86a1.912 1.912 0 0 0-.636-.111l.017.017zm-11.517 2.149a2.076 2.076 0 0 0 2.192 2.149 2.149 2.149 0 0 0 1.478-.49l-.43-.722a1.805 1.805 0 0 1-1.074.37 1.32 1.32 0 0 1 0-2.63c.388.004.765.133 1.074.369l.43-.722a2.149 2.149 0 0 0-1.478-.49 2.076 2.076 0 0 0-2.192 2.149v.017zm8.371 0v-2.046h-.893v.499a1.56 1.56 0 0 0-1.29-.602 2.149 2.149 0 0 0 0 4.298 1.56 1.56 0 0 0 1.29-.602v.499h.893v-2.046zm-3.326 0a1.242 1.242 0 1 1 1.246 1.315 1.233 1.233 0 0 1-1.246-1.315zm-10.787-2.149a2.149 2.149 0 1 0 .06 4.298 2.497 2.497 0 0 0 1.707-.559l-.43-.662c-.34.272-.76.424-1.195.43a1.139 1.139 0 0 1-1.229-1.006h3.051v-.344c0-1.289-.799-2.148-1.95-2.148l-.014-.009zm0 .8a1.019 1.019 0 0 1 1.04.996h-2.148a1.057 1.057 0 0 1 1.091-.997h.017zM48.15 37.18v-3.704h-.86v2.149A1.56 1.56 0 0 0 46 35.024a2.149 2.149 0 0 0 0 4.298 1.56 1.56 0 0 0 1.29-.602v.499h.859V37.18zm1.491 1.457a.43.43 0 0 1 .297.116.4.4 0 0 1-.133.662.404.404 0 0 1-.164.035.43.43 0 0 1-.387-.25.404.404 0 0 1 .09-.447.43.43 0 0 1 .31-.116h-.013zm0 .727a.305.305 0 0 0 .223-.095.318.318 0 0 0 0-.43.318.318 0 0 0-.223-.094.322.322 0 0 0-.228.094.318.318 0 0 0 0 .43.318.318 0 0 0 .24.095h-.012zm.026-.512c.04-.002.08.01.112.035a.107.107 0 0 1 .038.09.103.103 0 0 1-.03.077.15.15 0 0 1-.09.039l.124.142h-.098l-.116-.142h-.04v.142h-.08v-.378l.18-.005zm-.095.073v.103h.095a.09.09 0 0 0 .051 0 .043.043 0 0 0 0-.038.043.043 0 0 0 0-.039.09.09 0 0 0-.051 0l-.095-.026zm-4.727-1.745a1.242 1.242 0 1 1 1.246 1.316 1.233 1.233 0 0 1-1.246-1.316zm-30.182 0v-2.054h-.893v.499a1.56 1.56 0 0 0-1.29-.602 2.149 2.149 0 0 0 0 4.298 1.56 1.56 0 0 0 1.29-.602v.499h.893V37.18zm-3.326 0a1.242 1.242 0 1 1 1.246 1.316 1.233 1.233 0 0 1-1.254-1.316h.008z"/>
      <g fill-rule="nonzero">
        <path fill="#FF5F00" d="M18.775 3.82h13.537v24.328H18.775z"/>
        <path fill="#EB001B" d="M19.635 15.986A15.445 15.445 0 0 1 25.544 3.82C19.2-1.165 10.09-.44 4.618 5.488c-5.473 5.927-5.473 15.065 0 20.992 5.473 5.927 14.583 6.653 20.926 1.668a15.445 15.445 0 0 1-5.91-12.162z"/>
        <path fill="#F79E1B" d="M50.577 15.986a15.47 15.47 0 0 1-25.033 12.162 15.471 15.471 0 0 0 0-24.328 15.471 15.471 0 0 1 25.033 12.162v.004zM49.099 25.57v-.499h.201v-.103h-.51v.103h.218v.499h.09zm.992 0v-.602h-.154l-.181.43-.18-.43h-.138v.602h.112v-.452l.167.391h.116l.168-.39v.455l.09-.004z"/>
        </g>
      </g>
    </svg>