<svg version="1.1" xmlns="http://www.w3.org/2000/svg" xmlns:xlink="http://www.w3.org/1999/xlink" id="messanger-header" viewBox="0 0 32 32">
<title>messanger-header</title>
<path fill="#007cf8" style="fill: var(--color5, #007cf8)" d="M18.349 14.627c-1.34-1.365-2.676-2.735-4.019-4.1-2.8 2.992-5.607 5.98-8.405 8.973 2.537-1.384 5.075-2.769 7.609-4.157 1.356 1.38 2.699 2.773 4.051 4.157 2.88-3.039 5.759-6.077 8.636-9.117-2.625 1.413-5.247 2.831-7.872 4.245zM22.193 1.2c2.6 1.008 4.947 2.687 6.683 4.873 1.74 2.176 2.84 4.869 3.040 7.653 0.224 2.812-0.464 5.68-1.911 8.099-1.26 2.124-3.067 3.907-5.168 5.196-2.29 1.419-5.042 2.31-7.991 2.441l-0.036 0.001c-0.244 0.012-0.531 0.019-0.819 0.019-1.624 0-3.196-0.224-4.687-0.642l0.122 0.029c-2.107 1.027-4.213 2.053-6.32 3.077 0.36-1.857 0.725-3.713 1.087-5.571-2.213-1.587-4.017-3.765-5.073-6.283-0.681-1.572-1.077-3.402-1.077-5.325 0-0.26 0.007-0.519 0.022-0.775l-0.002 0.036c0.137-2.723 1.132-5.387 2.763-7.568 1.68-2.267 4.008-4.031 6.609-5.111 4.024-1.68 8.696-1.731 12.759-0.151z"></path>
<path fill="#fff" style="fill: var(--color4, #fff)" d="M18.349 14.627c-1.34-1.365-2.676-2.735-4.019-4.1-2.8 2.992-5.607 5.98-8.405 8.973 2.537-1.384 5.075-2.769 7.609-4.157 1.356 1.38 2.699 2.773 4.051 4.157 2.88-3.039 5.759-6.077 8.636-9.117-2.625 1.413-5.247 2.831-7.872 4.245z"></path>
</svg>