<svg width="28" height="18" viewBox="0 0 28 18" fill="#337FFF" xmlns="http://www.w3.org/2000/svg">
<path d="M11.2622 9.2362H13.5876C13.7194 9.23602 13.8457 9.18294 13.9389 9.08862C14.032 8.99429 14.0843 8.86644 14.0843 8.73313V8.24413H11.2622C11.1598 8.24413 11.0615 8.20296 10.989 8.12968C10.9166 8.0564 10.8758 7.95701 10.8758 7.85338V6.97384C10.8763 6.63346 11.0101 6.30713 11.2481 6.06644C11.4861 5.82575 11.8088 5.69035 12.1454 5.68994H12.481V4.96336C12.481 4.85973 12.5217 4.76034 12.5941 4.68706C12.6666 4.61378 12.7649 4.57261 12.8674 4.57261C12.9698 4.57261 13.0681 4.61378 13.1406 4.68706C13.213 4.76034 13.2537 4.85973 13.2537 4.96336V5.69061H14.4707C14.5732 5.69061 14.6715 5.73178 14.7439 5.80506C14.8164 5.87834 14.8571 5.97773 14.8571 6.08136C14.8571 6.185 14.8164 6.28439 14.7439 6.35767C14.6715 6.43095 14.5732 6.47212 14.4707 6.47212H12.1454C12.0137 6.47229 11.8874 6.52528 11.7943 6.61946C11.7012 6.71364 11.6488 6.84132 11.6486 6.97451V7.46418H14.4707C14.5215 7.46407 14.5717 7.47406 14.6186 7.49359C14.6656 7.51312 14.7082 7.5418 14.7442 7.578C14.7802 7.6142 14.8087 7.65721 14.8282 7.70458C14.8478 7.75194 14.8579 7.80273 14.858 7.85404V8.7338C14.8576 9.0742 14.7238 9.40056 14.4858 9.64127C14.2478 9.88197 13.925 10.0174 13.5885 10.0177H13.2537V10.7443C13.2537 10.8479 13.213 10.9473 13.1406 11.0206C13.0681 11.0939 12.9698 11.135 12.8674 11.135C12.7649 11.135 12.6666 11.0939 12.5941 11.0206C12.5217 10.9473 12.481 10.8479 12.481 10.7443V10.0177H11.2622C11.1598 10.0177 11.0615 9.97654 10.989 9.90326C10.9166 9.82997 10.8758 9.73059 10.8758 9.62695C10.8758 9.52332 10.9166 9.42393 10.989 9.35065C11.0615 9.27737 11.1598 9.2362 11.2622 9.2362Z" fill="inherit"/>
<path fill-rule="evenodd" clip-rule="evenodd" d="M17.613 9.04551C17.846 9.04551 18.0738 8.97563 18.2675 8.84471C18.4612 8.71379 18.6123 8.52771 18.7014 8.31C18.7906 8.09229 18.8139 7.85272 18.7685 7.6216C18.723 7.39048 18.6108 7.17818 18.446 7.01155C18.2813 6.84492 18.0714 6.73145 17.8428 6.68548C17.6143 6.6395 17.3774 6.6631 17.1621 6.75328C16.9469 6.84345 16.7629 6.99617 16.6334 7.1921C16.5039 7.38804 16.4348 7.6184 16.4348 7.85404C16.4352 8.16993 16.5594 8.47278 16.7803 8.69615C17.0012 8.91951 17.3006 9.04516 17.613 9.04551ZM17.613 7.44409C17.6931 7.44409 17.7715 7.46813 17.8382 7.51318C17.9048 7.55823 17.9568 7.62225 17.9875 7.69716C18.0182 7.77207 18.0262 7.8545 18.0106 7.93402C17.9949 8.01355 17.9563 8.0866 17.8996 8.14393C17.8429 8.20126 17.7707 8.24031 17.6921 8.25612C17.6134 8.27194 17.5319 8.26382 17.4578 8.2328C17.3838 8.20177 17.3205 8.14922 17.2759 8.0818C17.2314 8.01439 17.2076 7.93513 17.2076 7.85404C17.2077 7.74534 17.2504 7.6411 17.3264 7.56423C17.4024 7.48736 17.5055 7.44415 17.613 7.44409Z" fill="inherit"/>
<path fill-rule="evenodd" clip-rule="evenodd" d="M8.7745 8.84471C8.58076 8.97563 8.35298 9.04551 8.11997 9.04551C7.80762 9.04516 7.50816 8.91951 7.2873 8.69615C7.06643 8.47278 6.9422 8.16993 6.94185 7.85404C6.94185 7.6184 7.01094 7.38804 7.1404 7.1921C7.26985 6.99617 7.45385 6.84345 7.66912 6.75328C7.8844 6.6631 8.12128 6.6395 8.34981 6.68548C8.57835 6.73145 8.78827 6.84492 8.95303 7.01155C9.1178 7.17818 9.23 7.39048 9.27546 7.6216C9.32092 7.85272 9.29759 8.09229 9.20842 8.31C9.11925 8.52771 8.96825 8.71379 8.7745 8.84471ZM8.34518 7.51318C8.27852 7.46813 8.20015 7.44409 8.11997 7.44409C8.01248 7.44415 7.90941 7.48736 7.8334 7.56423C7.75739 7.6411 7.71466 7.74534 7.71461 7.85404C7.71461 7.93513 7.73838 8.01439 7.78292 8.0818C7.82746 8.14922 7.89077 8.20177 7.96485 8.2328C8.03892 8.26382 8.12042 8.27194 8.19906 8.25612C8.27769 8.24031 8.34992 8.20126 8.40661 8.14393C8.4633 8.0866 8.50191 8.01355 8.51755 7.93402C8.53319 7.8545 8.52516 7.77207 8.49448 7.69716C8.4638 7.62225 8.41184 7.55823 8.34518 7.51318Z" fill="inherit"/>
<path fill-rule="evenodd" clip-rule="evenodd" d="M4.72403 12.5306C4.724 12.5819 4.73398 12.6327 4.75338 12.6802C4.77279 12.7276 4.80125 12.7707 4.83713 12.807C4.87302 12.8432 4.91563 12.872 4.96252 12.8917C5.00941 12.9113 5.05966 12.9214 5.11041 12.9213H20.6225C20.6733 12.9214 20.7235 12.9113 20.7704 12.8917C20.8173 12.872 20.8599 12.8432 20.8958 12.807C20.9317 12.7707 20.9602 12.7276 20.9796 12.6802C20.999 12.6327 21.0089 12.5819 21.0089 12.5306C21.0094 12.1093 21.1751 11.7053 21.4697 11.4074C21.7643 11.1095 22.1637 10.9419 22.5803 10.9414C22.631 10.9415 22.6813 10.9314 22.7282 10.9118C22.775 10.8921 22.8177 10.8634 22.8535 10.8271C22.8894 10.7908 22.9179 10.7477 22.9373 10.7003C22.9567 10.6528 22.9667 10.602 22.9666 10.5507V5.15762C22.9667 5.1063 22.9567 5.05547 22.9373 5.00805C22.9179 4.96063 22.8894 4.91754 22.8535 4.88125C22.8177 4.84496 22.775 4.81618 22.7282 4.79655C22.6813 4.77692 22.631 4.76684 22.5803 4.76687C22.1635 4.76645 21.764 4.5988 21.4694 4.30072C21.1748 4.00265 21.0091 3.59851 21.0089 3.17706C21.0089 3.12573 20.999 3.07491 20.9796 3.02749C20.9602 2.98007 20.9317 2.93698 20.8958 2.90069C20.8599 2.8644 20.8173 2.83561 20.7704 2.81599C20.7235 2.79636 20.6733 2.78627 20.6225 2.7863H5.11041C5.05966 2.78627 5.00941 2.79636 4.96252 2.81599C4.91563 2.83561 4.87302 2.8644 4.83713 2.90069C4.80125 2.93698 4.77279 2.98007 4.75338 3.02749C4.73398 3.07491 4.724 3.12573 4.72403 3.17706C4.7238 3.59851 4.55819 4.00265 4.26358 4.30072C3.96896 4.5988 3.56942 4.76645 3.15268 4.76687C3.10194 4.76684 3.05168 4.77692 3.00479 4.79655C2.9579 4.81618 2.91529 4.84496 2.87941 4.88125C2.84352 4.91754 2.81506 4.96063 2.79566 5.00805C2.77625 5.05547 2.76628 5.1063 2.7663 5.15762V10.5507C2.76628 10.602 2.77625 10.6528 2.79566 10.7003C2.81506 10.7477 2.84352 10.7908 2.87941 10.8271C2.91529 10.8634 2.9579 10.8921 3.00479 10.9118C3.05168 10.9314 3.10194 10.9415 3.15268 10.9414C3.56929 10.9419 3.96869 11.1095 4.26328 11.4074C4.55786 11.7053 4.72356 12.1093 4.72403 12.5306ZM3.53906 5.516C4.02032 5.43385 4.46433 5.20219 4.80947 4.85319C5.1546 4.50419 5.38371 4.05517 5.465 3.56848H20.268C20.3492 4.05517 20.5784 4.50419 20.9235 4.85319C21.2686 5.20219 21.7126 5.43385 22.1939 5.516V10.1923C21.7126 10.2745 21.2686 10.5061 20.9235 10.8551C20.5784 11.2041 20.3492 11.6531 20.268 12.1398H5.465C5.38371 11.6531 5.1546 11.2041 4.80947 10.8551C4.46433 10.5061 4.02032 10.2745 3.53906 10.1923V5.516Z" fill="inherit"/>
<path fill-rule="evenodd" clip-rule="evenodd" d="M27 5.57963H26.9978V3.68169C26.9978 3.63037 26.9878 3.57954 26.9684 3.53212C26.949 3.4847 26.9206 3.44161 26.8847 3.40532C26.8488 3.36903 26.8062 3.34025 26.7593 3.32062C26.7124 3.30099 26.6622 3.2909 26.6114 3.29093H24.7347V1.39075C24.7347 1.33943 24.7248 1.28861 24.7054 1.24118C24.686 1.19376 24.6575 1.15067 24.6216 1.11438C24.5857 1.07809 24.5431 1.04931 24.4962 1.02969C24.4493 1.01006 24.3991 0.999971 24.3483 1H1.38638C1.33563 0.999971 1.28537 1.01006 1.23848 1.02969C1.19159 1.04931 1.14899 1.07809 1.1131 1.11438C1.07722 1.15067 1.04876 1.19376 1.02935 1.24118C1.00995 1.28861 0.999971 1.33943 1 1.39075V14.3169C1 14.4205 1.04071 14.5199 1.11317 14.5932C1.18563 14.6665 1.28391 14.7076 1.38638 14.7076H3.26308V16.6056C3.26296 16.657 3.27287 16.7079 3.29224 16.7554C3.31161 16.8029 3.34005 16.846 3.37595 16.8824C3.41184 16.9188 3.45447 16.9476 3.50141 16.9673C3.54834 16.9869 3.59865 16.997 3.64946 16.997H5.52615V17H6.30068V16.997H26.6114C26.6622 16.997 26.7124 16.987 26.7593 16.9673C26.8062 16.9477 26.8488 16.9189 26.8847 16.8826C26.9206 16.8463 26.949 16.8033 26.9684 16.7558C26.9878 16.7084 26.9978 16.6576 26.9978 16.6063V6.36114H27V5.57963ZM1.77276 1.78218H23.9602V13.9261H1.77276V1.78218ZM4.03672 14.7076H24.3466C24.449 14.7076 24.5473 14.6665 24.6198 14.5932C24.6922 14.5199 24.7329 14.4205 24.7329 14.3169V4.07177H26.2242V16.2155H4.03672V14.7076Z" fill="inherit"/>
<path d="M11.2622 9.2362H13.5876C13.7194 9.23602 13.8457 9.18294 13.9389 9.08862C14.032 8.99429 14.0843 8.86644 14.0843 8.73313V8.24413H11.2622C11.1598 8.24413 11.0615 8.20296 10.989 8.12968C10.9166 8.0564 10.8758 7.95701 10.8758 7.85338V6.97384C10.8763 6.63346 11.0101 6.30713 11.2481 6.06644C11.4861 5.82575 11.8088 5.69035 12.1454 5.68994H12.481V4.96336C12.481 4.85973 12.5217 4.76034 12.5941 4.68706C12.6666 4.61378 12.7649 4.57261 12.8674 4.57261C12.9698 4.57261 13.0681 4.61378 13.1406 4.68706C13.213 4.76034 13.2537 4.85973 13.2537 4.96336V5.69061H14.4707C14.5732 5.69061 14.6715 5.73178 14.7439 5.80506C14.8164 5.87834 14.8571 5.97773 14.8571 6.08136C14.8571 6.185 14.8164 6.28439 14.7439 6.35767C14.6715 6.43095 14.5732 6.47212 14.4707 6.47212H12.1454C12.0137 6.47229 11.8874 6.52528 11.7943 6.61946C11.7012 6.71364 11.6488 6.84132 11.6486 6.97451V7.46418H14.4707C14.5215 7.46407 14.5717 7.47406 14.6186 7.49359C14.6656 7.51312 14.7082 7.5418 14.7442 7.578C14.7802 7.6142 14.8087 7.65721 14.8282 7.70458C14.8478 7.75194 14.8579 7.80273 14.858 7.85404V8.7338C14.8576 9.0742 14.7238 9.40056 14.4858 9.64127C14.2478 9.88197 13.925 10.0174 13.5885 10.0177H13.2537V10.7443C13.2537 10.8479 13.213 10.9473 13.1406 11.0206C13.0681 11.0939 12.9698 11.135 12.8674 11.135C12.7649 11.135 12.6666 11.0939 12.5941 11.0206C12.5217 10.9473 12.481 10.8479 12.481 10.7443V10.0177H11.2622C11.1598 10.0177 11.0615 9.97654 10.989 9.90326C10.9166 9.82997 10.8758 9.73059 10.8758 9.62695C10.8758 9.52332 10.9166 9.42393 10.989 9.35065C11.0615 9.27737 11.1598 9.2362 11.2622 9.2362Z" stroke="inherit" stroke-width="0.4"/>
<path fill-rule="evenodd" clip-rule="evenodd" d="M17.613 9.04551C17.846 9.04551 18.0738 8.97563 18.2675 8.84471C18.4612 8.71379 18.6123 8.52771 18.7014 8.31C18.7906 8.09229 18.8139 7.85272 18.7685 7.6216C18.723 7.39048 18.6108 7.17818 18.446 7.01155C18.2813 6.84492 18.0714 6.73145 17.8428 6.68548C17.6143 6.6395 17.3774 6.6631 17.1621 6.75328C16.9469 6.84345 16.7629 6.99617 16.6334 7.1921C16.5039 7.38804 16.4348 7.6184 16.4348 7.85404C16.4352 8.16993 16.5594 8.47278 16.7803 8.69615C17.0012 8.91951 17.3006 9.04516 17.613 9.04551ZM17.613 7.44409C17.6931 7.44409 17.7715 7.46813 17.8382 7.51318C17.9048 7.55823 17.9568 7.62225 17.9875 7.69716C18.0182 7.77207 18.0262 7.8545 18.0106 7.93402C17.9949 8.01355 17.9563 8.0866 17.8996 8.14393C17.8429 8.20126 17.7707 8.24031 17.6921 8.25612C17.6134 8.27194 17.5319 8.26382 17.4578 8.2328C17.3838 8.20177 17.3205 8.14922 17.2759 8.0818C17.2314 8.01439 17.2076 7.93513 17.2076 7.85404C17.2077 7.74534 17.2504 7.6411 17.3264 7.56423C17.4024 7.48736 17.5055 7.44415 17.613 7.44409Z" stroke="inherit" stroke-width="0.4"/>
<path fill-rule="evenodd" clip-rule="evenodd" d="M8.7745 8.84471C8.58076 8.97563 8.35298 9.04551 8.11997 9.04551C7.80762 9.04516 7.50816 8.91951 7.2873 8.69615C7.06643 8.47278 6.9422 8.16993 6.94185 7.85404C6.94185 7.6184 7.01094 7.38804 7.1404 7.1921C7.26985 6.99617 7.45385 6.84345 7.66912 6.75328C7.8844 6.6631 8.12128 6.6395 8.34981 6.68548C8.57835 6.73145 8.78827 6.84492 8.95303 7.01155C9.1178 7.17818 9.23 7.39048 9.27546 7.6216C9.32092 7.85272 9.29759 8.09229 9.20842 8.31C9.11925 8.52771 8.96825 8.71379 8.7745 8.84471ZM8.34518 7.51318C8.27852 7.46813 8.20015 7.44409 8.11997 7.44409C8.01248 7.44415 7.90941 7.48736 7.8334 7.56423C7.75739 7.6411 7.71466 7.74534 7.71461 7.85404C7.71461 7.93513 7.73838 8.01439 7.78292 8.0818C7.82746 8.14922 7.89077 8.20177 7.96485 8.2328C8.03892 8.26382 8.12042 8.27194 8.19906 8.25612C8.27769 8.24031 8.34992 8.20126 8.40661 8.14393C8.4633 8.0866 8.50191 8.01355 8.51755 7.93402C8.53319 7.8545 8.52516 7.77207 8.49448 7.69716C8.4638 7.62225 8.41184 7.55823 8.34518 7.51318Z" stroke="inherit" stroke-width="0.4"/>
<path fill-rule="evenodd" clip-rule="evenodd" d="M4.72403 12.5306C4.724 12.5819 4.73398 12.6327 4.75338 12.6802C4.77279 12.7276 4.80125 12.7707 4.83713 12.807C4.87302 12.8432 4.91563 12.872 4.96252 12.8917C5.00941 12.9113 5.05966 12.9214 5.11041 12.9213H20.6225C20.6733 12.9214 20.7235 12.9113 20.7704 12.8917C20.8173 12.872 20.8599 12.8432 20.8958 12.807C20.9317 12.7707 20.9602 12.7276 20.9796 12.6802C20.999 12.6327 21.0089 12.5819 21.0089 12.5306C21.0094 12.1093 21.1751 11.7053 21.4697 11.4074C21.7643 11.1095 22.1637 10.9419 22.5803 10.9414C22.631 10.9415 22.6813 10.9314 22.7282 10.9118C22.775 10.8921 22.8177 10.8634 22.8535 10.8271C22.8894 10.7908 22.9179 10.7477 22.9373 10.7003C22.9567 10.6528 22.9667 10.602 22.9666 10.5507V5.15762C22.9667 5.1063 22.9567 5.05547 22.9373 5.00805C22.9179 4.96063 22.8894 4.91754 22.8535 4.88125C22.8177 4.84496 22.775 4.81618 22.7282 4.79655C22.6813 4.77692 22.631 4.76684 22.5803 4.76687C22.1635 4.76645 21.764 4.5988 21.4694 4.30072C21.1748 4.00265 21.0091 3.59851 21.0089 3.17706C21.0089 3.12573 20.999 3.07491 20.9796 3.02749C20.9602 2.98007 20.9317 2.93698 20.8958 2.90069C20.8599 2.8644 20.8173 2.83561 20.7704 2.81599C20.7235 2.79636 20.6733 2.78627 20.6225 2.7863H5.11041C5.05966 2.78627 5.00941 2.79636 4.96252 2.81599C4.91563 2.83561 4.87302 2.8644 4.83713 2.90069C4.80125 2.93698 4.77279 2.98007 4.75338 3.02749C4.73398 3.07491 4.724 3.12573 4.72403 3.17706C4.7238 3.59851 4.55819 4.00265 4.26358 4.30072C3.96896 4.5988 3.56942 4.76645 3.15268 4.76687C3.10194 4.76684 3.05168 4.77692 3.00479 4.79655C2.9579 4.81618 2.91529 4.84496 2.87941 4.88125C2.84352 4.91754 2.81506 4.96063 2.79566 5.00805C2.77625 5.05547 2.76628 5.1063 2.7663 5.15762V10.5507C2.76628 10.602 2.77625 10.6528 2.79566 10.7003C2.81506 10.7477 2.84352 10.7908 2.87941 10.8271C2.91529 10.8634 2.9579 10.8921 3.00479 10.9118C3.05168 10.9314 3.10194 10.9415 3.15268 10.9414C3.56929 10.9419 3.96869 11.1095 4.26328 11.4074C4.55786 11.7053 4.72356 12.1093 4.72403 12.5306ZM3.53906 5.516C4.02032 5.43385 4.46433 5.20219 4.80947 4.85319C5.1546 4.50419 5.38371 4.05517 5.465 3.56848H20.268C20.3492 4.05517 20.5784 4.50419 20.9235 4.85319C21.2686 5.20219 21.7126 5.43385 22.1939 5.516V10.1923C21.7126 10.2745 21.2686 10.5061 20.9235 10.8551C20.5784 11.2041 20.3492 11.6531 20.268 12.1398H5.465C5.38371 11.6531 5.1546 11.2041 4.80947 10.8551C4.46433 10.5061 4.02032 10.2745 3.53906 10.1923V5.516Z" stroke="inherit" stroke-width="0.4"/>
<path fill-rule="evenodd" clip-rule="evenodd" d="M27 5.57963H26.9978V3.68169C26.9978 3.63037 26.9878 3.57954 26.9684 3.53212C26.949 3.4847 26.9206 3.44161 26.8847 3.40532C26.8488 3.36903 26.8062 3.34025 26.7593 3.32062C26.7124 3.30099 26.6622 3.2909 26.6114 3.29093H24.7347V1.39075C24.7347 1.33943 24.7248 1.28861 24.7054 1.24118C24.686 1.19376 24.6575 1.15067 24.6216 1.11438C24.5857 1.07809 24.5431 1.04931 24.4962 1.02969C24.4493 1.01006 24.3991 0.999971 24.3483 1H1.38638C1.33563 0.999971 1.28537 1.01006 1.23848 1.02969C1.19159 1.04931 1.14899 1.07809 1.1131 1.11438C1.07722 1.15067 1.04876 1.19376 1.02935 1.24118C1.00995 1.28861 0.999971 1.33943 1 1.39075V14.3169C1 14.4205 1.04071 14.5199 1.11317 14.5932C1.18563 14.6665 1.28391 14.7076 1.38638 14.7076H3.26308V16.6056C3.26296 16.657 3.27287 16.7079 3.29224 16.7554C3.31161 16.8029 3.34005 16.846 3.37595 16.8824C3.41184 16.9188 3.45447 16.9476 3.50141 16.9673C3.54834 16.9869 3.59865 16.997 3.64946 16.997H5.52615V17H6.30068V16.997H26.6114C26.6622 16.997 26.7124 16.987 26.7593 16.9673C26.8062 16.9477 26.8488 16.9189 26.8847 16.8826C26.9206 16.8463 26.949 16.8033 26.9684 16.7558C26.9878 16.7084 26.9978 16.6576 26.9978 16.6063V6.36114H27V5.57963ZM1.77276 1.78218H23.9602V13.9261H1.77276V1.78218ZM4.03672 14.7076H24.3466C24.449 14.7076 24.5473 14.6665 24.6198 14.5932C24.6922 14.5199 24.7329 14.4205 24.7329 14.3169V4.07177H26.2242V16.2155H4.03672V14.7076Z" stroke="inherit" stroke-width="0.4"/>
</svg>
