<svg id="neteller-dark" viewBox="0 0 53 32">
	<title>neteller-dark</title>
	<path fill="#8dc640" style="fill: var(--color14, #8dc640)" d="M2.133 0h49.067c1.178 0 2.133 0.955 2.133 2.133v27.733c0 1.178-0.955 2.133-2.133 2.133h-49.067c-1.178 0-2.133-0.955-2.133-2.133v-27.733c0-1.178 0.955-2.133 2.133-2.133z"></path>
	<path fill="#fff" style="fill: var(--color8, #fff)" d="M45.149 15.54c-0.242 0.166-0.592 0.248-1.072 0.248h-0.476l0.365-1.94h0.35c0.398 0 0.689 0.063 0.89 0.191 0.157 0.1 0.342 0.299 0.342 0.676 0 0.455-0.216 0.699-0.399 0.824v0zM16.767 17.975h-3.682l0.238-1.268h2.309l0.262-1.428h-2.287l0.221-1.255h3.676l-0.737 3.951zM47.132 12.936c-0.541-0.365-1.361-0.549-2.435-0.549h-2.813l-1.046 5.588h-3.685l0.236-1.268h2.22l0.264-1.424-2.219 0.004 0.238-1.262h2.286l0.304-1.638h-4.644l-0.993 5.302h-1.703l1-5.302h-2.428l-0.993 5.302h-1.66l1.001-5.302h-2.425l-1.048 5.588h-3.711l0.234-1.268h2.23l0.263-1.416-2.227-0.002 0.236-1.265h2.312l0.303-1.638h-14.468l-0.824 4.429-1.641-4.429h-2.518l-1.355 7.227h2.405l0.82-4.55 1.592 4.55h8.619l1.048-5.589h1.349l-1.048 5.589h22.679l0.657-3.529 1.065 3.529h2.406l-1.102-2.883 0.252-0.054c0.554-0.117 0.989-0.369 1.29-0.746 0.302-0.381 0.455-0.87 0.455-1.457 0-0.684-0.254-1.187-0.777-1.538v0z"></path>
</svg>
