<svg width="42" height="44" viewBox="0 0 42 44" fill="black" xmlns="http://www.w3.org/2000/svg">
<path fill-rule="evenodd" clip-rule="evenodd" d="M34 0C38.4183 0 42 3.58172 42 8C42 10.1563 41.1469 12.1134 39.7597 13.5521C41.1928 16.392 42 19.6017 42 23C42 34.598 32.598 44 21 44C9.40202 44 0 34.598 0 23C0 11.402 9.40202 2 21 2C23.3375 2 25.5859 2.38192 27.686 3.08678C29.15 1.2082 31.4339 0 34 0ZM34 14.18C37.4131 14.18 40.18 11.4131 40.18 8C40.18 4.58688 37.4131 1.82 34 1.82C30.5869 1.82 27.82 4.58688 27.82 8C27.82 11.4131 30.5869 14.18 34 14.18ZM26 8C26 12.4183 29.5817 16 34 16C35.5888 16 37.0695 15.5368 38.3143 14.7381C39.5103 17.2401 40.18 20.0419 40.18 23C40.18 33.5928 31.5928 42.18 21 42.18C10.4072 42.18 1.82 33.5928 1.82 23C1.82 12.4072 10.4072 3.82 21 3.82C22.9909 3.82 24.9109 4.12333 26.7164 4.6863C26.2563 5.69596 26 6.81805 26 8Z" fill="inherit"/>
<path fill-rule="evenodd" clip-rule="evenodd" d="M20.0885 32.8735C20.0885 33.3769 20.4965 33.7849 20.9999 33.7849C21.5033 33.7849 21.9113 33.3769 21.9113 32.8735V22.8249C23.4989 22.4185 24.6761 20.9758 24.6761 19.2633C24.6761 17.5508 23.4991 16.1081 21.9116 15.7017V11.9114C21.9116 11.408 21.5036 11 21.0002 11C20.4968 11 20.0888 11.408 20.0888 11.9114V15.7017C18.5012 16.1081 17.3242 17.5508 17.3242 19.2633C17.3242 20.9756 18.5011 22.4183 20.0885 22.8248V32.8735ZM19.147 19.2633C19.147 20.285 19.9782 21.1165 21.0002 21.1165C22.0219 21.1165 22.8534 20.2853 22.8534 19.2633C22.8534 18.2413 22.0219 17.4102 21.0002 17.4102C19.9782 17.4102 19.147 18.2413 19.147 19.2633Z" fill="inherit"/>
<path fill-rule="evenodd" clip-rule="evenodd" d="M28.4125 32.8735C28.4125 33.3769 28.8205 33.7849 29.3239 33.7849C29.8275 33.7849 30.2353 33.3769 30.2353 32.8735V29.0832C31.8228 28.6767 32.9998 27.234 32.9998 25.5216C32.9998 23.8092 31.8227 22.3666 30.2353 21.9601V14.5001L28.4125 13.0001V21.9601C26.8251 22.3665 25.6479 23.8092 25.6479 25.5216C25.6479 27.234 26.8251 28.6767 28.4125 29.0832V32.8735ZM27.4704 25.5216C27.4704 26.5436 28.3016 27.3751 29.3239 27.3751C30.3455 27.3751 31.177 26.5439 31.177 25.5216C31.177 24.5 30.3458 23.6684 29.3239 23.6684C28.3019 23.6684 27.4704 24.4996 27.4704 25.5216Z" fill="inherit"/>
<path fill-rule="evenodd" clip-rule="evenodd" d="M11.7645 32.8734C11.7645 33.3768 12.1726 33.7848 12.6759 33.7848C13.1793 33.7848 13.5873 33.3768 13.5873 32.8734V29.0831C15.1749 28.6766 16.3519 27.2339 16.3519 25.5215C16.3519 23.8091 15.1749 22.3664 13.5874 21.96V11.9114C13.5874 11.408 13.1794 11 12.676 11C12.1726 11 11.7646 11.408 11.7646 11.9114V21.9599C10.1771 22.3663 9 23.809 9 25.5215C9 27.2339 10.177 28.6766 11.7645 29.0831V32.8734ZM10.8228 25.5215C10.8228 26.5435 11.654 27.375 12.6759 27.375C13.6979 27.375 14.5291 26.5438 14.5291 25.5215C14.5291 24.4999 13.6979 23.6683 12.6759 23.6683C11.654 23.6683 10.8228 24.4995 10.8228 25.5215Z" fill="inherit"/>
<path d="M31.02 4.93246C30.7829 5.16955 30.7829 5.55387 31.02 5.79096L33.1106 7.88161L30.9493 10.0429C30.7122 10.28 30.7122 10.6643 30.9493 10.9014C31.1864 11.1385 31.5707 11.1385 31.8078 10.9014L33.9691 8.74012L36.1137 10.8847C36.3508 11.1218 36.7351 11.1218 36.9722 10.8847C37.2093 10.6476 37.2093 10.2633 36.9722 10.0262L34.8276 7.88161L36.9016 5.80766C37.1387 5.57057 37.1387 5.18625 36.9016 4.94915C36.6645 4.71206 36.2802 4.71206 36.0431 4.94915L33.9691 7.02311L31.8785 4.93246C31.6414 4.69537 31.2571 4.69537 31.02 4.93246Z" fill="inherit"/>
</svg>
