<svg width="42" height="44" viewBox="0 0 42 44" fill="black" xmlns="http://www.w3.org/2000/svg">
<path d="M21 42.18C31.5928 42.18 40.18 33.5928 40.18 23C40.18 19.6397 39.3159 16.4813 37.7977 13.7347L39.3504 12.7813C41.0382 15.8057 42 19.2905 42 23C42 34.598 32.598 44 21 44C9.40202 44 0 34.598 0 23C0 11.402 9.40202 2 21 2C23.6424 2 26.1708 2.48804 28.5 3.37889L27.5 4.94944C25.4702 4.2184 23.2816 3.82 21 3.82C10.4072 3.82 1.82 12.4072 1.82 23C1.82 33.5928 10.4072 42.18 21 42.18Z" fill="inherit"/>
<path d="M21.0002 15.5873C18.9732 15.5873 17.3242 17.2363 17.3242 19.2632C17.3242 21.2902 18.9732 22.9392 21.0002 22.9392C23.0271 22.9392 24.6761 21.2902 24.6761 19.2632C24.6761 17.2363 23.0271 15.5873 21.0002 15.5873ZM21.0002 21.1165C19.9782 21.1165 19.147 20.2849 19.147 19.2633C19.147 18.2413 19.9782 17.4101 21.0002 17.4101C22.0219 17.4101 22.8534 18.2413 22.8534 19.2633C22.8534 20.2852 22.0219 21.1165 21.0002 21.1165Z" fill="inherit"/>
<path d="M20.9998 21.1469C20.4964 21.1469 20.0884 21.5549 20.0884 22.0583V32.8735C20.0884 33.3769 20.4964 33.7849 20.9998 33.7849C21.5032 33.7849 21.9112 33.3769 21.9112 32.8735V22.0583C21.9112 21.5549 21.5032 21.1469 20.9998 21.1469Z" fill="inherit"/>
<path d="M20.9998 11C20.4964 11 20.0884 11.408 20.0884 11.9114V16.4987C20.0884 17.0021 20.4964 17.4101 20.9998 17.4101C21.5032 17.4101 21.9112 17.0021 21.9112 16.4987V11.9114C21.9112 11.408 21.5032 11 20.9998 11Z" fill="inherit"/>
<path d="M29.3239 21.8456C27.2972 21.8456 25.6479 23.4946 25.6479 25.5215C25.6479 27.5484 27.2972 29.1974 29.3239 29.1974C31.3508 29.1974 32.9998 27.5484 32.9998 25.5215C32.9998 23.4946 31.3505 21.8456 29.3239 21.8456ZM29.3239 27.375C28.3016 27.375 27.4704 26.5435 27.4704 25.5215C27.4704 24.4995 28.3019 23.6683 29.3239 23.6683C30.3458 23.6683 31.177 24.4999 31.177 25.5215C31.177 26.5438 30.3455 27.375 29.3239 27.375Z" fill="inherit"/>
<path d="M29.324 27.3748C28.8206 27.3748 28.4126 27.7828 28.4126 28.2862V32.8735C28.4126 33.3769 28.8206 33.7849 29.324 33.7849C29.8276 33.7849 30.2354 33.3769 30.2354 32.8735V28.2862C30.2354 27.7828 29.8274 27.3748 29.324 27.3748Z" fill="inherit"/>
<path d="M28.4126 22.7266V13L30.2354 14.5V22.7266C30.2354 23.23 29.8276 23.638 29.324 23.638C28.8206 23.638 28.4126 23.23 28.4126 22.7266Z" fill="inherit"/>
<path d="M12.6759 21.8456C10.649 21.8456 9 23.4946 9 25.5215C9 27.5484 10.649 29.1974 12.6759 29.1974C14.7029 29.1974 16.3519 27.5484 16.3519 25.5215C16.3519 23.4946 14.7029 21.8456 12.6759 21.8456ZM12.6759 27.375C11.654 27.375 10.8228 26.5435 10.8228 25.5215C10.8228 24.4995 11.654 23.6683 12.6759 23.6683C13.6979 23.6683 14.5291 24.4999 14.5291 25.5215C14.5291 26.5438 13.6979 27.375 12.6759 27.375Z" fill="inherit"/>
<path d="M12.676 27.3748C12.1726 27.3748 11.7646 27.7828 11.7646 28.2862V32.8735C11.7646 33.3769 12.1726 33.7849 12.676 33.7849C13.1794 33.7849 13.5874 33.3769 13.5874 32.8735V28.2862C13.5874 27.7828 13.1794 27.3748 12.676 27.3748Z" fill="inherit"/>
<path d="M12.676 11C12.1726 11 11.7646 11.408 11.7646 11.9114V22.7266C11.7646 23.23 12.1726 23.638 12.676 23.638C13.1794 23.638 13.5874 23.23 13.5874 22.7266V11.9114C13.5874 11.408 13.1794 11 12.676 11Z" fill="inherit"/>
<path d="M30.5352 4.43303C30.2577 4.71059 30.2577 5.16051 30.5352 5.43806L36.4984 11.4012C36.776 11.6788 37.2259 11.6788 37.5034 11.4012C37.781 11.1237 37.781 10.6738 37.5034 10.3962L31.5403 4.43303C31.2627 4.15547 30.8128 4.15547 30.5352 4.43303Z" fill="inherit"/>
<path d="M30.4525 11.4208C30.7301 11.6983 31.18 11.6983 31.4575 11.4208L37.4207 5.45761C37.6983 5.18005 37.6983 4.73013 37.4207 4.45258C37.1432 4.17502 36.6932 4.17502 36.4157 4.45258L30.4525 10.4157C30.175 10.6933 30.175 11.1432 30.4525 11.4208Z" fill="inherit"/>
<path fill-rule="evenodd" clip-rule="evenodd" d="M34 14.18C37.4131 14.18 40.18 11.4131 40.18 8C40.18 4.58688 37.4131 1.82 34 1.82C30.5869 1.82 27.82 4.58688 27.82 8C27.82 11.4131 30.5869 14.18 34 14.18ZM34 16C38.4183 16 42 12.4183 42 8C42 3.58172 38.4183 0 34 0C29.5817 0 26 3.58172 26 8C26 12.4183 29.5817 16 34 16Z" fill="inherit"/>
</svg>
