<svg version="1.1" xmlns="http://www.w3.org/2000/svg" viewBox="0 0 82 82">
  <g fill="none" fill-rule="evenodd">
    <circle cx="39" cy="43" r="39" fill="#5090FC" opacity=".1" />
    <g transform="translate(56)">
      <circle cx="13.053" cy="12.947" r="12.947" fill="#6BB817" />
      <path fill="#FFF"
        d="M19.235 10.173l-7.522 6.826c-.187.17-.44.264-.703.264-.264 0-.518-.095-.704-.264L6.871 13.88a.844.844 0 0 1 0-1.277 1.067 1.067 0 0 1 1.407 0l2.732 2.48 6.818-6.188a1.067 1.067 0 0 1 1.407 0 .844.844 0 0 1 0 1.277z" />
    </g>
    <path fill="#5090FC" fill-rule="nonzero"
      d="M39.5 41.258c-3.621 0-6.557-2.968-6.557-6.629 0-3.661 2.936-6.629 6.557-6.629 3.621 0 6.557 2.968 6.557 6.63 0 3.66-2.936 6.628-6.557 6.628zM53 54.26c0 6.32-27 6.32-27 0 0-6.319 6.044-11.442 13.5-11.442S53 47.941 53 54.26z" />
    <path fill="#5090FC"
      d="M22.192 42.808h3.116a.692.692 0 1 1 0 1.384h-3.116v3.116a.692.692 0 1 1-1.384 0v-3.116h-3.116a.692.692 0 1 1 0-1.384h3.116v-3.116a.692.692 0 1 1 1.384 0v3.116z" />
  </g>
</svg>