<svg version="1.1" xmlns="http://www.w3.org/2000/svg" viewBox="0 0 28 32" fill="#fff">
  <path
    d="M3.79 21.721c-0 0.007-0 0.015-0 0.024 0 1.393 1.122 2.524 2.511 2.538h0.001c0.002 0 0.004 0 0.006 0 1.391 0 2.52-1.119 2.538-2.506l0-0.002c0.010-1.441-1.099-2.588-2.513-2.599-0.002 0-0.005 0-0.007 0-1.401 0-2.536 1.136-2.536 2.536 0 0.003 0 0.006 0 0.009v-0zM24.008 21.731c0-0.005 0-0.012 0-0.018 0-1.395-1.127-2.528-2.52-2.536h-0.001c-1.393 0.001-2.523 1.124-2.534 2.514v0.001c-0.001 1.447 1.106 2.586 2.52 2.592 1.4-0.002 2.535-1.137 2.535-2.538 0-0.005-0-0.011-0-0.016v0.001zM13.902 19.176c-1.399 0.003-2.532 1.138-2.532 2.538 0 0.003 0 0.006 0 0.009v-0c-0 0.006-0 0.014-0 0.021 0 1.398 1.131 2.533 2.527 2.539h0.001c1.398-0.006 2.529-1.14 2.529-2.539 0-0.002 0-0.004 0-0.006v0c0-0.006 0-0.014 0-0.021 0-1.397-1.129-2.531-2.525-2.539h-0.001zM7.587 11.499h12.627c0.001-0.039 0.006-0.071 0.006-0.103 0-0.813 0.004-1.626-0.003-2.439-0.003-0.31-0.025-0.612-0.065-0.909l0.004 0.038c-0.186-1.432-0.782-2.671-1.803-3.674-1.542-1.517-3.406-2.101-5.522-1.756-1.775 0.292-3.174 1.229-4.185 2.735-0.618 0.891-1.003 1.986-1.046 3.167l-0 0.011c-0.033 0.959-0.015 1.919-0.019 2.877 0 0.014 0.004 0.031 0.007 0.053zM13.948 0c3.551 0.185 5.515 1.727 6.912 3.499 1.23 1.561 1.849 3.35 1.882 5.344 0.014 0.838 0.003 1.675 0.003 2.513v0.153h0.142c0.801 0 1.601-0.011 2.401 0.006 0.264 0.006 0.537 0.049 0.787 0.131 1.055 0.346 1.721 1.319 1.721 2.481v15.21c0 0.113 0 0.227-0.013 0.339-0.135 1.276-1.199 2.263-2.496 2.276h-0.001c-7.59 0-15.179 0.001-22.77-0.006-0.287-0.003-0.561-0.052-0.817-0.139l0.018 0.005c-1.053-0.345-1.718-1.318-1.718-2.483v-15.199c-0.001-0.027-0.002-0.059-0.002-0.090 0-1.398 1.134-2.532 2.532-2.532 0.003 0 0.006 0 0.009 0h2.514v-0.145c0-0.742-0.008-1.482 0.003-2.222 0.007-0.429 0.026-0.857 0.070-1.283 0.122-1.096 0.436-2.094 0.91-2.996l-0.022 0.046c0.818-1.613 2.063-2.909 3.587-3.768l0.044-0.023c1.244-0.684 2.723-1.095 4.297-1.117l0.007-0z"
    fill="inherit"></path>
</svg>