<svg width="40" height="39" viewBox="0 0 40 39" fill="#fff" xmlns="http://www.w3.org/2000/svg">
<path d="M39.9301 36.5313L36.3423 23.9583V5.84757C36.3423 4.77264 35.4259 3.89787 34.2998 3.89787H28.1492C24.7866 -0.394445 18.4108 -1.27663 13.9143 1.92593C13.1299 2.48192 12.4388 3.14912 11.8486 3.89787H5.70573C4.57967 3.89787 3.66329 4.77264 3.66329 5.84757V23.9583L0.0754405 36.5313C-0.22743 37.5618 0.409375 38.6367 1.48884 38.9258C1.66745 38.9703 1.85383 39 2.04022 39H37.9576C39.0836 39.0074 39.9922 38.14 40 37.0651C40 36.8797 39.9767 36.7018 39.9301 36.5313ZM20.0028 1.29579C24.8875 1.29579 28.8559 5.07659 28.8559 9.74698C28.8559 14.4174 24.8953 18.1982 20.0028 18.1982C15.1102 18.1982 11.1496 14.4174 11.1496 9.74698C11.1574 5.084 15.1102 1.30321 20.0028 1.29579ZM5.02233 5.84757C5.02233 5.49173 5.3252 5.1952 5.70573 5.1952H10.9788C8.33837 9.95455 10.2488 15.8556 15.2345 18.3687C20.2202 20.8818 26.4019 19.0655 29.0345 14.3062C30.611 11.452 30.611 8.04192 29.0345 5.1952H34.3076C34.6804 5.1952 34.991 5.48432 34.991 5.84757V23.3949H5.02233V5.84757ZM38.5012 37.4357C38.3692 37.5988 38.1672 37.6952 37.9576 37.6878H2.04022C1.66745 37.6952 1.36458 37.4061 1.35682 37.0577C1.35682 36.9909 1.36458 36.9316 1.38788 36.8649L4.85924 24.6922H35.1385L38.6099 36.8649C38.672 37.0651 38.6332 37.2727 38.5012 37.4357Z" fill="inherit"/>
<path d="M26.1068 32.9878C26.0291 32.6986 25.7573 32.4985 25.4467 32.4985H14.5511C14.2405 32.4985 13.9687 32.6986 13.891 32.9878L13.2076 35.5898C13.1144 35.9383 13.3396 36.2941 13.7046 36.3756C13.759 36.3905 13.8133 36.3979 13.8677 36.3979H26.1223C26.4951 36.3979 26.8057 36.1088 26.8057 35.7455C26.8057 35.6936 26.7979 35.6417 26.7824 35.5898L26.1068 32.9878ZM14.7453 35.0931L15.087 33.7958H24.9186L25.2603 35.0931H14.7453Z" fill="inherit"/>
<path d="M6.38136 25.997H9.1072V27.2943H6.38136V25.997Z" fill="inherit"/>
<path d="M10.4662 25.997H13.1921V27.2943H10.4662V25.997Z" fill="inherit"/>
<path d="M14.5511 25.997H17.2769V27.2943H14.5511V25.997Z" fill="inherit"/>
<path d="M22.7208 25.997H25.4467V27.2943H22.7208V25.997Z" fill="inherit"/>
<path d="M26.8057 25.997H29.5316V27.2943H26.8057V25.997Z" fill="inherit"/>
<path d="M30.8906 25.997H33.6164V27.2943H30.8906V25.997Z" fill="inherit"/>
<path d="M18.636 25.997H21.3618V27.2943H18.636V25.997Z" fill="inherit"/>
<path d="M6.38136 28.5917H9.1072V29.889H6.38136V28.5917Z" fill="inherit"/>
<path d="M10.4662 28.5917H13.1921V29.889H10.4662V28.5917Z" fill="inherit"/>
<path d="M14.5511 28.5917H17.2769V29.889H14.5511V28.5917Z" fill="inherit"/>
<path d="M22.7208 28.5917H25.4467V29.889H22.7208V28.5917Z" fill="inherit"/>
<path d="M26.8057 28.5917H29.5316V29.889H26.8057V28.5917Z" fill="inherit"/>
<path d="M30.8906 28.5917H33.6164V29.889H30.8906V28.5917Z" fill="inherit"/>
<path d="M18.636 28.5917H21.3618V29.889H18.636V28.5917Z" fill="inherit"/>
<path d="M20.0028 11.6967C21.1288 11.6967 22.0452 10.8219 22.0452 9.74698C22.0452 8.67205 21.1288 7.79728 20.0028 7.79728C18.8767 7.79728 17.9603 8.67205 17.9603 9.74698C17.9603 10.8219 18.869 11.6967 20.0028 11.6967ZM20.0028 9.09461C20.3755 9.09461 20.6862 9.38373 20.6862 9.74698C20.6862 10.1028 20.3833 10.3994 20.0028 10.3994C19.63 10.3994 19.3194 10.1102 19.3194 9.74698C19.3194 9.39114 19.6222 9.09461 20.0028 9.09461Z" fill="inherit"/>
<path d="M20.0028 13.6464C22.2549 13.6464 24.0876 11.9043 24.0876 9.74698C24.0876 7.5897 22.2627 5.84757 20.0028 5.84757C17.7507 5.84757 15.9179 7.5897 15.9179 9.74698C15.9179 11.8968 17.7429 13.6464 20.0028 13.6464ZM20.0028 7.1449C21.5094 7.1449 22.7286 8.3088 22.7286 9.74698C22.7286 11.1852 21.5094 12.3491 20.0028 12.3491C18.4962 12.3491 17.2769 11.1852 17.2769 9.74698C17.2769 8.3088 18.4962 7.1449 20.0028 7.1449Z" fill="inherit"/>
</svg>
