    <svg version="1.1" xmlns="http://www.w3.org/2000/svg" xmlns:xlink="http://www.w3.org/1999/xlink" viewBox="0 0 58 22" id="pci">
    <title>PCI</title>
    <g fill="none">
      <g fill="#DDD">
        <path d="M33.239 13.885l-5.314 1.67V7.12c0-.353 0-.353-.363-.353-.913 0-1.837.01-2.75 0-.238 0-.311.073-.311.311.01 2.75.01 5.49 0 8.24 0 .218.062.3.29.3.934-.01 1.868 0 2.823.032-.052.02-.114.052-.166.073-6.558 2.065-13.127 4.13-19.686 6.195-.135.041-.249.093-.321-.104-.748-2.044-1.505-4.088-2.273-6.174.135-.01.239-.021.342-.021.903 0 1.796-.01 2.698.01.26 0 .322-.083.312-.321-.01-.665.01-1.329-.01-1.993-.01-.27.082-.332.342-.332.955.02 1.91-.062 2.823-.394.871-.322 1.587-.82 1.94-1.713.57-1.41-.01-2.864-1.4-3.507a6.077 6.077 0 0 0-2.481-.55c-1.453-.031-2.906-.01-4.359-.031-.28 0-.249.176-.249.342v8.209c-.02 0-.041.01-.051.01A5403.327 5403.327 0 0 1 0 1.557c.57-.032 1.11-.073 1.65-.104 4.732-.26 9.475-.53 14.207-.789L26.805.042c.207-.01.27.093.332.238 1.442 3.217 2.885 6.434 4.338 9.651.54 1.204 1.079 2.408 1.618 3.601.042.104.073.208.146.353zM22.944 9.423c.01-.125.021-.218.021-.301 0-.602-.01-1.204.01-1.796.01-.228-.072-.321-.28-.384-1.006-.342-2.034-.363-3.071-.31-.976.051-1.93.259-2.802.736-1.578.85-2.46 2.138-2.408 3.964.052 1.858.996 3.144 2.698 3.83 1.92.778 3.881.746 5.863.217.167-.041.208-.135.208-.29-.01-.602-.01-1.204-.01-1.796 0-.062-.021-.114-.031-.186-.467.124-.903.27-1.35.363-.799.155-1.587.176-2.366-.135-1.006-.394-1.546-1.287-1.442-2.377.104-1.151.747-1.878 1.847-2.085.976-.177 1.9.01 2.781.415.094.03.197.072.332.135zm5.324-5.407c0-1.162-.83-1.94-2.065-1.94-1.235 0-2.065.778-2.065 1.94 0 1.142.83 1.92 2.054 1.93 1.235.01 2.076-.778 2.076-1.93z"></path>
        <path d="M8.945 11c-.072 0-.145.01-.218.01-.166.021-.249-.041-.249-.228.01-.612 0-1.235 0-1.847 0-.135.021-.239.187-.228.394.041.8.062 1.183.155.446.114.664.457.675.913.02.509-.166.862-.602 1.028-.312.114-.644.166-.965.239-.01-.01-.01-.032-.01-.042z"></path>
      </g>
      <path d="M37.742 3.258h3.03c.603 0 1.08.084 1.443.24.363.165.675.394.913.694.239.301.415.654.52 1.059.103.405.165.83.165 1.276 0 .706-.083 1.256-.238 1.64a2.714 2.714 0 0 1-.665.975c-.28.26-.591.436-.913.53-.446.124-.85.176-1.214.176h-3.03v-6.59h-.01zm2.034 1.495v3.6h.499c.425 0 .726-.051.913-.145.176-.093.321-.259.425-.498.104-.238.156-.612.156-1.141 0-.695-.114-1.173-.343-1.432-.228-.26-.601-.384-1.13-.384h-.52zM44.53 7.68l1.94-.125c.041.311.124.55.26.716.207.27.508.404.902.404.29 0 .519-.072.675-.207.155-.135.238-.29.238-.477a.594.594 0 0 0-.228-.457c-.145-.135-.498-.26-1.048-.384-.893-.197-1.536-.467-1.91-.8a1.616 1.616 0 0 1-.58-1.275c0-.343.093-.665.29-.966.197-.3.488-.54.882-.716.394-.176.934-.259 1.619-.259.84 0 1.484.156 1.93.467.446.311.706.81.789 1.494l-1.92.114c-.052-.3-.156-.508-.322-.643s-.394-.208-.674-.208c-.239 0-.415.052-.54.156a.442.442 0 0 0-.176.363c0 .104.051.198.145.28.093.084.322.167.685.24.892.196 1.525.383 1.92.58.384.198.664.436.84.727.177.29.26.612.26.975 0 .426-.115.81-.353 1.173-.239.353-.56.623-.986.81-.415.186-.955.28-1.588.28-1.12 0-1.899-.218-2.335-.644-.415-.405-.664-.955-.716-1.619zm6.651 0l1.94-.125c.042.311.125.55.26.716.208.27.509.404.903.404.29 0 .519-.072.674-.207.156-.135.24-.29.24-.477a.594.594 0 0 0-.23-.457c-.144-.135-.497-.26-1.047-.384-.893-.197-1.536-.467-1.91-.8a1.616 1.616 0 0 1-.58-1.275c0-.343.093-.665.29-.966.197-.3.487-.54.882-.716.394-.176.934-.259 1.619-.259.84 0 1.484.156 1.93.467.446.311.706.81.789 1.494l-1.92.114c-.052-.3-.156-.508-.322-.643s-.394-.208-.674-.208c-.24 0-.416.052-.54.156a.442.442 0 0 0-.177.363c0 .104.052.198.146.28.093.084.321.167.685.24.892.196 1.525.383 1.92.58.383.198.664.436.84.727.176.29.26.612.26.975 0 .426-.115.81-.353 1.173-.239.353-.56.623-.986.81-.415.186-.955.28-1.588.28-1.12 0-1.899-.218-2.335-.644-.415-.405-.664-.955-.716-1.619zm-12.193 4.783l.54.166a1.01 1.01 0 0 1-.177.384.77.77 0 0 1-.29.229 1.07 1.07 0 0 1-.447.083c-.218 0-.394-.032-.53-.094a.827.827 0 0 1-.352-.332 1.187 1.187 0 0 1-.145-.612c0-.332.083-.592.27-.768.176-.177.425-.27.747-.27.249 0 .446.052.591.156.146.103.25.26.322.467l-.55.124a.555.555 0 0 0-.062-.135.33.33 0 0 0-.125-.114.305.305 0 0 0-.166-.041c-.145 0-.249.052-.322.166-.051.083-.083.218-.083.394 0 .218.032.374.104.457a.341.341 0 0 0 .28.124c.115 0 .208-.031.27-.104a.587.587 0 0 0 .125-.28zm.882-.187c0-.332.093-.58.27-.768.186-.186.435-.27.757-.27.332 0 .592.094.768.27.177.177.27.426.27.758 0 .239-.042.426-.114.581a.932.932 0 0 1-.343.353 1.12 1.12 0 0 1-.56.125c-.228 0-.415-.032-.56-.104a.883.883 0 0 1-.364-.343c-.093-.155-.124-.363-.124-.602zm.622.01c0 .208.042.354.115.437.072.093.176.135.31.135.136 0 .24-.042.312-.135.073-.083.114-.239.114-.467 0-.187-.041-.322-.114-.415a.398.398 0 0 0-.311-.135.36.36 0 0 0-.301.135c-.093.093-.125.238-.125.446zm1.9-1.006h.82l.31 1.225.312-1.225h.81v2.003h-.51v-1.525l-.393 1.525h-.457l-.394-1.525v1.525h-.509zm2.76 0h1.027c.229 0 .395.052.509.156.114.104.166.26.166.456 0 .208-.062.364-.187.478-.125.114-.311.166-.56.166h-.343v.747h-.622l.01-2.003zm.623.851h.155c.125 0 .208-.02.25-.062a.187.187 0 0 0 .072-.156.211.211 0 0 0-.062-.155c-.042-.042-.125-.063-.24-.063h-.175v.436zm1.515-.851h.622v1.515h.965v.498H47.29zm2.002 0h.623v2.003h-.623zm2.408 1.67h-.706l-.093.333h-.633l.757-2.003h.675l.758 2.003h-.654l-.104-.332zm-.125-.435l-.217-.716-.218.716h.435zm1.194-1.235h.581l.758 1.11v-1.11h.58v2.003h-.58l-.748-1.1v1.1h-.58zm2.293 0h1.889v.498h-.633v1.515h-.623v-1.515h-.633zm-29.036 8.831c-.674 0-1.286-.197-1.504-.332-.218-.135-1.256-1.39-3.072-3.736l-.062-.083-.021-.103c-.073-.447.062-.903.384-1.287.342-.405.861-.675 1.276-.675a.77.77 0 0 1 .28.042c.571.176 1.848 1.318 2.553 1.992.55-.799 1.837-2.656 3.186-4.535 3.643-5.074 4.13-5.292 4.348-5.386.965-.425 2.097-.612 2.792-.612.093 0 .176 0 .26.01a.468.468 0 0 1 .414.291c.135.332-.072.55-.82 1.35-1.473 1.587-4.929 5.302-8.125 12.172l-.02.041-.032.042c-.405.54-1.048.81-1.837.81z"
        fill="#DDD"></path>
      <path d="M36.186 5.832c.083 0 .156 0 .228.01.675.052-4.358 3.529-8.872 13.232-.384.487-.976.633-1.516.633-.601 0-1.141-.177-1.286-.27-.27-.166-2.958-3.632-2.958-3.632-.135-.84.768-1.474 1.256-1.474.052 0 .104.01.145.02.612.157 2.75 2.232 2.75 2.232s6.662-9.744 7.627-10.17c.862-.384 1.93-.58 2.626-.58zm0-.83c-.737 0-1.94.197-2.958.654-.321.145-.81.352-4.514 5.52-1.162 1.62-2.272 3.217-2.916 4.141-.145-.135-.3-.27-.456-.415-1.142-1.007-1.599-1.256-1.9-1.339a1.272 1.272 0 0 0-.404-.062c-.54 0-1.173.322-1.598.83-.405.477-.571 1.048-.478 1.619l.031.208.125.166c2.781 3.58 3.04 3.746 3.175 3.829.312.187 1.017.394 1.723.394.924 0 1.67-.322 2.169-.944l.062-.073.042-.093c3.165-6.808 6.59-10.492 8.053-12.07.259-.269.456-.487.601-.663.156-.187.509-.612.301-1.131a.902.902 0 0 0-.768-.56c-.093-.011-.186-.011-.29-.011z"
        fill="#FFF"></path>
    </g>
    </svg>