<svg width="21" height="22" viewBox="0 0 21 22" fill="white" xmlns="http://www.w3.org/2000/svg">
<path fill-rule="evenodd" clip-rule="evenodd" d="M12.4069 13.4499L13.9269 12.4696C14.951 11.809 16.2589 11.9682 17.112 12.8619L19.8389 15.7182C20.8537 16.7812 20.8537 18.515 19.8389 19.578C18.5927 20.8833 16.9387 21.6 15.1805 21.6C13.4223 21.6 11.7683 20.8833 10.5221 19.578L1.93096 10.5791C-0.643656 7.88225 -0.643649 3.49015 1.93096 0.793358C2.94086 -0.264543 4.58043 -0.26434 5.59021 0.793289L8.31713 3.64962C9.17292 4.54596 9.32897 5.92898 8.69256 7.01149L7.76555 8.58825L12.4069 13.4499ZM15.4352 16.6219L18.1912 19.5086L18.3328 19.4047C18.5953 19.2122 18.8448 18.9954 19.0766 18.7525C19.6592 18.1423 19.6591 17.1536 19.0766 16.5434L16.3497 13.6871C15.8554 13.1693 15.0887 13.0736 14.4899 13.4598L12.6086 14.6731C12.3972 14.8094 12.1242 14.7773 11.9459 14.5907L6.69213 9.08755C6.51121 8.89804 6.47655 8.59907 6.61249 8.36792L7.77096 6.39731C8.13385 5.77999 8.04661 4.98993 7.55478 4.47483L4.82786 1.6185C4.5351 1.31184 4.14836 1.15688 3.76054 1.15688C3.37266 1.15688 2.98592 1.31184 2.69315 1.6185C2.45966 1.86307 2.25356 2.12473 2.07158 2.39789L1.98284 2.5311L4.98773 5.6786C5.20433 5.90556 5.20432 6.27713 4.98775 6.50398C4.88085 6.61596 4.74299 6.67023 4.60661 6.67023C4.47026 6.67023 4.33244 6.61598 4.22544 6.50395L1.45041 3.59722L1.35047 3.92401C0.743372 5.90911 1.18758 8.17657 2.69323 9.75367L11.2844 18.7527C12.3232 19.8408 13.7072 20.4422 15.1805 20.4422C15.7642 20.4422 16.3335 20.3464 16.8734 20.1646L17.1714 20.0643L14.6729 17.4473C14.4563 17.2203 14.4563 16.8488 14.6729 16.6219C14.8845 16.4004 15.2236 16.4004 15.4352 16.6219Z" fill="inherit"/>
</svg>
