<svg width="20" height="24" viewBox="0 0 20 24" fill="#629DFF" xmlns="http://www.w3.org/2000/svg">
<path d="M9.76311 11.5609C11.3357 11.5609 12.6973 10.9913 13.8101 9.86737C14.9226 8.74365 15.4868 7.36871 15.4868 5.78027C15.4868 4.19238 14.9228 2.81726 13.8099 1.69318C12.6971 0.569641 11.3355 0 9.76311 0C8.19031 0 6.82892 0.569641 5.71627 1.69336C4.60362 2.81708 4.03941 4.1922 4.03941 5.78027C4.03941 7.36871 4.60362 8.74384 5.71627 9.86755C6.82928 10.9911 8.19086 11.5609 9.76311 11.5609ZM6.7011 2.68781C7.55485 1.82556 8.55636 1.40643 9.76311 1.40643C10.9697 1.40643 11.9714 1.82556 12.8253 2.68781C13.679 3.55023 14.0942 4.56189 14.0942 5.78027C14.0942 6.99902 13.679 8.0105 12.8253 8.87292C11.9714 9.73535 10.9697 10.1545 9.76311 10.1545C8.55672 10.1545 7.55521 9.73517 6.7011 8.87292C5.84717 8.01068 5.43199 6.99902 5.43199 5.78027C5.43199 4.56189 5.84717 3.55023 6.7011 2.68781Z" fill="inherit"/>
<path d="M19.778 18.4548C19.7459 17.9872 19.681 17.4771 19.5855 16.9384C19.489 16.3956 19.3649 15.8826 19.2162 15.4136C19.0624 14.929 18.8538 14.4503 18.5954 13.9916C18.3276 13.5156 18.0129 13.101 17.6597 12.7599C17.2904 12.403 16.8382 12.1161 16.3154 11.9068C15.7943 11.6986 15.2168 11.5931 14.5992 11.5931C14.3566 11.5931 14.122 11.6937 13.6689 11.9916C13.3901 12.1752 13.0639 12.3876 12.6998 12.6226C12.3885 12.8229 11.9668 13.0106 11.4459 13.1805C10.9378 13.3466 10.4218 13.4308 9.91232 13.4308C9.40322 13.4308 8.88724 13.3466 8.37868 13.1805C7.85835 13.0107 7.43646 12.8231 7.12571 12.6227C6.7651 12.39 6.43875 12.1776 6.15574 11.9914C5.70303 11.6935 5.46843 11.593 5.22585 11.593C4.60797 11.593 4.0307 11.6986 3.50982 11.907C2.98731 12.1159 2.53496 12.4028 2.16529 12.7601C1.81211 13.1014 1.49737 13.5157 1.22977 13.9916C0.971778 14.4503 0.762918 14.9288 0.609174 15.4138C0.460688 15.8828 0.336496 16.3956 0.240044 16.9384C0.144316 17.4763 0.0795915 17.9866 0.0475011 18.4554C0.0159546 18.9137 0 19.3907 0 19.8726C0 21.1254 0.394332 22.1396 1.17194 22.8876C1.93993 23.6257 2.95595 24 4.19188 24H15.6342C16.8698 24 17.8858 23.6257 18.654 22.8876C19.4318 22.1402 19.8261 21.1256 19.8261 19.8724C19.8259 19.3889 19.8098 18.9119 19.778 18.4548ZM17.6938 21.8687C17.1863 22.3564 16.5126 22.5936 15.634 22.5936H4.19188C3.31311 22.5936 2.63939 22.3564 2.13211 21.8688C1.63444 21.3904 1.39258 20.7372 1.39258 19.8726C1.39258 19.4229 1.40727 18.9789 1.43664 18.5526C1.46528 18.1344 1.52384 17.675 1.61069 17.1868C1.69644 16.7047 1.80559 16.2523 1.9354 15.8427C2.05995 15.4499 2.22983 15.061 2.4405 14.6863C2.64157 14.3293 2.87291 14.0229 3.12818 13.7761C3.36696 13.5452 3.66792 13.3563 4.02254 13.2145C4.35052 13.0834 4.71911 13.0117 5.11924 13.0009C5.16801 13.027 5.25485 13.077 5.39554 13.1697C5.68182 13.3581 6.01179 13.5731 6.37657 13.8083C6.78776 14.0731 7.31752 14.3123 7.95045 14.5186C8.59752 14.7299 9.25746 14.8372 9.9125 14.8372C10.5675 14.8372 11.2277 14.7299 11.8744 14.5188C12.5078 14.3121 13.0374 14.0731 13.4492 13.808C13.8225 13.567 14.1432 13.3583 14.4295 13.1697C14.5701 13.0772 14.657 13.027 14.7058 13.0009C15.1061 13.0117 15.4747 13.0834 15.8028 13.2145C16.1573 13.3563 16.4582 13.5454 16.697 13.7761C16.9523 14.0228 17.1836 14.3291 17.3847 14.6865C17.5955 15.061 17.7656 15.4501 17.89 15.8425C18.02 16.2526 18.1293 16.7049 18.2149 17.1866C18.3015 17.6757 18.3603 18.1353 18.3889 18.5528V18.5532C18.4185 18.9778 18.4333 19.4216 18.4335 19.8726C18.4333 20.7374 18.1915 21.3904 17.6938 21.8687Z" fill="inherit"/>
</svg>
