    <svg version="1.1" xmlns="http://www.w3.org/2000/svg" xmlns:xlink="http://www.w3.org/1999/xlink" id="restorePass" viewBox="0 0 32 32">
      <title>restorePass</title>
      <path fill="#5090fc" style="fill: var(--color3, #5090fc)" d="M3.096 0c-1.701 0-3.096 1.442-3.096 3.2v17.067c0 1.758 1.395 3.2 3.096 3.2h1.034v1.066c0 1.76 1.395 3.2 3.096 3.2h9.291v-2.133h-9.291c-0.571-0.002-1.032-0.466-1.032-1.037 0-0.011 0-0.021 0-0.032l-0 0.002v-16.042l11.355 8.842 11.355-8.842v10.709h2.064v-11.733c0-1.76-1.395-3.2-3.098-3.2h-1.032v-1.067c0-1.758-1.395-3.2-3.096-3.2h-20.646zM3.096 2.133h20.648c0.581 0 1.032 0.467 1.032 1.067v1.067h-17.55c-1.701 0-3.096 1.44-3.096 3.2v13.866h-1.034c-0.571-0.003-1.032-0.466-1.032-1.037 0-0.010 0-0.020 0-0.030l-0 0.001v-17.067c0-0.6 0.453-1.067 1.032-1.067zM7.226 6.4h20.646c0.082 0.004 0.159 0.022 0.23 0.051l-0.005-0.002-10.547 8.218-10.55-8.219c0.066-0.027 0.144-0.045 0.224-0.048l0.001-0zM26.838 21.333v4.267h-8.258v2.133h8.258v4.267l5.162-5.333-5.162-5.334z"></path>
    </svg>