<svg xmlns="http://www.w3.org/2000/svg" width="235" height="35" fill="none">
    <g clip-path="url(#clip0)">
        <path fill="#DDD" d="M23.6 13.07c.26.04.48.18.66.41.18.23.27.49.27.78 0 .25-.06.47-.2.67-.12.2-.3.36-.55.47a2 2 0 01-.85.17h-1.95V10.7h1.86a2 2 0 01.86.16c.24.12.42.27.54.46.12.19.18.4.18.63 0 .28-.07.52-.22.7a1.3 1.3 0 01-.6.42zm-1.82-.33h1c.25 0 .46-.05.6-.17.15-.12.23-.3.23-.52a.62.62 0 00-.23-.51.9.9 0 00-.6-.2h-1v1.4zm1.08 2.18c.28 0 .49-.07.64-.2a.68.68 0 00.23-.54.71.71 0 00-.24-.57.97.97 0 00-.65-.21h-1.06v1.52h1.08zm2.28-1.3c0-.39.08-.73.23-1.03a1.78 1.78 0 011.59-.95c.3 0 .57.06.8.19.22.11.4.26.54.44v-.56h.8v3.86h-.8V15a1.7 1.7 0 01-1.35.64c-.34 0-.64-.09-.92-.26-.27-.17-.5-.41-.66-.71-.15-.31-.23-.66-.23-1.05zm3.16.02c0-.27-.06-.5-.17-.7a1.13 1.13 0 00-1.58-.45c-.18.1-.32.25-.43.44-.11.2-.16.42-.16.7 0 .26.05.5.16.7.11.2.25.35.43.46a1.15 1.15 0 001.15 0c.18-.1.32-.26.43-.45.11-.2.17-.44.17-.7zm3.8-2c.31 0 .58.07.82.2.24.12.43.3.57.55.13.25.2.55.2.9v2.28h-.8v-2.16c0-.35-.08-.6-.25-.8a.92.92 0 00-.7-.27c-.3 0-.55.1-.72.28-.18.18-.26.44-.26.8v2.15h-.8v-3.86h.8v.44c.13-.16.3-.28.5-.37.2-.1.42-.14.65-.14zm4.14 2l1.78 1.93h-1.08l-1.43-1.66v1.66h-.8v-5.19h.8v3.02l1.4-1.7h1.11l-1.78 1.94zm5.32-.94v.67h-2.88v-.67h2.88zm1.94 2.23h1.65v.64H42.7V10.7h.8v4.23zm5.86-1.39c0 .15-.01.28-.03.4h-2.95a1.07 1.07 0 001.1 1.02c.43 0 .73-.18.9-.54h.87a1.75 1.75 0 01-1.77 1.21c-.37 0-.7-.08-1-.24-.29-.17-.52-.4-.69-.7-.16-.3-.24-.66-.24-1.05 0-.4.08-.75.24-1.05.16-.3.39-.54.68-.7.3-.16.63-.25 1-.25s.7.08.98.24c.29.16.5.39.67.68a2 2 0 01.24.98zm-.84-.25c0-.3-.1-.53-.31-.7-.21-.18-.46-.27-.77-.27-.27 0-.51.09-.7.26-.2.18-.32.41-.36.71h2.14zm3.12 1.57l1.1-3.15h.84l-1.47 3.86h-.96l-1.46-3.86h.85l1.1 3.15zm6.09-1.32c0 .15-.01.28-.03.4h-2.95c.02.3.13.55.34.74.2.19.46.28.76.28.43 0 .73-.18.9-.54h.87a1.75 1.75 0 01-1.77 1.21c-.37 0-.7-.08-1-.24-.29-.17-.52-.4-.69-.7-.16-.3-.24-.66-.24-1.05 0-.4.08-.75.24-1.05.16-.3.39-.54.68-.7.3-.16.63-.25 1-.25s.7.08.98.24c.29.16.5.39.67.68a2 2 0 01.24.98zm-.84-.25c0-.3-.1-.53-.31-.7-.2-.18-.46-.27-.77-.27-.27 0-.51.09-.7.26-.2.18-.32.41-.36.71h2.14zm2.42-2.9v5.18h-.8v-5.19h.8zM8.77 7c-3.67 0-7.49.88-7.49.88C.54 8.06 0 8.75 0 9.57v5.11c0 8.87 7.99 12.57 7.99 12.57a1.51 1.51 0 001.55 0s8-3.7 8-12.57V9.56c0-.82-.54-1.52-1.29-1.68 0 0-3.81-.88-7.48-.88zm0 5.97c1.32 0 2.39 1.14 2.39 2.55 0 1.12-.67 2.05-1.6 2.4v2.72c0 .47-.35.85-.8.85-.43 0-.79-.38-.79-.85v-2.71a2.54 2.54 0 01-1.6-2.4c0-1.42 1.08-2.56 2.4-2.56zM22.6 25.63c-.34 0-.63-.06-.9-.17a1.48 1.48 0 01-.61-.5 1.24 1.24 0 01-.22-.73h.85c.02.21.1.39.25.52.15.14.35.2.62.2.28 0 .5-.06.65-.2.15-.13.23-.3.23-.51 0-.16-.05-.3-.15-.4a.93.93 0 00-.36-.24 5.15 5.15 0 00-.59-.18 6.13 6.13 0 01-.78-.25 1.17 1.17 0 01-.72-1.14c0-.28.08-.53.22-.74.14-.2.34-.37.59-.48.25-.11.54-.17.88-.17.47 0 .85.12 1.15.36.3.23.48.55.5.97h-.88a.64.64 0 00-.25-.46.93.93 0 00-.6-.19.87.87 0 00-.57.18.61.61 0 00-.22.5c0 .15.05.27.14.37.09.1.2.17.35.23l.57.18c.32.09.59.18.79.27.2.09.38.22.52.41.14.18.21.43.21.74 0 .24-.06.48-.2.7-.13.22-.32.4-.58.53-.25.13-.55.2-.9.2zm6.16-2.08c0 .15-.01.28-.03.4h-2.95c.02.3.14.55.34.74.2.18.46.28.76.28.43 0 .73-.18.91-.54h.86a1.75 1.75 0 01-1.77 1.21c-.37 0-.7-.08-1-.24-.29-.17-.52-.4-.68-.7-.17-.3-.25-.66-.25-1.06s.08-.74.24-1.04c.16-.3.39-.54.68-.7.3-.17.63-.25 1.01-.25.36 0 .69.08.97.24.29.16.51.38.67.67a2 2 0 01.24 1zm-.84-.25c0-.3-.1-.53-.31-.7-.2-.19-.46-.28-.77-.28-.27 0-.5.1-.7.27-.2.17-.32.41-.35.7h2.13zm1.36.34c0-.4.08-.74.24-1.04.16-.3.39-.54.67-.7.29-.17.61-.25.98-.25.47 0 .86.11 1.16.34.31.22.52.53.63.94h-.87a.91.91 0 00-.33-.44 1 1 0 00-.59-.17.97.97 0 00-.78.35c-.2.23-.29.56-.29.97 0 .42.1.74.29.98.2.23.46.35.78.35.47 0 .77-.2.92-.61h.87c-.12.4-.33.7-.64.94-.3.23-.69.34-1.15.34-.37 0-.7-.08-.98-.24a1.8 1.8 0 01-.67-.7c-.16-.3-.24-.66-.24-1.06zm7.97-1.93v3.87h-.8v-.46c-.12.16-.29.29-.5.38a1.75 1.75 0 01-1.47-.06 1.4 1.4 0 01-.56-.56c-.14-.24-.2-.54-.2-.9v-2.27h.79v2.16c0 .34.09.61.26.8.17.18.4.27.7.27.3 0 .54-.1.72-.27.17-.19.26-.46.26-.8V21.7h.8zm1.86.56c.11-.2.27-.34.46-.45.2-.11.43-.17.7-.17v.83h-.2c-.32 0-.56.08-.72.24-.16.16-.24.43-.24.82v2.04h-.8V21.7h.8v.56zm2.3-1.07a.5.5 0 01-.37-.15.5.5 0 01-.15-.36.5.5 0 01.15-.37.5.5 0 01.37-.14c.14 0 .26.05.35.14.1.1.15.22.15.37a.5.5 0 01-.15.36c-.1.1-.21.15-.35.15zm.39.51v3.87H41V21.7h.8zm1.98.66v2.14c0 .14.03.25.1.31s.19.1.35.1h.5v.66h-.64c-.36 0-.64-.09-.83-.25-.19-.17-.29-.45-.29-.82v-2.14h-.45v-.66h.45v-.96h.81v.96h.94v.66h-.94zm5.16-.66l-2.37 5.69h-.83l.78-1.88-1.52-3.8h.9l1.08 2.94 1.13-2.95h.83zm3.22-.36v1.43h1.69v.65h-1.69v1.5h1.9v.65h-2.7V20.7h2.7v.65h-1.9zm4.83.3c.3 0 .58.06.81.19.25.13.44.31.57.56.14.25.2.55.2.9v2.28h-.79v-2.16c0-.35-.08-.61-.26-.8a.92.92 0 00-.7-.27c-.3 0-.54.09-.72.28-.17.18-.26.44-.26.79v2.16h-.8V21.7h.8v.45c.13-.16.3-.29.5-.38.2-.08.42-.13.65-.13zm2.34 2c0-.4.08-.75.24-1.05.16-.3.39-.54.67-.7.29-.17.61-.25.98-.25.47 0 .86.11 1.16.34.3.22.52.53.62.94h-.86a.91.91 0 00-.33-.44 1 1 0 00-.59-.17.97.97 0 00-.78.35c-.2.23-.29.56-.29.97 0 .42.1.74.29.98.2.23.46.35.78.35.47 0 .77-.2.92-.61H63c-.1.4-.32.7-.63.94-.3.23-.69.34-1.15.34-.37 0-.7-.08-.98-.24a1.8 1.8 0 01-.67-.7c-.16-.3-.24-.66-.24-1.06zm5.27-1.38c.12-.2.27-.34.46-.45.2-.11.43-.17.7-.17v.83h-.2c-.32 0-.56.08-.72.24-.16.16-.24.43-.24.82v2.04h-.8V21.7h.8v.56zm5.37-.56L67.6 27.4h-.83l.79-1.88-1.52-3.8h.89l1.09 2.94 1.12-2.95h.83zm1.4.57a1.7 1.7 0 011.35-.63c.34 0 .64.08.92.25.28.17.5.4.66.7.16.3.24.64.24 1.03s-.08.74-.24 1.04a1.73 1.73 0 01-1.58.97 1.7 1.7 0 01-1.34-.62v2.4h-.8v-5.7h.8v.56zm2.35 1.35c0-.27-.05-.5-.16-.69-.11-.2-.26-.34-.44-.44a1.15 1.15 0 00-1.59.45c-.1.2-.15.43-.15.7 0 .26.05.5.16.7a1.15 1.15 0 001.59.45c.17-.11.32-.27.43-.47.1-.2.16-.43.16-.7zm2.54-1.26v2.14c0 .14.03.25.1.31s.19.1.35.1h.5v.66h-.64c-.36 0-.64-.09-.83-.25-.19-.17-.28-.45-.28-.82v-2.14H75v-.66h.46v-.96h.8v.96h.94v.66h-.94zm2.09-1.17a.5.5 0 01-.37-.15.5.5 0 01-.15-.36.5.5 0 01.15-.37.5.5 0 01.37-.14c.14 0 .26.05.35.14.1.1.15.22.15.37a.5.5 0 01-.15.36c-.1.1-.21.15-.35.15zm.39.51v3.87h-.8V21.7h.8zm2.72 3.93a2 2 0 01-.98-.24c-.3-.17-.53-.4-.7-.7-.17-.3-.25-.66-.25-1.06 0-.39.09-.74.26-1.04.17-.3.4-.54.7-.7.3-.17.64-.25 1.01-.25s.7.08 1 .25c.3.16.54.4.71.7.17.3.26.65.26 1.04 0 .4-.09.74-.27 1.05-.17.3-.42.54-.73.7-.3.17-.64.25-1 .25zm0-.7a1.17 1.17 0 001.02-.58c.11-.2.17-.44.17-.72 0-.28-.05-.51-.16-.7-.1-.2-.25-.35-.43-.45-.18-.1-.37-.14-.57-.14-.21 0-.4.04-.58.14-.17.1-.31.25-.41.44-.1.2-.16.43-.16.71 0 .42.1.74.32.97.21.23.48.34.8.34zm4.75-3.29c.3 0 .58.06.81.19.25.13.44.31.57.56.14.25.2.55.2.9v2.28H87v-2.16c0-.35-.08-.61-.26-.8a.92.92 0 00-.7-.27c-.3 0-.54.09-.72.28-.17.18-.26.44-.26.79v2.16h-.8V21.7h.8v.45c.13-.16.3-.29.5-.38.2-.08.42-.13.65-.13z"/>
        <path fill="#fff" d="M139 2h29.85v29.85H139V2z"/>
        <path fill="#DDD" d="M150.8 6.18l-2.8 6.7h-1.84l-1.39-5.35c-.09-.33-.15-.45-.4-.59a7.52 7.52 0 00-1.7-.57l.04-.2h2.95c.38 0 .71.26.8.68l.73 3.88 1.8-4.57h1.81v.02zm7.18 4.52c.02-1.77-2.44-1.87-2.43-2.65 0-.25.24-.5.74-.56.24-.03.94-.06 1.7.3l.3-1.42c-.41-.15-.94-.3-1.62-.3-1.72 0-2.92.9-2.92 2.22-.02.96.85 1.5 1.52 1.82.67.33.9.54.9.83 0 .45-.54.65-1.04.66-.87.02-1.37-.24-1.78-.42l-.31 1.46c.4.18 1.16.35 1.93.36 1.82-.01 3.01-.91 3.01-2.3zm4.54 2.18h1.6l-1.4-6.7h-1.48a.79.79 0 00-.74.5l-2.61 6.2h1.82l.37-.99h2.23l.2 1zm-1.95-2.38L161.5 8l.53 2.51h-1.45zm-7.3-4.32l-1.43 6.7h-1.73l1.43-6.7h1.74zM139.66 16.93h28.54v14.26h-28.54V16.93z"/>
        <path fill="#fff" fill-rule="evenodd" d="M145.95 25.2c.2.12.5.21.81.21.4 0 .62-.18.62-.47 0-.25-.16-.4-.6-.55-.56-.2-.92-.5-.92-.98 0-.56.47-.98 1.2-.98.37 0 .64.07.82.16l-.15.5c-.21-.1-.44-.16-.68-.17-.4 0-.56.21-.56.41 0 .26.2.38.65.56.59.22.88.53.88 1 0 .55-.41 1.02-1.29 1.02-.36 0-.73-.1-.92-.21l.14-.5zm3.18-.83h1.28v-.5h-1.26V23h1.35v-.51h-1.97v3.39h2.03v-.51h-1.43v-1zm4.36 1.4c-.15.08-.47.15-.88.15-1.07 0-1.73-.68-1.73-1.7 0-1.12.78-1.78 1.8-1.78.41 0 .7.08.82.15l-.13.5c-.17-.08-.4-.14-.67-.14-.69 0-1.19.44-1.19 1.25 0 .74.44 1.23 1.18 1.23.24 0 .51-.05.68-.12l.12.46zm1.08-1.3v-1.98h-.63v1.93c0 1.07.51 1.5 1.3 1.5.81 0 1.35-.46 1.35-1.5v-1.93h-.62v1.97c0 .66-.25.97-.7.97-.43 0-.7-.3-.7-.97zm2.69-1.94c.24-.04.57-.07.93-.07.48 0 .81.07 1.04.27.18.15.29.39.29.68 0 .43-.3.73-.62.84v.01c.24.1.4.34.47.65l.03.15c.1.37.17.68.24.8H159c-.05-.1-.14-.37-.23-.8-.1-.43-.26-.58-.6-.58h-.32v1.38h-.62v-3.33h.02zm.98 1.5h-.37v-1.08c.06-.01.19-.03.38-.03.4 0 .66.18.66.55 0 .33-.25.55-.67.55zm2.44.34h1.28v-.5h-1.28V23h1.35v-.51h-1.97v3.39h2.05v-.51h-1.43v-1z" clip-rule="evenodd"/>
        <path fill="#fff" d="M150.41 24.37h-1.28v1h1.43v.5h-2.03V22.5h1.97v.5h-1.35v.88h1.26v.5z"/>
        <path fill="#DDD" d="M211.24 19.84l-5.31 1.67v-8.43c0-.35 0-.35-.37-.35h-2.75c-.24 0-.3.07-.3.3v8.25c0 .21.05.3.28.3.94-.01 1.87 0 2.82.03l-.16.07-19.69 6.2c-.13.04-.25.09-.32-.1l-2.27-6.18.34-.02h2.7c.26 0 .32-.08.31-.31-.01-.67.01-1.33-.01-2-.01-.27.08-.33.34-.33a7.7 7.7 0 002.83-.4c.87-.31 1.58-.81 1.94-1.7a2.65 2.65 0 00-1.4-3.51 6.07 6.07 0 00-2.49-.55c-1.45-.03-2.9-.01-4.35-.03-.28 0-.25.17-.25.34v8.2l-.06.02L178 7.5l1.65-.1 14.2-.79L204.82 6c.2 0 .26.1.33.24 1.44 3.22 2.88 6.43 4.34 9.65l1.61 3.6.15.35zm-10.3-4.46l.03-.3v-1.8c.02-.22-.07-.32-.28-.38a8.1 8.1 0 00-3.07-.3c-.97.04-1.93.25-2.8.73-1.58.85-2.46 2.13-2.4 3.96a4 4 0 002.7 3.83c1.91.78 3.87.75 5.85.22.17-.04.21-.14.21-.3v-1.79c0-.06-.03-.11-.04-.18-.46.12-.9.27-1.35.36a4.1 4.1 0 01-2.36-.14c-1.01-.39-1.55-1.28-1.45-2.37.1-1.15.75-1.88 1.85-2.09.98-.18 1.9.01 2.78.42l.33.13zm5.33-5.4c0-1.17-.83-1.95-2.07-1.95-1.23 0-2.06.78-2.06 1.94 0 1.15.83 1.92 2.05 1.93 1.24.01 2.08-.77 2.08-1.93z"/>
        <path fill="#DDD" d="M186.95 16.96h-.22c-.17.03-.25-.03-.25-.22v-1.85c0-.13.02-.24.19-.23.39.05.8.07 1.18.16.44.11.66.46.67.91.02.51-.16.86-.6 1.03-.31.11-.64.17-.96.24l-.01-.04zM215.74 9.22h3.03c.6 0 1.08.08 1.44.24.37.16.68.4.92.7.24.3.41.65.52 1.05.1.4.16.83.16 1.28 0 .7-.08 1.25-.24 1.64-.14.37-.37.7-.66.97-.28.26-.6.44-.91.53-.45.13-.85.18-1.22.18h-3.03V9.2zm2.04 1.5v3.6h.5c.42 0 .72-.06.9-.15.18-.1.33-.26.43-.5.1-.24.16-.61.16-1.14 0-.7-.12-1.17-.34-1.43-.23-.26-.6-.39-1.13-.39h-.52zm4.75 2.92l1.94-.13c.04.32.12.55.26.72.2.27.5.4.9.4.3 0 .52-.07.68-.2a.61.61 0 00.23-.48.6.6 0 00-.22-.46c-.15-.13-.5-.26-1.05-.38-.9-.2-1.54-.47-1.91-.8a1.61 1.61 0 01-.58-1.28c0-.34.1-.66.29-.96.2-.3.49-.54.88-.72.4-.17.94-.26 1.62-.26.84 0 1.48.16 1.93.47.45.31.7.81.79 1.5l-1.92.1c-.05-.3-.16-.5-.32-.63-.17-.14-.4-.21-.68-.21-.24 0-.41.05-.54.15a.45.45 0 00-.17.37c0 .1.05.2.14.28.1.08.32.16.69.24a9 9 0 011.92.58c.38.2.66.43.84.72a2.08 2.08 0 01-.1 2.15c-.23.35-.56.62-.98.81-.42.19-.96.28-1.59.28-1.12 0-1.9-.22-2.34-.64-.41-.4-.66-.96-.71-1.62zm6.65 0l1.94-.13c.04.32.13.55.26.72.2.27.51.4.9.4a1 1 0 00.68-.2.61.61 0 00.24-.48.6.6 0 00-.23-.46c-.15-.13-.5-.26-1.05-.38-.9-.2-1.53-.47-1.9-.8a1.61 1.61 0 01-.59-1.28c0-.34.1-.66.3-.96.19-.3.48-.54.87-.72.4-.17.94-.26 1.62-.26.84 0 1.49.16 1.93.47.45.31.7.81.8 1.5l-1.93.1c-.05-.3-.16-.5-.32-.63-.17-.14-.4-.21-.67-.21-.25 0-.42.05-.54.15-.06.05-.1.1-.14.16a.44.44 0 00-.04.2c0 .11.05.2.14.29.1.08.33.16.69.24a9 9 0 011.92.58c.38.2.66.43.84.72a2.08 2.08 0 01-.1 2.15c-.23.35-.55.62-.98.81-.41.19-.95.28-1.59.28-1.12 0-1.9-.22-2.33-.64-.42-.4-.67-.96-.72-1.62zm-12.2 4.78l.55.17c-.03.14-.1.27-.18.38a.77.77 0 01-.29.23c-.14.06-.3.09-.45.08-.21 0-.39-.03-.53-.09a.83.83 0 01-.35-.33c-.1-.19-.15-.4-.14-.61 0-.34.08-.6.27-.77a1 1 0 01.74-.27 1 1 0 01.6.15c.14.1.25.26.32.47l-.55.13a.56.56 0 00-.06-.14.33.33 0 00-.13-.11.3.3 0 00-.17-.04c-.14 0-.25.05-.32.16a.78.78 0 00-.08.4c0 .21.03.37.1.45a.35.35 0 00.28.13c.12 0 .21-.03.27-.1.07-.09.11-.18.13-.29zm.89-.18c0-.34.1-.58.27-.77.19-.19.44-.27.76-.27.33 0 .59.1.76.27.18.17.28.42.28.76 0 .23-.05.42-.12.58a.93.93 0 01-.34.35c-.17.09-.37.13-.56.12-.23 0-.42-.03-.56-.1a.88.88 0 01-.37-.34c-.09-.16-.12-.37-.12-.6zm.62 0c0 .21.04.36.12.44.07.1.17.14.3.14.14 0 .25-.04.32-.14.07-.08.11-.24.11-.46a.66.66 0 00-.11-.42.4.4 0 00-.31-.13.36.36 0 00-.3.13c-.1.1-.13.24-.13.45zm1.9-1h.82l.31 1.22.31-1.22h.81v2h-.5v-1.52l-.4 1.52h-.46l-.39-1.52v1.52h-.5v-2zm2.76 0h1.03c.23 0 .4.05.5.16.12.1.17.26.17.45a.6.6 0 01-.18.48c-.13.11-.31.17-.56.17h-.35v.74h-.62l.01-2zm.63.85h.15c.13 0 .2-.02.25-.06a.19.19 0 00.07-.16.2.2 0 00-.01-.08.22.22 0 00-.05-.07c-.04-.04-.13-.07-.24-.07h-.17v.44zm1.51-.85h.62v1.51h.97v.5h-1.59v-2.01zm2 0h.63v2h-.63v-2zm2.41 1.67h-.7l-.1.33h-.63l.75-2h.68l.76 2h-.66l-.1-.33zm-.13-.44l-.21-.71-.22.71h.44zm1.2-1.23h.58l.76 1.11v-1.11h.58v2h-.58l-.75-1.1v1.1h-.58l-.01-2zm2.3 0h1.88v.5h-.63v1.51h-.63v-1.51h-.63v-.5zm-29.04 8.83c-.68 0-1.29-.2-1.5-.33-.23-.14-1.26-1.4-3.08-3.74l-.06-.08-.02-.1c-.08-.45.06-.9.38-1.29.34-.4.86-.68 1.28-.68.1 0 .19.02.28.05.57.17 1.84 1.31 2.55 1.99.55-.8 1.84-2.66 3.19-4.54 3.64-5.07 4.13-5.29 4.34-5.38a7.62 7.62 0 013.06-.6.47.47 0 01.41.29c.13.33-.07.55-.82 1.35-1.47 1.58-4.93 5.3-8.13 12.17l-.01.04-.04.04c-.4.54-1.05.81-1.83.81z"/>
        <path fill="#fff" d="M214.19 11.8h.22c.68.05-4.35 3.53-8.87 13.23-.38.49-.97.64-1.51.64-.6 0-1.14-.18-1.29-.27-.27-.17-2.96-3.64-2.96-3.64-.13-.84.77-1.47 1.26-1.47l.14.02c.62.16 2.75 2.23 2.75 2.23s6.67-9.74 7.63-10.17a7.14 7.14 0 012.63-.58zm0-.84c-.74 0-1.94.2-2.96.65-.32.15-.81.36-4.51 5.52-1.17 1.62-2.28 3.22-2.92 4.15l-.46-.42c-1.14-1-1.6-1.26-1.9-1.34a1.28 1.28 0 00-.4-.06c-.54 0-1.17.32-1.6.83-.4.48-.57 1.05-.48 1.62l.03.2.13.17c2.78 3.58 3.04 3.75 3.17 3.83.32.19 1.02.4 1.73.4.92 0 1.67-.33 2.17-.95l.06-.07.04-.1c3.17-6.8 6.59-10.49 8.05-12.06.26-.27.46-.5.6-.67.16-.18.51-.6.3-1.13a.9.9 0 00-.76-.56h-.3z"/>
        <path fill="#DDD" d="M129.69 34.76h-.07v.17h-.03v-.17h-.06v-.04h.16v.04zm.25.17h-.03v-.17l-.06.15h-.04l-.06-.15v.17h-.03v-.2h.05l.06.14.06-.15h.05v.2zm-30.77 0h-.45v-5.11h.45v5.1zm3.4-5.11c.39-.01.78.05 1.15.17a2.23 2.23 0 011.43 1.32 3 3 0 010 2.12 2.22 2.22 0 01-1.43 1.32c-.38.12-.76.18-1.16.18h-1.86v-5.11h1.86zm-1.42.42v4.26h1.41c.34.01.67-.04 1-.15a2 2 0 00.71-.43c.2-.19.35-.41.44-.67.2-.57.2-1.18 0-1.75a1.8 1.8 0 00-1.16-1.1c-.31-.11-.65-.16-.98-.16h-1.42zm9.63-.48c.43 0 .85.1 1.23.28a2.04 2.04 0 01.85.77l-.37.25a1.94 1.94 0 00-1.18-.81 2.27 2.27 0 00-1.37.1 2.02 2.02 0 00-1.13 1.13c-.23.57-.23 1.2 0 1.78a2.03 2.03 0 001.14 1.13 2.27 2.27 0 002.24-.34c.12-.1.22-.23.31-.37l.37.27c-.11.16-.24.3-.38.43-.3.26-.66.44-1.05.53-.56.13-1.14.08-1.67-.12a2.48 2.48 0 01-1.38-1.36 2.9 2.9 0 010-2.12 2.49 2.49 0 012.4-1.55zm3.59 2.33a1.33 1.33 0 01.86-.6c.32-.07.64-.05.94.05a1.2 1.2 0 01.75.71c.07.19.11.39.1.59v2.1h-.41v-1.98c0-.15-.02-.31-.08-.46a.92.92 0 00-.56-.58 1.32 1.32 0 00-.92 0 1.08 1.08 0 00-.6.6c-.07.15-.1.3-.1.47v1.95h-.41v-5.26h.41l.02 2.41zm5.38-.64a1.57 1.57 0 011.15.49c.15.16.26.35.34.55.08.23.13.47.13.7v.18h-2.88c0 .18.05.37.13.53a1.24 1.24 0 00.7.65c.16.05.33.08.5.08.22 0 .44-.04.64-.13.2-.1.37-.21.52-.36l.22.3a1.8 1.8 0 01-1.4.56c-.24 0-.48-.04-.7-.13a1.62 1.62 0 01-.9-.92 1.96 1.96 0 01-.13-.72 1.93 1.93 0 01.48-1.28 1.72 1.72 0 011.22-.51h-.02zm0 .36a1.21 1.21 0 00-1.13.72c-.07.15-.11.31-.13.48h2.46a1.47 1.47 0 00-.12-.49 1.21 1.21 0 00-.64-.62 1.15 1.15 0 00-.44-.09zm4.16-.36c.25 0 .49.04.71.13.22.1.4.23.56.4l-.27.3a1.36 1.36 0 00-1-.43 1.29 1.29 0 00-.95.4c-.12.12-.22.27-.29.43-.13.36-.13.75 0 1.11a1.31 1.31 0 001.22.83c.2 0 .39-.04.57-.12.17-.07.32-.18.45-.3l.26.28c-.15.18-.34.31-.56.4a1.83 1.83 0 01-1.42 0 1.66 1.66 0 01-.91-.93 1.98 1.98 0 010-1.4c.16-.43.5-.77.92-.94.22-.1.47-.17.72-.17zm2.67 1.5h.56l1.46-1.46h.53l-1.64 1.62 1.67 1.81h-.53l-1.46-1.6h-.56v1.6h-.44v-5.25h.41v3.28zm-23.54-5.76v-1.75a1.05 1.05 0 00-.3-.8 1.04 1.04 0 00-.8-.31 1.08 1.08 0 00-.98.5 1.03 1.03 0 00-.92-.5.92.92 0 00-.82.41v-.34h-.6v2.79h.6v-1.55a.65.65 0 01.7-.74c.4 0 .6.26.6.73v1.56h.61v-1.55a.67.67 0 01.17-.53.65.65 0 01.52-.21c.41 0 .61.26.61.73v1.56h.61zm9.08-2.8h-1v-.85h-.6v.85h-.58v.54h.57v1.28c0 .65.25 1.03.97 1.03.27 0 .53-.07.76-.21l-.17-.52c-.16.1-.35.16-.54.18-.29 0-.4-.19-.4-.47v-1.29h.99v-.54zm5.18-.07a.82.82 0 00-.74.4v-.33h-.6v2.8h.61V25.6c0-.46.2-.71.58-.71a1 1 0 01.38.07l.2-.59a1.3 1.3 0 00-.44-.07h.01zm-7.83.29c-.35-.2-.75-.3-1.14-.3-.71 0-1.17.35-1.17.9 0 .46.34.74.96.83l.3.04c.33.04.48.13.48.29 0 .21-.22.34-.63.34-.34 0-.66-.1-.93-.3l-.3.48c.36.25.78.37 1.22.36.8 0 1.27-.38 1.27-.91s-.37-.75-.98-.84l-.29-.04c-.26-.03-.47-.09-.47-.27 0-.19.2-.33.53-.33.3 0 .61.09.88.24l.27-.49zm16.27-.3a.82.82 0 00-.74.42v-.34h-.6v2.8h.61V25.6c0-.46.2-.71.58-.71a1 1 0 01.38.07l.2-.59a1.3 1.3 0 00-.44-.07h.01zm-7.83 1.47a1.43 1.43 0 00.42 1.06 1.42 1.42 0 001.07.4c.36.02.72-.1 1-.33l-.29-.5c-.2.17-.46.25-.73.26a.9.9 0 010-1.8c.27.01.52.1.73.26l.3-.49a1.46 1.46 0 00-1-.33 1.41 1.41 0 00-1.5 1.46zm5.7 0v-1.4h-.62v.34a1.06 1.06 0 00-.87-.4 1.46 1.46 0 000 2.91c.34.02.66-.14.87-.4v.33h.61v-1.38zm-2.27 0a.85.85 0 011.04-.77.84.84 0 11-1.04.77zm-7.33-1.46a1.46 1.46 0 00.04 2.92c.42.01.82-.13 1.14-.4l-.29-.44c-.23.18-.51.29-.81.29a.77.77 0 01-.84-.68h2.08v-.24c0-.87-.54-1.46-1.33-1.46zm0 .54a.69.69 0 01.7.68h-1.45a.72.72 0 01.74-.68zm15.24.92v-2.51h-.6v1.46a1.06 1.06 0 00-.89-.41 1.46 1.46 0 100 2.92c.34.01.67-.14.88-.41v.34h.6v-1.39zm-2.26 0a.85.85 0 011.03-.77.84.84 0 01.64.67.84.84 0 01-.83 1 .84.84 0 01-.84-.9zm-20.52 0v-1.4h-.6v.35a1.06 1.06 0 00-.88-.41 1.46 1.46 0 100 2.92c.34.01.66-.14.87-.41v.34h.61v-1.39zm-2.26 0a.85.85 0 011.04-.77.84.84 0 01.63.67.84.84 0 01-.82 1 .84.84 0 01-.85-.9zm26.05 1a.3.3 0 01.2.07c.03.04.06.07.07.12a.27.27 0 01-.16.33.27.27 0 01-.11.03.3.3 0 01-.26-.17.28.28 0 01.26-.39zm0 .49a.2.2 0 00.15-.07.21.21 0 000-.29.22.22 0 00-.3 0 .22.22 0 00-.06.15c0 .05.02.1.05.14l.07.05.09.02zm.02-.35c.02 0 .05 0 .07.02l.02.03v.06l-.01.03a.1.1 0 01-.06.02l.08.1h-.06l-.08-.1h-.03v.1h-.06v-.26h.13zm-.07.05v.07h.1a.03.03 0 000-.03.03.03 0 000-.02h-.03l-.07-.02z"/>
        <path fill="#CFCFCF" d="M109.27 3.1h9.2v16.54h-9.2V3.11z"/>
        <path fill="#BBBABA" d="M109.86 11.37a10.5 10.5 0 014.01-8.27 10.52 10.52 0 100 16.54 10.5 10.5 0 01-4.02-8.27z"/>
        <path fill="#DDD" d="M129.88 17.9v-.35h.14v-.07h-.35v.07h.14v.34h.07zm.68 0v-.42h-.1l-.13.3-.12-.3h-.11v.41h.08v-.3l.1.26h.09l.11-.26v.3h.08zm.33-6.53a10.52 10.52 0 01-17.02 8.27 10.52 10.52 0 000-16.54 10.52 10.52 0 0117.02 8.27z"/>
    </g>
    <defs>
        <clipPath id="clip0">
            <path fill="#fff" d="M0 0h235v35H0z"/>
        </clipPath>
    </defs>
</svg>