    <svg width="23" height="16" viewBox="0 0 32 32" fill="#fff" xmlns="http://www.w3.org/2000/svg">
      <path d="M26.112 20.336c-1.868 0-3.516 0.882-4.594 2.233l-9.986-5.063c0.132-0.484 0.226-0.983 0.226-1.509 0-0.572-0.112-1.111-0.267-1.636l9.94-5.040c1.080 1.425 2.774 2.336 4.681 2.336 0 0 0 0 0 0v0c3.253 0 5.883-2.608 5.883-5.829 0-3.218-2.631-5.828-5.883-5.828-3.244 0-5.877 2.61-5.877 5.828 0 0.528 0.094 1.029 0.226 1.513l-9.982 5.063c-1.082-1.366-2.74-2.235-4.6-2.238h-0.001c-3.246 0-5.877 2.613-5.877 5.831 0 3.22 2.629 5.831 5.877 5.831 1.909-0.002 3.604-0.915 4.676-2.327l0.011-0.015 9.938 5.040c-0.156 0.523-0.268 1.067-0.268 1.639 0 3.221 2.631 5.831 5.877 5.831 3.252 0 5.881-2.61 5.881-5.831 0.002-3.221-2.628-5.831-5.879-5.831z" fill="inherit"/>
    </svg>
