    <svg version="1.1" xmlns="http://www.w3.org/2000/svg" xmlns:xlink="http://www.w3.org/1999/xlink" id="shareSuccessfull" viewBox="0 0 32 32">
      <title>share-successfull</title>
      <path fill="#5090fc" style="fill: var(--color3, #5090fc)" opacity="0.1" d="M30.439 16.78c0 8.405-6.814 15.22-15.22 15.22s-15.22-6.814-15.22-15.22c0-8.405 6.814-15.22 15.22-15.22s15.22 6.814 15.22 15.22z"></path>
      <path fill="#507bfc" style="fill: var(--color4, #507bfc)" d="M18.95 18.826c-0.797 0-1.5 0.377-1.96 0.953l-4.262-2.161c0.055-0.206 0.096-0.419 0.096-0.644 0-0.244-0.048-0.475-0.114-0.698l4.243-2.151c0.461 0.608 1.184 0.997 1.998 0.997 0 0 0 0 0 0v0c1.388 0 2.51-1.113 2.51-2.488 0-1.374-1.123-2.487-2.51-2.487-1.385 0-2.509 1.114-2.509 2.487 0 0.225 0.040 0.439 0.097 0.646l-4.261 2.161c-0.46-0.578-1.165-0.955-1.963-0.955-1.387 0-2.509 1.115-2.509 2.489s1.122 2.488 2.509 2.488c0.82 0 1.541-0.395 2-0.999l4.242 2.151c-0.066 0.223-0.115 0.455-0.115 0.7 0 1.374 1.124 2.488 2.509 2.488 1.388 0 2.511-1.114 2.511-2.488 0-1.376-1.122-2.489-2.51-2.489z"></path>
      <path fill="#6bb817" style="fill: var(--color5, #6bb817)" d="M32 5.053c0 2.79-2.262 5.053-5.053 5.053s-5.053-2.262-5.053-5.053c0-2.79 2.262-5.053 5.053-5.053s5.053 2.262 5.053 5.053z"></path>
      <path fill="#fff" style="fill: var(--color6, #fff)" d="M29.36 3.97l-2.935 2.664c-0.073 0.066-0.172 0.103-0.274 0.103s-0.202-0.037-0.275-0.103l-1.34-1.217c-0.070-0.061-0.114-0.15-0.114-0.249s0.044-0.188 0.114-0.249l0-0c0.073-0.064 0.169-0.103 0.275-0.103s0.202 0.039 0.275 0.104l-0-0 1.066 0.968 2.661-2.415c0.073-0.064 0.169-0.103 0.275-0.103s0.202 0.039 0.275 0.104l-0-0c0.070 0.061 0.114 0.15 0.114 0.249s-0.044 0.188-0.114 0.249l-0 0z"></path>
    </svg>