    <svg version="1.1" xmlns="http://www.w3.org/2000/svg" xmlns:xlink="http://www.w3.org/1999/xlink" id="shareFailure" viewBox="0 0 32 32">
      <title>share-failure</title>
      <path fill="#5090fc" style="fill: var(--color3, #5090fc)" opacity="0.1" d="M30.439 16.78c0 8.405-6.814 15.22-15.22 15.22s-15.22-6.814-15.22-15.22c0-8.405 6.814-15.22 15.22-15.22s15.22 6.814 15.22 15.22z"></path>
      <path fill="#507bfc" style="fill: var(--color4, #507bfc)" d="M18.95 18.826c-0.797 0-1.5 0.377-1.96 0.953l-4.262-2.161c0.055-0.206 0.096-0.419 0.096-0.644 0-0.244-0.048-0.475-0.114-0.698l4.243-2.151c0.461 0.608 1.184 0.997 1.998 0.997 0 0 0 0 0 0v0c1.388 0 2.51-1.113 2.51-2.488 0-1.374-1.123-2.487-2.51-2.487-1.385 0-2.509 1.114-2.509 2.487 0 0.225 0.040 0.439 0.097 0.646l-4.261 2.161c-0.46-0.578-1.165-0.955-1.963-0.955-1.387 0-2.509 1.115-2.509 2.489s1.122 2.488 2.509 2.488c0.82 0 1.541-0.395 2-0.999l4.242 2.151c-0.066 0.223-0.115 0.455-0.115 0.7 0 1.374 1.124 2.488 2.509 2.488 1.388 0 2.511-1.114 2.511-2.488 0-1.376-1.122-2.489-2.51-2.489z"></path>
      <path fill="#d33f45" style="fill: var(--color5, #d33f45)" d="M32 5.053c0 2.79-2.262 5.053-5.053 5.053s-5.053-2.262-5.053-5.053c0-2.79 2.262-5.053 5.053-5.053s5.053 2.262 5.053 5.053z"></path>
      <path fill="#fff" style="fill: var(--color6, #fff)" d="M26.988 4.624l1.413-1.413c0.065-0.063 0.154-0.102 0.251-0.102 0.199 0 0.361 0.162 0.361 0.361 0 0.098-0.039 0.186-0.102 0.251l-1.413 1.413 1.413 1.413c0.068 0.066 0.11 0.157 0.11 0.259 0 0.199-0.162 0.361-0.361 0.361-0.102 0-0.193-0.042-0.259-0.109l-1.414-1.414-1.413 1.413c-0.066 0.068-0.157 0.11-0.259 0.11-0.199 0-0.361-0.162-0.361-0.361 0-0.102 0.042-0.193 0.11-0.259l1.414-1.414-1.413-1.413c-0.063-0.065-0.102-0.154-0.102-0.251 0-0.199 0.162-0.361 0.361-0.361 0.098 0 0.186 0.039 0.251 0.102l1.413 1.413z"></path>
    </svg>