<svg version="1.1" xmlns="http://www.w3.org/2000/svg" viewBox="0 0 29 32" fill="#fff">
    <path
        d="M12.492 17.503c-0.048-0.042-0.070-0.060-0.090-0.080l-1.178-1.193c-0.803-0.81-1.6-1.629-2.416-2.426-0.407-0.397-0.911-0.474-1.43-0.244-0.506 0.227-0.771 0.641-0.788 1.203-0.012 0.397 0.157 0.72 0.433 0.998 1.492 1.5 2.982 3.002 4.474 4.503 0.041 0.042 0.081 0.084 0.127 0.121 0.223 0.196 0.517 0.316 0.839 0.316 0.066 0 0.131-0.005 0.194-0.015l-0.007 0.001c0.335-0.047 0.598-0.218 0.832-0.452 3.276-3.302 6.554-6.604 9.833-9.903 0.047-0.048 0.093-0.096 0.137-0.147 0.317-0.381 0.413-0.812 0.26-1.286-0.134-0.453-0.505-0.795-0.967-0.883l-0.008-0.001c-0.499-0.109-0.916 0.054-1.274 0.416-2.961 2.986-5.926 5.969-8.889 8.956-0.032 0.032-0.054 0.076-0.081 0.116zM13.391 0h2.284c0.049 0.006 0.099 0.017 0.148 0.019 0.509 0.023 1.020 0.031 1.527 0.070 0.938 0.070 1.876 0.144 2.812 0.243 0.96 0.102 1.92 0.214 2.871 0.364 1.279 0.202 2.551 0.436 3.825 0.672 1.334 0.247 2.202 1.315 2.202 2.681v7.949c0 1.521-0.161 3.024-0.5 4.506-0.537 2.301-1.408 4.33-2.572 6.153l0.047-0.079c-1.532 2.447-3.488 4.499-5.764 6.25-1.329 1.041-2.829 1.981-4.424 2.757l-0.149 0.065c-0.538 0.253-1.097 0.339-1.684 0.224-0.349-0.068-0.66-0.231-0.975-0.385-1.656-0.83-3.081-1.741-4.4-2.781l0.054 0.041c-1.762-1.361-3.29-2.9-4.596-4.616l-0.044-0.060c-1.241-1.627-2.264-3.509-2.972-5.538l-0.043-0.142c-0.658-1.893-1.037-4.075-1.037-6.346 0-0.035 0-0.071 0-0.106l-0 0.005v-7.847c0-0.064 0-0.127 0.003-0.189 0.044-1.209 0.841-2.211 2.010-2.497 0.529-0.129 1.069-0.228 1.607-0.32 0.918-0.16 1.837-0.31 2.758-0.447 0.681-0.102 1.366-0.185 2.051-0.263 0.611-0.071 1.222-0.134 1.833-0.183 0.721-0.058 1.443-0.1 2.166-0.145 0.32-0.022 0.641-0.035 0.963-0.052z"
        fill="inherit"></path>
</svg>