<svg id="skrill-dark" viewBox="0 0 53 32">
	<path fill="#862165" style="fill: var(--color15, #862165)" d="M2.133 0h49.067c1.178 0 2.133 0.955 2.133 2.133v27.733c0 1.178-0.955 2.133-2.133 2.133h-49.067c-1.178 0-2.133-0.955-2.133-2.133v-27.733c0-1.178 0.955-2.133 2.133-2.133z"></path>
	<path fill="#fff" style="fill: var(--color8, #fff)" d="M33.498 13.224c0.71 0 1.284-0.575 1.284-1.284s-0.575-1.284-1.284-1.284c-0.708 0-1.283 0.575-1.283 1.284s0.575 1.284 1.283 1.284v0zM23.661 13.917c-0.058 0.146-0.475 1.324-1.484 2.545v-5.221l-2.688 0.531v9.465h2.688v-2.926c0.779 1.167 1.163 2.926 1.163 2.926h3.22c-0.319-1.324-1.712-3.765-1.712-3.765 1.25-1.585 1.799-3.274 1.887-3.554h-3.074zM30.728 13.818c-2.407 0.077-3.63 1.158-3.63 3.305v4.114h2.627v-3.355c0-1.285 0.168-1.837 1.694-1.889v-2.137c-0.257-0.055-0.691-0.038-0.691-0.038v0zM14.981 14.959c-0.329-0.021-1.092-0.071-1.092-0.757 0-0.828 1.097-0.828 1.509-0.828 0.724 0 1.661 0.214 2.33 0.414 0 0 0.373 0.132 0.691 0.266l0.030 0.008v-2.268l-0.041-0.012c-0.79-0.276-1.709-0.542-3.412-0.542-2.936 0-3.977 1.711-3.977 3.176 0 0.845 0.362 2.833 3.725 3.062 0.285 0.017 1.041 0.061 1.041 0.77 0 0.586-0.619 0.931-1.661 0.931-1.142 0-2.249-0.291-2.922-0.567v2.336c1.007 0.264 2.142 0.396 3.473 0.396 2.871 0 4.157-1.618 4.157-3.222 0-1.819-1.439-3.001-3.853-3.162v0zM32.196 21.236h2.605v-7.311h-2.605v7.311zM39.707 11.706v9.53h2.606v-9.996l-2.606 0.466zM35.905 11.706l2.603-0.466v9.996h-2.603v-9.53z"></path>
</svg>
