<svg version="1.1" xmlns="http://www.w3.org/2000/svg" xmlns:xlink="http://www.w3.org/1999/xlink" id="skype-header" viewBox="0 0 32 32">
<title>skype-header</title>
<path fill="#41b4e6" style="fill: var(--color6, #41b4e6)" d="M32 16c0 8.837-7.163 16-16 16s-16-7.163-16-16c0-8.837 7.163-16 16-16s16 7.163 16 16z"></path>
<path fill="#fff" style="fill: var(--color4, #fff)" d="M25.853 17.631c-0.31-0.439-0.495-0.984-0.495-1.573 0-0.017 0-0.033 0-0.049l-0 0.002v-0.011c0-0 0-0.001 0-0.001 0-5.155-4.179-9.333-9.333-9.333-1.152 0-2.255 0.209-3.274 0.59l0.064-0.021c-0.541 0.197-1.133 0.236-1.689 0.080-0.371-0.109-0.798-0.171-1.239-0.171-0.112 0-0.223 0.004-0.332 0.012l0.015-0.001c-2.289 0.175-4.097 2.010-4.23 4.294l-0.001 0.012c-0.004 0.073-0.007 0.159-0.007 0.246 0 1 0.324 1.925 0.872 2.675l-0.009-0.013c0.339 0.469 0.496 1.041 0.496 1.62v0.011c0 0 0 0 0 0.001 0 5.155 4.179 9.333 9.333 9.333 1.151 0 2.254-0.209 3.272-0.59l-0.064 0.021c0.541-0.197 1.133-0.236 1.689-0.080 0.491 0.139 1.013 0.196 1.556 0.16 2.289-0.175 4.098-2.009 4.231-4.294l0.001-0.012c0.004-0.073 0.007-0.159 0.007-0.246 0-1-0.324-1.925-0.872-2.675l0.009 0.013zM16.367 14.327c1.881 0.448 4.725 1.124 4.725 4.256 0 1.544-0.76 2.72-2.14 3.315-0.984 0.424-2.099 0.481-3.059 0.481-2.952 0-4.816-2.293-4.893-2.392-0.18-0.234-0.288-0.53-0.288-0.852 0-0.775 0.629-1.404 1.404-1.404 0.433 0 0.82 0.196 1.077 0.503l0.002 0.002c0.004 0.005 1.12 1.285 2.699 1.336 1.901 0.060 2.335-0.507 2.392-0.989 0.068-0.589-0.456-1.023-2.568-1.524-1.791-0.427-4.496-1.069-4.496-3.955 0-0.899 0.365-3.829 5.067-3.829 2.969 0 4.723 2.337 4.796 2.437 0.172 0.23 0.276 0.521 0.276 0.836 0 0.775-0.629 1.404-1.404 1.404-0.461 0-0.869-0.222-1.125-0.564l-0.003-0.004c-0.033-0.043-1.036-1.16-2.539-1.301-1.137-0.108-2.26 0.301-2.26 0.907 0 0.643 0.323 0.859 2.337 1.337z"></path>
</svg>