    <svg version="1.1" xmlns="http://www.w3.org/2000/svg" xmlns:xlink="http://www.w3.org/1999/xlink" id="smsSuccessfull" viewBox="0 0 32 32">
      <title>SmsSuccessfull</title>
      <path fill="#5090fc" style="fill: var(--color1, #5090fc)" opacity="0.1" d="M30.4 16.8c0 8.4-6.8 15.2-15.2 15.2s-15.2-6.8-15.2-15.2c0-8.4 6.8-15.2 15.2-15.2s15.2 6.8 15.2 15.2z"></path>
      <path fill="#5090fc" style="fill: var(--color1, #5090fc)" d="M18.9 20.7h-9.7c0 0 0 0 0 0-0.3 0-0.5-0.1-0.7-0.3v0l3.3-3.4c0.1 0.1 0.2 0.1 0.2 0.2 0.2 0.2 0.4 0.3 0.6 0.4s0.4 0.2 0.6 0.3c0.3 0.1 0.5 0.2 0.7 0.2v0c0.2 0 0.5-0.1 0.7-0.2s0.5-0.2 0.6-0.3c0.2-0.1 0.4-0.2 0.6-0.4l0.2-0.2 3.3 3.4c0.1 0.2-0.2 0.3-0.4 0.3 0 0 0 0 0 0v0 0zM8.9 14.9c1.5 1 2.2 1.5 2.9 2l-0.7-0.5-2.9 3v-5.1c0.2 0.3 0.4 0.4 0.7 0.6v0zM19.2 14.9c0.2-0.2 0.5-0.4 0.6-0.6v0 5.1l-2.9-3c0.2-0.1 0.9-0.7 1.6-1.2l0.7-0.3zM14.8 17c-0.1 0.1-0.3 0.1-0.4 0.2s-0.2 0.1-0.3 0.1v0c-0.1 0-0.2 0-0.3-0.1s-0.3-0.1-0.4-0.2v0c-0.1-0.1-0.2-0.2-0.3-0.2s-0.2-0.1-0.4-0.3l-0.2-0.1-0.1-0.1-0.7-0.5c-0.3-0.2-0.6-0.5-1.1-0.7-1.3-0.9-1.3-0.9-1.3-0.9-0.3-0.2-0.5-0.4-0.7-0.8s-0.4-0.6-0.4-0.9c0-0.3 0.1-0.6 0.3-0.9s0.4-0.3 0.8-0.3h9.6c0.3 0 0.5 0.1 0.7 0.3s0.3 0.5 0.3 0.8c0 0.4-0.1 0.7-0.3 1s-0.5 0.6-0.8 0.8v0z"></path>
      <path fill="#edf3fe" style="fill: var(--color2, #edf3fe)" d="M10.5 12.9h10.9c0.6 0 1.2 0.5 1.2 1.2v8.6c0 0.6-0.5 1.2-1.2 1.2h-10.9c-0.6 0-1.2-0.5-1.2-1.2v-8.7c0.1-0.6 0.6-1.1 1.2-1.1z"></path>
      <path fill="#6bb817" style="fill: var(--color3, #6bb817)" d="M32 5.1c0 2.8-2.3 5.1-5.1 5.1s-5.1-2.3-5.1-5.1c0-2.8 2.3-5.1 5.1-5.1s5.1 2.3 5.1 5.1z"></path>
      <path fill="#5090fc" style="fill: var(--color1, #5090fc)" d="M20.8 23h-9.6c0 0 0 0 0 0-0.3 0-0.5-0.1-0.7-0.3v0l3.3-3.4c0.1 0.1 0.2 0.1 0.2 0.2 0.2 0.2 0.4 0.3 0.6 0.4s0.4 0.2 0.6 0.3c0.3 0.1 0.5 0.2 0.7 0.2v0c0.2 0 0.5-0.1 0.7-0.2s0.5-0.2 0.6-0.3c0.2-0.1 0.4-0.2 0.6-0.4l0.2-0.2 3.3 3.4c0 0.2-0.2 0.3-0.5 0.3 0 0 0 0 0 0v0 0zM10.8 17.3c1.5 1 2.3 1.6 2.3 1.6l-2.9 3v-5.1c0.1 0.1 0.4 0.3 0.6 0.5 0-0.1 0 0 0 0zM21.2 17.3c0.2-0.2 0.5-0.4 0.6-0.6v0 5.1l-2.9-3c0.2-0.1 0.9-0.7 1.6-1.2l0.7-0.3zM20.8 13.7c0.3 0 0.5 0.1 0.7 0.3s0.3 0.5 0.3 0.8c0 0.4-0.1 0.7-0.3 1s-0.5 0.6-0.8 0.8v0c0 0-3.9 2.8-4 2.8-0.1 0.1-0.3 0.1-0.4 0.2s-0.2 0.1-0.3 0.1v0c-0.1 0-0.2 0-0.3-0.1s-0.3-0.1-0.4-0.2v0c-0.1-0.1-0.2-0.2-0.3-0.2s-0.2-0.1-0.4-0.3l-0.2-0.1-0.1-0.1-0.7-0.5c-0.3-0.2-0.6-0.5-1.1-0.7-1.3-0.9-2.2-1.5-2.2-1.5l0.8 0.6c-0.3-0.2-0.5-0.4-0.8-0.8-0.2-0.3-0.4-0.6-0.4-0.9s0.1-0.6 0.3-0.9 0.4-0.3 0.8-0.3h9.8z"></path>
      <path fill="#fff" style="fill: var(--color4, #fff)" d="M29.4 4l-2.9 2.7c-0.1 0.1-0.2 0.1-0.3 0.1s-0.2 0-0.3-0.1l-1.3-1.2c-0.1-0.1-0.1-0.2-0.1-0.2s0-0.2 0.1-0.2v0c0.1-0.1 0.2-0.1 0.3-0.1s0.2 0 0.3 0.1v0l1.1 1 2.7-2.4c0.1-0.1 0.2-0.1 0.3-0.1s0.2 0 0.3 0.1v0c0.1 0.1 0.1 0.2 0.1 0.2s-0.3 0-0.3 0.1v0 0z"></path>
    </svg>