<svg version="1.1" xmlns="http://www.w3.org/2000/svg" xmlns:xlink="http://www.w3.org/1999/xlink" id="statement" viewBox="0 0 35 32" width="23" height="16" fill="#fff">
    <title>statement</title>
    <path fill="inherit" d="M15.381 31.984h-6.544c-0.696 0-1.253-0.39-1.448-1.008-0.042-0.129-0.066-0.278-0.066-0.432 0-0.79 0.632-1.432 1.418-1.448l0.001-0h13.162c0.566-0.002 1.024 0.205 1.326 0.683 0.146 0.213 0.234 0.477 0.234 0.761 0 0.263-0.075 0.509-0.205 0.717l0.003-0.006c-0.278 0.49-0.725 0.731-1.293 0.733-1.219 0.003-2.437 0-3.656 0h-2.933zM15.389 11.762h6.56c0.722 0 1.296 0.434 1.459 1.096 0.026 0.103 0.042 0.222 0.042 0.344 0 0.788-0.629 1.429-1.413 1.448l-0.002 0-0.139 0.002h-13.022c-0.582 0-1.045-0.218-1.35-0.715-0.555-0.902 0.074-2.094 1.139-2.168 0.074-0.005 0.149-0.006 0.224-0.006h6.502zM15.4 0.202h6.52c0.694 0 1.25 0.374 1.456 0.976 0.315 0.922-0.346 1.869-1.338 1.914-0.041 0.002-0.088 0.003-0.137 0.003-0.001 0-0.002 0-0.003 0h-13.024c-0.587 0-1.054-0.224-1.358-0.726-0.541-0.899 0.074-2.069 1.13-2.155 0.079-0.007 0.171-0.011 0.264-0.011h6.49zM13.923 20.427c-1.677 0-3.354-0.003-5.030 0.003-0.558 0-1.018-0.186-1.328-0.653-0.159-0.219-0.254-0.493-0.254-0.79 0-0.246 0.066-0.477 0.18-0.676l-0.003 0.007c0.264-0.502 0.707-0.765 1.28-0.778 0.667-0.013 1.334-0.003 2-0.003h8.272c0.72 0 1.306 0.464 1.458 1.152 0.019 0.087 0.030 0.188 0.030 0.291 0 0.763-0.593 1.388-1.344 1.438l-0.004 0c-0.125 0.008-0.251 0.008-0.376 0.008h-4.88zM13.92 23.318c1.677 0 3.354 0.005 5.032-0.002 0.501-0.002 0.933 0.146 1.248 0.539 0.209 0.238 0.337 0.552 0.337 0.896 0 0.228-0.056 0.443-0.155 0.631l0.004-0.007c-0.253 0.536-0.707 0.806-1.302 0.83-0.328 0.013-0.658 0.002-0.987 0.002h-9.283c-0.010 0-0.022 0-0.035 0-0.691 0-1.271-0.481-1.421-1.127l-0.002-0.010c-0.021-0.092-0.033-0.198-0.033-0.307 0-0.762 0.592-1.386 1.341-1.437l0.004-0c0.144-0.010 0.288-0.008 0.432-0.008h4.821zM12.448 8.869c-1.21 0-2.419 0.002-3.627-0.002-0.723-0.002-1.296-0.438-1.456-1.099-0.026-0.103-0.041-0.221-0.041-0.342 0-0.798 0.647-1.445 1.445-1.445 0.001 0 0.002 0 0.003 0h-0c0.824-0.006 1.648 0 2.474 0h4.835c0.779 0 1.354 0.466 1.502 1.216 0.157 0.795-0.491 1.626-1.314 1.661-0.504 0.022-1.010 0.010-1.515 0.010h-2.306zM2.221 31.981c-0.282 0-0.565 0.013-0.848-0.003-0.745-0.038-1.339-0.636-1.369-1.38l-0-0.003c-0.001-0.017-0.001-0.038-0.001-0.059 0-0.725 0.542-1.324 1.244-1.413l0.007-0.001c0.333-0.040 0.675-0.026 1.011-0.027 0.301 0 0.605-0.016 0.902 0.022 0.715 0.082 1.266 0.684 1.266 1.415 0 0.026-0.001 0.051-0.002 0.076l0-0.004c-0.037 0.768-0.668 1.376-1.442 1.376-0.001 0-0.002 0-0.003 0h0c-0.256 0.006-0.51 0.002-0.765 0.002v-0.003zM2.214 26.184c-0.328 0-0.661 0.032-0.984-0.006-0.684-0.096-1.207-0.667-1.227-1.364l-0-0.002c-0-0.012-0.001-0.026-0.001-0.040 0-0.776 0.61-1.409 1.376-1.446l0.003-0c0.57 0 1.139-0.016 1.709 0.006 0.733 0.029 1.306 0.64 1.339 1.392 0.032 0.701-0.502 1.366-1.205 1.453-0.333 0.040-0.674 0.006-1.011 0.006v0.002zM2.208 14.627c-0.323 0-0.651 0.032-0.97-0.006-0.701-0.097-1.235-0.692-1.235-1.411 0-0.021 0-0.043 0.001-0.064l-0 0.003c0.027-0.723 0.608-1.344 1.328-1.374 0.582-0.026 1.168-0.024 1.75 0 0.669 0.035 1.213 0.528 1.327 1.169l0.001 0.009c0.015 0.078 0.024 0.167 0.024 0.258 0 0.581-0.35 1.080-0.851 1.297l-0.009 0.004c-0.19 0.073-0.409 0.121-0.638 0.136l-0.007 0c-0.238 0.022-0.48 0.005-0.722 0.005v-0.024zM2.224 0.184c0.355 0.019 0.718 0 1.064 0.064 0.698 0.128 1.173 0.757 1.144 1.448-0.032 0.712-0.547 1.309-1.256 1.366-0.611 0.048-1.23 0.022-1.845 0.019-0.128-0.007-0.247-0.034-0.358-0.078l0.008 0.003c-0.634-0.214-1.053-0.867-0.971-1.499 0.094-0.717 0.624-1.245 1.326-1.293 0.294-0.019 0.592-0.003 0.888-0.003v-0.027zM2.214 8.883c-0.347-0.016-0.699 0.005-1.038-0.053-0.672-0.121-1.174-0.701-1.174-1.398 0-0.034 0.001-0.068 0.004-0.101l-0 0.005c0.051-0.739 0.649-1.322 1.389-1.35l0.003-0c0.546-0.016 1.093-0.016 1.638-0.002 0.002 0 0.004 0 0.006 0 0.795 0 1.44 0.645 1.44 1.44 0 0.793-0.641 1.436-1.433 1.44h-0c-0.277 0.011-0.555 0-0.832 0l-0.002 0.019zM2.218 20.445c-0.355-0.018-0.717 0-1.064-0.061-0.66-0.13-1.151-0.704-1.151-1.392 0-0.038 0.001-0.075 0.004-0.112l-0 0.005c0.059-0.742 0.665-1.324 1.412-1.344l0.002-0c0.531-0.010 1.064-0.011 1.597 0 0.776 0.014 1.405 0.654 1.416 1.426 0 0.005 0 0.011 0 0.016 0 0.77-0.604 1.399-1.365 1.438l-0.003 0c-0.282 0.014-0.565 0.002-0.848 0.002v0.022zM29.283 13.251c-0.033 0.779-0.673 1.398-1.458 1.398-0.025 0-0.049-0.001-0.073-0.002l0.003 0c-0.795-0.043-1.432-0.722-1.394-1.488 0.032-0.778 0.671-1.396 1.453-1.396 0.037 0 0.074 0.001 0.11 0.004l-0.005-0c0.776 0.040 1.405 0.723 1.363 1.483zM33.677 20.426c-0.003 0-0.008 0-0.012 0-0.798 0-1.445-0.647-1.445-1.445 0-0.011 0-0.023 0-0.034l-0 0.002c0-0.766 0.667-1.411 1.456-1.41 0.805 0 1.462 0.653 1.462 1.451-0.010 0.795-0.657 1.435-1.453 1.435-0.003 0-0.007 0-0.010-0h0.001zM27.837 23.322c0.799 0.002 1.447 0.649 1.45 1.448v0c-0.013 0.797-0.663 1.439-1.462 1.439-0.010 0-0.019-0-0.029-0l0.001 0c-0.794-0.013-1.454-0.686-1.437-1.464 0.019-0.79 0.663-1.423 1.456-1.423 0.007 0 0.015 0 0.022 0h-0.001zM27.818 20.426c-0 0-0.001 0-0.002 0-0.8 0-1.449-0.645-1.456-1.442v-0.001c0-0.79 0.669-1.446 1.472-1.443 0.798 0.004 1.445 0.646 1.456 1.442v0.001c-0.006 0.798-0.655 1.443-1.454 1.443-0.006 0-0.012-0-0.019-0h0.001zM33.674 8.867c-0.807-0.003-1.46-0.658-1.46-1.466 0-0.015 0-0.029 0.001-0.044l-0 0.002c0.029-0.742 0.686-1.381 1.466-1.379 0.81 0 1.466 0.661 1.458 1.469-0.021 0.787-0.665 1.418-1.456 1.418-0.003 0-0.006 0-0.009-0h0zM27.819 0.203c0.003-0 0.007-0 0.011-0 0.801 0 1.451 0.646 1.456 1.446v0.001c0 0.001 0 0.003 0 0.004 0 0.809-0.655 1.464-1.464 1.464-0.807 0-1.462-0.653-1.464-1.46v-0c0.003-0.804 0.655-1.454 1.459-1.454 0.001 0 0.001 0 0.002 0h-0zM27.816 31.984c-0.804-0.001-1.455-0.652-1.456-1.456v-0c0.020-0.795 0.669-1.432 1.467-1.432 0.002 0 0.004 0 0.006 0h-0c0.8 0.005 1.456 0.656 1.454 1.446-0.002 0.8-0.662 1.446-1.47 1.442zM27.816 8.867c-0.799-0.002-1.447-0.645-1.456-1.442v-0.001c0.038-0.779 0.679-1.396 1.464-1.396s1.427 0.618 1.464 1.395l0 0.003c-0.009 0.797-0.657 1.44-1.456 1.44-0.006 0-0.011-0-0.017-0h0.001zM33.682 23.322c0.001 0 0.003 0 0.005 0 0.801 0 1.451 0.65 1.451 1.451 0 0.001 0 0.001 0 0.002v-0c-0.014 0.795-0.662 1.434-1.459 1.434-0.003 0-0.006 0-0.009-0h0c-0.806-0.005-1.457-0.659-1.457-1.466 0-0.016 0-0.033 0.001-0.049l-0 0.002c0.026-0.741 0.688-1.378 1.467-1.374zM33.675 0.203c0.002 0 0.004 0 0.006 0 0.801 0 1.451 0.647 1.456 1.448v0c0 0.787-0.659 1.44-1.459 1.44-0.792 0.005-1.458-0.645-1.459-1.421 0-0.821 0.64-1.466 1.456-1.467zM33.678 31.984c-0.8 0-1.459-0.64-1.459-1.421 0.029-0.784 0.672-1.408 1.46-1.408 0.778 0 1.414 0.609 1.458 1.376l0 0.004c-0.002 0.801-0.652 1.45-1.453 1.45-0.002 0-0.005 0-0.007 0h0zM33.672 11.763c0.8-0.005 1.461 0.64 1.466 1.43 0 0.010 0 0.021 0 0.032 0 0.807-0.655 1.462-1.462 1.462-0.796 0-1.444-0.636-1.462-1.428l-0-0.002c-0-0.009-0-0.020-0-0.030 0-0.806 0.652-1.461 1.458-1.464h0z"></path>
</svg>