    <svg version="1.1" xmlns="http://www.w3.org/2000/svg" xmlns:xlink="http://www.w3.org/1999/xlink" id="icon-status_success" viewBox="0 0 32 32">
      <path fill="#6bb817" style="fill: var(--color3, #6bb817)" d="M13.742 19.168c-0.065-0.085-0.094-0.134-0.133-0.172-1.204-1.206-2.409-2.411-3.615-3.616-0.107-0.107-0.214-0.217-0.327-0.318-0.658-0.589-1.723-0.434-2.186 0.316-0.366 0.592-0.288 1.311 0.21 1.81 1.668 1.673 3.341 3.343 5.012 5.013 0.039 0.039 0.080 0.077 0.123 0.111 0.607 0.473 1.412 0.417 1.967-0.138 3.642-3.641 7.283-7.282 10.924-10.923 0.026-0.026 0.053-0.051 0.077-0.079 0.382-0.44 0.498-0.942 0.296-1.488-0.201-0.545-0.609-0.865-1.189-0.94-0.502-0.065-0.913 0.12-1.267 0.474-3.258 3.262-6.519 6.521-9.778 9.782-0.038 0.038-0.062 0.091-0.115 0.168zM0.002 16c0-4.334 0.001-8.668-0.001-13.002-0-1.029 0.4-1.857 1.234-2.463 0.498-0.362 1.065-0.53 1.681-0.532 0.074-0 0.147-0 0.221-0 8.618 0 17.235 0.001 25.853-0.002 0.758 0 1.434 0.214 2.006 0.714 0.602 0.527 0.937 1.194 0.993 1.995 0.006 0.092 0.009 0.184 0.009 0.276 0 8.673 0 17.346 0.001 26.019 0 1.104-0.455 1.963-1.382 2.561-0.48 0.309-1.015 0.435-1.587 0.435-2.34-0.003-4.68-0.001-7.019-0.001-6.342 0-12.685-0-19.027 0-1.025 0-1.846-0.404-2.449-1.232-0.381-0.523-0.535-1.119-0.535-1.764 0.003-4.334 0.001-8.668 0.001-13.002z"></path>
    </svg>