<svg viewBox="0 0 32 32" fill="#E49953" xmlns="http://www.w3.org/2000/svg">
<circle cx="16" cy="16" r="16" fill="inherit"/>
<path d="M25.1999 15.9374C25.1999 14.5374 24.8999 13.2374 24.2999 12.0374C23.6999 10.8374 22.8999 9.73738 21.8999 8.83738C20.8999 7.93738 19.6999 7.23738 18.3999 6.93738C15.5999 6.23738 13.0999 6.63738 10.6999 8.23738C11.1999 8.93738 11.6999 9.73738 12.1999 10.4374C14.7999 8.93738 17.2999 8.83738 19.7999 10.5374C21.6999 11.8374 22.5999 13.7374 22.6999 16.0374H19.8999L23.8999 20.0374L27.8999 16.0374L25.1999 15.9374Z" fill="white"/>
<path d="M6.5999 15.9374C6.5999 17.9374 7.1999 19.8374 8.3999 21.4374C9.5999 23.0374 11.0999 24.2374 13.0999 24.8374C15.9999 25.7374 18.6999 25.3374 21.2999 23.6374C20.7999 22.8374 20.2999 22.1374 19.7999 21.4374C17.0999 23.2374 13.9999 22.7374 11.9999 21.2374C10.0999 19.9374 9.2999 18.1374 9.1999 15.9374H11.8999L7.8999 11.9374L3.8999 15.9374H6.5999Z" fill="white"/>
</svg>
