<svg width="41" height="45" viewBox="0 0 41 45" fill="#fff" xmlns="http://www.w3.org/2000/svg">
<path d="M22.5402 5.34301V3.68074H23.2634C23.625 3.68074 23.9866 3.32454 23.9866 2.96834V0.712401C23.9866 0.356201 23.625 0 23.2634 0H17.2366C16.875 0 16.5134 0.356201 16.5134 0.712401V2.96834C16.5134 3.32454 16.875 3.68074 17.2366 3.68074H17.9598V5.22427C7.83482 6.29288 0 14.8417 0 25.0528C0 36.095 9.04018 45 20.25 45C31.4598 45 40.5 36.095 40.5 25.0528C40.5 14.8417 32.6652 6.41161 22.5402 5.34301ZM18.0804 1.4248H22.5402V2.1372H18.0804V1.4248ZM19.5268 5.22427V3.68074H20.9732V5.10554H19.5268V5.22427ZM20.3705 43.5752C10.0045 43.5752 1.6875 35.2638 1.6875 25.1715C1.6875 14.9604 10.125 6.76781 20.3705 6.76781C30.6161 6.76781 39.0536 14.9604 39.0536 25.0528C39.0536 35.1451 30.6161 43.5752 20.3705 43.5752Z" fill="inherit"/>
<path d="M20.3705 8.90501C11.3303 8.90501 3.8571 16.1478 3.8571 25.1715C3.8571 34.1953 11.2098 41.438 20.3705 41.438C29.5312 41.438 36.8839 34.1953 36.8839 25.1715C36.8839 16.1478 29.4107 8.90501 20.3705 8.90501ZM20.3705 39.8945C12.0535 39.8945 5.30353 33.2454 5.30353 25.0528C5.30353 16.8602 12.0535 10.3298 20.25 10.3298C28.5669 10.3298 35.1964 16.9789 35.1964 25.0528C35.3169 33.2454 28.5669 39.8945 20.3705 39.8945Z" fill="inherit"/>
<path d="M20.3706 11.8734C20.009 11.8734 19.6474 12.2296 19.6474 12.5858V25.1715C19.6474 25.5277 20.009 25.8839 20.3706 25.8839H33.0268C33.3884 25.8839 33.75 25.5277 33.75 25.1715C33.8706 17.81 27.7233 11.8734 20.3706 11.8734ZM21.0938 24.3404V13.2982C27.1206 13.6544 31.942 18.4037 32.3036 24.3404H21.0938Z" fill="inherit"/>
<path d="M31.0983 6.53046L37.1251 10.9236C37.2456 11.0423 37.3661 11.0423 37.6072 11.0423C37.8483 11.0423 38.0893 10.9236 38.2099 10.8049C38.451 10.4487 38.4509 9.97373 38.0893 9.73627L32.0626 5.34313C31.701 5.10566 31.2188 5.22439 30.9777 5.46186C30.7367 5.81806 30.7367 6.29299 31.0983 6.53046Z" fill="inherit"/>
</svg>
