<svg width="41" height="40" viewBox="0 0 41 40" fill="#fff" xmlns="http://www.w3.org/2000/svg">
<path d="M32.8488 5.2852H34.3606V4.05898H31.2111C30.8646 4.05898 30.5811 4.33488 30.5811 4.67209V7.73765H31.841V6.06692C39.7462 12.1751 41.0612 23.3567 34.7936 31.0512C29.3371 37.7418 19.7547 39.7114 11.9832 35.7339L11.3927 36.8145C20.9357 41.6964 32.7464 38.125 37.762 28.8364C42.069 20.8429 40.014 11.0025 32.8488 5.2852Z" fill="inherit"/>
<path d="M9.16442 33.9329C1.25126 27.8401 -0.0951586 16.6584 6.16451 8.95621C11.6289 2.24264 21.2349 0.26535 29.0221 4.26591L29.6127 3.1853C20.0696 -1.69661 8.25894 1.87477 3.24333 11.1711C-1.07151 19.1569 0.983552 28.9973 8.15658 34.7146H6.64481V35.9408H9.79433C10.1408 35.9408 10.4242 35.6649 10.4242 35.3277V32.2621H9.16442V33.9329Z" fill="inherit"/>
<path d="M8.53452 19.9999C8.53452 26.4299 13.8966 31.649 20.5027 31.649C27.1088 31.649 32.4709 26.4299 32.4709 19.9999C32.4709 13.5699 27.1088 8.35077 20.5027 8.35077C13.8966 8.35077 8.53452 13.5622 8.53452 19.9999ZM27.2427 14.3056L28.5025 13.0794C30.1087 14.8268 31.0614 17.0493 31.2032 19.3868H29.3135V20.613H31.2032C31.0614 22.9428 30.1166 25.1654 28.5182 26.9127L27.2584 25.6865L26.3608 26.5602L27.6206 27.7864C25.8254 29.3575 23.5341 30.2925 21.1168 30.4305V28.5911H19.857V30.4305C17.4634 30.2925 15.18 29.3728 13.3848 27.8171L14.6446 26.5908L13.747 25.7172L12.4872 26.9434C10.8809 25.1884 9.93606 22.9582 9.8022 20.613H11.6604V19.3868H9.8022C9.94393 17.057 10.8888 14.8344 12.4872 13.0871L13.747 14.3133L14.6446 13.4396L13.3848 12.2134C15.18 10.6576 17.4555 9.73793 19.857 9.59998V11.4087H21.1168V9.59998C23.5105 9.73793 25.7939 10.6576 27.5891 12.2134L26.3293 13.4396L27.2427 14.3056Z" fill="inherit"/>
<path d="M21.1326 12.6425H19.8728V19.9999C19.8728 20.1608 19.9358 20.3218 20.0539 20.4367L23.8333 24.1154L24.7309 23.2417L21.1326 19.747V12.6425Z" fill="inherit"/>
<path d="M32.8488 5.2852H34.3606V4.05898H31.2111C30.8646 4.05898 30.5811 4.33488 30.5811 4.67209V7.73765H31.841V6.06692C39.7462 12.1751 41.0612 23.3567 34.7936 31.0512C29.3371 37.7418 19.7547 39.7114 11.9832 35.7339L11.3927 36.8145C20.9357 41.6964 32.7464 38.125 37.762 28.8364C42.069 20.8429 40.014 11.0025 32.8488 5.2852Z" stroke="inherit" stroke-width="0.2"/>
<path d="M9.16442 33.9329C1.25126 27.8401 -0.0951586 16.6584 6.16451 8.95621C11.6289 2.24264 21.2349 0.26535 29.0221 4.26591L29.6127 3.1853C20.0696 -1.69661 8.25894 1.87477 3.24333 11.1711C-1.07151 19.1569 0.983552 28.9973 8.15658 34.7146H6.64481V35.9408H9.79433C10.1408 35.9408 10.4242 35.6649 10.4242 35.3277V32.2621H9.16442V33.9329Z" stroke="inherit" stroke-width="0.2"/>
<path d="M8.53452 19.9999C8.53452 26.4299 13.8966 31.649 20.5027 31.649C27.1088 31.649 32.4709 26.4299 32.4709 19.9999C32.4709 13.5699 27.1088 8.35077 20.5027 8.35077C13.8966 8.35077 8.53452 13.5622 8.53452 19.9999ZM27.2427 14.3056L28.5025 13.0794C30.1087 14.8268 31.0614 17.0493 31.2032 19.3868H29.3135V20.613H31.2032C31.0614 22.9428 30.1166 25.1654 28.5182 26.9127L27.2584 25.6865L26.3608 26.5602L27.6206 27.7864C25.8254 29.3575 23.5341 30.2925 21.1168 30.4305V28.5911H19.857V30.4305C17.4634 30.2925 15.18 29.3728 13.3848 27.8171L14.6446 26.5908L13.747 25.7172L12.4872 26.9434C10.8809 25.1884 9.93606 22.9582 9.8022 20.613H11.6604V19.3868H9.8022C9.94393 17.057 10.8888 14.8344 12.4872 13.0871L13.747 14.3133L14.6446 13.4396L13.3848 12.2134C15.18 10.6576 17.4555 9.73793 19.857 9.59998V11.4087H21.1168V9.59998C23.5105 9.73793 25.7939 10.6576 27.5891 12.2134L26.3293 13.4396L27.2427 14.3056Z" stroke="inherit" stroke-width="0.2"/>
<path d="M21.1326 12.6425H19.8728V19.9999C19.8728 20.1608 19.9358 20.3218 20.0539 20.4367L23.8333 24.1154L24.7309 23.2417L21.1326 19.747V12.6425Z" stroke="inherit" stroke-width="0.2"/>
</svg>
