<svg version="1.1" xmlns="http://www.w3.org/2000/svg" xmlns:xlink="http://www.w3.org/1999/xlink" id="tools" viewBox="0 0 32 32">
      <title>tools</title>
      <path d="M2.462 0l-2.462 2.667 2.462 5.333 3.692 1.333 4.309 4.667 2.462-2.667-4.309-4.667-1.23-4-4.924-2.667zM24.702 0.012c-2.043-0.087-4.107 0.711-5.668 2.4-2.014 2.18-2.194 4.804-1.191 7.271l-14.302 15.49c-1.442 1.563-1.442 4.092 0 5.655 1.444 1.564 3.78 1.564 5.223 0l14.299-15.484c2.277 1.084 4.7 0.887 6.715-1.296 2.080-2.252 2.695-5.479 1.861-8.316l-4.562 4.942-3.94-1.067-0.987-4.274 4.565-4.937c-0.595-0.213-1.283-0.351-1.999-0.383l-0.015-0.001zM22.8 19.515l-4.633 5.019 5.931 6.427c1.28 1.387 3.356 1.387 4.636 0s1.28-3.634 0-5.020l-5.934-6.425zM6.155 26.667c0.679 0 1.232 0.597 1.232 1.333s-0.551 1.333-1.232 1.333c-0.679 0-1.23-0.597-1.23-1.333s0.551-1.333 1.23-1.333z"></path>
    </svg>