<svg width="22" height="18" viewBox="0 0 22 18" fill="#337FFF" xmlns="http://www.w3.org/2000/svg">
<path d="M20.6074 1.61858C20.2372 1.22494 19.717 1 19.1734 1C18.0909 1 17.2146 1.87632 17.2146 2.95883C17.2146 3.13222 17.238 3.30561 17.2849 3.47432L15.162 4.97859C14.4029 4.21005 13.161 4.20068 12.3925 4.95984C11.8489 5.49876 11.6661 6.3001 11.9286 7.02177L9.96973 8.67132C9.35115 7.78563 8.13273 7.56537 7.24235 8.18395C6.90495 8.41826 6.65189 8.75567 6.51599 9.13994L4.88988 8.47918C4.70712 7.41073 3.69958 6.69374 2.63113 6.8765C1.56267 7.05926 0.845683 8.0668 1.02845 9.13525C1.21121 10.2037 2.21874 10.9207 3.2872 10.7379C3.99013 10.6208 4.57122 10.1287 4.81021 9.4586L6.43633 10.1194C6.61909 11.1878 7.62662 11.9048 8.69508 11.722C9.63701 11.5627 10.3259 10.7473 10.3259 9.79132C10.3259 9.7304 10.3212 9.66479 10.3165 9.60387L12.4534 7.79968C13.2548 8.52605 14.4919 8.46981 15.2183 7.66847C15.6822 7.15767 15.8415 6.44068 15.6447 5.78462L17.7441 4.2944C18.4846 5.08637 19.7217 5.12386 20.5137 4.38813C21.3057 3.64771 21.3431 2.41055 20.6074 1.61858ZM2.95916 9.8335C2.39682 9.8335 1.93757 9.37425 1.93757 8.8119C1.93757 8.24956 2.39682 7.79031 2.95916 7.79031C3.52151 7.79031 3.98076 8.24956 3.98076 8.8119C3.98076 9.37425 3.52151 9.8335 2.95916 9.8335ZM8.36236 10.8176C7.80001 10.8176 7.34076 10.3584 7.34076 9.79601C7.34076 9.23366 7.80001 8.77442 8.36236 8.77442C8.9247 8.77442 9.38395 9.23366 9.38395 9.79601C9.38395 10.3584 8.92939 10.8176 8.36236 10.8176ZM13.7702 7.37793C13.2079 7.37793 12.7486 6.91868 12.7486 6.35633C12.7486 5.79399 13.2079 5.33474 13.7702 5.33474C14.3326 5.33474 14.7918 5.79399 14.7918 6.35633C14.7918 6.91868 14.3326 7.37793 13.7702 7.37793ZM19.1734 3.98043C18.6111 3.98043 18.1518 3.52118 18.1518 2.95883C18.1518 2.39649 18.6111 1.93724 19.1734 1.93724C19.7358 1.93724 20.195 2.39649 20.195 2.95883C20.195 3.52586 19.7405 3.98043 19.1734 3.98043Z" fill="inherit"/>
<path d="M20.4856 6.47349H17.8613C17.6036 6.47349 17.3927 6.68437 17.3927 6.94211V16.4845C17.3927 16.7423 17.6036 16.9531 17.8613 16.9531H20.4856C20.7433 16.9531 20.9542 16.7423 20.9542 16.4845V6.94211C20.9542 6.68437 20.7433 6.47349 20.4856 6.47349ZM20.017 16.0628H18.3299V7.41073H20.017V16.0628Z" fill="inherit"/>
<path d="M15.0964 9.84756H12.4722C12.2144 9.84756 12.0035 10.0584 12.0035 10.3162V16.4845C12.0035 16.7423 12.2144 16.9531 12.4722 16.9531H15.0964C15.3542 16.9531 15.5651 16.7423 15.5651 16.4845V10.3162C15.5651 10.0584 15.3542 9.84756 15.0964 9.84756ZM14.6278 16.0628H12.9408V10.7848H14.6278V16.0628Z" fill="inherit"/>
<path d="M9.66044 13.3622H7.03616C6.77842 13.3622 6.56754 13.5731 6.56754 13.8308V16.5314C6.56754 16.7891 6.77842 17 7.03616 17H9.66044C9.91818 17 10.1291 16.7891 10.1291 16.5314V13.8308C10.1291 13.5731 9.91818 13.3622 9.66044 13.3622ZM9.19182 16.0628H7.50478V14.2995H9.19182V16.0628Z" fill="inherit"/>
<path d="M4.2713 12.3781H1.64702C1.38928 12.3781 1.1784 12.589 1.1784 12.8467V16.5314C1.1784 16.7891 1.38928 17 1.64702 17H4.2713C4.52904 17 4.73992 16.7891 4.73992 16.5314V12.8467C4.73992 12.589 4.52904 12.3781 4.2713 12.3781ZM3.80268 16.0628H2.11565V13.3153H3.80268V16.0628Z" fill="inherit"/>
<path d="M20.6074 1.61858C20.2372 1.22494 19.717 1 19.1734 1C18.0909 1 17.2146 1.87632 17.2146 2.95883C17.2146 3.13222 17.238 3.30561 17.2849 3.47432L15.162 4.97859C14.4029 4.21005 13.161 4.20068 12.3925 4.95984C11.8489 5.49876 11.6661 6.3001 11.9286 7.02177L9.96973 8.67132C9.35115 7.78563 8.13273 7.56537 7.24235 8.18395C6.90495 8.41826 6.65189 8.75567 6.51599 9.13994L4.88988 8.47918C4.70712 7.41073 3.69958 6.69374 2.63113 6.8765C1.56267 7.05926 0.845683 8.0668 1.02845 9.13525C1.21121 10.2037 2.21874 10.9207 3.2872 10.7379C3.99013 10.6208 4.57122 10.1287 4.81021 9.4586L6.43633 10.1194C6.61909 11.1878 7.62662 11.9048 8.69508 11.722C9.63701 11.5627 10.3259 10.7473 10.3259 9.79132C10.3259 9.7304 10.3212 9.66479 10.3165 9.60387L12.4534 7.79968C13.2548 8.52605 14.4919 8.46981 15.2183 7.66847C15.6822 7.15767 15.8415 6.44068 15.6447 5.78462L17.7441 4.2944C18.4846 5.08637 19.7217 5.12386 20.5137 4.38813C21.3057 3.64771 21.3431 2.41055 20.6074 1.61858ZM2.95916 9.8335C2.39682 9.8335 1.93757 9.37425 1.93757 8.8119C1.93757 8.24956 2.39682 7.79031 2.95916 7.79031C3.52151 7.79031 3.98076 8.24956 3.98076 8.8119C3.98076 9.37425 3.52151 9.8335 2.95916 9.8335ZM8.36236 10.8176C7.80001 10.8176 7.34076 10.3584 7.34076 9.79601C7.34076 9.23366 7.80001 8.77442 8.36236 8.77442C8.9247 8.77442 9.38395 9.23366 9.38395 9.79601C9.38395 10.3584 8.92939 10.8176 8.36236 10.8176ZM13.7702 7.37793C13.2079 7.37793 12.7486 6.91868 12.7486 6.35633C12.7486 5.79399 13.2079 5.33474 13.7702 5.33474C14.3326 5.33474 14.7918 5.79399 14.7918 6.35633C14.7918 6.91868 14.3326 7.37793 13.7702 7.37793ZM19.1734 3.98043C18.6111 3.98043 18.1518 3.52118 18.1518 2.95883C18.1518 2.39649 18.6111 1.93724 19.1734 1.93724C19.7358 1.93724 20.195 2.39649 20.195 2.95883C20.195 3.52586 19.7405 3.98043 19.1734 3.98043Z" stroke="inherit" stroke-width="0.1"/>
<path d="M20.4856 6.47349H17.8613C17.6036 6.47349 17.3927 6.68437 17.3927 6.94211V16.4845C17.3927 16.7423 17.6036 16.9531 17.8613 16.9531H20.4856C20.7433 16.9531 20.9542 16.7423 20.9542 16.4845V6.94211C20.9542 6.68437 20.7433 6.47349 20.4856 6.47349ZM20.017 16.0628H18.3299V7.41073H20.017V16.0628Z" stroke="inherit" stroke-width="0.1"/>
<path d="M15.0964 9.84756H12.4722C12.2144 9.84756 12.0035 10.0584 12.0035 10.3162V16.4845C12.0035 16.7423 12.2144 16.9531 12.4722 16.9531H15.0964C15.3542 16.9531 15.5651 16.7423 15.5651 16.4845V10.3162C15.5651 10.0584 15.3542 9.84756 15.0964 9.84756ZM14.6278 16.0628H12.9408V10.7848H14.6278V16.0628Z" stroke="inherit" stroke-width="0.1"/>
<path d="M9.66044 13.3622H7.03616C6.77842 13.3622 6.56754 13.5731 6.56754 13.8308V16.5314C6.56754 16.7891 6.77842 17 7.03616 17H9.66044C9.91818 17 10.1291 16.7891 10.1291 16.5314V13.8308C10.1291 13.5731 9.91818 13.3622 9.66044 13.3622ZM9.19182 16.0628H7.50478V14.2995H9.19182V16.0628Z" stroke="inherit" stroke-width="0.1"/>
<path d="M4.2713 12.3781H1.64702C1.38928 12.3781 1.1784 12.589 1.1784 12.8467V16.5314C1.1784 16.7891 1.38928 17 1.64702 17H4.2713C4.52904 17 4.73992 16.7891 4.73992 16.5314V12.8467C4.73992 12.589 4.52904 12.3781 4.2713 12.3781ZM3.80268 16.0628H2.11565V13.3153H3.80268V16.0628Z" stroke="inherit" stroke-width="0.1"/>
</svg>
