    <svg version="1.1" xmlns="http://www.w3.org/2000/svg" xmlns:xlink="http://www.w3.org/1999/xlink" id="trash" viewBox="0 0 29 32">
      <title>trash</title>
      <path fill="#d33f45" style="fill: var(--color2, #d33f45)" d="M1.892 7.002h25.54l-0 0.139c0 7.333 0.001 14.666-0.001 21.999-0 1.395-0.92 2.507-2.296 2.778-0.188 0.037-0.384 0.049-0.576 0.050-6.596 0.002-13.193 0.003-19.789 0.002-1.422-0-2.561-0.915-2.83-2.274-0.037-0.188-0.046-0.384-0.046-0.576-0.002-7.324-0.002-14.649-0.002-21.973l-0-0.145z"></path>
      <path fill="#d33f45" style="fill: var(--color2, #d33f45)" d="M10.378 1.448c0.047-0.597 0.316-1.029 0.859-1.264 0.172-0.074 0.372-0.117 0.56-0.118 1.909-0.008 3.819-0.009 5.728-0.003 0.76 0.002 1.354 0.561 1.412 1.305 0.002 0.021 0.006 0.043 0.011 0.080h0.187c2.75 0 5.499-0 8.249 0 0.658 0 1.18 0.335 1.394 0.889 0.346 0.898-0.299 1.846-1.283 1.885-0.049 0.002-0.099 0.002-0.148 0.002-8.455 0-16.911-0.001-25.366 0.001-0.519 0-0.955-0.164-1.26-0.584-0.317-0.436-0.36-0.915-0.13-1.398 0.229-0.479 0.632-0.739 1.172-0.79 0.076-0.007 0.153-0.007 0.229-0.007 2.732-0 5.463-0 8.195-0h0.192z"></path>
    </svg>