<svg width="31" height="31" viewBox="0 0 31 31" fill="white" xmlns="http://www.w3.org/2000/svg">
<path d="M15.5211 0.557129C7.32487 0.557129 0.680664 7.27275 0.680664 15.5571C0.680664 23.8415 7.32487 30.5571 15.5211 30.5571C23.7174 30.5571 30.3616 23.8415 30.3616 15.5571C30.3616 7.27275 23.7174 0.557129 15.5211 0.557129ZM21.5578 12.8446C21.564 12.9728 21.5655 13.1009 21.5655 13.2259C21.5655 17.1321 18.6268 21.6337 13.2502 21.6337C11.6615 21.6364 10.1059 21.1752 8.77027 20.3056C8.99752 20.3337 9.23094 20.3446 9.46746 20.3446C10.8371 20.3446 12.097 19.8743 13.0972 19.0806C12.4877 19.0685 11.8971 18.8645 11.4077 18.497C10.9184 18.1295 10.5546 17.6169 10.3672 17.0306C10.8049 17.1147 11.2558 17.0971 11.6858 16.979C11.0242 16.8438 10.4293 16.4815 10.0019 15.9535C9.57447 15.4255 9.34087 14.7643 9.3407 14.0821V14.0462C9.7349 14.2665 10.1863 14.4009 10.6655 14.4165C10.0453 13.9992 9.60626 13.3582 9.43816 12.6245C9.27006 11.8909 9.38561 11.12 9.76118 10.4696C10.4954 11.3821 11.411 12.1286 12.4488 12.6607C13.4866 13.1929 14.6233 13.4988 15.7855 13.5587C15.6377 12.9248 15.7013 12.2593 15.9664 11.6657C16.2314 11.0721 16.6831 10.5837 17.2511 10.2763C17.8191 9.96891 18.4717 9.85982 19.1074 9.96599C19.7431 10.0722 20.3263 10.3876 20.7663 10.8634C21.4205 10.7326 22.0478 10.49 22.6214 10.1462C22.4034 10.8308 21.9469 11.4121 21.3368 11.7821C21.9162 11.7116 22.4821 11.5541 23.0156 11.3149C22.6237 11.9085 22.13 12.4266 21.5578 12.8446Z" fill="inherit"/>
</svg>
