<svg width="31" height="31" viewBox="0 0 31 31" fill="white" xmlns="http://www.w3.org/2000/svg">
<path d="M15.5211 0.556641C7.32487 0.556641 0.680664 7.27227 0.680664 15.5566C0.680664 23.841 7.32487 30.5566 15.5211 30.5566C23.7174 30.5566 30.3616 23.841 30.3616 15.5566C30.3616 7.27227 23.7174 0.556641 15.5211 0.556641ZM21.5578 12.8441C21.564 12.9723 21.5655 13.1004 21.5655 13.2254C21.5655 17.1316 18.6268 21.6332 13.2502 21.6332C11.6615 21.6359 10.1059 21.1747 8.77027 20.3051C8.99752 20.3332 9.23094 20.3441 9.46746 20.3441C10.8371 20.3441 12.097 19.8738 13.0972 19.0801C12.4877 19.068 11.8971 18.864 11.4077 18.4965C10.9184 18.129 10.5546 17.6164 10.3672 17.0301C10.8049 17.1142 11.2558 17.0966 11.6858 16.9785C11.0242 16.8433 10.4293 16.481 10.0019 15.953C9.57447 15.425 9.34087 14.7638 9.3407 14.0816V14.0457C9.7349 14.266 10.1863 14.4004 10.6655 14.416C10.0453 13.9987 9.60626 13.3577 9.43816 12.624C9.27006 11.8904 9.38561 11.1195 9.76118 10.4691C10.4954 11.3816 11.411 12.1281 12.4488 12.6603C13.4866 13.1924 14.6233 13.4983 15.7855 13.5582C15.6377 12.9243 15.7013 12.2588 15.9664 11.6652C16.2314 11.0716 16.6831 10.5832 17.2511 10.2758C17.8191 9.96842 18.4717 9.85933 19.1074 9.9655C19.7431 10.0717 20.3263 10.3871 20.7663 10.8629C21.4205 10.7321 22.0478 10.4895 22.6214 10.1457C22.4034 10.8303 21.9469 11.4116 21.3368 11.7816C21.9162 11.7111 22.4821 11.5536 23.0156 11.3145C22.6237 11.908 22.13 12.4261 21.5578 12.8441Z" fill="inherit"/>
</svg>
