    <svg version="1.1" xmlns="http://www.w3.org/2000/svg" xmlns:xlink="http://www.w3.org/1999/xlink" id="upload_card_back_drop" viewBox="0 0 47 32">
      <title>upload_card_back_drop</title>
      <path fill="none" stroke="#5090fc" style="stroke: var(--color1, #5090fc)" stroke-linejoin="miter" stroke-linecap="butt" stroke-miterlimit="4" stroke-width="0.7273" d="M2.545 0.364h41.818c1.2 0 2.182 0.982 2.182 2.182v26.909c0 1.2-0.982 2.182-2.182 2.182h-41.818c-1.2 0-2.182-0.982-2.182-2.182v-26.909c0-1.2 0.982-2.182 2.182-2.182z"></path>
      <path fill="#fff" style="fill: var(--color2, #fff)" d="M5.273 15.818h36v5.091h-36v-5.091z"></path>
      <path fill="#5090fc" style="fill: var(--color1, #5090fc)" d="M16.073 16.036c0 0.8-0.291 2.473-0.836 3.418-0.036-1.164 0.473-2.727 0.836-3.418zM20.655 20c-0.109-0.073-0.218-0.036-0.291 0.036-0.4 0.582-0.727 0.364-1.127 0.145-0.255-0.145-0.545-0.327-0.8-0.109-0.255 0.255-0.327 0.182-0.618-0.073-0.218-0.218-0.545-0.509-1.018-0.436-0.436 0.073-0.582 0.436-0.691 0.727-0.145 0.364-0.182 0.4-0.4 0.327s-0.364-0.255-0.473-0.582c1.018-1.055 1.309-3.709 1.2-4.4 0-0.073-0.036-0.327-0.255-0.364-0.145 0-0.291 0.036-0.655 0.909-0.218 0.545-0.436 1.2-0.545 1.818-0.182 0.764-0.218 1.418-0.145 1.891-0.073 0.073-0.145 0.109-0.218 0.109-0.618 0.291-0.727 0.145-0.727 0.145-0.109-0.109 0.109-0.764 0.436-1.309 0.073-0.073 0.036-0.218-0.036-0.291-0.109-0.036-0.255 0-0.291 0.073-0.182 0.327-0.8 1.382-0.4 1.818 0.291 0.327 0.836 0.145 1.236-0.036 0.036-0.036 0.073-0.036 0.145-0.073 0.145 0.364 0.364 0.582 0.691 0.691 0.036 0.073 0.145 0.073 0.218 0.073 0.4 0 0.545-0.4 0.655-0.655s0.182-0.436 0.364-0.473c0.291-0.036 0.473 0.109 0.655 0.327 0.255 0.255 0.618 0.582 1.164 0.073 0.073 0 0.182 0.109 0.291 0.145 0.364 0.218 1.055 0.655 1.709-0.255 0.036-0.073 0-0.182-0.073-0.255z"></path>
      <path fill="#5090fc" style="fill: var(--color1, #5090fc)" d="M34.618 17.964l0.182 0.291-0.364 0.109 0.364 0.109-0.182 0.291-0.291-0.255 0.073 0.364h-0.327l0.073-0.364-0.291 0.255-0.182-0.327 0.364-0.109-0.364-0.109 0.182-0.291 0.291 0.255-0.073-0.364h0.364l-0.073 0.364 0.255-0.218z"></path>
      <path fill="#5090fc" style="fill: var(--color1, #5090fc)" d="M36.291 17.964l0.182 0.291-0.364 0.109 0.364 0.109-0.182 0.291-0.291-0.255 0.073 0.364h-0.327l0.073-0.364-0.291 0.255-0.182-0.327 0.364-0.109-0.364-0.109 0.182-0.291 0.291 0.255-0.073-0.364h0.364l-0.073 0.364 0.255-0.218z"></path>
      <path fill="#5090fc" style="fill: var(--color1, #5090fc)" d="M37.927 17.964l0.182 0.291-0.364 0.109 0.364 0.109-0.182 0.291-0.291-0.255 0.073 0.364h-0.327l0.073-0.364-0.291 0.255-0.182-0.327 0.364-0.109-0.364-0.109 0.182-0.291 0.291 0.255-0.073-0.364h0.364l-0.073 0.364 0.255-0.218z"></path>
      <path fill="#26334b" style="fill: var(--color3, #26334b)" d="M33.091 16.364h7.636v4h-7.636v-4z"></path>
      <path fill="#5090fc" style="fill: var(--color1, #5090fc)" d="M0.364 5.818h46.182v5.455h-46.182v-5.455z"></path>
      <path fill="#5090fc" style="fill: var(--color1, #5090fc)" d="M27.2 17.382c0.182 0.145 0.291 0.291 0.327 0.509h-0.364c-0.036-0.109-0.109-0.218-0.218-0.291s-0.218-0.109-0.4-0.109c-0.109 0-0.218 0.036-0.327 0.073-0.109 0.073-0.182 0.145-0.218 0.255-0.073 0.109-0.073 0.255-0.073 0.4s0.036 0.291 0.073 0.4c0.073 0.109 0.145 0.182 0.218 0.255s0.218 0.073 0.327 0.073c0.145 0 0.291-0.036 0.4-0.109s0.182-0.182 0.218-0.291h0.364c-0.073 0.218-0.182 0.4-0.327 0.509-0.182 0.109-0.364 0.182-0.618 0.182-0.182 0-0.364-0.036-0.509-0.145-0.145-0.073-0.255-0.218-0.364-0.364s-0.109-0.327-0.109-0.545c0-0.218 0.036-0.4 0.109-0.545s0.182-0.291 0.364-0.364c0.145-0.073 0.327-0.145 0.509-0.145 0.255 0.073 0.436 0.145 0.618 0.255z"></path>
      <path fill="#5090fc" style="fill: var(--color1, #5090fc)" d="M28.182 17.236l0.582 1.709 0.582-1.709h0.364l-0.727 2.036h-0.436l-0.727-2.036h0.364z"></path>
      <path fill="#5090fc" style="fill: var(--color1, #5090fc)" d="M30.291 17.236l0.582 1.709 0.582-1.709h0.364l-0.727 2.036h-0.436l-0.727-2.036h0.364z"></path>
      <path fill="#5090fc" style="fill: var(--color1, #5090fc)" d="M32.473 17.673v0.364h-0.364v-0.364h0.364zM32.473 18.909v0.364h-0.364v-0.364h0.364z"></path>
    </svg>