    <svg version="1.1" xmlns="http://www.w3.org/2000/svg" xmlns:xlink="http://www.w3.org/1999/xlink" id="upload_id" viewBox="0 0 44 32">
      <title>upload_id</title>
      <path fill="#cacfd5" style="fill: var(--color2, #cacfd5)" d="M2.526 3.368h36.211c0.93 0 1.684 0.754 1.684 1.684v24.421c0 0.93-0.754 1.684-1.684 1.684h-36.211c-0.93 0-1.684-0.754-1.684-1.684v-24.421c0-0.93 0.754-1.684 1.684-1.684z"></path>
      <path fill="#26334b" style="fill: var(--color3, #26334b)" d="M39.381 28.517v1.005c0.012 0.273-0.088 0.54-0.278 0.737s-0.451 0.307-0.724 0.305h-36.412c-0.273 0.002-0.535-0.108-0.724-0.305s-0.29-0.463-0.278-0.737v-20.45h2.004v-0.967h-2.004v-3.155c0-0.555 0.449-1.005 1.002-1.005h1.002v-0.967h-1.002c-1.086 0-1.967 0.883-1.967 1.972v24.558c0 1.089 0.881 1.972 1.967 1.972h36.412c1.086 0 1.967-0.883 1.967-1.972v-0.99h-0.965z"></path>
      <path fill="#fff" style="fill: var(--color4, #fff)" d="M5.053 0.842h36.211c0.93 0 1.684 0.754 1.684 1.684v23.579c0 0.93-0.754 1.684-1.684 1.684h-36.211c-0.93 0-1.684-0.754-1.684-1.684v-23.579c0-0.93 0.754-1.684 1.684-1.684z"></path>
      <path fill="#26334b" style="fill: var(--color3, #26334b)" d="M41.348 0h-36.412c-1.086 0-1.967 0.883-1.967 1.972v24.558c0 1.089 0.881 1.972 1.967 1.972h36.412c1.086 0 1.967-0.883 1.967-1.972v-24.558c0-0.523-0.207-1.025-0.576-1.394s-0.869-0.578-1.391-0.578zM42.35 26.545c0.012 0.273-0.088 0.54-0.278 0.737s-0.451 0.307-0.724 0.305h-36.412c-0.273 0.002-0.535-0.108-0.724-0.305s-0.29-0.463-0.278-0.737v-20.45h38.416v20.45zM42.35 5.127h-38.416v-3.155c0-0.555 0.449-1.005 1.002-1.005h36.412c0.553 0 1.002 0.45 1.002 1.005v3.155z"></path>
      <path fill="#26334b" style="fill: var(--color3, #26334b)" d="M33.488 10.902h-9.938c-0.266 0-0.482-0.217-0.482-0.484s0.216-0.484 0.482-0.484h9.938c0.266 0 0.482 0.217 0.482 0.484s-0.216 0.484-0.482 0.484z"></path>
      <path fill="#26334b" style="fill: var(--color3, #26334b)" d="M33.488 13.879h-9.938c-0.266 0-0.482-0.217-0.482-0.484s0.216-0.484 0.482-0.484h9.938c0.266 0 0.482 0.217 0.482 0.484s-0.216 0.484-0.482 0.484v0z"></path>
      <path fill="#26334b" style="fill: var(--color3, #26334b)" d="M39.522 19.304h-15.972c-0.266 0-0.482-0.217-0.482-0.484s0.216-0.484 0.482-0.484h15.972c0.266 0 0.482 0.217 0.482 0.484s-0.216 0.484-0.482 0.484v0z"></path>
      <path fill="#26334b" style="fill: var(--color3, #26334b)" d="M39.522 22.281h-15.972c-0.266 0-0.482-0.217-0.482-0.484s0.216-0.484 0.482-0.484h15.972c0.266 0 0.482 0.217 0.482 0.484s-0.216 0.484-0.482 0.484z"></path>
      <path fill="#26334b" style="fill: var(--color3, #26334b)" d="M30.163 3.602h-14.042c-0.266 0-0.482-0.217-0.482-0.484s0.216-0.484 0.482-0.484h14.042c0.266 0 0.482 0.217 0.482 0.484s-0.216 0.484-0.482 0.484z"></path>
      <path fill="#26334b" style="fill: var(--color3, #26334b)" d="M20.002 21.306c-0.257-0.92-0.952-1.653-1.855-1.957 0 0-1.774-0.618-2.427-0.886-0.222-0.074-0.41-0.228-0.527-0.432l0.148-0.201 0.445-0.744c0.245-0.389 0.406-0.825 0.475-1.28 0.087-0.068 0.158-0.154 0.208-0.253 0.028-0.026 0.049-0.060 0.059-0.097l0.282-0.7c0.143-0.445-0.072-0.926-0.497-1.116v0-0.781c0-0.052 0-0.127 0-0.201 0-0.528 0.074-1.488-0.609-1.994-0.34-0.234-0.72-0.403-1.121-0.499-0.935-0.327-2.071-0.357-2.427 0.253-0.406-0.127-0.848 0.009-1.113 0.342-0.094 0.046-0.181 0.103-0.26 0.171-0.564 0.484-0.564 1.31-0.564 2.084l0.067 0.744c-0.351 0.228-0.496 0.671-0.349 1.064l0.275 0.677c0.013 0.030 0.028 0.060 0.045 0.089 0.059 0.099 0.132 0.189 0.215 0.268 0.083 0.46 0.254 0.9 0.505 1.295l0.46 0.744 0.186 0.246c-0.119 0.164-0.284 0.289-0.475 0.357-0.623 0.231-2.523 0.893-2.553 0.9-0.921 0.306-1.603 1.090-1.781 2.046-0.007 0.136-0.007 0.273 0 0.409 0.008 0.231 0.193 0.416 0.423 0.424h12.461c0.242-0.016 0.431-0.218 0.43-0.461-0.027-0.174-0.069-0.346-0.126-0.514zM11.267 15.516c-0.011-0.18-0.132-0.334-0.304-0.387l-0.26-0.633c0 0 0-0.045 0-0.060 0.103-0.005 0.201-0.047 0.275-0.119 0.095-0.087 0.142-0.214 0.126-0.342l-0.067-0.781c0.197-0.204 0.413-0.389 0.646-0.551 0.193-0.154 0.429-0.245 0.675-0.26 0.16 0.026 0.323 0.026 0.482 0 0.2-0.097 0.171-0.58 0.319-0.7s0.616 0.29 1.603 0.64c0.416 0.141 0.46 0.32 0.646 0.566v1.153c0.003 0.149 0.081 0.286 0.208 0.365 0.102 0.055 0.221 0.071 0.334 0.045v0l-0.275 0.677c-0.165 0.050-0.285 0.193-0.304 0.365-0.032 0.406-0.159 0.799-0.371 1.146l-0.453 0.744c-0.052 0.082-0.252 0.32-0.275 0.38-0.124 0.093-0.258 0.17-0.401 0.231v0c-0.176 0.1-0.377 0.149-0.579 0.141-0.153-0.008-0.303-0.041-0.445-0.097-0.143-0.065-0.282-0.14-0.416-0.223 0-0.052-0.282-0.32-0.341-0.409l-0.468-0.744c-0.204-0.35-0.326-0.742-0.356-1.146v0zM7.674 21.433c0.141-0.609 0.593-1.099 1.188-1.287 0.074 0 1.945-0.67 2.568-0.915 0.321-0.114 0.603-0.315 0.816-0.58 0.322 0.178 0.679 0.285 1.046 0.313h0.089c0.411 0.005 0.816-0.101 1.173-0.305 0.211 0.285 0.5 0.502 0.831 0.625 0.683 0.275 2.405 0.886 2.471 0.9 0.603 0.235 1.074 0.721 1.291 1.332l-11.474-0.082z"></path>
    </svg>