    <svg version="1.1" xmlns="http://www.w3.org/2000/svg" xmlns:xlink="http://www.w3.org/1999/xlink" id="upload_driver_licence_drop" viewBox="0 0 45 32">
      <title>upload_driver_licence_drop</title>
      <path fill="#5090fc" style="fill: var(--color1, #5090fc)" d="M42.783 0h-40.631c-1.159 0-2.152 1.003-2.152 2.172v27.572c0 1.253 0.993 2.256 2.152 2.256 0 0 0 0 0 0h40.631c1.241 0 2.234-1.003 2.234-2.172 0 0 0 0 0 0v-27.572c0-1.253-0.993-2.256-2.234-2.256 0 0 0 0 0 0zM43.941 29.828c0 0.585-0.414 1.17-1.076 1.17 0 0 0 0-0.083 0h-40.631c-0.579 0-1.076-0.501-1.159-1.086 0 0 0 0 0-0.084v-27.572c0-0.585 0.496-1.17 1.076-1.17v0h40.631c0.579 0 1.076 0.501 1.076 1.17l0.166 27.572z"></path>
      <path fill="#5090fc" style="fill: var(--color1, #5090fc)" d="M35.134 9.478h-9.723c-0.276 0-0.414-0.252-0.414-0.587s0.207-0.503 0.414-0.503h9.723c0.276 0 0.483 0.252 0.483 0.503 0 0.335-0.207 0.587-0.483 0.587 0 0 0 0 0 0z"></path>
      <path fill="#5090fc" style="fill: var(--color1, #5090fc)" d="M39.547 14.594h-14.136c-0.276 0-0.414-0.252-0.414-0.587s0.207-0.503 0.414-0.503h14.136c0.276 0 0.483 0.252 0.483 0.503 0 0.419-0.207 0.587-0.483 0.587 0 0 0 0 0 0z"></path>
      <path fill="#5090fc" style="fill: var(--color1, #5090fc)" d="M39.547 18.788h-14.136c-0.276 0-0.414-0.252-0.414-0.587s0.207-0.503 0.414-0.503h14.136c0.276 0 0.483 0.252 0.483 0.503 0 0.419-0.207 0.587-0.483 0.587 0 0 0 0 0 0z"></path>
      <path fill="#5090fc" style="fill: var(--color1, #5090fc)" d="M39.547 22.982h-14.136c-0.276 0-0.414-0.252-0.414-0.587s0.207-0.503 0.414-0.503h14.136c0.276 0 0.414 0.252 0.414 0.587 0.069 0.335-0.138 0.503-0.414 0.503z"></path>
      <path fill="#5090fc" style="fill: var(--color1, #5090fc)" d="M21.525 13.755l-0.332-0.503c0 0 0 0 0.083 0 0.498 0 0.83-0.335 0.83-0.671 0-0.419-0.415-0.671-0.83-0.671-0.249 0-0.415 0.084-0.581 0.168l-1.162-2.684c-0.249-0.503-0.747-0.839-1.328-0.839h-9.548c-0.581 0-1.079 0.335-1.328 0.839l-1.162 2.684c-0.166-0.084-0.332-0.168-0.581-0.168-0.498 0-0.83 0.335-0.83 0.671 0 0.419 0.415 0.671 0.83 0.671v0 0l-0.332 0.503c-0.415 0.587-0.581 1.342-0.581 2.097v4.529c0 0.168 0.083 0.335 0.166 0.419v1.845c0 0.252 0.166 0.419 0.415 0.419h1.744c0.249 0 0.415-0.168 0.415-0.419v-1.761h11.956v1.761c0 0.252 0.166 0.419 0.415 0.419h1.744c0.249 0 0.415-0.168 0.415-0.419v-1.929c0.083-0.084 0.166-0.252 0.166-0.419v-4.529c0-0.671-0.166-1.342-0.581-2.013zM8.324 9.729c0.083-0.168 0.166-0.252 0.332-0.252h9.465c0.166 0 0.249 0.084 0.332 0.252l1.411 3.187h-12.952l1.411-3.187zM6.581 22.227h-0.913v-1.342h0.913v1.342zM16.876 19.879h-7.057v-0.587h7.057v0.587zM17.706 19.795v-0.923c0-0.252-0.166-0.419-0.415-0.419h-7.887c-0.249 0-0.415 0.168-0.415 0.419v0.923h-3.321v-3.942c0-0.503 0.166-1.007 0.415-1.426l0.249-0.419h14.031l0.249 0.419c0.249 0.419 0.415 0.923 0.415 1.426v3.942h-3.321zM21.11 22.227h-0.913v-1.342h0.913v1.342z"></path>
      <path fill="#5090fc" style="fill: var(--color1, #5090fc)" d="M17.623 15.601c-0.083-0.168-0.249-0.252-0.332-0.252h-7.721c-0.166 0-0.249 0.084-0.332 0.252-0.083 0.084-0.083 0.252 0 0.419l0.913 1.51c0.083 0.168 0.249 0.168 0.332 0.168h5.895c0.166 0 0.249-0.084 0.332-0.168l0.913-1.51c0.083-0.168 0.083-0.335 0-0.419zM16.046 16.859h-5.397l-0.415-0.671h6.227l-0.415 0.671z"></path>
      <path fill="#5090fc" style="fill: var(--color1, #5090fc)" d="M19.533 15.349c-0.664 0-1.162 0.503-1.162 1.174s0.498 1.174 1.162 1.174c0.664 0 1.162-0.503 1.162-1.174s-0.581-1.174-1.162-1.174zM19.533 16.859c-0.166 0-0.332-0.168-0.332-0.335s0.166-0.335 0.332-0.335c0.166 0 0.332 0.168 0.332 0.335s-0.166 0.335-0.332 0.335z"></path>
      <path fill="#5090fc" style="fill: var(--color1, #5090fc)" d="M7.577 15.349c-0.664 0-1.162 0.503-1.162 1.174s0.498 1.174 1.162 1.174c0.664 0 1.162-0.503 1.162-1.174s-0.498-1.174-1.162-1.174zM7.577 16.859c-0.166 0-0.332-0.168-0.332-0.335s0.166-0.335 0.332-0.335c0.166 0 0.332 0.168 0.332 0.335s-0.083 0.335-0.332 0.335z"></path>
    </svg>