    <svg version="1.1" xmlns="http://www.w3.org/2000/svg" xmlns:xlink="http://www.w3.org/1999/xlink" id="upload_other_drop" viewBox="0 0 26 32">
      <title>upload_other_drop</title>
      <path fill="#5090fc" style="fill: var(--color1, #5090fc)" d="M25.673 5.982l-5.531-5.472c-0.075-0.074-0.177-0.115-0.283-0.116h-17.821c-0.89 0.013-1.604 0.731-1.604 1.611v28.286c0 0.89 0.729 1.611 1.628 1.611h22.122c0.899 0 1.628-0.721 1.628-1.611v-24.030c-0.008-0.108-0.059-0.208-0.141-0.28zM21.15 2.625l0.94 0.93c0.076 0.054 0.142 0.12 0.197 0.195v0l0.965 0.949 1.444 1.429h-3.65c-0.221 0.002-0.433-0.084-0.588-0.239s-0.243-0.364-0.241-0.582v-3.606l0.934 0.924zM25.015 30.291c0.002 0.218-0.085 0.428-0.241 0.582s-0.368 0.24-0.588 0.239h-22.122c-0.221 0.002-0.433-0.084-0.588-0.239s-0.243-0.364-0.241-0.582v-28.286c0-0.453 0.371-0.821 0.83-0.821h17.354v4.123c0 0.89 0.729 1.611 1.628 1.611h3.97v23.373z"></path>
      <path fill="#5090fc" style="fill: var(--color1, #5090fc)" d="M11.563 13.775h-4.775c-0.388 0-0.703-0.309-0.707-0.693v-3.502c0.003-0.384 0.319-0.693 0.707-0.693h4.775c0.388 0 0.703 0.309 0.707 0.693v3.502c-0.003 0.384-0.319 0.693-0.707 0.693v0zM6.881 12.991h4.615v-3.314h-4.615v3.314z"></path>
      <path fill="#5090fc" style="fill: var(--color1, #5090fc)" d="M19.834 9.609h-6.056c-0.16 0-0.289-0.162-0.289-0.361s0.129-0.361 0.289-0.361h6.056c0.158 0.004 0.286 0.163 0.289 0.361 0 0.199-0.129 0.361-0.289 0.361z"></path>
      <path fill="#5090fc" style="fill: var(--color1, #5090fc)" d="M19.834 11.737h-6.056c-0.16 0-0.289-0.162-0.289-0.361s0.129-0.361 0.289-0.361h6.056c0.16 0 0.289 0.162 0.289 0.361s-0.129 0.361-0.289 0.361z"></path>
      <path fill="#5090fc" style="fill: var(--color1, #5090fc)" d="M19.834 13.889h-6.056c-0.16 0-0.289-0.162-0.289-0.361s0.129-0.361 0.289-0.361h6.056c0.16 0 0.289 0.162 0.289 0.361s-0.129 0.361-0.289 0.361z"></path>
      <path fill="#5090fc" style="fill: var(--color1, #5090fc)" d="M19.712 16.671h-13.218c-0.221 0-0.399-0.177-0.399-0.395s0.179-0.395 0.399-0.395h13.218c0.221 0 0.399 0.177 0.399 0.395s-0.179 0.395-0.399 0.395v0z"></path>
      <path fill="#5090fc" style="fill: var(--color1, #5090fc)" d="M19.712 19.711h-13.218c-0.143 0-0.275-0.075-0.346-0.198s-0.071-0.273 0-0.395c0.071-0.122 0.203-0.198 0.346-0.198h13.218c0.221 0 0.399 0.177 0.399 0.395s-0.179 0.395-0.399 0.395v0z"></path>
      <path fill="#5090fc" style="fill: var(--color1, #5090fc)" d="M19.712 22.752h-13.218c-0.143 0-0.275-0.075-0.346-0.198s-0.071-0.273 0-0.395c0.071-0.122 0.203-0.198 0.346-0.198h13.218c0.143 0 0.275 0.075 0.346 0.198s0.071 0.273 0 0.395c-0.071 0.122-0.203 0.198-0.346 0.198v0z"></path>
      <path fill="#5090fc" style="fill: var(--color1, #5090fc)" d="M19.712 25.792h-13.218c-0.221 0-0.399-0.177-0.399-0.395s0.179-0.395 0.399-0.395h13.218c0.221 0 0.399 0.177 0.399 0.395s-0.179 0.395-0.399 0.395v0z"></path>
    </svg>