    <svg version="1.1" xmlns="http://www.w3.org/2000/svg" xmlns:xlink="http://www.w3.org/1999/xlink" id="upload_id_front_drop" viewBox="0 0 47 32">
      <title>upload_id_front_drop</title>
      <path fill="#5090fc" style="fill: var(--color1, #5090fc)" d="M44.837-0h-42.614c-1.223 0-2.224 1.001-2.224 2.224v27.421c0 1.223 1.001 2.223 2.224 2.223h42.614c1.222 0 2.223-1.001 2.223-2.223v-27.421c0-1.223-1.001-2.224-2.223-2.224zM44.837 0.873c0.744 0 1.35 0.606 1.35 1.35v27.421c0 0.744-0.606 1.35-1.35 1.35h-42.614c-0.745 0-1.351-0.606-1.351-1.35v-27.421c0-0.745 0.606-1.351 1.351-1.351h42.614z"></path>
      <path fill="#5090fc" style="fill: var(--color1, #5090fc)" d="M40.761 8.773h-14.452c-0.185 0-0.37-0.174-0.37-0.436 0-0.218 0.148-0.436 0.37-0.436h14.452c0.185 0 0.371 0.174 0.371 0.436 0 0.218-0.149 0.436-0.371 0.436z"></path>
      <path fill="#5090fc" style="fill: var(--color1, #5090fc)" d="M40.761 12.479h-14.452c-0.185 0-0.37-0.174-0.37-0.436 0-0.218 0.148-0.436 0.37-0.436h14.452c0.185 0 0.371 0.175 0.371 0.436 0 0.218-0.149 0.436-0.371 0.436z"></path>
      <path fill="#5090fc" style="fill: var(--color1, #5090fc)" d="M40.761 16.184h-14.452c-0.185 0-0.37-0.175-0.37-0.436 0-0.218 0.148-0.436 0.37-0.436h14.452c0.185 0 0.371 0.174 0.371 0.436 0 0.218-0.149 0.436-0.371 0.436z"></path>
      <path fill="#5090fc" style="fill: var(--color1, #5090fc)" d="M40.761 19.89h-14.452c-0.185 0-0.37-0.174-0.37-0.436 0-0.218 0.148-0.436 0.37-0.436h14.452c0.185 0 0.371 0.174 0.371 0.436 0 0.218-0.149 0.436-0.371 0.436z"></path>
      <path fill="#5090fc" style="fill: var(--color1, #5090fc)" d="M8.931 12.784c0.111 1.371 0.667 0.778 0.778 1.371 0.185 1.001 1.074 1.705 1.63 1.964 0.334 0.148 0.667 0.222 1.001 0.222s0.667-0.074 1.001-0.222c0.555-0.259 1.445-0.963 1.63-1.964 0.111-0.593 0.667 0 0.778-1.371 0-0.555-0.296-0.667-0.296-0.667s0.149-0.816 0.223-1.445c0.073-0.778-0.445-2.779-3.261-2.779h-0.074c-2.816 0-3.335 2.001-3.261 2.779 0.074 0.63 0.222 1.445 0.222 1.445s-0.37 0.111-0.37 0.667z"></path>
      <path fill="#5090fc" style="fill: var(--color1, #5090fc)" d="M18.676 19.491c-1.408-0.704-3.446-1.63-3.557-1.667-0.074-0.037-0.111-0.037-0.185-0.037-0.222 0-0.445 0.148-0.518 0.371-0.371 0.889-1.038 2.446-1.445 3.186l-0.111-2.075c0 0 0.63-1.334 0.704-1.445 0.149-0.297 0-0.519-0.297-0.519h-1.778c-0.297 0-0.445 0.259-0.297 0.519 0.074 0.111 0.705 1.445 0.705 1.445l-0.111 2.112c-0.408-0.741-1.074-2.334-1.445-3.186-0.074-0.222-0.296-0.37-0.518-0.37-0.074 0-0.111 0-0.185 0.037-0.111 0.037-2.149 0.926-3.557 1.667-0.63 0.334-1 0.741-1 1.149v3.334h14.673v-3.334c-0.074-0.445-0.444-0.853-1.074-1.186z"></path>
    </svg>