    <svg version="1.1" xmlns="http://www.w3.org/2000/svg" xmlns:xlink="http://www.w3.org/1999/xlink" id="upload_passport_drop" viewBox="0 0 47 32">
      <title>upload_passport_drop</title>
      <path fill="#5090fc" style="fill: var(--color1, #5090fc)" d="M44.943 0h-42.715c-1.226 0-2.228 1.003-2.228 2.229v27.486c0 1.225 1.002 2.228 2.228 2.228h42.715c1.226 0 2.229-1.003 2.229-2.228v-27.486c0-1.226-1.003-2.229-2.229-2.229zM44.943 0.873c0.747 0 1.355 0.608 1.355 1.355v27.486c0 0.747-0.608 1.355-1.355 1.355h-42.715c-0.747 0-1.355-0.608-1.355-1.355v-27.486c0-0.747 0.608-1.355 1.355-1.355h42.715z"></path>
      <path fill="#5090fc" style="fill: var(--color1, #5090fc)" d="M16.195 27.82c-0.074 0-0.186-0.037-0.26-0.111l-1.486-1.486c-0.148-0.149-0.148-0.372 0-0.483l1.486-1.486c0.149-0.149 0.371-0.149 0.483 0 0.149 0.149 0.149 0.371 0 0.483l-1.226 1.226 1.226 1.226c0.149 0.149 0.149 0.372 0 0.483-0.037 0.111-0.149 0.148-0.223 0.148z"></path>
      <path fill="#5090fc" style="fill: var(--color1, #5090fc)" d="M9.793 27.82c-0.074 0-0.186-0.037-0.26-0.111l-1.486-1.486c-0.148-0.149-0.148-0.372 0-0.483l1.486-1.486c0.149-0.149 0.371-0.149 0.483 0 0.149 0.149 0.149 0.371 0 0.483l-1.226 1.226 1.226 1.226c0.149 0.149 0.149 0.372 0 0.483-0.037 0.111-0.149 0.148-0.223 0.148z"></path>
      <path fill="#5090fc" style="fill: var(--color1, #5090fc)" d="M13.139 27.82c-0.074 0-0.186-0.037-0.26-0.111l-1.486-1.486c-0.148-0.149-0.148-0.372 0-0.483l1.486-1.486c0.149-0.149 0.371-0.149 0.483 0 0.149 0.149 0.149 0.371 0 0.483l-1.226 1.226 1.226 1.226c0.149 0.149 0.149 0.372 0 0.483-0.037 0.111-0.149 0.148-0.223 0.148z"></path>
      <path fill="#5090fc" style="fill: var(--color1, #5090fc)" d="M6.738 27.82c-0.074 0-0.186-0.037-0.26-0.111l-1.486-1.486c-0.148-0.149-0.148-0.372 0-0.483l1.486-1.486c0.149-0.149 0.371-0.149 0.483 0 0.149 0.149 0.149 0.371 0 0.483l-1.226 1.226 1.226 1.226c0.149 0.149 0.149 0.372 0 0.483-0.037 0.111-0.149 0.148-0.223 0.148z"></path>
      <path fill="#5090fc" style="fill: var(--color1, #5090fc)" d="M19.278 27.82c-0.075 0-0.186-0.037-0.26-0.111l-1.486-1.486c-0.149-0.149-0.149-0.372 0-0.483l1.486-1.486c0.148-0.149 0.371-0.149 0.482 0 0.149 0.149 0.149 0.371 0 0.483l-1.226 1.226 1.226 1.226c0.149 0.149 0.149 0.372 0 0.483-0.037 0.111-0.148 0.148-0.222 0.148z"></path>
      <path fill="#5090fc" style="fill: var(--color1, #5090fc)" d="M22.36 27.82c-0.074 0-0.186-0.037-0.26-0.111l-1.486-1.486c-0.148-0.149-0.148-0.372 0-0.483l1.486-1.486c0.149-0.149 0.371-0.149 0.483 0 0.149 0.149 0.149 0.371 0 0.483l-1.226 1.226 1.226 1.226c0.149 0.149 0.149 0.372 0 0.483-0.037 0.111-0.149 0.148-0.223 0.148z"></path>
      <path fill="#5090fc" style="fill: var(--color1, #5090fc)" d="M25.443 27.82c-0.075 0-0.186-0.037-0.26-0.111l-1.486-1.486c-0.149-0.149-0.149-0.372 0-0.483l1.486-1.486c0.148-0.149 0.371-0.149 0.482 0 0.149 0.149 0.149 0.371 0 0.483l-1.226 1.226 1.226 1.226c0.149 0.149 0.149 0.372 0 0.483-0.037 0.111-0.111 0.148-0.222 0.148z"></path>
      <path fill="#5090fc" style="fill: var(--color1, #5090fc)" d="M28.526 27.82c-0.074 0-0.186-0.037-0.26-0.111l-1.486-1.486c-0.148-0.149-0.148-0.372 0-0.483l1.486-1.486c0.149-0.149 0.371-0.149 0.483 0 0.149 0.149 0.149 0.371 0 0.483l-1.226 1.226 1.226 1.226c0.149 0.149 0.149 0.372 0 0.483-0.037 0.111-0.149 0.148-0.223 0.148z"></path>
      <path fill="#5090fc" style="fill: var(--color1, #5090fc)" d="M31.609 27.82c-0.075 0-0.186-0.037-0.26-0.111l-1.486-1.486c-0.149-0.149-0.149-0.372 0-0.483l1.486-1.486c0.148-0.149 0.371-0.149 0.482 0 0.149 0.149 0.149 0.371 0 0.483l-1.226 1.226 1.226 1.226c0.149 0.149 0.149 0.372 0 0.483-0.037 0.111-0.148 0.148-0.222 0.148z"></path>
      <path fill="#5090fc" style="fill: var(--color1, #5090fc)" d="M34.692 27.82c-0.074 0-0.185-0.037-0.26-0.111l-1.486-1.486c-0.148-0.149-0.148-0.372 0-0.483l1.486-1.486c0.149-0.149 0.372-0.149 0.483 0 0.149 0.149 0.149 0.371 0 0.483l-1.226 1.226 1.226 1.226c0.149 0.149 0.149 0.372 0 0.483-0.037 0.111-0.149 0.148-0.223 0.148z"></path>
      <path fill="#5090fc" style="fill: var(--color1, #5090fc)" d="M37.775 27.82c-0.075 0-0.186-0.037-0.26-0.111l-1.486-1.486c-0.149-0.149-0.149-0.372 0-0.483l1.486-1.486c0.148-0.149 0.371-0.149 0.482 0 0.149 0.149 0.149 0.371 0 0.483l-1.226 1.226 1.226 1.226c0.149 0.149 0.149 0.372 0 0.483-0.037 0.111-0.148 0.148-0.222 0.148z"></path>
      <path fill="#5090fc" style="fill: var(--color1, #5090fc)" d="M40.895 27.82c-0.074 0-0.185-0.037-0.26-0.111l-1.486-1.486c-0.148-0.149-0.148-0.372 0-0.483l1.486-1.486c0.149-0.149 0.372-0.149 0.483 0 0.149 0.149 0.149 0.371 0 0.483l-1.226 1.226 1.226 1.226c0.149 0.149 0.149 0.372 0 0.483-0.074 0.111-0.148 0.148-0.223 0.148z"></path>
      <path fill="#5090fc" style="fill: var(--color1, #5090fc)" d="M40.152 10.474c0.903 0 1.634 0.732 1.634 1.634s-0.732 1.635-1.634 1.635-1.635-0.732-1.635-1.635c0-0.902 0.732-1.634 1.635-1.634z"></path>
      <path fill="#5090fc" style="fill: var(--color1, #5090fc)" d="M22.132 7.958c-0.24 0-0.437 0.196-0.437 0.437s0.197 0.437 0.437 0.437h12.057c0.24 0 0.437-0.196 0.437-0.437s-0.197-0.437-0.437-0.437h-12.057z"></path>
      <path fill="#5090fc" style="fill: var(--color1, #5090fc)" d="M22.189 11.682c-0.24 0-0.437 0.196-0.437 0.437s0.197 0.437 0.437 0.437h11.999c0.24 0 0.437-0.196 0.437-0.437s-0.197-0.437-0.437-0.437h-11.999z"></path>
      <path fill="#5090fc" style="fill: var(--color1, #5090fc)" d="M22.189 15.386c-0.24 0-0.437 0.196-0.437 0.437s0.197 0.437 0.437 0.437h11.999c0.24 0 0.437-0.196 0.437-0.437s-0.197-0.437-0.437-0.437h-11.999z"></path>
      <path fill="#5090fc" style="fill: var(--color1, #5090fc)" d="M22.189 18.983c-0.24 0-0.437 0.196-0.437 0.437s0.197 0.437 0.437 0.437h5.006c0.24 0 0.437-0.196 0.437-0.437s-0.197-0.437-0.437-0.437h-5.006z"></path>
      <path fill="#5090fc" style="fill: var(--color1, #5090fc)" d="M29.183 18.983c-0.24 0-0.437 0.196-0.437 0.437s0.197 0.437 0.437 0.437h5.006c0.24 0 0.437-0.196 0.437-0.437s-0.197-0.437-0.437-0.437h-5.006z"></path>
      <path fill="#5090fc" style="fill: var(--color1, #5090fc)" d="M8.817 12.819c0.162 0.835 0.94 1.423 1.426 1.639 0.292 0.124 0.584 0.186 0.876 0.186s0.584-0.062 0.876-0.186c0.486-0.216 1.265-0.804 1.427-1.639 0.097-0.495 0.584 0 0.681-1.144 0-0.463-0.259-0.556-0.259-0.556s0.13-0.681 0.195-1.206c0.064-0.65-0.39-2.319-2.854-2.319h-0.065c-2.464 0-2.918 1.67-2.853 2.319 0.065 0.526 0.195 1.206 0.195 1.206s-0.324 0.093-0.324 0.556c0.097 1.144 0.583 0.65 0.681 1.144z"></path>
      <path fill="#5090fc" style="fill: var(--color1, #5090fc)" d="M16.442 17.497c-1.197-0.569-2.93-1.318-3.024-1.348-0.063-0.030-0.095-0.030-0.157-0.030-0.189 0-0.378 0.12-0.441 0.3-0.315 0.719-0.883 1.978-1.229 2.577l-0.095-1.678c0 0 0.536-1.079 0.598-1.168 0.126-0.24 0-0.42-0.252-0.42h-1.512c-0.252 0-0.378 0.21-0.252 0.42 0.063 0.089 0.599 1.168 0.599 1.168l-0.095 1.708c-0.347-0.599-0.913-1.888-1.229-2.577-0.063-0.18-0.252-0.3-0.441-0.3-0.063 0-0.095 0-0.158 0.030-0.095 0.030-1.827 0.749-3.024 1.348-0.536 0.27-0.85 0.6-0.85 0.929v2.697h12.475v-2.697c-0.063-0.36-0.378-0.689-0.913-0.959z"></path>
    </svg>