    <svg version="1.1" xmlns="http://www.w3.org/2000/svg" xmlns:xlink="http://www.w3.org/1999/xlink" id="upload_bill_drop" viewBox="0 0 46 32">
      <title>upload_bill_drop</title>
      <path fill="#5090fc" style="fill: var(--color1, #5090fc)" d="M43.625 0.092h-41.117c-1.216 0-2.204 0.975-2.204 2.176v27.313c0 1.201 0.988 2.176 2.204 2.176v0h41.117c1.216 0 2.204-0.975 2.204-2.176v0-27.313c0-1.201-0.988-2.176-2.204-2.176v0zM44.765 29.582c0 0.6-0.456 1.126-1.064 1.126h-41.193c-0.608 0-1.14-0.45-1.14-1.126v-27.313c0-0.6 0.532-1.126 1.14-1.126v0h41.117c0.608 0 1.14 0.525 1.14 1.126 0 0 0 27.313 0 27.313z"></path>
      <path fill="#5090fc" style="fill: var(--color1, #5090fc)" d="M38.298 1.185h0.998v0.756h-0.998z"></path>
      <path fill="#5090fc" style="fill: var(--color1, #5090fc)" d="M39.296 29.065h-0.998v-1.511h0.998v1.511zM39.296 26.043h-0.998v-1.511h0.998v1.511zM39.296 23.021h-0.998v-1.511h0.998v1.511zM39.296 19.999h-0.998v-1.511h0.998v1.511zM39.296 17.052h-0.998v-1.511h0.998v1.511zM39.296 14.030h-0.998v-1.511h0.998v1.511zM39.296 11.007h-0.998v-1.511h0.998v1.511zM39.296 7.985h-0.998v-1.511h0.998v1.511zM39.296 4.963h-0.998v-1.511h0.998v1.511z"></path>
      <path fill="#5090fc" style="fill: var(--color1, #5090fc)" d="M38.298 30.576h0.998v0.756h-0.998z"></path>
      <path fill="#5090fc" style="fill: var(--color1, #5090fc)" d="M32.54 8.816h-26.334c-0.307 0-0.537-0.227-0.537-0.453s0.23-0.453 0.537-0.453h26.257c0.307 0 0.537 0.227 0.537 0.453s-0.23 0.453-0.461 0.453z"></path>
      <path fill="#5090fc" style="fill: var(--color1, #5090fc)" d="M17.031 26.119h-10.825c-0.307 0-0.461-0.227-0.461-0.529s0.23-0.529 0.461-0.529h10.825c0.307 0 0.461 0.227 0.461 0.529s-0.154 0.529-0.461 0.529z"></path>
      <path fill="#5090fc" style="fill: var(--color1, #5090fc)" d="M32.54 26.119h-10.902c-0.307 0-0.537-0.227-0.537-0.529s0.23-0.529 0.537-0.529h10.825c0.307 0 0.537 0.227 0.537 0.529s-0.23 0.529-0.461 0.529z"></path>
      <path fill="#5090fc" style="fill: var(--color1, #5090fc)" d="M10.428 28.385h-4.223c-0.307 0-0.461-0.227-0.461-0.529s0.23-0.529 0.461-0.529h4.223c0.307 0 0.461 0.227 0.461 0.529s-0.154 0.529-0.461 0.529z"></path>
      <path fill="#5090fc" style="fill: var(--color1, #5090fc)" d="M18.72 6.247h-12.514c-0.307 0-0.461-0.227-0.461-0.453s0.23-0.453 0.461-0.453h12.514c0.307 0 0.461 0.227 0.461 0.453s-0.23 0.453-0.461 0.453z"></path>
      <path fill="#5090fc" style="fill: var(--color1, #5090fc)" d="M32.079 19.621h-25.489c-0.461 0-0.845-0.378-0.845-0.831v-7.556c0-0.453 0.384-0.831 0.845-0.831h25.566c0.461 0 0.845 0.378 0.845 0.831v7.556c0 0.076 0 0.076 0 0.151-0.154 0.453-0.461 0.68-0.921 0.68zM6.743 18.639h25.259v-7.253h-25.259v7.253z"></path>
      <path fill="#5090fc" style="fill: var(--color1, #5090fc)" d="M32.079 23.776h-25.489c-0.461 0-0.845-0.378-0.845-0.831v-1.36c0-0.453 0.384-0.831 0.845-0.831h25.566c0.461 0 0.845 0.378 0.845 0.831v1.36c0 0.076 0 0.076 0 0.151-0.154 0.378-0.461 0.68-0.921 0.68zM6.743 22.794h25.259v-0.982h-25.259v0.982z"></path>
    </svg>