    <svg version="1.1" xmlns="http://www.w3.org/2000/svg" xmlns:xlink="http://www.w3.org/1999/xlink" id="upload_bank_drop" viewBox="0 0 26 32">
      <title>upload_bank_drop</title>
      <path fill="#5090fc" style="fill: var(--color1, #5090fc)" d="M18.961 15.832h-11.92c-0.222 0-0.388-0.168-0.388-0.337 0-0.225 0.166-0.393 0.333-0.393 0 0 0 0 0 0h11.92c0.222 0 0.388 0.168 0.388 0.337 0.055 0.225-0.111 0.393-0.333 0.393 0 0 0 0 0 0z"></path>
      <path fill="#5090fc" style="fill: var(--color1, #5090fc)" d="M19.086 9.825h-5.52c-0.158 0-0.263-0.146-0.263-0.365s0.105-0.365 0.263-0.365h5.52c0.158 0 0.263 0.146 0.263 0.365s-0.105 0.365-0.263 0.365z"></path>
      <path fill="#5090fc" style="fill: var(--color1, #5090fc)" d="M19.349 11.425v0c0 0.219-0.105 0.365-0.263 0.365h-5.52c-0.158 0-0.263-0.146-0.263-0.365v0c0-0.219 0.105-0.365 0.263-0.365h5.52c0.158 0 0.263 0.146 0.263 0.365z"></path>
      <path fill="#5090fc" style="fill: var(--color1, #5090fc)" d="M19.086 14.001h-5.52c-0.158 0-0.263-0.146-0.263-0.365s0.105-0.365 0.263-0.365h5.52c0.158 0 0.263 0.146 0.263 0.365s-0.105 0.365-0.263 0.365z"></path>
      <path fill="#5090fc" style="fill: var(--color1, #5090fc)" d="M11.643 9.095h-4.324c-0.388 0-0.665 0.291-0.665 0.699v3.262c0 0.349 0.277 0.699 0.665 0.699h4.324c0.333 0 0.665-0.349 0.61-0.699v-3.262c0-0.349-0.277-0.699-0.61-0.699zM11.532 12.997h-4.158v-3.087h4.158v3.087z"></path>
      <path fill="#5090fc" style="fill: var(--color1, #5090fc)" d="M25.835 11.284l-1.386-1.403v-2.582c0-0.112-0.055-0.168-0.111-0.225l-4.99-5.053c-0.055-0.056-0.166-0.112-0.222-0.112h-16.078c-0.832 0-1.497 0.674-1.497 1.516 0 0 0 2.152 0 6.456l-1.331 1.235-0.166 0.168c-0.055 0.112-0.055 0.505-0.055 0.561v19.144c0 0.337 0.277 0.674 0.665 0.674h24.727c0.333 0 0.61-0.281 0.61-0.674v-19.144c0-0.112 0-0.393-0.166-0.561zM24.449 10.947l0.721 0.674-0.665 0.618v-1.291h-0.055zM19.404 3.144l4.047 4.098h-3.271c-0.444 0-0.721-0.337-0.721-0.73v-3.368h-0.055zM2.273 3.425c0-0.449 0.333-0.73 0.721-0.73 0 0 5.23 0 15.69 0v3.818c0 0.842 0.665 1.516 1.441 1.516h3.548v4.884l-7.928 6.961-0.499-0.561c-1.164-1.291-3.16-1.347-4.435-0.168-0.055 0.056-0.111 0.112-0.166 0.168l-0.499 0.561-6.376-5.614-0.166-0.112-1.331-1.235v-9.488zM1.552 10.835v1.403l-0.776-0.674 0.776-0.73zM0.721 12.463l8.947 7.968-8.115 8.93-0.832 0.954v-17.853zM1.164 30.877l1.109-1.235 8.926-9.825c0.887-1.011 2.439-1.067 3.437-0.112l0.111 0.112 0.721 0.786 3.659 4.042 3.936 4.323 0.333 0.393 0.222 0.281 0.111 0.112 0.333 0.393 0.055 0.056 0.554 0.618h-23.507v0.056zM25.281 30.372l-0.832-0.954-0.277-0.281-0.333-0.393-0.388-0.393-0.333-0.393-6.819-7.579 9.037-7.916v17.909h-0.055zM16.189 1.909h-1.053l-0.554-0.505c-0.943-0.898-2.384-0.898-3.326 0l-0.554 0.505h-1.053l1.053-1.067c0.721-0.561 1.497-0.842 2.273-0.842s1.552 0.281 2.162 0.898l1.053 1.011z"></path>
    </svg>