    <svg version="1.1" xmlns="http://www.w3.org/2000/svg" xmlns:xlink="http://www.w3.org/1999/xlink" id="upload_other" viewBox="0 0 27 32">
      <title>upload other</title>
      <path fill="#cacfd5" style="fill: var(--color1, #cacfd5)" d="M2.297 2.354l15.728 0.313 5.36 5.131v22.581c0 0.368-0.298 0.667-0.667 0.667h-20.746c-0.365 0-0.662-0.293-0.667-0.657l-0.369-26.683c-0.010-0.736 0.578-1.341 1.315-1.352 0.015-0 0.030-0 0.045 0z"></path>
      <path fill="#26334b" style="fill: var(--color2, #26334b)" d="M23.155 29.092v0.949c0 0.419-0.343 0.758-0.766 0.758h-20.323c-0.422-0.003-0.763-0.341-0.766-0.758v-26.493c0.003-0.417 0.344-0.755 0.766-0.758h0.76v-0.73h-0.738c-0.404-0.007-0.793 0.146-1.082 0.426s-0.45 0.663-0.45 1.062v26.493c0 0.819 0.67 1.485 1.498 1.488h20.335c0.83 0 1.504-0.666 1.504-1.488v-0.949h-0.738z"></path>
      <path fill="#fff" style="fill: var(--color3, #fff)" d="M4.614 0.42h16.026l5.36 5.131-0.337 22.262c-0.006 0.364-0.302 0.657-0.667 0.657h-20.803c-0.366 0-0.663-0.295-0.667-0.66l-0.246-26.043c-0.007-0.736 0.584-1.339 1.321-1.346 0.004-0 0.008-0 0.013-0z"></path>
      <path fill="#cacfd5" style="fill: var(--color1, #cacfd5)" d="M8.667 8h4.667v4h-4.667v-4z"></path>
      <path fill="#cacfd5" style="fill: var(--color1, #cacfd5)" d="M25.933 5.488h-4.315c-0.368 0-0.667-0.298-0.667-0.667v-4.4l4.982 5.067z"></path>
      <path fill="#26334b" style="fill: var(--color2, #26334b)" d="M26.128 5.159l-5.106-5.053c-0.070-0.068-0.163-0.106-0.261-0.107h-16.454c-0.821 0.012-1.481 0.675-1.481 1.488v26.116c0 0.822 0.673 1.488 1.504 1.488h20.426c0.83 0 1.504-0.666 1.504-1.488v-22.187c-0.008-0.1-0.055-0.192-0.131-0.258zM21.952 2.060l0.868 0.859c0.070 0.050 0.131 0.11 0.182 0.18v0l0.891 0.876 1.333 1.319h-3.37c-0.204 0.002-0.399-0.078-0.543-0.22s-0.224-0.336-0.223-0.538v-3.329l0.862 0.853zM25.521 27.604c0.002 0.201-0.079 0.395-0.223 0.538s-0.34 0.222-0.543 0.22h-20.426c-0.204 0.002-0.399-0.078-0.543-0.22s-0.224-0.336-0.223-0.538v-26.116c0-0.419 0.343-0.758 0.766-0.758h16.023v3.806c0 0.822 0.673 1.488 1.504 1.488h3.665v21.58z"></path>
      <path fill="#26334b" style="fill: var(--color2, #26334b)" d="M13.101 12.355h-4.409c-0.358 0-0.649-0.286-0.652-0.64v-3.234c0.003-0.354 0.294-0.64 0.652-0.64h4.409c0.358 0 0.649 0.286 0.652 0.64v3.234c-0.003 0.354-0.294 0.64-0.652 0.64v0zM8.777 11.631h4.261v-3.060h-4.261v3.060z"></path>
      <path fill="#26334b" style="fill: var(--color2, #26334b)" d="M20.737 8.508h-5.591c-0.147 0-0.267-0.149-0.267-0.333s0.12-0.333 0.267-0.333h5.591c0.146 0.004 0.264 0.151 0.267 0.333 0 0.184-0.12 0.333-0.267 0.333z"></path>
      <path fill="#26334b" style="fill: var(--color2, #26334b)" d="M20.737 10.473h-5.591c-0.147 0-0.267-0.149-0.267-0.333s0.12-0.333 0.267-0.333h5.591c0.147 0 0.267 0.149 0.267 0.333s-0.12 0.333-0.267 0.333z"></path>
      <path fill="#26334b" style="fill: var(--color2, #26334b)" d="M20.737 12.46h-5.591c-0.147 0-0.267-0.149-0.267-0.333s0.12-0.333 0.267-0.333h5.591c0.147 0 0.267 0.149 0.267 0.333s-0.12 0.333-0.267 0.333z"></path>
      <path fill="#26334b" style="fill: var(--color2, #26334b)" d="M20.624 15.029h-12.204c-0.204 0-0.369-0.163-0.369-0.365s0.165-0.365 0.369-0.365h12.204c0.204 0 0.369 0.163 0.369 0.365s-0.165 0.365-0.369 0.365v0z"></path>
      <path fill="#26334b" style="fill: var(--color2, #26334b)" d="M20.624 17.836h-12.204c-0.132 0-0.254-0.070-0.319-0.182s-0.066-0.252 0-0.365c0.066-0.113 0.188-0.182 0.319-0.182h12.204c0.204 0 0.369 0.163 0.369 0.365s-0.165 0.365-0.369 0.365v0z"></path>
      <path fill="#26334b" style="fill: var(--color2, #26334b)" d="M20.624 20.643h-12.204c-0.132 0-0.254-0.070-0.319-0.182s-0.066-0.252 0-0.365c0.066-0.113 0.188-0.182 0.319-0.182h12.204c0.132 0 0.253 0.070 0.319 0.182s0.066 0.252 0 0.365c-0.066 0.113-0.188 0.182-0.319 0.182v0z"></path>
      <path fill="#26334b" style="fill: var(--color2, #26334b)" d="M20.624 23.45h-12.204c-0.204 0-0.369-0.163-0.369-0.365s0.165-0.365 0.369-0.365h12.204c0.204 0 0.369 0.163 0.369 0.365s-0.165 0.365-0.369 0.365v0z"></path>
    </svg>