    <svg version="1.1" xmlns="http://www.w3.org/2000/svg" xmlns:xlink="http://www.w3.org/1999/xlink" id="upload_driver_licence" viewBox="0 0 44 32">
      <title>upload_driver_licence</title>
      <path fill="#cacfd5" style="fill: var(--color2, #cacfd5)" d="M2.526 3.368h35.368c0.93 0 1.684 0.754 1.684 1.684v24.421c0 0.93-0.754 1.684-1.684 1.684h-35.368c-0.93 0-1.684-0.754-1.684-1.684v-24.421c0-0.93 0.754-1.684 1.684-1.684z"></path>
      <path fill="#26334b" style="fill: var(--color3, #26334b)" d="M39.411 28.502v0.967c0 0.521-0.371 1.042-0.965 1.042 0 0 0 0-0.074 0h-36.368c-0.52 0-0.965-0.447-1.039-0.967 0 0 0 0 0-0.074v-24.558c0-0.521 0.445-1.042 0.965-1.042v0h1.039v-0.893h-0.965c-1.113 0-2.004 0.893-2.004 1.935v24.558c0 1.116 0.891 2.009 1.93 2.009 0 0 0 0 0 0h36.442c1.113 0 2.004-0.893 2.004-1.935 0 0 0 0 0 0v-0.967h-0.965v-0.074z"></path>
      <path fill="#fff" style="fill: var(--color4, #fff)" d="M5.053 0.842h36.211c0.93 0 1.684 0.754 1.684 1.684v23.579c0 0.93-0.754 1.684-1.684 1.684h-36.211c-0.93 0-1.684-0.754-1.684-1.684v-23.579c0-0.93 0.754-1.684 1.684-1.684z"></path>
      <path fill="#26334b" style="fill: var(--color3, #26334b)" d="M41.34 0h-36.442c-1.039 0-1.93 0.893-1.93 1.935v24.558c0 1.116 0.891 2.009 1.93 2.009 0 0 0 0 0 0h36.442c1.113 0 2.004-0.893 2.004-1.935 0 0 0 0 0 0v-24.558c0-1.116-0.891-2.009-2.004-2.009 0 0 0 0 0 0zM42.379 26.567c0 0.521-0.371 1.042-0.965 1.042 0 0 0 0-0.074 0h-36.442c-0.52 0-0.965-0.447-1.039-0.967 0 0 0 0 0-0.074v-24.558c0-0.521 0.445-1.042 0.965-1.042v0h36.442c0.52 0 0.965 0.446 0.965 1.042l0.148 24.558z"></path>
      <path fill="#26334b" style="fill: var(--color3, #26334b)" d="M34.456 8.633h-8.849c-0.251 0-0.377-0.223-0.377-0.521s0.188-0.447 0.377-0.447h8.849c0.251 0 0.439 0.223 0.439 0.447 0 0.298-0.188 0.521-0.439 0.521 0 0 0 0 0 0z"></path>
      <path fill="#26334b" style="fill: var(--color3, #26334b)" d="M38.473 13.172h-12.866c-0.251 0-0.377-0.223-0.377-0.521s0.188-0.447 0.377-0.447h12.866c0.251 0 0.439 0.223 0.439 0.447 0 0.372-0.188 0.521-0.439 0.521 0 0 0 0 0 0z"></path>
      <path fill="#26334b" style="fill: var(--color3, #26334b)" d="M38.473 16.893h-12.866c-0.251 0-0.377-0.223-0.377-0.521s0.188-0.447 0.377-0.447h12.866c0.251 0 0.439 0.223 0.439 0.447 0 0.372-0.188 0.521-0.439 0.521 0 0 0 0 0 0z"></path>
      <path fill="#26334b" style="fill: var(--color3, #26334b)" d="M38.473 20.614h-12.866c-0.251 0-0.377-0.223-0.377-0.521s0.188-0.447 0.377-0.447h12.866c0.251 0 0.377 0.223 0.377 0.521 0.063 0.298-0.126 0.447-0.377 0.447z"></path>
      <path fill="#26334b" style="fill: var(--color3, #26334b)" d="M22.143 12.428l-0.297-0.447c0 0 0 0 0.074 0 0.445 0 0.742-0.298 0.742-0.595 0-0.372-0.371-0.595-0.742-0.595-0.223 0-0.371 0.074-0.52 0.149l-1.039-2.381c-0.223-0.447-0.668-0.744-1.188-0.744h-8.535c-0.52 0-0.965 0.298-1.188 0.744l-1.039 2.381c-0.148-0.074-0.297-0.149-0.52-0.149-0.445 0-0.742 0.298-0.742 0.595 0 0.372 0.371 0.595 0.742 0.595v0 0l-0.297 0.447c-0.371 0.521-0.52 1.191-0.52 1.86v4.019c0 0.149 0.074 0.298 0.148 0.372v1.637c0 0.223 0.148 0.372 0.371 0.372h1.559c0.223 0 0.371-0.149 0.371-0.372v-1.563h10.688v1.563c0 0.223 0.148 0.372 0.371 0.372h1.559c0.223 0 0.371-0.149 0.371-0.372v-1.712c0.074-0.074 0.148-0.223 0.148-0.372v-4.019c0-0.595-0.148-1.191-0.52-1.786zM10.342 8.856c0.074-0.149 0.148-0.223 0.297-0.223h8.461c0.148 0 0.223 0.074 0.297 0.223l1.262 2.828h-11.578l1.262-2.828zM8.784 19.944h-0.816v-1.191h0.816v1.191zM17.987 17.86h-6.309v-0.521h6.309v0.521zM18.729 17.786v-0.819c0-0.223-0.148-0.372-0.371-0.372h-7.051c-0.223 0-0.371 0.149-0.371 0.372v0.819h-2.969v-3.498c0-0.447 0.148-0.893 0.371-1.265l0.223-0.372h12.543l0.223 0.372c0.223 0.372 0.371 0.819 0.371 1.265v3.498h-2.969zM21.772 19.944h-0.816v-1.191h0.816v1.191z"></path>
      <path fill="#26334b" style="fill: var(--color3, #26334b)" d="M18.655 14.065c-0.074-0.149-0.223-0.223-0.297-0.223h-6.902c-0.148 0-0.223 0.074-0.297 0.223-0.074 0.074-0.074 0.223 0 0.372l0.816 1.34c0.074 0.149 0.223 0.149 0.297 0.149h5.27c0.148 0 0.223-0.074 0.297-0.149l0.816-1.34c0.074-0.149 0.074-0.298 0-0.372zM17.245 15.181h-4.824l-0.371-0.595h5.566l-0.371 0.595z"></path>
      <path fill="#26334b" style="fill: var(--color3, #26334b)" d="M20.362 13.842c-0.594 0-1.039 0.447-1.039 1.042s0.445 1.042 1.039 1.042c0.594 0 1.039-0.447 1.039-1.042s-0.52-1.042-1.039-1.042zM20.362 15.181c-0.148 0-0.297-0.149-0.297-0.298s0.148-0.298 0.297-0.298c0.148 0 0.297 0.149 0.297 0.298s-0.148 0.298-0.297 0.298z"></path>
      <path fill="#26334b" style="fill: var(--color3, #26334b)" d="M9.674 13.842c-0.594 0-1.039 0.447-1.039 1.042s0.445 1.042 1.039 1.042c0.594 0 1.039-0.447 1.039-1.042s-0.445-1.042-1.039-1.042zM9.674 15.181c-0.148 0-0.297-0.149-0.297-0.298s0.148-0.298 0.297-0.298c0.148 0 0.297 0.149 0.297 0.298s-0.074 0.298-0.297 0.298z"></path>
    </svg>