    <svg version="1.1" xmlns="http://www.w3.org/2000/svg" xmlns:xlink="http://www.w3.org/1999/xlink" id="upload_card_front_drop" viewBox="0 0 47 32">
      <title>upload_card_front_drop</title>
      <path fill="none" stroke="#5090fc" style="stroke: var(--color1, #5090fc)" stroke-linejoin="miter" stroke-linecap="butt" stroke-miterlimit="4" stroke-width="0.7273" d="M2.545 0.364h41.818c1.2 0 2.182 0.982 2.182 2.182v26.909c0 1.2-0.982 2.182-2.182 2.182h-41.818c-1.2 0-2.182-0.982-2.182-2.182v-26.909c0-1.2 0.982-2.182 2.182-2.182z"></path>
      <path fill="#5090fc" style="fill: var(--color1, #5090fc)" d="M37.161 13.688l0.436-2.473h0.691l-0.436 2.473h-0.691z"></path>
      <path fill="#5090fc" style="fill: var(--color1, #5090fc)" d="M40.361 11.252c-0.145-0.036-0.364-0.109-0.618-0.109-0.691 0-1.164 0.327-1.164 0.8 0 0.364 0.327 0.545 0.618 0.691 0.255 0.109 0.364 0.182 0.364 0.291 0 0.182-0.218 0.255-0.4 0.255-0.291 0-0.436-0.036-0.655-0.145l-0.073-0.036-0.109 0.545c0.145 0.073 0.473 0.145 0.764 0.145 0.727 0 1.2-0.327 1.2-0.836 0-0.291-0.182-0.509-0.582-0.691-0.255-0.109-0.4-0.182-0.4-0.291s0.109-0.218 0.4-0.218c0.218 0 0.4 0.036 0.509 0.109l0.073 0.036 0.073-0.545z"></path>
      <path fill="#5090fc" style="fill: var(--color1, #5090fc)" d="M41.27 12.816c0.073-0.145 0.291-0.691 0.291-0.691s0.073-0.145 0.109-0.218l0.036 0.218c0 0 0.145 0.582 0.145 0.727h-0.582v-0.036zM42.106 11.216h-0.545c-0.182 0-0.291 0.036-0.364 0.218l-0.982 2.255h0.727c0 0 0.109-0.291 0.145-0.364 0.073 0 0.8 0 0.873 0 0.036 0.073 0.073 0.364 0.073 0.364h0.655l-0.582-2.473z"></path>
      <path fill="#5090fc" style="fill: var(--color1, #5090fc)" d="M36.579 11.216l-0.691 1.673-0.073-0.327c-0.109-0.4-0.509-0.836-0.945-1.055l0.618 2.182h0.727l1.091-2.473h-0.727z"></path>
      <path fill="#5090fc" style="fill: var(--color1, #5090fc)" d="M35.27 11.216h-1.091v0.036c0.873 0.218 1.455 0.691 1.673 1.309l-0.255-1.164c-0.036-0.145-0.182-0.182-0.327-0.182z"></path>
      <path fill="#5090fc" style="fill: var(--color1, #5090fc)" d="M39.818 7.164h-2.545c0 0.109 0.036 0.182 0.036 0.291 0 0.036 0.036 0.073 0.036 0.109h2.364c-0.036 0.145-0.109 0.291-0.182 0.436h-2.036c0.036 0.109 0.109 0.218 0.182 0.327h1.636c-0.109 0.145-0.255 0.291-0.4 0.4 0 0 0 0-0.036 0.036h-0.909c-0.364 0.255-0.8 0.4-1.309 0.4-0.691 0-1.273-0.291-1.673-0.764-0.255-0.291-0.436-0.655-0.509-1.018-0.073-0.182-0.109-0.327-0.109-0.509 0-1.236 1.018-2.255 2.255-2.255 0.473 0 0.873 0.145 1.236 0.364 0 0.036-0.036 0.073-0.073 0.109h1.382c0.073 0.073 0.145 0.182 0.182 0.255s0.109 0.109 0.145 0.182h-1.964c-0.073 0.109-0.109 0.255-0.145 0.364h2.255c0.073 0.145 0.109 0.291 0.145 0.436h-2.509c-0.036 0.109-0.036 0.255-0.036 0.364h2.618c0 0.036 0 0.073 0 0.109 0 0.109-0.036 0.255-0.036 0.364zM42.509 5.418c-0.218-0.4-0.509-0.727-0.873-0.945-0.473-0.291-0.982-0.473-1.564-0.473-0.655 0-1.273 0.255-1.745 0.618-0.473-0.327-1.018-0.545-1.636-0.545-1.6 0-2.873 1.309-2.873 2.873 0 0.255 0.036 0.473 0.109 0.691 0.073 0.364 0.255 0.727 0.473 1.018 0.509 0.691 1.345 1.127 2.255 1.127 0.691 0 1.273-0.255 1.782-0.655 0.473 0.327 1.018 0.545 1.636 0.545 1.564 0 2.836-1.273 2.836-2.836 0-0.509-0.145-0.982-0.4-1.418z"></path>
      <path fill="#5090fc" style="fill: var(--color1, #5090fc)" d="M5.799 7.115h-1.527c0.218-0.727 0.8-1.309 1.527-1.527v1.527z"></path>
      <path fill="#5090fc" style="fill: var(--color1, #5090fc)" d="M8.49 7.115v0h-0.436v2.509h-1.382v-4.145h1.636c1.018 0 1.891 0.691 2.182 1.636h-2z"></path>
      <path fill="#5090fc" style="fill: var(--color1, #5090fc)" d="M10.563 9.588c0 0 0 0.036 0 0.036h-1.636v-1.636h1.636v1.6z"></path>
      <path fill="#5090fc" style="fill: var(--color1, #5090fc)" d="M8.927 10.497h1.455c-0.255 0.618-0.8 1.091-1.455 1.273v-1.273z"></path>
      <path fill="#5090fc" style="fill: var(--color1, #5090fc)" d="M6.672 11.878h1.418v-1.382h-1.418z"></path>
      <path fill="#5090fc" style="fill: var(--color1, #5090fc)" d="M5.799 11.769c-0.655-0.182-1.2-0.655-1.455-1.273h1.455v1.273z"></path>
      <path fill="#5090fc" style="fill: var(--color1, #5090fc)" d="M4.163 9.588v-1.6h1.636v1.673h-1.636c0-0.036 0-0.036 0-0.073v0z"></path>
      <path fill="#5090fc" style="fill: var(--color1, #5090fc)" d="M4.036 19.709v-0.327h0.8v2.8h-0.4v-2.473h-0.4z"></path>
      <path fill="#5090fc" style="fill: var(--color1, #5090fc)" d="M6.509 20.982c0.255-0.291 0.4-0.582 0.4-0.836 0-0.145-0.036-0.291-0.109-0.4s-0.218-0.145-0.4-0.145c-0.182 0-0.327 0.073-0.436 0.182s-0.145 0.291-0.145 0.473h-0.364c0.036-0.327 0.109-0.545 0.291-0.727s0.4-0.255 0.691-0.255c0.255 0 0.473 0.073 0.618 0.218s0.218 0.327 0.218 0.582c0 0.218-0.073 0.436-0.218 0.655s-0.327 0.436-0.509 0.618c-0.218 0.182-0.436 0.364-0.655 0.473h1.418v0.364h-1.927v-0.255c0.509-0.327 0.873-0.618 1.127-0.945z"></path>
      <path fill="#5090fc" style="fill: var(--color1, #5090fc)" d="M9.309 19.382c0.145 0.073 0.218 0.145 0.291 0.255s0.109 0.255 0.109 0.364c0 0.182-0.036 0.327-0.145 0.436s-0.255 0.182-0.436 0.218v0.073c0.218 0.036 0.364 0.145 0.473 0.255s0.182 0.255 0.182 0.473c0 0.218-0.073 0.436-0.218 0.582s-0.364 0.218-0.655 0.218-0.509-0.073-0.691-0.218c-0.182-0.145-0.291-0.364-0.327-0.655h0.364c0.036 0.182 0.109 0.327 0.218 0.436s0.255 0.145 0.436 0.145c0.182 0 0.327-0.036 0.4-0.145 0.109-0.109 0.145-0.218 0.145-0.364 0-0.182-0.073-0.327-0.218-0.4-0.145-0.109-0.327-0.145-0.582-0.145h-0.109v-0.291h0.109c0.473 0 0.727-0.182 0.727-0.509 0-0.145-0.036-0.255-0.145-0.327-0.073-0.073-0.218-0.145-0.364-0.145s-0.291 0.036-0.4 0.145-0.182 0.218-0.182 0.4h-0.364c0.036-0.255 0.109-0.473 0.291-0.618s0.4-0.218 0.691-0.218c0.109-0.073 0.255-0.036 0.4 0.036z"></path>
      <path fill="#5090fc" style="fill: var(--color1, #5090fc)" d="M10.218 21.527v-0.291l1.455-1.891h0.4v1.891h0.4v0.327h-0.4v0.618h-0.364v-0.655h-1.491zM11.709 19.782l-1.127 1.418h1.127v-1.418z"></path>
      <path fill="#5090fc" style="fill: var(--color1, #5090fc)" d="M15.891 19.636h-1.455v0.945c0.073-0.073 0.145-0.145 0.291-0.218s0.255-0.073 0.4-0.073c0.218 0 0.364 0.036 0.509 0.109s0.218 0.182 0.291 0.327c0.073 0.145 0.109 0.291 0.109 0.473 0 0.291-0.073 0.545-0.255 0.727-0.145 0.182-0.4 0.291-0.727 0.291-0.291 0-0.509-0.073-0.691-0.218s-0.291-0.364-0.291-0.618h0.364c0.036 0.182 0.109 0.291 0.218 0.4s0.255 0.145 0.4 0.145c0.218 0 0.364-0.073 0.473-0.182s0.145-0.291 0.145-0.473c0-0.182-0.036-0.364-0.145-0.473s-0.255-0.182-0.436-0.182c-0.145 0-0.255 0.036-0.364 0.073s-0.182 0.145-0.218 0.255h-0.364v-1.6h1.782v0.291z"></path>
      <path fill="#5090fc" style="fill: var(--color1, #5090fc)" d="M18 19.709c-0.109-0.109-0.218-0.145-0.4-0.145-0.218 0-0.4 0.073-0.509 0.255s-0.182 0.436-0.182 0.836v0.145c0.036-0.145 0.145-0.291 0.291-0.4s0.327-0.145 0.509-0.145c0.291 0 0.509 0.073 0.655 0.255s0.255 0.4 0.255 0.691c0 0.182-0.036 0.327-0.109 0.473s-0.182 0.255-0.327 0.327-0.327 0.109-0.545 0.109c-0.4 0-0.691-0.109-0.836-0.364s-0.218-0.582-0.218-1.018c0-0.509 0.073-0.873 0.255-1.127 0.145-0.255 0.436-0.364 0.8-0.364 0.255 0 0.473 0.073 0.618 0.218s0.218 0.364 0.255 0.582h-0.364c0-0.073-0.036-0.218-0.145-0.327zM17.164 21.709c0.109 0.145 0.291 0.182 0.509 0.182 0.182 0 0.327-0.073 0.436-0.182s0.182-0.255 0.182-0.473c0-0.218-0.073-0.364-0.182-0.509s-0.255-0.182-0.473-0.182c-0.109 0-0.218 0.036-0.327 0.073s-0.182 0.109-0.255 0.218-0.109 0.218-0.109 0.327c0.036 0.255 0.073 0.4 0.218 0.545z"></path>
      <path fill="#5090fc" style="fill: var(--color1, #5090fc)" d="M34.582 19.709v-0.327h0.8v2.8h-0.4v-2.473h-0.4z"></path>
      <path fill="#5090fc" style="fill: var(--color1, #5090fc)" d="M37.055 20.982c0.255-0.291 0.4-0.582 0.4-0.836 0-0.145-0.036-0.291-0.109-0.4s-0.218-0.145-0.4-0.145c-0.182 0-0.327 0.073-0.436 0.182s-0.145 0.291-0.145 0.509h-0.364c0.036-0.327 0.109-0.545 0.291-0.727s0.4-0.255 0.691-0.255c0.255 0 0.473 0.073 0.618 0.218s0.218 0.327 0.218 0.582c0 0.218-0.073 0.436-0.218 0.655s-0.327 0.436-0.509 0.618c-0.218 0.182-0.436 0.364-0.655 0.473h1.418v0.327h-1.927v-0.255c0.509-0.327 0.873-0.618 1.127-0.945z"></path>
      <path fill="#5090fc" style="fill: var(--color1, #5090fc)" d="M39.855 19.382c0.145 0.073 0.218 0.145 0.291 0.255s0.109 0.255 0.109 0.364c0 0.182-0.036 0.327-0.145 0.436s-0.255 0.182-0.436 0.218v0.073c0.218 0.036 0.364 0.145 0.473 0.255s0.182 0.255 0.182 0.473c0 0.218-0.073 0.436-0.218 0.582s-0.364 0.218-0.655 0.218c-0.291 0-0.509-0.073-0.691-0.218s-0.291-0.364-0.327-0.655h0.364c0.036 0.182 0.109 0.327 0.218 0.436s0.255 0.145 0.436 0.145c0.182 0 0.327-0.036 0.4-0.145 0.109-0.109 0.145-0.218 0.145-0.364 0-0.182-0.073-0.327-0.218-0.4-0.145-0.109-0.327-0.145-0.582-0.145h-0.109v-0.291h0.109c0.473 0 0.727-0.182 0.727-0.509 0-0.145-0.036-0.255-0.145-0.327-0.073-0.073-0.218-0.145-0.364-0.145s-0.291 0.036-0.4 0.145-0.182 0.218-0.182 0.4h-0.364c0.036-0.255 0.109-0.473 0.291-0.618s0.4-0.218 0.691-0.218c0.109-0.073 0.255-0.036 0.4 0.036z"></path>
      <path fill="#5090fc" style="fill: var(--color1, #5090fc)" d="M40.764 21.527v-0.291l1.455-1.891h0.4v1.891h0.4v0.327h-0.4v0.618h-0.364v-0.655h-1.491zM42.255 19.782l-1.127 1.418h1.127v-1.418z"></path>
      <path fill="#26334b" style="fill: var(--color3, #26334b)" d="M19.273 18.545h14.182v4h-14.182v-4z"></path>
      <path fill="#5090fc" style="fill: var(--color1, #5090fc)" d="M5.818 28h-0.255l-1.055-1.636v1.636h-0.255v-2.036h0.255l1.055 1.636v-1.636h0.255v2.036z"></path>
      <path fill="#5090fc" style="fill: var(--color1, #5090fc)" d="M7.345 26.509c0.109 0.073 0.182 0.182 0.218 0.327v-0.4h0.255v1.564h-0.255v-0.4c-0.036 0.145-0.109 0.218-0.218 0.327-0.109 0.073-0.255 0.109-0.4 0.109s-0.255-0.036-0.364-0.109c-0.109-0.073-0.182-0.145-0.255-0.291s-0.109-0.255-0.109-0.436c0-0.182 0.036-0.327 0.109-0.436s0.145-0.218 0.255-0.291c0.109-0.073 0.255-0.109 0.364-0.109 0.145 0.036 0.291 0.073 0.4 0.145zM6.655 26.764c-0.109 0.109-0.145 0.255-0.145 0.436s0.036 0.327 0.145 0.436c0.109 0.109 0.218 0.145 0.4 0.145 0.109 0 0.182-0.036 0.291-0.073 0.073-0.036 0.145-0.109 0.182-0.218 0.036-0.073 0.073-0.182 0.073-0.291s-0.036-0.218-0.073-0.291-0.109-0.145-0.182-0.218c-0.073-0.036-0.182-0.073-0.291-0.073-0.182 0-0.327 0.036-0.4 0.145z"></path>
      <path fill="#5090fc" style="fill: var(--color1, #5090fc)" d="M10.727 26.545c0.109 0.109 0.182 0.291 0.182 0.509v0.945h-0.255v-0.909c0-0.145-0.036-0.291-0.109-0.364s-0.182-0.109-0.327-0.109c-0.145 0-0.255 0.036-0.327 0.145s-0.109 0.218-0.109 0.4v0.836h-0.255v-0.909c0-0.145-0.036-0.291-0.109-0.364s-0.182-0.109-0.327-0.109c-0.145 0-0.255 0.036-0.327 0.145s-0.109 0.218-0.109 0.4v0.836h-0.255v-1.6h0.255v0.364c0.036-0.109 0.109-0.218 0.218-0.291s0.218-0.109 0.327-0.109c0.145 0 0.255 0.036 0.364 0.109s0.182 0.182 0.218 0.291c0.036-0.145 0.109-0.218 0.218-0.291s0.218-0.109 0.364-0.109c0.109 0 0.255 0.073 0.364 0.182z"></path>
      <path fill="#5090fc" style="fill: var(--color1, #5090fc)" d="M12.836 27.273h-1.273c0 0.182 0.073 0.327 0.145 0.4 0.109 0.109 0.218 0.145 0.364 0.145s0.218-0.036 0.327-0.109 0.145-0.145 0.145-0.255h0.291c-0.036 0.109-0.073 0.218-0.145 0.291s-0.145 0.145-0.255 0.218c-0.109 0.036-0.218 0.073-0.364 0.073s-0.291-0.036-0.4-0.109c-0.109-0.073-0.218-0.145-0.291-0.291s-0.109-0.255-0.109-0.436c0-0.182 0.036-0.327 0.109-0.436s0.145-0.218 0.291-0.291c0.109-0.073 0.255-0.109 0.4-0.109s0.291 0.036 0.4 0.109 0.218 0.145 0.255 0.255c0.073 0.109 0.109 0.218 0.109 0.364 0.036 0.073 0 0.109 0 0.182zM12.545 26.836c-0.036-0.073-0.109-0.145-0.182-0.182s-0.145-0.073-0.255-0.073c-0.145 0-0.255 0.036-0.364 0.145s-0.145 0.218-0.145 0.4h1.018c-0.036-0.109-0.036-0.218-0.073-0.291z"></path>
      <path fill="#5090fc" style="fill: var(--color1, #5090fc)" d="M15.273 27.745c-0.036 0.073-0.109 0.145-0.218 0.218-0.109 0.036-0.218 0.073-0.364 0.073s-0.255-0.036-0.364-0.073c-0.109-0.036-0.182-0.109-0.255-0.218s-0.109-0.182-0.109-0.291h0.291c0 0.073 0.036 0.109 0.073 0.182s0.073 0.109 0.145 0.145 0.145 0.036 0.218 0.036c0.109 0 0.218-0.036 0.255-0.109 0.073-0.073 0.109-0.145 0.109-0.255 0-0.073-0.036-0.145-0.073-0.218-0.036-0.036-0.109-0.109-0.145-0.109-0.073-0.036-0.145-0.073-0.255-0.109-0.145-0.036-0.218-0.073-0.327-0.109-0.073-0.036-0.145-0.109-0.218-0.182s-0.073-0.182-0.073-0.291c0-0.109 0.036-0.218 0.073-0.291s0.109-0.145 0.218-0.182c0.109-0.036 0.218-0.073 0.327-0.073 0.218 0 0.364 0.036 0.473 0.145s0.182 0.218 0.218 0.364h-0.291c0-0.073-0.073-0.145-0.109-0.218-0.073-0.073-0.145-0.109-0.291-0.109-0.109 0-0.182 0.036-0.255 0.073-0.073 0.073-0.109 0.145-0.109 0.218s0.036 0.145 0.073 0.182c0.036 0.036 0.109 0.073 0.145 0.109 0.073 0.036 0.145 0.073 0.255 0.109 0.145 0.036 0.255 0.073 0.327 0.109s0.145 0.109 0.218 0.182 0.073 0.182 0.073 0.327c0.036 0.182 0.036 0.291-0.036 0.364z"></path>
      <path fill="#5090fc" style="fill: var(--color1, #5090fc)" d="M17.2 26.4v1.6h-0.255v-0.364c-0.036 0.145-0.109 0.218-0.218 0.291s-0.218 0.109-0.364 0.109c-0.182 0-0.327-0.073-0.436-0.182s-0.182-0.291-0.182-0.509v-0.945h0.255v0.909c0 0.145 0.036 0.291 0.109 0.364s0.182 0.145 0.327 0.145c0.145 0 0.255-0.036 0.364-0.145 0.073-0.109 0.145-0.218 0.145-0.4v-0.836h0.255z"></path>
      <path fill="#5090fc" style="fill: var(--color1, #5090fc)" d="M18.182 26.473c0.109-0.073 0.218-0.109 0.364-0.109v0.291h-0.073c-0.145 0-0.255 0.036-0.364 0.109s-0.145 0.218-0.145 0.364v0.873h-0.255v-1.6h0.255v0.327c0.036-0.109 0.109-0.182 0.218-0.255z"></path>
      <path fill="#5090fc" style="fill: var(--color1, #5090fc)" d="M20.145 26.545c0.109 0.109 0.182 0.291 0.182 0.509v0.945h-0.255v-0.909c0-0.145-0.036-0.291-0.109-0.364s-0.182-0.145-0.327-0.145c-0.145 0-0.255 0.036-0.364 0.145-0.073 0.109-0.145 0.218-0.145 0.4v0.873h-0.255v-1.6h0.255v0.364c0.036-0.145 0.109-0.218 0.218-0.291s0.218-0.109 0.364-0.109c0.182 0 0.327 0.073 0.436 0.182z"></path>
      <path fill="#5090fc" style="fill: var(--color1, #5090fc)" d="M21.855 26.509c0.109 0.073 0.182 0.182 0.218 0.327v-0.4h0.255v1.564h-0.255v-0.4c-0.036 0.145-0.109 0.218-0.218 0.327-0.109 0.073-0.255 0.109-0.4 0.109s-0.255-0.036-0.364-0.109c-0.109-0.073-0.182-0.145-0.255-0.291s-0.109-0.255-0.109-0.436c0-0.182 0.036-0.327 0.109-0.436s0.145-0.218 0.255-0.291c0.109-0.073 0.255-0.109 0.364-0.109 0.145 0.036 0.291 0.073 0.4 0.145zM21.127 26.764c-0.109 0.109-0.145 0.255-0.145 0.436s0.036 0.327 0.145 0.436c0.109 0.109 0.218 0.145 0.4 0.145 0.109 0 0.182-0.036 0.291-0.073 0.073-0.036 0.145-0.109 0.182-0.218 0.036-0.073 0.073-0.182 0.073-0.291s-0.036-0.218-0.073-0.291-0.109-0.145-0.182-0.218c-0.073-0.036-0.182-0.073-0.291-0.073-0.145 0-0.291 0.036-0.4 0.145z"></path>
      <path fill="#5090fc" style="fill: var(--color1, #5090fc)" d="M25.236 26.545c0.109 0.109 0.182 0.291 0.182 0.509v0.945h-0.255v-0.909c0-0.145-0.036-0.291-0.109-0.364s-0.182-0.109-0.327-0.109c-0.145 0-0.255 0.036-0.327 0.145s-0.109 0.218-0.109 0.4v0.836h-0.291v-0.909c0-0.145-0.036-0.291-0.109-0.364s-0.182-0.109-0.327-0.109c-0.145 0-0.255 0.036-0.327 0.145s-0.109 0.218-0.109 0.4v0.836h-0.255v-1.6h0.255v0.364c0.036-0.109 0.109-0.218 0.218-0.291s0.218-0.109 0.327-0.109c0.145 0 0.255 0.036 0.364 0.109s0.182 0.182 0.218 0.291c0.036-0.145 0.109-0.218 0.218-0.291s0.218-0.109 0.364-0.109c0.145 0 0.291 0.073 0.4 0.182z"></path>
      <path fill="#5090fc" style="fill: var(--color1, #5090fc)" d="M27.345 27.273h-1.273c0 0.182 0.073 0.327 0.145 0.4s0.218 0.145 0.364 0.145c0.145 0 0.218-0.036 0.327-0.109s0.145-0.145 0.145-0.255h0.291c-0.036 0.109-0.073 0.218-0.145 0.291s-0.145 0.145-0.255 0.218c-0.109 0.036-0.218 0.073-0.364 0.073s-0.291-0.036-0.4-0.109c-0.109-0.073-0.218-0.145-0.291-0.291-0.073-0.109-0.109-0.255-0.109-0.436s0.036-0.327 0.109-0.436c0.073-0.109 0.145-0.218 0.291-0.291 0.109-0.073 0.255-0.109 0.4-0.109s0.291 0.036 0.4 0.109c0.109 0.073 0.218 0.145 0.255 0.255 0.073 0.109 0.109 0.218 0.109 0.364 0 0.073 0 0.109 0 0.182zM27.055 26.836c-0.036-0.073-0.109-0.145-0.182-0.182s-0.145-0.073-0.255-0.073c-0.145 0-0.255 0.036-0.364 0.145-0.109 0.073-0.145 0.218-0.145 0.4h1.018c-0.036-0.109-0.036-0.218-0.073-0.291z"></path>
      <path fill="#5090fc" style="fill: var(--color1, #5090fc)" d="M34.727 26.945c0-0.327 0.036-0.582 0.145-0.764s0.291-0.291 0.582-0.291 0.473 0.109 0.582 0.291c0.109 0.182 0.182 0.436 0.182 0.764s-0.073 0.582-0.182 0.764c-0.109 0.182-0.291 0.291-0.582 0.291s-0.473-0.109-0.582-0.291c-0.109-0.145-0.145-0.4-0.145-0.764zM35.891 26.945c0-0.182 0-0.291-0.036-0.436-0.036-0.109-0.073-0.218-0.145-0.255-0.073-0.073-0.182-0.109-0.291-0.109s-0.218 0.036-0.291 0.109c-0.073 0.073-0.109 0.145-0.145 0.255s-0.036 0.255-0.036 0.436c0 0.182 0 0.327 0.036 0.436s0.073 0.218 0.145 0.255c0.073 0.073 0.182 0.109 0.291 0.109 0.145 0 0.218-0.036 0.291-0.109s0.109-0.145 0.145-0.255c0.036-0.109 0.036-0.255 0.036-0.436z"></path>
      <path fill="#5090fc" style="fill: var(--color1, #5090fc)" d="M36.582 26.945c0-0.327 0.036-0.582 0.145-0.764s0.291-0.291 0.582-0.291c0.255 0 0.473 0.109 0.582 0.291s0.182 0.436 0.182 0.764c0 0.327-0.073 0.582-0.182 0.764s-0.291 0.291-0.582 0.291c-0.255 0-0.473-0.109-0.582-0.291-0.109-0.145-0.145-0.4-0.145-0.764zM37.745 26.945c0-0.182 0-0.291-0.036-0.436s-0.073-0.218-0.145-0.255-0.182-0.109-0.291-0.109c-0.109 0-0.218 0.036-0.291 0.109s-0.109 0.145-0.145 0.255c-0.036 0.109-0.036 0.255-0.036 0.436s0 0.327 0.036 0.436c0.036 0.109 0.073 0.218 0.145 0.255 0.073 0.073 0.182 0.109 0.291 0.109 0.145 0 0.218-0.036 0.291-0.109s0.109-0.145 0.145-0.255c0.036-0.109 0.036-0.255 0.036-0.436z"></path>
      <path fill="#5090fc" style="fill: var(--color1, #5090fc)" d="M39.309 25.273l-0.8 3.236h-0.255l0.8-3.236h0.255z"></path>
      <path fill="#5090fc" style="fill: var(--color1, #5090fc)" d="M39.564 26.945c0-0.327 0.036-0.582 0.145-0.764s0.291-0.291 0.582-0.291c0.255 0 0.473 0.109 0.582 0.291s0.182 0.436 0.182 0.764c0 0.327-0.073 0.582-0.182 0.764s-0.291 0.291-0.582 0.291c-0.255 0-0.473-0.109-0.582-0.291-0.073-0.145-0.145-0.4-0.145-0.764zM40.764 26.945c0-0.182 0-0.291-0.036-0.436s-0.073-0.218-0.145-0.255-0.182-0.109-0.291-0.109c-0.109 0-0.218 0.036-0.291 0.109s-0.109 0.145-0.145 0.255c-0.036 0.109-0.036 0.255-0.036 0.436s0 0.327 0.036 0.436c0.036 0.109 0.073 0.218 0.145 0.255 0.073 0.073 0.182 0.109 0.291 0.109 0.145 0 0.218-0.036 0.291-0.109s0.109-0.145 0.145-0.255c0.036-0.109 0.036-0.255 0.036-0.436z"></path>
      <path fill="#5090fc" style="fill: var(--color1, #5090fc)" d="M41.418 26.945c0-0.327 0.036-0.582 0.145-0.764s0.291-0.291 0.582-0.291 0.473 0.109 0.582 0.291c0.109 0.182 0.182 0.436 0.182 0.764s-0.073 0.582-0.182 0.764c-0.109 0.182-0.291 0.291-0.582 0.291s-0.473-0.109-0.582-0.291c-0.073-0.145-0.145-0.4-0.145-0.764zM42.618 26.945c0-0.182 0-0.291-0.036-0.436s-0.073-0.218-0.145-0.255c-0.073-0.073-0.182-0.109-0.291-0.109s-0.218 0.036-0.291 0.109c-0.073 0.073-0.109 0.145-0.145 0.255s-0.036 0.255-0.036 0.436c0 0.182 0 0.327 0.036 0.436s0.073 0.218 0.145 0.255c0.073 0.073 0.182 0.109 0.291 0.109 0.145 0 0.218-0.036 0.291-0.109s0.109-0.145 0.145-0.255c0.036-0.109 0.036-0.255 0.036-0.436z"></path>
    </svg>