    <svg version="1.1" xmlns="http://www.w3.org/2000/svg" xmlns:xlink="http://www.w3.org/1999/xlink" id="upload_id_back_drop" viewBox="0 0 47 32">
      <title>upload_id_back_drop</title>
      <path fill="#5090fc" style="fill: var(--color1, #5090fc)" d="M44.943 0h-42.715c-1.226 0-2.228 1.003-2.228 2.229v27.486c0 1.225 1.002 2.228 2.228 2.228h42.715c1.226 0 2.229-1.003 2.229-2.228v-27.486c0-1.226-1.003-2.229-2.229-2.229zM44.943 0.873c0.747 0 1.355 0.608 1.355 1.355v27.486c0 0.747-0.608 1.355-1.355 1.355h-42.715c-0.747 0-1.355-0.608-1.355-1.355v-27.486c0-0.747 0.608-1.355 1.355-1.355h42.715z"></path>
      <path fill="#5090fc" style="fill: var(--color1, #5090fc)" d="M16.195 27.82c-0.074 0-0.186-0.037-0.26-0.111l-1.486-1.486c-0.148-0.149-0.148-0.372 0-0.483l1.486-1.486c0.149-0.149 0.371-0.149 0.483 0 0.149 0.149 0.149 0.371 0 0.483l-1.226 1.226 1.226 1.226c0.149 0.149 0.149 0.372 0 0.483-0.037 0.111-0.149 0.148-0.223 0.148z"></path>
      <path fill="#5090fc" style="fill: var(--color1, #5090fc)" d="M13.139 27.82c-0.074 0-0.186-0.037-0.26-0.111l-1.486-1.486c-0.148-0.149-0.148-0.372 0-0.483l1.486-1.486c0.149-0.149 0.371-0.149 0.483 0 0.149 0.149 0.149 0.371 0 0.483l-1.226 1.226 1.226 1.226c0.149 0.149 0.149 0.372 0 0.483-0.037 0.111-0.149 0.148-0.223 0.148z"></path>
      <path fill="#5090fc" style="fill: var(--color1, #5090fc)" d="M19.278 27.82c-0.075 0-0.186-0.037-0.26-0.111l-1.486-1.486c-0.149-0.149-0.149-0.372 0-0.483l1.486-1.486c0.148-0.149 0.371-0.149 0.482 0 0.149 0.149 0.149 0.371 0 0.483l-1.226 1.226 1.226 1.226c0.149 0.149 0.149 0.372 0 0.483-0.037 0.111-0.148 0.148-0.222 0.148z"></path>
      <path fill="#5090fc" style="fill: var(--color1, #5090fc)" d="M22.36 27.82c-0.074 0-0.186-0.037-0.26-0.111l-1.486-1.486c-0.148-0.149-0.148-0.372 0-0.483l1.486-1.486c0.149-0.149 0.371-0.149 0.483 0 0.149 0.149 0.149 0.371 0 0.483l-1.226 1.226 1.226 1.226c0.149 0.149 0.149 0.372 0 0.483-0.037 0.111-0.149 0.148-0.223 0.148z"></path>
      <path fill="#5090fc" style="fill: var(--color1, #5090fc)" d="M25.443 27.82c-0.075 0-0.186-0.037-0.26-0.111l-1.486-1.486c-0.149-0.149-0.149-0.372 0-0.483l1.486-1.486c0.148-0.149 0.371-0.149 0.482 0 0.149 0.149 0.149 0.371 0 0.483l-1.226 1.226 1.226 1.226c0.149 0.149 0.149 0.372 0 0.483-0.037 0.111-0.111 0.148-0.222 0.148z"></path>
      <path fill="#5090fc" style="fill: var(--color1, #5090fc)" d="M28.526 27.82c-0.074 0-0.186-0.037-0.26-0.111l-1.486-1.486c-0.148-0.149-0.148-0.372 0-0.483l1.486-1.486c0.149-0.149 0.371-0.149 0.483 0 0.149 0.149 0.149 0.371 0 0.483l-1.226 1.226 1.226 1.226c0.149 0.149 0.149 0.372 0 0.483-0.037 0.111-0.149 0.148-0.223 0.148z"></path>
      <path fill="#5090fc" style="fill: var(--color1, #5090fc)" d="M31.609 27.82c-0.075 0-0.186-0.037-0.26-0.111l-1.486-1.486c-0.149-0.149-0.149-0.372 0-0.483l1.486-1.486c0.148-0.149 0.371-0.149 0.482 0 0.149 0.149 0.149 0.371 0 0.483l-1.226 1.226 1.226 1.226c0.149 0.149 0.149 0.372 0 0.483-0.037 0.111-0.148 0.148-0.222 0.148z"></path>
      <path fill="#5090fc" style="fill: var(--color1, #5090fc)" d="M34.692 27.82c-0.074 0-0.185-0.037-0.26-0.111l-1.486-1.486c-0.148-0.149-0.148-0.372 0-0.483l1.486-1.486c0.149-0.149 0.372-0.149 0.483 0 0.149 0.149 0.149 0.371 0 0.483l-1.226 1.226 1.226 1.226c0.149 0.149 0.149 0.372 0 0.483-0.037 0.111-0.149 0.148-0.223 0.148z"></path>
      <path fill="#5090fc" style="fill: var(--color1, #5090fc)" d="M37.775 27.82c-0.075 0-0.186-0.037-0.26-0.111l-1.486-1.486c-0.149-0.149-0.149-0.372 0-0.483l1.486-1.486c0.148-0.149 0.371-0.149 0.482 0 0.149 0.149 0.149 0.371 0 0.483l-1.226 1.226 1.226 1.226c0.149 0.149 0.149 0.372 0 0.483-0.037 0.111-0.148 0.148-0.222 0.148z"></path>
      <path fill="#5090fc" style="fill: var(--color1, #5090fc)" d="M40.895 27.82c-0.074 0-0.185-0.037-0.26-0.111l-1.486-1.486c-0.148-0.149-0.148-0.372 0-0.483l1.486-1.486c0.149-0.149 0.372-0.149 0.483 0 0.149 0.149 0.149 0.371 0 0.483l-1.226 1.226 1.226 1.226c0.149 0.149 0.149 0.372 0 0.483-0.074 0.111-0.148 0.148-0.223 0.148z"></path>
      <path fill="#5090fc" style="fill: var(--color1, #5090fc)" d="M40.152 10.474c0.903 0 1.634 0.732 1.634 1.634s-0.732 1.635-1.634 1.635-1.635-0.732-1.635-1.635c0-0.902 0.732-1.634 1.635-1.634z"></path>
      <path fill="#5090fc" style="fill: var(--color1, #5090fc)" d="M31.525 7.958h-25.944c-0.24 0-0.437 0.196-0.437 0.437s0.197 0.437 0.437 0.437h25.944c0.24 0 0.437-0.196 0.437-0.437s-0.197-0.437-0.437-0.437z"></path>
      <path fill="#5090fc" style="fill: var(--color1, #5090fc)" d="M31.525 11.682h-25.944c-0.24 0-0.437 0.196-0.437 0.437s0.197 0.437 0.437 0.437h25.944c0.24 0 0.437-0.196 0.437-0.437s-0.197-0.437-0.437-0.437z"></path>
      <path fill="#5090fc" style="fill: var(--color1, #5090fc)" d="M31.525 15.386h-25.944c-0.24 0-0.437 0.196-0.437 0.437s0.197 0.437 0.437 0.437h25.944c0.24 0 0.437-0.196 0.437-0.437s-0.197-0.437-0.437-0.437z"></path>
    </svg>