    <svg version="1.1" xmlns="http://www.w3.org/2000/svg" xmlns:xlink="http://www.w3.org/1999/xlink" id="upload_bank" viewBox="0 0 27 32">
      <title>upload_bank</title>
      <path fill="#cacfd5" style="fill: var(--color2, #cacfd5)" d="M0.523 13.115h23.529v18.361h-23.529v-18.361z"></path>
      <path fill="#26334b" style="fill: var(--color3, #26334b)" d="M23.843 30.951h-23.163v-17.731h1.412v-0.682h-1.464c-0.314 0-0.627 0.262-0.627 0.577v17.889c0 0.315 0.261 0.63 0.627 0.63h23.32c0.314 0 0.627-0.262 0.627-0.63v-1.469h-0.732v1.416z"></path>
      <path fill="#fff" style="fill: var(--color4, #fff)" d="M2.614 10.697l1.143-1.18h21.211l1.176 1.18v18.68h-23.529z"></path>
      <path fill="#26334b" style="fill: var(--color3, #26334b)" d="M19.974 14.793h-11.242c-0.209 0-0.366-0.157-0.366-0.315 0-0.21 0.157-0.367 0.314-0.367 0 0 0 0 0 0h11.242c0.209 0 0.366 0.157 0.366 0.315 0.052 0.21-0.105 0.367-0.314 0.367 0 0 0 0 0 0z"></path>
      <path fill="#26334b" style="fill: var(--color3, #26334b)" d="M20.092 9.18h-5.206c-0.149 0-0.248-0.136-0.248-0.341s0.099-0.341 0.248-0.341h5.206c0.149 0 0.248 0.136 0.248 0.341s-0.099 0.341-0.248 0.341z"></path>
      <path fill="#26334b" style="fill: var(--color3, #26334b)" d="M20.34 10.675v0c0 0.205-0.099 0.341-0.248 0.341h-5.206c-0.149 0-0.248-0.136-0.248-0.341v0c0-0.205 0.099-0.341 0.248-0.341h5.206c0.149 0 0.248 0.136 0.248 0.341z"></path>
      <path fill="#26334b" style="fill: var(--color3, #26334b)" d="M20.092 12.905h-5.206c-0.149 0-0.248-0.136-0.248-0.341s0.099-0.341 0.248-0.341h5.206c0.149 0 0.248 0.136 0.248 0.341s-0.099 0.341-0.248 0.341z"></path>
      <path fill="#cacfd5" style="fill: var(--color2, #cacfd5)" d="M8.889 8.918h4.183v3.672h-4.183v-3.672z"></path>
      <path fill="#26334b" style="fill: var(--color3, #26334b)" d="M13.072 8.498h-4.078c-0.366 0-0.627 0.272-0.627 0.653v3.048c0 0.327 0.261 0.653 0.627 0.653h4.078c0.314 0 0.627-0.327 0.575-0.653v-3.048c0-0.327-0.261-0.653-0.575-0.653zM12.967 12.145h-3.922v-2.885h3.922v2.885z"></path>
      <path fill="#26334b" style="fill: var(--color3, #26334b)" d="M26.458 10.544l-1.307-1.311v-2.413c0-0.105-0.052-0.157-0.105-0.21l-4.706-4.721c-0.052-0.052-0.157-0.105-0.209-0.105h-15.163c-0.784 0-1.412 0.63-1.412 1.416 0 0 0 2.011 0 6.033l-1.255 1.154-0.157 0.157c-0.052 0.105-0.052 0.472-0.052 0.525v17.889c0 0.315 0.261 0.63 0.627 0.63h23.32c0.314 0 0.575-0.262 0.575-0.63v-17.889c0-0.105 0-0.367-0.157-0.525zM25.15 10.229l0.68 0.63-0.627 0.577v-1.207h-0.052zM20.392 2.938l3.817 3.829h-3.085c-0.418 0-0.68-0.315-0.68-0.682v-3.148h-0.052zM4.235 3.2c0-0.42 0.314-0.682 0.68-0.682 0 0 4.932 0 14.797 0v3.567c0 0.787 0.627 1.416 1.359 1.416h3.346v4.564l-7.477 6.505-0.471-0.525c-1.098-1.207-2.98-1.259-4.183-0.157-0.052 0.052-0.105 0.105-0.157 0.157l-0.471 0.525-6.013-5.246-0.157-0.105-1.255-1.154v-8.866zM3.556 10.125v1.311l-0.732-0.63 0.732-0.682zM2.771 11.646l8.438 7.446-7.654 8.344-0.784 0.892v-16.682zM3.19 28.852l1.046-1.154 8.418-9.18c0.837-0.944 2.301-0.997 3.242-0.105l0.105 0.105 0.68 0.734 3.451 3.777 3.712 4.039 0.314 0.367 0.209 0.262 0.105 0.105 0.314 0.367 0.052 0.052 0.523 0.577h-22.17v0.052zM25.935 28.38l-0.784-0.892-0.261-0.262-0.314-0.367-0.366-0.367-0.314-0.367-6.431-7.082 8.523-7.397v16.734h-0.052zM17.359 1.784h-0.993l-0.523-0.472c-0.889-0.839-2.248-0.839-3.137 0l-0.523 0.472h-0.993l0.993-0.997c0.68-0.525 1.412-0.787 2.144-0.787s1.464 0.262 2.039 0.839l0.993 0.944z"></path>
    </svg>