    <svg version="1.1" xmlns="http://www.w3.org/2000/svg" xmlns:xlink="http://www.w3.org/1999/xlink" id="upload_bill" viewBox="0 0 44 32">
      <title>upload_bill</title>
      <path fill="#cacfd5" style="fill: var(--color2, #cacfd5)" d="M1.778 4.222h36.444c0.491 0 0.889 0.398 0.889 0.889v24.889c0 0.491-0.398 0.889-0.889 0.889h-36.444c-0.491 0-0.889-0.398-0.889-0.889v-24.889c0-0.491 0.398-0.889 0.889-0.889z"></path>
      <path fill="#26334b" style="fill: var(--color3, #26334b)" d="M39.2 28.667v1c0 0.533-0.402 1-0.938 1h-36.319c-0.536 0-1.005-0.4-1.005-1v-24.267c0-0.533 0.469-0.933 1.005-0.933v0h1.005v-1h-1.005c-1.072 0-1.943 0.867-1.943 1.933v24.267c0 1.067 0.871 1.933 1.943 1.933v0h36.252c1.072 0 1.943-0.867 1.943-1.933v0-1h-0.938z"></path>
      <path fill="#fff" style="fill: var(--color4, #fff)" d="M5.347 0.889h35.556c0.982 0 1.778 0.796 1.778 1.778v24c0 0.982-0.796 1.778-1.778 1.778h-35.556c-0.982 0-1.778-0.796-1.778-1.778v-24c0-0.982 0.796-1.778 1.778-1.778z"></path>
      <path fill="#cacfd5" style="fill: var(--color2, #cacfd5)" d="M10.667 9.556h19.556c0.982 0 1.778 0.796 1.778 1.778v4.444c0 0.982-0.796 1.778-1.778 1.778h-19.556c-0.982 0-1.778-0.796-1.778-1.778v-4.444c0-0.982 0.796-1.778 1.778-1.778z"></path>
      <path fill="#26334b" style="fill: var(--color3, #26334b)" d="M41.143 0.533h-36.252c-1.072 0-1.943 0.867-1.943 1.933v24.267c0 1.067 0.871 1.933 1.943 1.933v0h36.252c1.072 0 1.943-0.867 1.943-1.933v0-24.267c0-1.067-0.871-1.933-1.943-1.933v0zM42.148 26.733c0 0.533-0.402 1-0.938 1h-36.319c-0.536 0-1.005-0.4-1.005-1v-24.267c0-0.533 0.469-1 1.005-1v0h36.252c0.536 0 1.005 0.467 1.005 1 0 0 0 24.267 0 24.267z"></path>
      <path fill="#26334b" style="fill: var(--color3, #26334b)" d="M36.788 1.333h0.871v0.667h-0.871z"></path>
      <path fill="#26334b" style="fill: var(--color3, #26334b)" d="M37.659 25.933h-0.871v-1.333h0.871v1.333zM37.659 23.267h-0.871v-1.333h0.871v1.333zM37.659 20.6h-0.871v-1.333h0.871v1.333zM37.659 17.933h-0.871v-1.333h0.871v1.333zM37.659 15.333h-0.871v-1.333h0.871v1.333zM37.659 12.667h-0.871v-1.333h0.871v1.333zM37.659 10h-0.871v-1.333h0.871v1.333zM37.659 7.333h-0.871v-1.333h0.871v1.333zM37.659 4.667h-0.871v-1.333h0.871v1.333z"></path>
      <path fill="#26334b" style="fill: var(--color3, #26334b)" d="M36.788 27.267h0.871v0.667h-0.871z"></path>
      <path fill="#26334b" style="fill: var(--color3, #26334b)" d="M31.762 8.067h-22.984c-0.268 0-0.469-0.2-0.469-0.4s0.201-0.4 0.469-0.4h22.917c0.268 0 0.469 0.2 0.469 0.4s-0.201 0.4-0.402 0.4z"></path>
      <path fill="#26334b" style="fill: var(--color3, #26334b)" d="M18.226 23.333h-9.448c-0.268 0-0.402-0.2-0.402-0.467s0.201-0.467 0.402-0.467h9.448c0.268 0 0.402 0.2 0.402 0.467s-0.134 0.467-0.402 0.467z"></path>
      <path fill="#26334b" style="fill: var(--color3, #26334b)" d="M31.762 23.333h-9.515c-0.268 0-0.469-0.2-0.469-0.467s0.201-0.467 0.469-0.467h9.448c0.268 0 0.469 0.2 0.469 0.467s-0.201 0.467-0.402 0.467z"></path>
      <path fill="#26334b" style="fill: var(--color3, #26334b)" d="M12.464 25.333h-3.685c-0.268 0-0.402-0.2-0.402-0.467s0.201-0.467 0.402-0.467h3.685c0.268 0 0.402 0.2 0.402 0.467s-0.134 0.467-0.402 0.467z"></path>
      <path fill="#26334b" style="fill: var(--color3, #26334b)" d="M19.701 5.8h-10.922c-0.268 0-0.402-0.2-0.402-0.4s0.201-0.4 0.402-0.4h10.922c0.268 0 0.402 0.2 0.402 0.4s-0.201 0.4-0.402 0.4z"></path>
      <path fill="#26334b" style="fill: var(--color3, #26334b)" d="M31.36 17.6h-22.247c-0.402 0-0.737-0.333-0.737-0.733v-6.667c0-0.4 0.335-0.733 0.737-0.733h22.314c0.402 0 0.737 0.333 0.737 0.733v6.667c0 0.067 0 0.067 0 0.133-0.134 0.4-0.402 0.6-0.804 0.6zM9.247 16.733h22.046v-6.4h-22.046v6.4z"></path>
      <path fill="#26334b" style="fill: var(--color3, #26334b)" d="M31.36 21.267h-22.247c-0.402 0-0.737-0.333-0.737-0.733v-1.2c0-0.4 0.335-0.733 0.737-0.733h22.314c0.402 0 0.737 0.333 0.737 0.733v1.2c0 0.067 0 0.067 0 0.133-0.134 0.333-0.402 0.6-0.804 0.6zM9.247 20.4h22.046v-0.867h-22.046v0.867z"></path>
    </svg>