    <svg version="1.1" xmlns="http://www.w3.org/2000/svg" xmlns:xlink="http://www.w3.org/1999/xlink" id="upload_passport" viewBox="0 0 25 32">
      <title>upload_passport</title>
      <path fill="#cacfd5" style="fill: var(--color2, #cacfd5)" d="M1.641 2.462h18.462c0.68 0 1.231 0.551 1.231 1.231v26.462c0 0.68-0.551 1.231-1.231 1.231h-18.462c-0.68 0-1.231-0.551-1.231-1.231v-26.462c0-0.68 0.551-1.231 1.231-1.231z"></path>
      <path fill="#26334b" style="fill: var(--color3, #26334b)" d="M21.268 28.778v1.437c0.001 0.195-0.076 0.382-0.215 0.519s-0.328 0.214-0.524 0.213h-19.080c-0.196 0.001-0.385-0.075-0.524-0.213s-0.216-0.325-0.215-0.519v-26.609c-0.001-0.195 0.076-0.382 0.215-0.519s0.328-0.214 0.524-0.213h1.275v-0.705h-1.275c-0.801 0-1.45 0.643-1.45 1.437v26.609c0 0.794 0.649 1.437 1.45 1.437h19.080c0.801 0 1.45-0.643 1.45-1.437v-1.437h-0.711z"></path>
      <path fill="#fff" style="fill: var(--color4, #fff)" d="M23.86 28.046c0 0.404-0.331 0.732-0.738 0.732h-19.66c-0.196 0.001-0.385-0.075-0.524-0.213s-0.216-0.325-0.215-0.519v-26.609c-0.001-0.195 0.076-0.382 0.215-0.519s0.328-0.214 0.524-0.213h19.66c0.408 0 0.738 0.328 0.738 0.732v26.609z"></path>
      <path fill="#fff" style="fill: var(--color4, #fff)" d="M3.487 0h19.692c0.68 0 1.231 0.551 1.231 1.231v26.462c0 0.68-0.551 1.231-1.231 1.231h-19.692c-0.68 0-1.231-0.551-1.231-1.231v-26.462c0-0.68 0.551-1.231 1.231-1.231z"></path>
      <path fill="#26334b" style="fill: var(--color3, #26334b)" d="M23.122 0h-19.66c-0.385-0.001-0.754 0.15-1.027 0.419s-0.424 0.636-0.423 1.018v26.609c0 0.381 0.153 0.747 0.425 1.016s0.641 0.421 1.025 0.421h19.66c0.801 0 1.45-0.643 1.45-1.437v-26.609c0-0.381-0.153-0.747-0.425-1.016s-0.641-0.421-1.025-0.421zM23.86 28.046c0 0.404-0.331 0.732-0.738 0.732h-19.66c-0.196 0.001-0.385-0.075-0.524-0.213s-0.216-0.325-0.215-0.519v-26.609c-0.001-0.195 0.076-0.382 0.215-0.519s0.328-0.214 0.524-0.213h19.66c0.408 0 0.738 0.328 0.738 0.732v26.609z"></path>
      <path fill="#26334b" style="fill: var(--color3, #26334b)" d="M17.493 22.508h-8.408c-0.196 0-0.356-0.158-0.356-0.353s0.159-0.353 0.356-0.353h8.408c0.127 0 0.244 0.067 0.308 0.176s0.064 0.243 0 0.353c-0.064 0.109-0.181 0.176-0.308 0.176v0z"></path>
      <path fill="#26334b" style="fill: var(--color3, #26334b)" d="M18.812 24.738h-11.044c-0.196 0-0.356-0.158-0.356-0.353s0.159-0.353 0.356-0.353h11.044c0.196 0 0.356 0.158 0.356 0.353s-0.159 0.353-0.356 0.353v0z"></path>
      <path fill="#26334b" style="fill: var(--color3, #26334b)" d="M9.726 17.529c0.657 0.746 1.536 1.266 2.511 1.486 0.202 0.046 0.406 0.079 0.613 0.098 0.149 0.008 0.299 0.008 0.449 0 0.175 0 0.345 0 0.514-0.027 0.208-0.025 0.414-0.061 0.618-0.108 0.931-0.232 1.77-0.736 2.407-1.448 0.084-0.094 0.16-0.186 0.23-0.277 1.283-1.675 1.283-3.993 0-5.668-0.069-0.090-0.146-0.183-0.23-0.277-0.639-0.715-1.482-1.22-2.418-1.448-0.204-0.048-0.41-0.084-0.618-0.108-0.17 0-0.339 0-0.514 0s-0.301 0-0.449 0c-0.205 0.022-0.408 0.058-0.607 0.108-0.984 0.226-1.871 0.756-2.533 1.513-0.077 0.092-0.153 0.184-0.224 0.282-1.247 1.661-1.247 3.936 0 5.597 0.077 0.092 0.17 0.201 0.252 0.277zM14.873 18.5c0.319-0.393 0.588-0.823 0.804-1.28 0.281 0.058 0.549 0.128 0.804 0.212-0.45 0.47-0.999 0.835-1.608 1.068v0zM16.728 17.15c-0.29-0.092-0.596-0.179-0.908-0.25 0.302-0.731 0.467-1.51 0.487-2.3h1.378c-0.035 0.929-0.371 1.823-0.957 2.549v0zM16.728 11.726c0.578 0.721 0.91 1.607 0.946 2.527h-1.368c-0.021-0.78-0.184-1.55-0.481-2.273 0.309-0.067 0.614-0.15 0.913-0.249l-0.011-0.005zM16.481 11.444c-0.264 0.087-0.532 0.159-0.804 0.217-0.221-0.464-0.497-0.901-0.82-1.302 0.621 0.237 1.18 0.609 1.636 1.090l-0.011-0.005zM13.418 10.072c0.274 0.009 0.547 0.044 0.815 0.103 0.444 0.459 0.813 0.985 1.094 1.557-0.628 0.115-1.265 0.176-1.904 0.184l-0.005-1.844zM13.418 12.241c0.688-0.009 1.375-0.078 2.051-0.206 0.292 0.699 0.454 1.445 0.476 2.202h-2.511l-0.016-1.996zM13.418 14.584h2.527c-0.019 0.767-0.185 1.523-0.487 2.229-0.671-0.123-1.352-0.19-2.035-0.201l-0.005-2.028zM13.418 16.949c0.635 0.009 1.268 0.069 1.893 0.179-0.284 0.564-0.653 1.081-1.094 1.535-0.267 0.062-0.541 0.096-0.815 0.103l0.016-1.817zM10.098 17.41c0.279-0.081 0.547-0.157 0.864-0.217 0.223 0.48 0.504 0.932 0.837 1.345-0.649-0.237-1.232-0.624-1.701-1.128zM13.106 18.788c-0.23-0.010-0.458-0.038-0.684-0.081-0.443-0.469-0.811-1.001-1.094-1.578 0.593-0.097 1.193-0.15 1.794-0.157l-0.016 1.817zM13.106 16.618c-0.649 0.009-1.297 0.069-1.936 0.179-0.297-0.698-0.461-1.445-0.481-2.202h2.412l0.005 2.023zM13.106 14.254h-2.429c0.022-0.745 0.179-1.48 0.465-2.17 0.643 0.11 1.294 0.17 1.947 0.179l0.016 1.991zM12.423 10.153c0.224-0.046 0.45-0.075 0.678-0.087v1.85c-0.605-0.007-1.208-0.060-1.805-0.157 0.282-0.587 0.657-1.125 1.11-1.595l0.016-0.011zM11.81 10.327c-0.343 0.418-0.632 0.877-0.859 1.367-0.296-0.059-0.588-0.133-0.875-0.222 0.473-0.508 1.062-0.897 1.718-1.134l0.016-0.011zM9.835 11.759c0.312 0.098 0.64 0.184 0.979 0.255-0.286 0.714-0.444 1.472-0.465 2.24h-1.45c0.034-0.903 0.356-1.773 0.919-2.484l0.016-0.011zM10.349 14.595c0.022 0.778 0.183 1.545 0.476 2.267-0.334 0.070-0.656 0.157-0.968 0.255-0.575-0.721-0.905-1.604-0.941-2.522h1.433z"></path>
      <path fill="#26334b" style="fill: var(--color3, #26334b)" d="M8.364 4.865c0.101 0.065 0.181 0.157 0.23 0.266 0.053 0.129 0.079 0.267 0.077 0.407 0.004 0.139-0.026 0.277-0.088 0.401-0.047 0.11-0.127 0.203-0.23 0.266-0.108 0.062-0.231 0.094-0.356 0.092h-0.213v0.499h-0.492v-2.023h0.7c0.131-0.007 0.26 0.025 0.372 0.092v0zM8.123 5.706c0.066-0.106 0.066-0.241 0-0.347-0.036-0.044-0.091-0.069-0.148-0.065h-0.181v0.472h0.181c0.056 0.002 0.11-0.019 0.148-0.060v0z"></path>
      <path fill="#26334b" style="fill: var(--color3, #26334b)" d="M9.748 6.454h-0.547l-0.098 0.353h-0.503l0.656-2.018h0.487l0.624 2.034h-0.514l-0.104-0.369zM9.616 5.961l-0.137-0.51-0.148 0.504 0.284 0.005z"></path>
      <path fill="#26334b" style="fill: var(--color3, #26334b)" d="M10.645 6.801c-0.103-0.030-0.198-0.082-0.279-0.152l0.159-0.499c0.070 0.058 0.149 0.104 0.235 0.136 0.077 0.035 0.161 0.053 0.246 0.054 0.049 0.012 0.099 0.012 0.148 0 0.029-0.017 0.046-0.048 0.044-0.081 0.003-0.040-0.019-0.079-0.055-0.098-0.062-0.029-0.126-0.053-0.191-0.071-0.096-0.028-0.189-0.064-0.279-0.108-0.082-0.042-0.15-0.106-0.197-0.184-0.060-0.105-0.087-0.226-0.077-0.347-0.001-0.12 0.025-0.239 0.077-0.347 0.053-0.102 0.135-0.187 0.235-0.244 0.114-0.062 0.242-0.091 0.372-0.087 0.1 0.001 0.199 0.016 0.295 0.043 0.093 0.030 0.18 0.076 0.257 0.136l-0.153 0.494c-0.115-0.092-0.257-0.145-0.405-0.152-0.131 0-0.191 0.038-0.191 0.125-0.001 0.038 0.021 0.074 0.055 0.092 0.059 0.029 0.121 0.051 0.186 0.065 0.096 0.027 0.189 0.061 0.279 0.103 0.082 0.042 0.15 0.106 0.197 0.184 0.066 0.103 0.095 0.226 0.082 0.347 0.001 0.12-0.025 0.239-0.077 0.347-0.053 0.102-0.135 0.187-0.235 0.244-0.114 0.061-0.242 0.091-0.372 0.087-0.123-0.010-0.243-0.039-0.356-0.087v0z"></path>
      <path fill="#26334b" style="fill: var(--color3, #26334b)" d="M11.996 6.812c-0.094-0.035-0.181-0.086-0.257-0.152l0.159-0.499c0.071 0.057 0.15 0.102 0.235 0.136 0.077 0.035 0.161 0.053 0.246 0.054 0.049 0.012 0.099 0.012 0.148 0 0.029-0.017 0.046-0.048 0.044-0.081 0.003-0.040-0.019-0.079-0.055-0.098-0.072-0.045-0.149-0.081-0.23-0.108-0.096-0.028-0.189-0.064-0.279-0.108-0.082-0.042-0.15-0.106-0.197-0.184-0.060-0.105-0.087-0.226-0.077-0.347-0.001-0.12 0.025-0.239 0.077-0.347 0.053-0.102 0.135-0.187 0.235-0.244 0.113-0.064 0.242-0.094 0.372-0.087 0.1 0.001 0.199 0.016 0.295 0.043 0.093 0.030 0.18 0.076 0.257 0.136l-0.153 0.494c-0.115-0.092-0.257-0.145-0.405-0.152-0.131 0-0.191 0.038-0.191 0.125-0.018 0.054 0.011 0.112 0.066 0.13 0.060 0.027 0.122 0.049 0.186 0.065 0.097 0.024 0.19 0.059 0.279 0.103 0.082 0.042 0.15 0.106 0.197 0.184 0.066 0.103 0.095 0.226 0.082 0.347 0.001 0.12-0.026 0.238-0.077 0.347-0.056 0.1-0.137 0.184-0.235 0.244-0.114 0.061-0.242 0.091-0.372 0.087-0.121-0.010-0.239-0.039-0.35-0.087v0z"></path>
      <path fill="#26334b" style="fill: var(--color3, #26334b)" d="M14.25 4.908c0.104 0.061 0.185 0.154 0.23 0.266 0.058 0.128 0.086 0.267 0.082 0.407-0.001 0.138-0.031 0.275-0.088 0.401-0.046 0.112-0.129 0.206-0.235 0.266-0.106 0.062-0.227 0.094-0.35 0.092h-0.213v0.499h-0.492v-2.023h0.744c0.114 0 0.226 0.032 0.323 0.092zM14.009 5.749c0.038-0.050 0.058-0.111 0.055-0.174 0.004-0.062-0.014-0.123-0.049-0.174-0.037-0.046-0.094-0.070-0.153-0.065h-0.181v0.472h0.181c0.056 0.005 0.111-0.017 0.148-0.060v0z"></path>
      <path fill="#26334b" style="fill: var(--color3, #26334b)" d="M15.076 6.753c-0.132-0.097-0.235-0.228-0.295-0.38-0.071-0.172-0.104-0.357-0.098-0.542-0.001-0.186 0.036-0.371 0.109-0.542 0.064-0.148 0.166-0.277 0.295-0.374 0.125-0.086 0.274-0.131 0.427-0.13 0.153-0 0.302 0.047 0.427 0.136 0.127 0.101 0.226 0.231 0.29 0.38 0.071 0.172 0.107 0.356 0.104 0.542 0.001 0.187-0.039 0.372-0.115 0.542-0.062 0.151-0.164 0.282-0.295 0.38-0.125 0.087-0.274 0.132-0.427 0.13-0.152 0-0.3-0.049-0.421-0.141zM15.666 6.281c0.055-0.047 0.096-0.106 0.12-0.174 0.035-0.086 0.051-0.178 0.049-0.271 0.001-0.090-0.014-0.18-0.044-0.266-0.022-0.068-0.062-0.13-0.115-0.179-0.048-0.039-0.108-0.060-0.17-0.060-0.060-0.002-0.119 0.020-0.164 0.060-0.054 0.047-0.095 0.107-0.12 0.174-0.056 0.177-0.056 0.366 0 0.542 0.026 0.068 0.067 0.129 0.12 0.179 0.046 0.038 0.104 0.059 0.164 0.060 0.059-0.001 0.116-0.024 0.159-0.065v0z"></path>
      <path fill="#26334b" style="fill: var(--color3, #26334b)" d="M17.132 6.351h-0.131v0.51h-0.492v-2.023h0.7c0.123-0.002 0.244 0.030 0.35 0.092 0.101 0.067 0.181 0.161 0.23 0.271 0.058 0.126 0.084 0.263 0.077 0.401 0.004 0.13-0.020 0.26-0.071 0.38-0.044 0.102-0.116 0.19-0.208 0.255l0.301 0.629h-0.547l-0.208-0.515zM17.34 5.424c-0.040-0.041-0.096-0.063-0.153-0.060h-0.18v0.477h0.202c0.058 0.004 0.114-0.018 0.153-0.060 0.035-0.051 0.054-0.112 0.055-0.174-0.003-0.068-0.030-0.134-0.077-0.184v0z"></path>
      <path fill="#26334b" style="fill: var(--color3, #26334b)" d="M18.369 5.375h-0.427v-0.542h1.346v0.542h-0.438v1.497h-0.492z"></path>
    </svg>