<svg id="usd" fill="#2b4059" viewBox="0 0 32 32"  xmlns="http://www.w3.org/2000/svg">
  <path fill="inherit" style="fill: var(--color1, #2b4059)" d="M16.505 14.611c1.876 0.577 3.331 1.094 4.365 1.551s1.936 1.172 2.706 2.147c0.77 0.974 1.154 2.291 1.154 3.95 0 1.203-0.295 2.321-0.884 3.355s-1.497 1.876-2.724 2.525c-1.227 0.649-2.73 0.974-4.51 0.974h-0.108v2.886h-1.118v-2.958c-2.285-0.216-4.149-0.968-5.592-2.255s-2.249-2.88-2.417-4.78h3.499c0.096 1.010 0.535 1.954 1.317 2.832s1.846 1.425 3.193 1.641v-9.236c-1.852-0.553-3.289-1.052-4.311-1.497s-1.912-1.148-2.67-2.11c-0.758-0.962-1.136-2.249-1.136-3.86 0-1.323 0.337-2.489 1.010-3.499s1.623-1.792 2.85-2.345c1.227-0.553 2.646-0.83 4.257-0.83v-3.103h1.118v3.139c2.237 0.168 4.017 0.854 5.339 2.056s2.104 2.658 2.345 4.365h-3.535c-0.168-0.914-0.601-1.732-1.299-2.453s-1.647-1.179-2.85-1.371v8.875zM10.805 9.632c0 1.227 0.391 2.177 1.172 2.85s1.918 1.263 3.409 1.768v-8.586c-1.395 0-2.507 0.343-3.337 1.028s-1.245 1.666-1.245 2.94zM16.541 26.552c1.491 0 2.646-0.397 3.463-1.191s1.227-1.804 1.227-3.030c0-1.275-0.409-2.261-1.227-2.958s-1.984-1.287-3.499-1.768v8.947h0.036z"></path>
</svg>
