<svg version="1.1" xmlns="http://www.w3.org/2000/svg" xmlns:xlink="http://www.w3.org/1999/xlink" id="viber-header" viewBox="0 0 32 32">
<title>viber-header</title>
<path fill="#7d3daf" style="fill: var(--color9, #7d3daf)" d="M32 16c0 8.837-7.163 16-16 16s-16-7.163-16-16c0-8.837 7.163-16 16-16s16 7.163 16 16z"></path>
<path fill="#fff" style="fill: var(--color4, #fff)" d="M26.205 11.596c-0.615-2.703-1.497-3.86-4.827-4.471-3.332-0.612-7.427-0.612-10.756 0-3.331 0.611-4.213 1.768-4.828 4.471-0.293 1.223-0.461 2.627-0.461 4.071s0.168 2.848 0.486 4.194l-0.025-0.123c0.615 2.703 2.557 3.856 4.54 4.4v2.16c0 2.157 0 2.157 1.552 0.601l2.275-2.273c0.493 0.027 0.987 0.040 1.48 0.040 1.676 0 3.7-0.029 5.76-0.461 2.059-0.432 4.189-1.764 4.804-4.467 0.615-2.701 0.615-5.44 0-8.141z"></path>
<path fill="#7d3daf" style="fill: var(--color9, #7d3daf)" d="M17.997 21.133c-2.141-0.876-4.111-2.008-5.672-3.743-0.887-0.987-1.581-2.1-2.168-3.279-0.28-0.56-0.513-1.14-0.753-1.716-0.217-0.527 0.104-1.071 0.441-1.467 0.317-0.373 0.727-0.657 1.168-0.867 0.347-0.164 0.687-0.069 0.939 0.22 0.545 0.624 1.045 1.28 1.451 2.005 0.249 0.445 0.181 0.989-0.271 1.293-0.109 0.073-0.209 0.16-0.312 0.243-0.092 0.069-0.17 0.15-0.234 0.242l-0.002 0.003c-0.059 0.097-0.094 0.215-0.094 0.341 0 0.090 0.018 0.176 0.050 0.254l-0.002-0.004c0.557 1.512 1.496 2.688 3.037 3.321 0.247 0.101 0.493 0.22 0.779 0.187 0.476-0.055 0.629-0.571 0.963-0.84 0.327-0.263 0.743-0.267 1.093-0.047 0.352 0.219 0.692 0.455 1.031 0.693 0.332 0.233 0.663 0.461 0.968 0.728 0.295 0.256 0.396 0.593 0.231 0.94-0.304 0.637-0.747 1.167-1.383 1.505-0.18 0.095-0.395 0.125-0.599 0.187-0.233-0.069-0.455-0.116-0.661-0.2zM15.363 9.333c2.8 0.079 5.099 1.913 5.592 4.648 0.084 0.467 0.113 0.941 0.152 1.413 0.015 0.2-0.099 0.389-0.316 0.392-0.225 0.003-0.325-0.183-0.34-0.381-0.029-0.395-0.049-0.789-0.104-1.18-0.289-2.060-1.953-3.764-4.029-4.129-0.312-0.055-0.632-0.069-0.948-0.103-0.2-0.020-0.463-0.032-0.507-0.279-0.037-0.205 0.139-0.369 0.337-0.38 0.053-0.003 0.108 0 0.163 0 2.8 0.077-0.053 0 0 0z"></path>
<path fill="#7d3daf" style="fill: var(--color9, #7d3daf)" d="M19.617 14.783c-0.004 0.035-0.007 0.115-0.027 0.192-0.075 0.277-0.501 0.312-0.6 0.032-0.022-0.070-0.034-0.151-0.034-0.235 0-0.011 0-0.023 0.001-0.034l-0 0.002c0-0.587-0.129-1.172-0.428-1.68-0.316-0.532-0.769-0.953-1.31-1.224l-0.018-0.008c-0.333-0.16-0.693-0.261-1.059-0.32-0.16-0.027-0.32-0.043-0.481-0.064-0.195-0.027-0.299-0.149-0.289-0.339 0.009-0.177 0.14-0.304 0.336-0.293 0.643 0.036 1.263 0.173 1.835 0.472 1.16 0.608 1.825 1.567 2.019 2.847 0.008 0.059 0.023 0.116 0.027 0.173 0.012 0.144 0.019 0.288 0.029 0.479-0.004 0.035-0.011-0.191 0 0z"></path>
<path fill="#7d3daf" style="fill: var(--color9, #7d3daf)" d="M17.876 14.715c-0.235 0.005-0.36-0.123-0.384-0.336-0.016-0.147-0.029-0.297-0.067-0.44-0.067-0.296-0.233-0.545-0.46-0.718l-0.003-0.002c-0.108-0.078-0.234-0.14-0.37-0.179l-0.009-0.002c-0.172-0.049-0.351-0.035-0.521-0.077-0.187-0.044-0.289-0.193-0.26-0.365 0.033-0.154 0.168-0.268 0.329-0.268 0.009 0 0.018 0 0.027 0.001l-0.001-0c1.085 0.076 1.861 0.631 1.972 1.893 0.008 0.088 0.017 0.183-0.003 0.267-0.023 0.123-0.125 0.216-0.25 0.227l-0.001 0c-0.235 0.005 0.107-0.007 0 0z"></path>
</svg>