<svg viewBox="0 0 40 24">
    <linearGradient id="a" x1="100%" x2="0%" y1="58.284%" y2="41.061%">
        <stop offset="0%" stop-color="#1A4788"/>
        <stop offset="100%" stop-color="#1F1F46"/>
    </linearGradient>
    <g fill="none" fill-rule="evenodd">
        <rect width="40" height="24" fill="#1A4788" rx="1.6"/>
        <path fill="#FFF" d="M19.826 4.918c-.01.836.762 1.302 1.344 1.58.598.284.799.466.796.72-.004.39-.477.562-.919.569-.771.011-1.22-.204-1.576-.367l-.278 1.272c.358.16 1.02.301 1.707.308 1.613 0 2.668-.779 2.673-1.986.007-1.531-2.166-1.616-2.151-2.3.005-.208.207-.43.651-.486a2.96 2.96 0 0 1 1.514.26l.27-1.23A4.21 4.21 0 0 0 22.42 3c-1.517 0-2.586.789-2.594 1.918zm6.624-1.812a.699.699 0 0 0-.653.426l-2.304 5.377h1.612l.32-.867h1.97l.185.867H29l-1.24-5.803h-1.31zm.225 1.568l.465 2.179h-1.273l.808-2.179zm-8.802-1.568l-1.27 5.803h1.535l1.27-5.803h-1.535zm-2.272 0l-1.598 3.95-.646-3.358a.711.711 0 0 0-.708-.592h-2.613L10 3.274c.536.114 1.146.298 1.515.494.226.12.29.225.364.51l1.224 4.631h1.623l2.488-5.803H15.6z"/>
        <g fill-rule="nonzero" transform="translate(12 11)">
            <circle cx="5.118" cy="4.92" r="4.639" fill="#EE0005"/>
            <circle cx="10.882" cy="4.92" r="4.639" fill="#F9A000"/>
            <path fill="#FF6300" d="M6.243 4.92A4.63 4.63 0 0 0 8 8.555 4.63 4.63 0 0 0 9.757 4.92 4.63 4.63 0 0 0 8 1.284 4.63 4.63 0 0 0 6.243 4.92z"/>
        </g>
    </g>
</svg>