<svg viewBox="0 0 62 20" id="visa-logo">

    <title>visa-logo</title>
    <path fill="#1A4788" d="M32.063 6.394c-.032 2.786 2.488 4.338 4.387 5.265 1.95.947 2.606 1.556 2.598 2.403-.015 1.299-1.557 1.87-2.999 1.893-2.518.04-3.98-.68-5.145-1.222l-.907 4.24c1.17.536 3.33 1.004 5.571 1.027 5.264 0 8.705-2.596 8.722-6.619.022-5.104-7.068-5.386-7.019-7.667.016-.694.677-1.431 2.125-1.62.717-.093 2.697-.166 4.94.865l.88-4.102C44.009.42 42.459 0 40.528 0c-4.951 0-8.437 2.63-8.465 6.394zM53.68.354a2.28 2.28 0 0 0-2.133 1.418L44.03 19.697h5.26l1.046-2.89h6.426l.606 2.89H62L57.955.354H53.68zm.734 5.226l1.518 7.263h-4.156l2.638-7.263zM25.69.354l-4.145 19.343h5.01L30.698.354H25.69zm-7.413 0l-5.214 13.165-2.11-11.194C10.707 1.075 9.729.354 8.643.354H.118L0 .914c1.75.38 3.738.994 4.943 1.647.737.4.947.749 1.19 1.699l3.994 15.437h5.295L23.539.354h-5.262z"></path>
</svg>