    <svg version="1.1" xmlns="http://www.w3.org/2000/svg" xmlns:xlink="http://www.w3.org/1999/xlink" id="visa" viewBox="0 0 40 40">
      <title>visa</title>
      <g fill="none" fill-rule="nonzero">
        <path fill="#FFF" d="M.06.02h39.799v39.799H.06z"/>
        <path fill="#DDD" d="M.945 19.92h38.05v19.015H.945zM15.799 5.588l-3.739 8.945H9.608l-1.85-7.136c-.12-.442-.2-.603-.542-.784-.563-.301-1.467-.583-2.271-.764l.06-.261h3.94c.502 0 .944.342 1.065.904l.965 5.166 2.412-6.09h2.412v.02zm9.568 6.03c.02-2.352-3.256-2.492-3.236-3.538 0-.321.321-.663.985-.743.321-.04 1.246-.08 2.27.402l.403-1.89c-.563-.2-1.266-.402-2.17-.402-2.292 0-3.9 1.206-3.9 2.955-.02 1.286 1.145 2.01 2.03 2.432.904.442 1.206.724 1.206 1.106 0 .603-.724.864-1.387.884-1.166.02-1.83-.321-2.372-.563l-.422 1.95c.543.241 1.548.462 2.573.482 2.432-.02 4.02-1.226 4.02-3.075zm6.05 2.915h2.13l-1.869-8.945h-1.97a1.05 1.05 0 0 0-.984.663l-3.478 8.282h2.432l.483-1.327h2.975l.281 1.327zm-2.593-3.176L30.05 8l.704 3.357h-1.93zm-9.729-5.77l-1.91 8.946h-2.31l1.909-8.945h2.311z"/>
        <g fill="#FFF">
            <path d="M9.327 30.955c.26.16.663.281 1.085.281.523 0 .824-.241.824-.623 0-.342-.22-.543-.804-.744-.744-.261-1.226-.663-1.226-1.306 0-.744.623-1.307 1.608-1.307.482 0 .844.1 1.085.221l-.2.664a2.017 2.017 0 0 0-.905-.221c-.523 0-.744.281-.744.542 0 .342.262.503.865.744.783.302 1.165.704 1.165 1.347 0 .723-.542 1.346-1.708 1.346-.483 0-.985-.14-1.226-.28l.18-.664zM15.276 29.85h-1.708v1.326h1.91v.683h-2.714v-4.522h2.633v.683h-1.81v1.166h1.69zM19.377 31.719c-.201.1-.623.2-1.166.2-1.427 0-2.312-.904-2.312-2.27 0-1.488 1.046-2.373 2.413-2.373.542 0 .924.1 1.085.201l-.18.664c-.222-.1-.524-.181-.885-.181-.925 0-1.588.583-1.588 1.668 0 .985.583 1.628 1.568 1.628.321 0 .683-.06.904-.16l.16.623zM20.824 27.337v2.633c0 .884.362 1.286.925 1.286.603 0 .944-.402.944-1.286v-2.633h.825v2.573c0 1.386-.724 2.01-1.81 2.01-1.045 0-1.728-.583-1.728-2.01v-2.573h.844zM24.402 27.397c.322-.06.764-.1 1.246-.1.643 0 1.086.1 1.387.361.241.201.382.523.382.905 0 .583-.402.985-.824 1.125v.02c.322.121.523.443.623.865.14.563.261 1.085.362 1.266h-.844c-.06-.14-.181-.502-.302-1.065-.14-.583-.342-.784-.804-.784h-.422v1.85h-.824v-4.443h.02zm.824 1.99h.483c.562 0 .904-.302.904-.744 0-.482-.342-.723-.884-.723-.262 0-.422.02-.503.04v1.427zM30.673 29.85h-1.708v1.326h1.91v.683H28.14v-4.522h2.633v.683h-1.81v1.166h1.71z"/>
        </g>
      </g>
    </svg>