<svg width="14" height="13" viewBox="0 0 14 13" fill="#EA3131" xmlns="http://www.w3.org/2000/svg">
<path d="M13.7768 10.0916L8.42566 0.823099C8.1281 0.307726 7.59515 0 6.99999 0C6.40485 0 5.87187 0.307726 5.57431 0.823099L0.223186 10.0915C-0.0743953 10.607 -0.0743953 11.2224 0.223186 11.7378C0.520767 12.2532 1.0537 12.5609 1.64886 12.5609H12.3511C12.9462 12.5609 13.4792 12.2531 13.7768 11.7378C14.0744 11.2224 14.0744 10.607 13.7768 10.0916ZM13.0665 11.3277C12.9172 11.5863 12.6497 11.7407 12.3511 11.7407H1.64886C1.35021 11.7407 1.08279 11.5863 0.933492 11.3277C0.784196 11.0691 0.784196 10.7603 0.933492 10.5017L6.28468 1.23323C6.43397 0.97461 6.70139 0.820228 7.00001 0.820228C7.29861 0.820228 7.56605 0.97461 7.71535 1.23323L13.0665 10.5017C13.2158 10.7603 13.2158 11.0691 13.0665 11.3277Z" fill="inherit"/>
<path d="M7.41029 4.09344H6.59009V8.1945H7.41029V4.09344Z" fill="inherit"/>
<path d="M7.00023 9.01455C6.69871 9.01455 6.45341 9.25985 6.45341 9.56137C6.45341 9.86289 6.69871 10.1082 7.00023 10.1082C7.30172 10.1082 7.54705 9.86289 7.54705 9.56137C7.54705 9.25985 7.30175 9.01455 7.00023 9.01455Z" fill="inherit"/>
</svg>
