<svg xmlns="http://www.w3.org/2000/svg" viewBox="0 0 53 32">
	<path fill="#0068a3" style="fill: var(--color16, #0068a3)" d="M2.133 0h49.067c1.178 0 2.133 0.955 2.133 2.133v27.733c0 1.178-0.955 2.133-2.133 2.133h-49.067c-1.178 0-2.133-0.955-2.133-2.133v-27.733c0-1.178 0.955-2.133 2.133-2.133z"></path>
	<path fill="#fff" style="fill: var(--color8, #fff)" d="M42.6 10.714c0.836 0 1.628 0.193 2.334 0.536 0.111 0.052 0.221 0.11 0.332 0.173l-0.49 0.436-0.737-0.756-1.243 1.101-0.738-0.8-2.316 2.072 1.485 1.624-0.583 0.509 1.462 1.626-0.58 0.508 2.090 2.309 1.24-1.133 1.072 1.215c-0.213 0.165-0.446 0.319-0.702 0.463-0.776 0.439-1.672 0.69-2.626 0.69-2.933 0-5.326-2.375-5.326-5.286s2.392-5.286 5.326-5.286z"></path>
	<path fill="#fff" style="fill: var(--color8, #fff)" d="M41.63 15.666l1.266-1.132 1.14 1.257-1.266 1.132-1.141-1.257z"></path>
	<path fill="#fff" style="fill: var(--color8, #fff)" d="M42.53 17.838l1.267-1.132 1.141 1.257-1.266 1.132-1.141-1.257z"></path>
	<path fill="#fff" style="fill: var(--color8, #fff)" d="M40.724 13.519l1.266-1.132 1.14 1.257-1.266 1.132-1.14-1.257z"></path>
	<path fill="#fff" style="fill: var(--color8, #fff)" d="M43.047 12.91l0.95-0.849 0.855 0.943-0.95 0.849-0.855-0.943z"></path>
	<path fill="#fff" style="fill: var(--color8, #fff)" d="M44.735 16.798l0.95-0.849 0.855 0.943-0.95 0.849-0.855-0.943z"></path>
	<path fill="#fff" style="fill: var(--color8, #fff)" d="M45.571 18.702l0.95-0.849 0.855 0.943-0.95 0.849-0.855-0.942z"></path>
	<path fill="#fff" style="fill: var(--color8, #fff)" d="M45.953 14.338l0.633-0.566 0.57 0.628-0.633 0.566-0.57-0.628z"></path>
	<path fill="#fff" style="fill: var(--color8, #fff)" d="M45.144 12.471l0.633-0.566 0.57 0.628-0.633 0.566-0.57-0.628z"></path>
	<path fill="#fff" style="fill: var(--color8, #fff)" d="M46.763 16.205l0.633-0.566 0.57 0.628-0.633 0.566-0.57-0.628z"></path>
	<path fill="#fff" style="fill: var(--color8, #fff)" d="M43.923 14.806l0.95-0.849 0.855 0.943-0.95 0.849-0.855-0.942z"></path>
	<path fill="#fff" style="fill: var(--color8, #fff)" d="M7.852 15.089h-0.043l-0.802 3.010h-0.656l-0.984-4.276h0.681l0.681 3.191h0.043l0.79-3.191h0.541l0.845 3.191h0.042l0.62-3.191h0.711l-0.985 4.276h-0.656l-0.826-3.010z"></path>
	<path fill="#fff" style="fill: var(--color8, #fff)" d="M13.012 17.435v0.458c-0.273 0.157-0.638 0.278-1.076 0.278-1.021 0-1.44-0.627-1.44-1.58 0-0.917 0.468-1.58 1.379-1.58 0.759 0 1.227 0.489 1.227 1.472v0.223h-1.981c0 0.724 0.298 1.043 0.924 1.043 0.328 0 0.632-0.115 0.966-0.314v0zM11.135 16.301h1.391c-0.030-0.633-0.34-0.886-0.668-0.886-0.371 0-0.656 0.284-0.723 0.886v0z"></path>
	<path fill="#fff" style="fill: var(--color8, #fff)" d="M14.288 15.234c0.182-0.097 0.492-0.223 0.82-0.223 0.753 0 1.161 0.519 1.161 1.484 0 1.128-0.547 1.676-1.428 1.676-0.322 0-0.82-0.102-1.185-0.296v-4.21l0.632-0.151v1.719zM14.282 17.652c0.194 0.084 0.407 0.096 0.559 0.096 0.45 0 0.79-0.277 0.79-1.254 0-0.766-0.28-1.013-0.687-1.013-0.243 0-0.419 0.066-0.662 0.199v1.972z"></path>
	<path fill="#fff" style="fill: var(--color8, #fff)" d="M19.034 17.194h0.031l1.3-3.372h0.754v4.276h-0.656v-3.1h-0.055l-1.24 3.1h-0.389l-1.24-3.028h-0.055v3.028h-0.547v-4.276h0.735l1.361 3.372z"></path>
	<path fill="#fff" style="fill: var(--color8, #fff)" d="M21.787 16.591c0-1.055 0.583-1.58 1.385-1.58s1.386 0.525 1.386 1.58c0 1.031-0.553 1.58-1.386 1.58s-1.385-0.549-1.385-1.58v0zM23.92 16.591c0-0.814-0.334-1.158-0.747-1.158-0.401 0-0.747 0.344-0.747 1.158 0 0.827 0.316 1.158 0.747 1.158s0.747-0.331 0.747-1.158v0z"></path>
	<path fill="#fff" style="fill: var(--color8, #fff)" d="M25.135 15.457c0.273-0.163 0.851-0.446 1.549-0.446 0.73 0 1.003 0.283 1.003 0.905v2.183h-0.632v-2.045c0-0.476-0.237-0.561-0.547-0.561-0.243 0-0.553 0.109-0.741 0.217v2.388h-0.632v-2.642z"></path>
	<path fill="#fff" style="fill: var(--color8, #fff)" d="M30.768 17.435v0.458c-0.273 0.157-0.638 0.278-1.075 0.278-1.021 0-1.44-0.627-1.44-1.58 0-0.917 0.468-1.58 1.379-1.58 0.76 0 1.228 0.489 1.228 1.472v0.223h-1.981c0 0.724 0.298 1.043 0.924 1.043 0.328 0 0.632-0.115 0.966-0.314v0zM28.89 16.301h1.391c-0.030-0.633-0.34-0.886-0.668-0.886-0.371 0-0.656 0.284-0.723 0.886v0z"></path>
	<path fill="#fff" style="fill: var(--color8, #fff)" d="M33.223 15.113h0.65l-1.1 3.016c-0.304 0.832-0.675 1.266-1.373 1.266v-0.494c0.413 0 0.668-0.326 0.814-0.772l-1.167-3.016h0.668l0.778 2.219h0.036l0.693-2.219z"></path>
</svg>
