<svg version="1.1" xmlns="http://www.w3.org/2000/svg" xmlns:xlink="http://www.w3.org/1999/xlink" id="whatsapp-header" viewBox="0 0 32 32">
<title>whatsapp-header</title>
<path fill="#4caf50" style="fill: var(--color10, #4caf50)" d="M16.004 0h-0.008c-8.823 0-15.996 7.176-15.996 16 0 3.5 1.128 6.744 3.045 9.379l-1.992 5.941 6.151-1.965c2.466 1.657 5.503 2.645 8.77 2.645 0.010 0 0.021 0 0.031-0h-0.002c8.821 0 15.996-7.179 15.996-16 0-8.823-7.173-16-15.996-16z"></path>
<path fill="#fafafa" style="fill: var(--color11, #fafafa)" d="M25.313 22.593c-0.385 1.091-1.917 1.995-3.139 2.259-0.837 0.179-1.929 0.32-5.605-1.204-4.701-1.948-7.729-6.727-7.965-7.036-0.227-0.309-1.9-2.529-1.9-4.827 0-2.296 1.167-3.413 1.636-3.893 0.387-0.393 1.024-0.573 1.636-0.573 0.197 0 0.376 0.009 0.536 0.017 0.469 0.020 0.707 0.048 1.016 0.791 0.387 0.929 1.325 3.225 1.439 3.461s0.227 0.556 0.067 0.867c-0.149 0.32-0.281 0.461-0.517 0.733s-0.46 0.48-0.696 0.772c-0.216 0.253-0.46 0.525-0.188 0.996 0.272 0.46 1.212 1.993 2.596 3.227 1.787 1.589 3.235 2.097 3.752 2.313 0.387 0.16 0.847 0.121 1.128-0.177 0.359-0.387 0.8-1.027 1.251-1.657 0.32-0.451 0.724-0.507 1.147-0.347 0.432 0.149 2.719 1.28 3.188 1.513 0.471 0.236 0.78 0.348 0.895 0.547 0.112 0.197 0.112 1.127-0.275 2.219z"></path>
</svg>