    <svg version="1.1" xmlns="http://www.w3.org/2000/svg" xmlns:xlink="http://www.w3.org/1999/xlink" id="windows" viewBox="0 0 32 32">
      <title>windows</title>
      <path d="M30.667 0c-0.095 0.001-0.187 0.013-0.275 0.034l0.008-0.002v-0.004l-13.403 1.995v12.523h15.003v-13.092c0-0.804-0.597-1.454-1.333-1.454zM14.324 2.418l-13.164 1.961c-0.663 0.094-1.159 0.711-1.159 1.44v8.727h14.324v-12.128zM0 17.454v8.729c0 0.747 0.519 1.369 1.2 1.445l13.124 1.956v-12.132h-14.324zM17.001 17.454v12.523l13.401 1.995c0.087 0.018 0.176 0.028 0.265 0.028 0.736 0 1.333-0.651 1.333-1.454v-13.092h-15.001z"></path>
    </svg>