    <svg version="1.1" xmlns="http://www.w3.org/2000/svg" xmlns:xlink="http://www.w3.org/1999/xlink" id="wiretransfer" viewBox="0 0 53 32">
      <title>wiretransfer</title>
      <path fill="#5090fc" style="fill: var(--color13, #5090fc)" d="M2.044 0h49.244c1.129 0 2.044 0.915 2.044 2.044v27.911c0 1.129-0.915 2.044-2.044 2.044h-49.244c-1.129 0-2.044-0.915-2.044-2.044v-27.911c0-1.129 0.915-2.044 2.044-2.044z"></path>
      <path fill="#fff" style="fill: var(--color8, #fff)" d="M26.182 5.333c-0.1 0.001-0.2 0.019-0.294 0.055v-0.002l-0.021 0.009c-0.017 0.007-0.035 0.014-0.052 0.022l-8.53 3.75c-0.505 0.212-0.836 0.727-0.836 1.3 0 0.371 0.14 0.727 0.389 0.99s0.587 0.41 0.938 0.41h16.811c0.733 0 1.327-0.627 1.327-1.4-0-0.573-0.332-1.088-0.836-1.3v-0.002l-0.010-0.004-8.565-3.764c-0.004-0.001-0.008-0.002-0.012-0.004l-0.016-0.007v0.002c-0.094-0.036-0.194-0.054-0.294-0.055zM26.182 8.133c0.488 0 0.885 0.418 0.885 0.933s-0.396 0.933-0.885 0.933c-0.488 0-0.885-0.418-0.885-0.933s0.396-0.933 0.885-0.933zM18.218 13.733v7.467h-0.885c-0.319-0.005-0.616 0.172-0.777 0.463s-0.161 0.65 0 0.941c0.161 0.291 0.458 0.468 0.777 0.463h17.696c0.319 0.005 0.616-0.172 0.777-0.463s0.161-0.65 0-0.941c-0.161-0.291-0.458-0.468-0.777-0.463h-0.885v-7.467h-1.77v7.467h-1.77v-7.467h-1.77v7.467h-1.77v-7.467h-1.77v7.467h-1.77v-7.467h-1.77v7.467h-1.77v-7.467h-1.77zM15.564 24.933c-0.319-0.005-0.616 0.172-0.777 0.463s-0.161 0.65 0 0.941c0.161 0.291 0.458 0.468 0.777 0.463h21.235c0.319 0.005 0.616-0.172 0.777-0.463s0.161-0.65 0-0.941c-0.161-0.291-0.458-0.468-0.777-0.463h-21.235z"></path>
    </svg>