<svg version="1.1" xmlns="http://www.w3.org/2000/svg" viewBox="0 0 32 32">
    <path fill="#d33f45" style="fill: var(--color1, #d33f45)" opacity="0.1"
        d="M32 16c0 8.837-7.163 16-16 16s-16-7.163-16-16c0-8.837 7.163-16 16-16s16 7.163 16 16z"></path>
    <path fill="#d33f45" style="fill: var(--color1, #d33f45)"
        d="M22.48 19.464c0.116 0.116 0.188 0.276 0.188 0.453s-0.072 0.337-0.188 0.453l-0 0-2.111 2.108c-0.116 0.116-0.276 0.188-0.453 0.188s-0.337-0.072-0.453-0.188l-0-0-3.463-3.492-3.464 3.493c-0.116 0.116-0.276 0.188-0.453 0.188s-0.337-0.072-0.453-0.188l-2.108-2.109c-0.116-0.116-0.188-0.276-0.188-0.453s0.072-0.337 0.188-0.453l0-0 3.492-3.464-3.493-3.464c-0.116-0.116-0.188-0.276-0.188-0.453s0.072-0.337 0.188-0.453l2.109-2.108c0.116-0.116 0.276-0.188 0.453-0.188s0.337 0.072 0.453 0.188l0 0 3.464 3.492 3.464-3.493c0.116-0.116 0.276-0.188 0.453-0.188s0.337 0.072 0.453 0.188l2.108 2.109c0.116 0.116 0.188 0.276 0.188 0.453s-0.072 0.337-0.188 0.453l-0 0-3.492 3.464 3.493 3.464z">
    </path>
</svg>