    <svg version="1.1" xmlns="http://www.w3.org/2000/svg" xmlns:xlink="http://www.w3.org/1999/xlink" id="withdrawal-done-spinner" viewBox="0 0 32 32">
      <path fill="#6ab914" style="fill: var(--color1, #6ab914)" opacity="0.2" d="M16 0c-8.839 0-16 7.161-16 16s7.161 16 16 16 16-7.161 16-16-7.161-16-16-16zM26.020 12.6l-11.871 11.872c-0.187 0.187-0.445 0.303-0.73 0.303s-0.543-0.116-0.73-0.303l-6.709-6.712c-0.187-0.187-0.302-0.445-0.302-0.729s0.115-0.543 0.302-0.729v0l1.46-1.46c0.187-0.187 0.445-0.303 0.73-0.303s0.543 0.116 0.73 0.303l4.52 4.52 9.68-9.681c0.187-0.187 0.445-0.303 0.73-0.303s0.543 0.116 0.73 0.303l1.46 1.46c0.187 0.187 0.302 0.445 0.302 0.729s-0.115 0.543-0.302 0.729v0z"></path>
      <path fill="#6bb817" style="fill: var(--color2, #6bb817)" d="M14.149 24.472c-0.187 0.187-0.445 0.303-0.73 0.303s-0.543-0.116-0.73-0.303l-6.709-6.712c-0.187-0.187-0.302-0.445-0.302-0.729s0.115-0.543 0.302-0.729v0l1.46-1.46c0.187-0.187 0.445-0.303 0.73-0.303s0.543 0.116 0.73 0.303l4.52 4.52 9.68-9.681c0.187-0.187 0.445-0.303 0.73-0.303s0.543 0.116 0.73 0.303l1.46 1.46c0.187 0.187 0.302 0.445 0.302 0.729s-0.115 0.543-0.302 0.729v0l-11.871 11.872z"></path>
    </svg>