<svg width="24" height="24" viewBox="0 0 24 24" fill="#629DFF" xmlns="http://www.w3.org/2000/svg">
<path d="M22.0312 18.0607V15.7505C22.0312 15.1425 21.7343 14.5563 21.2166 14.1421C21.2049 14.1327 21.1928 14.124 21.181 14.1149C21.4782 13.7394 21.6562 13.2655 21.6562 12.7505C21.6562 11.7815 21.0272 10.9572 20.1562 10.6631V2.10986C20.1562 0.946754 19.21 0.000488281 18.0469 0.000488281H5.85938C4.69627 0.000488281 3.75 0.946754 3.75 2.10986V10.6631C2.87906 10.9572 2.25 11.7815 2.25 12.7505C2.25 13.266 2.4285 13.7404 2.72625 14.1161C2.20388 14.5196 1.875 15.1028 1.875 15.7505V18.0607C0.821813 18.1777 0 19.0728 0 20.1567V21.8911C0 23.0542 0.946266 24.0005 2.10938 24.0005H21.7969C22.96 24.0005 23.9062 23.0542 23.9062 21.8911V20.1567C23.9062 19.0728 23.0844 18.1777 22.0312 18.0607ZM14.5312 18.0474V15.7505C14.5312 15.1425 14.2343 14.5563 13.7166 14.1421C13.7049 14.1327 13.6928 14.124 13.681 14.1149C13.8363 13.9186 13.9588 13.6955 14.0405 13.4536H17.3657C17.4476 13.6961 17.5705 13.9196 17.7262 14.1161C17.2039 14.5196 16.875 15.1028 16.875 15.7505V18.0474H14.5312ZM7.03125 18.0474V15.7505C7.03125 15.1425 6.7343 14.5563 6.21661 14.1421C6.20494 14.1327 6.1928 14.124 6.18098 14.1149C6.33628 13.9186 6.45881 13.6955 6.54052 13.4536H9.86573C9.94763 13.6961 10.0705 13.9196 10.2262 14.1161C9.70388 14.5196 9.375 15.1028 9.375 15.7505V18.0474H7.03125ZM3.28125 15.7505C3.28125 15.326 3.82889 14.9536 4.45312 14.9536C4.78795 14.9536 5.11045 15.0581 5.33812 15.2402C5.44523 15.3259 5.625 15.5062 5.625 15.7505V18.0474H3.28125V15.7505ZM11.9531 13.5474C11.5137 13.5474 11.1562 13.1899 11.1562 12.7505C11.1562 12.3111 11.5137 11.9536 11.9531 11.9536C12.3925 11.9536 12.75 12.3111 12.75 12.7505C12.75 13.1899 12.3925 13.5474 11.9531 13.5474ZM10.7812 15.7505C10.7812 15.326 11.3289 14.9536 11.9531 14.9536C12.288 14.9536 12.6105 15.0581 12.8381 15.2402C12.9452 15.3259 13.125 15.5062 13.125 15.7505V18.0474H10.7812V15.7505ZM18.2812 15.7505C18.2812 15.326 18.8289 14.9536 19.4531 14.9536C19.788 14.9536 20.1105 15.0581 20.3381 15.2402C20.4452 15.3259 20.625 15.5062 20.625 15.7505V18.0474H18.2812V15.7505ZM19.4531 13.5474C19.0137 13.5474 18.6562 13.1899 18.6562 12.7505C18.6562 12.3111 19.0137 11.9536 19.4531 11.9536C19.8925 11.9536 20.25 12.3111 20.25 12.7505C20.25 13.1899 19.8925 13.5474 19.4531 13.5474ZM5.85938 1.40674H18.0469C18.4346 1.40674 18.75 1.72216 18.75 2.10986V10.6631C18.1 10.8827 17.5852 11.3974 17.3657 12.0474H14.0405C13.7463 11.1764 12.9221 10.5474 11.9531 10.5474C10.9842 10.5474 10.1599 11.1764 9.86573 12.0474H6.54052C6.32095 11.3974 5.80622 10.8826 5.15625 10.6631V2.10986C5.15625 1.72216 5.47167 1.40674 5.85938 1.40674ZM3.65625 12.7505C3.65625 12.3111 4.01372 11.9536 4.45312 11.9536C4.89253 11.9536 5.25 12.3111 5.25 12.7505C5.25 13.1899 4.89253 13.5474 4.45312 13.5474C4.01372 13.5474 3.65625 13.1899 3.65625 12.7505ZM22.5 21.8911C22.5 22.2788 22.1846 22.5942 21.7969 22.5942H2.10938C1.72167 22.5942 1.40625 22.2788 1.40625 21.8911V20.1567C1.40625 19.769 1.72167 19.4536 2.10938 19.4536H21.7969C22.1846 19.4536 22.5 19.769 22.5 20.1567V21.8911Z" fill="inherit"/>
<path d="M10.5797 9.08927C10.7501 9.17922 10.9358 9.22375 11.1209 9.22371C11.3497 9.22371 11.5775 9.15569 11.7742 9.0213L14.4014 7.22627C14.7165 7.01093 14.9052 6.65454 14.9062 6.27288C14.9073 5.89127 14.7206 5.53385 14.4067 5.31682L14.4068 5.31686L11.7796 3.49952C11.4242 3.25371 10.9656 3.22554 10.5826 3.42625C10.1998 3.62697 9.96202 4.02016 9.96202 4.45239V8.06468C9.96197 8.49555 10.1987 8.88813 10.5797 9.08927ZM11.3682 4.92489L13.3105 6.26843L11.3682 7.59555V4.92489Z" fill="inherit"/>
</svg>
