<svg width="31" height="31" viewBox="0 0 31 31" fill="white" xmlns="http://www.w3.org/2000/svg">
<path d="M18.0422 15.2962L14.5701 13.6587C14.2671 13.5165 14.0182 13.6759 14.0182 14.0149V17.0993C14.0182 17.4384 14.2671 17.5978 14.5701 17.4556L18.0406 15.8181C18.3452 15.6743 18.3452 15.4399 18.0422 15.2962ZM15.5641 0.557129C7.36784 0.557129 0.723633 7.27275 0.723633 15.5571C0.723633 23.8415 7.36784 30.5571 15.5641 30.5571C23.7604 30.5571 30.4046 23.8415 30.4046 15.5571C30.4046 7.27275 23.7604 0.557129 15.5641 0.557129ZM15.5641 21.6509C7.96764 21.6509 7.8347 20.9587 7.8347 15.5571C7.8347 10.1556 7.96764 9.46338 15.5641 9.46338C23.1606 9.46338 23.2935 10.1556 23.2935 15.5571C23.2935 20.9587 23.1606 21.6509 15.5641 21.6509Z" fill="inherit"/>
</svg>
