<svg width="41" height="48" viewBox="0 0 41 48" fill="#fff" xmlns="http://www.w3.org/2000/svg">
<path d="M3.11998 23.9601C3.11998 29.4961 3.91997 33.768 5.51996 36.776C7.15195 39.784 10.0959 41.288 14.3519 41.288C18.5759 41.288 21.4879 39.784 23.0878 36.776C24.7198 33.768 25.5358 29.4961 25.5358 23.9601C25.5358 18.4881 24.7358 14.2642 23.1358 11.2882C21.5359 8.31222 18.6079 6.82423 14.3519 6.82423C10.0959 6.82423 7.15195 8.31222 5.51996 11.2882C3.91997 14.2642 3.11998 18.4881 3.11998 23.9601ZM23.3758 23.9601C23.3758 27.1921 23.1358 29.9121 22.6559 32.1201C22.2079 34.296 21.3119 36.04 19.9679 37.352C18.6559 38.632 16.7839 39.272 14.3519 39.272C11.8879 39.272 9.98393 38.632 8.63994 37.352C7.32795 36.04 6.43196 34.296 5.95196 32.1201C5.50396 29.9121 5.27997 27.1921 5.27997 23.9601C5.27997 20.7601 5.50396 18.0722 5.95196 15.8962C6.43196 13.7202 7.32795 12.0082 8.63994 10.7602C9.98393 9.48021 11.8879 8.84021 14.3519 8.84021C16.7839 8.84021 18.6559 9.48021 19.9679 10.7602C21.3119 12.0082 22.2079 13.7202 22.6559 15.8962C23.1358 18.0722 23.3758 20.7601 23.3758 23.9601Z" fill="inherit"/>
<path d="M32.222 17.13C32.978 17.13 33.602 17.376 34.094 17.868C34.598 18.348 34.85 18.99 34.85 19.794C34.85 20.598 34.604 21.24 34.112 21.72C33.62 22.2 32.99 22.44 32.222 22.44C31.454 22.44 30.824 22.2 30.332 21.72C29.84 21.24 29.594 20.598 29.594 19.794C29.594 18.99 29.84 18.348 30.332 17.868C30.824 17.376 31.454 17.13 32.222 17.13ZM39.386 17.292L32.096 30H30.476L37.766 17.292H39.386ZM30.746 19.794C30.746 20.274 30.878 20.664 31.142 20.964C31.418 21.264 31.772 21.414 32.204 21.414C32.648 21.414 33.008 21.264 33.284 20.964C33.56 20.664 33.698 20.274 33.698 19.794C33.698 19.314 33.56 18.924 33.284 18.624C33.008 18.324 32.648 18.174 32.204 18.174C31.772 18.174 31.418 18.324 31.142 18.624C30.878 18.924 30.746 19.314 30.746 19.794ZM37.658 24.852C38.426 24.852 39.05 25.092 39.53 25.572C40.022 26.052 40.268 26.694 40.268 27.498C40.268 28.302 40.022 28.95 39.53 29.442C39.05 29.922 38.426 30.162 37.658 30.162C36.902 30.162 36.272 29.922 35.768 29.442C35.276 28.95 35.03 28.302 35.03 27.498C35.03 26.694 35.276 26.052 35.768 25.572C36.26 25.092 36.89 24.852 37.658 24.852ZM36.182 27.498C36.182 27.978 36.314 28.368 36.578 28.668C36.854 28.968 37.214 29.118 37.658 29.118C38.09 29.118 38.438 28.968 38.702 28.668C38.978 28.368 39.116 27.978 39.116 27.498C39.116 27.018 38.978 26.628 38.702 26.328C38.438 26.028 38.09 25.878 37.658 25.878C37.214 25.878 36.854 26.028 36.578 26.328C36.314 26.628 36.182 27.018 36.182 27.498Z" fill="inherit"/>
</svg>
